<svg width="27" height="25" viewBox="0 0 27 25" fill="none" xmlns="http://www.w3.org/2000/svg">
<g clip-path="url(#clip0_3_693)">
<path d="M23.6645 13.5547C23.0904 19.733 17.6236 24.2762 11.4454 23.702C5.26714 23.1279 0.723952 17.6611 1.29809 11.4828C1.79734 6.09094 6.06594 1.83482 11.4454 1.33557C8.57467 5.21725 9.39844 10.684 13.2801 13.5547C16.363 15.8263 20.5817 15.8263 23.6645 13.5547Z" stroke="#E6E7F2" stroke-width="2" stroke-linecap="round" stroke-linejoin="round"/>
<path d="M19.5706 8.63713C19.4458 8.53728 19.296 8.49984 19.1463 8.51232H16.8372L19.009 6.09095L19.2211 5.86629L19.346 5.70403C19.3834 5.65411 19.4084 5.5917 19.4333 5.54178C19.4583 5.47937 19.4708 5.41696 19.4708 5.34208C19.4833 5.17982 19.4084 5.03004 19.2711 4.94267C19.0963 4.85531 18.8966 4.81786 18.6969 4.83034H15.976C15.8387 4.81786 15.6889 4.86779 15.5766 4.95516C15.4768 5.03004 15.4268 5.15486 15.4268 5.27967C15.4268 5.46689 15.4892 5.57922 15.6141 5.62915C15.7888 5.67907 15.976 5.70403 16.1632 5.69155H17.9231C17.8482 5.7914 17.7608 5.91621 17.636 6.05351L17.1867 6.56524L16.5876 7.23923L15.9011 8.02555C15.6515 8.30014 15.4892 8.48736 15.4144 8.58721C15.2521 8.79939 15.2771 9.08646 15.4643 9.27368C15.6141 9.38601 15.7888 9.43593 15.9635 9.42345H19.1587C19.3085 9.43593 19.4583 9.38601 19.5831 9.29864C19.6705 9.21127 19.7204 9.09894 19.7204 8.97413C19.7204 8.83683 19.6705 8.7245 19.5706 8.63713Z" fill="#E6E7F2"/>
<path d="M26.7849 4.76791C26.6351 4.6431 26.4479 4.59318 26.2606 4.60566H23.3525L26.0734 1.57271L26.3231 1.28564L26.4853 1.08594C26.5352 1.02353 26.5727 0.948644 26.5976 0.873756C26.6351 0.798869 26.6476 0.7115 26.6476 0.624131C26.6725 0.42443 26.5727 0.22473 26.3979 0.12488C26.1608 0.0375107 25.9112 -0.0124144 25.6615 6.68796e-05H22.2542C22.0794 -0.0124144 21.8922 0.0375107 21.7549 0.149842C21.6426 0.249692 21.5677 0.399468 21.5802 0.561724C21.5802 0.798869 21.6551 0.936163 21.8173 0.986088C22.042 1.04849 22.2666 1.07346 22.5038 1.07346H24.7005C24.6131 1.19827 24.4883 1.34804 24.3385 1.52278L23.7644 2.17181L23.0155 2.99557L22.1293 3.98159C21.8173 4.33107 21.6176 4.55573 21.5302 4.66806C21.3181 4.93017 21.343 5.31709 21.5926 5.55423C21.7799 5.69153 22.0045 5.75394 22.2292 5.74145H26.2357C26.4354 5.76642 26.6226 5.71649 26.7849 5.60416C26.8972 5.50431 26.9721 5.35453 26.9596 5.19228C26.9721 5.03002 26.9097 4.88025 26.7849 4.76791Z" fill="#E6E7F2"/>
</g>
<defs>
<clipPath id="clip0_3_693">
<rect width="26.972" height="25" fill="white"/>
</clipPath>
</defs>
</svg>
