<svg width="110" height="110" viewBox="0 0 110 110" fill="none" xmlns="http://www.w3.org/2000/svg">
<g opacity="0.3">
<path d="M55.0001 55V109.988C24.6349 109.988 0 85.3652 0 55C0 47.5182 1.48886 40.3867 4.20383 33.8933V55H55.0001Z" fill="#E6E7F2"/>
<path d="M110 55.0002C110 85.3653 85.3776 109.988 54.9999 109.988V55.0002H110Z" fill="#E6E7F2"/>
<path d="M110 55.0001H54.9999V0C85.3776 0 110 24.6224 110 55.0001Z" fill="#E6E7F2"/>
<path d="M55.0004 0V55.0001H4.20415V33.8934C12.4742 13.9877 32.1171 0 55.0004 0Z" fill="#E6E7F2"/>
</g>
<path d="M55.0004 54.9988V99.3328C30.5184 99.3328 10.6564 79.4809 10.6564 54.9988C10.6564 48.9666 11.8567 43.2168 14.0457 37.9814V54.9988H55.0004Z" fill="#E6E7F2"/>
<path d="M99.3445 54.9988C99.3445 79.4809 79.4926 99.3328 55.0004 99.3328V54.9988H99.3445Z" fill="#E6E7F2"/>
<path d="M99.3445 54.9989H55.0004V10.6548C79.4926 10.6548 99.3445 30.5067 99.3445 54.9989Z" fill="#E6E7F2"/>
<path d="M55.0004 10.6548V54.9989H14.0457V37.9815C20.7135 21.9325 36.5506 10.6548 55.0004 10.6548Z" fill="#E6E7F2"/>
<rect x="44.9234" y="42.427" width="6.87915" height="25.1335" rx="3.40979" fill="#3F414E"/>
<rect x="58.1985" y="42.427" width="6.87915" height="25.1335" rx="3.40979" fill="#3F414E"/>
</svg>
