<svg width="134" height="105" viewBox="0 0 134 105" fill="none" xmlns="http://www.w3.org/2000/svg">
<path d="M72.6538 1.81289C72.136 -0.1599 69.3749 -0.205465 67.3796 0.209681C58.0642 2.14534 47.6474 5.5222 38.5766 8.39953C33.1978 10.1749 27.9658 12.3957 22.9514 15.0334C21.4401 15.8283 19.6995 17.4298 20.5479 18.9132C21.1602 19.9848 22.6697 20.0084 23.8976 19.8802C36.7769 18.5318 49.4673 15.3861 61.4881 10.563C64.8749 9.20451 68.2668 7.67556 71.0059 5.264C72.0129 4.37295 72.9962 3.11401 72.6538 1.81289Z" fill="#D196A8"/>
<path d="M121.046 74.2576C121.196 76.9813 120.847 79.8738 119.514 82.5234C119.489 82.574 119.462 82.6246 119.435 82.6752C119.421 82.7039 119.406 82.7309 119.391 82.7596C119.307 82.9216 119.217 83.0836 119.123 83.2423C118.659 84.0388 118.099 84.8083 117.429 85.5391C116.6 86.4453 115.571 87.2621 114.397 87.9979C114.248 88.0924 114.098 88.1835 113.945 88.273C113.607 88.4738 113.258 88.6678 112.899 88.8552C105.751 92.5982 94.7018 93.9618 88.5168 94.4512C86.9836 94.4782 85.4521 94.566 83.9274 94.7111H83.9207H83.919C81.2591 94.9625 78.6161 95.3878 76.0136 95.9869C67.0726 98.0407 58.6748 102.089 49.7051 104.018C41.68 105.745 32.6159 105.463 25.9064 100.991C24.4964 100.051 23.3697 98.7394 22.609 97.2239C21.7437 95.4992 21.0185 93.9635 20.2713 92.5122C20.1549 92.286 20.0385 92.0633 19.9205 91.8405C19.9019 91.8068 19.885 91.773 19.8665 91.7393C18.9422 90.0095 17.9403 88.3725 16.5674 86.6394C16.3616 86.3795 16.1474 86.1162 15.9231 85.8513L15.9214 85.8496C15.8101 85.7163 15.6954 85.5813 15.5756 85.4446C15.5402 85.4024 15.5031 85.3602 15.466 85.318C15.1219 84.9265 14.7576 84.5282 14.3697 84.1215C13.0271 82.7157 11.5799 81.4129 10.1885 80.0544C10.0653 79.9346 9.9422 79.8131 9.81907 79.6916C9.72125 79.5954 9.62511 79.4975 9.52728 79.3996C9.15116 79.0216 8.78178 78.6368 8.42083 78.2436C1.77035 70.9752 -1.25383 60.5358 0.48174 50.8339C2.21731 41.1336 8.67215 32.3919 17.431 27.8827C19.04 27.0541 20.7031 26.369 22.4049 25.7867C22.6292 25.7091 22.8536 25.6349 23.0796 25.5606C28.7164 23.7313 34.7462 22.9735 40.6124 21.8969C52.5235 19.7148 64.1699 16.0916 75.2175 11.1318C77.056 10.3065 78.8843 9.44248 80.7177 8.58181C80.942 8.47549 81.168 8.37086 81.3924 8.26623C87.2839 5.50872 93.2226 2.85415 99.6015 1.76397C102.344 1.29651 105.179 1.12944 107.89 1.75216C115.1 3.41274 120.177 10.8432 120.179 18.2466C120.182 26.7048 114.648 34.4609 114.81 42.9174C114.867 45.9247 115.645 48.8223 116.817 51.5967C117.919 54.2074 119.369 56.7084 120.897 59.0895C120.995 59.2414 121.093 59.3916 121.192 59.5435C122.226 61.1416 123.302 62.7229 124.345 64.3194L120.843 72.2071C120.939 72.8754 121.009 73.5606 121.046 74.2576Z" fill="#D196A8"/>
<path d="M119.514 82.5233C119.489 82.574 119.462 82.6246 119.435 82.6752L42.0967 90.5832L42.036 90.59L15.5757 85.4445C15.5403 85.4023 15.5032 85.3602 15.4661 85.318C15.122 84.9264 14.7577 84.5282 14.3697 84.1215C13.0272 82.7157 11.58 81.4129 10.1885 80.0544C10.0654 79.9346 9.94226 79.8131 9.81914 79.6916L79.4663 76.3535L111.806 74.8043L119.902 74.3251L121.046 74.2576C121.196 76.9813 120.847 79.8738 119.514 82.5233Z" fill="#B29EEF"/>
<path d="M81.3924 8.26619V54.5094C81.3924 54.695 81.2406 54.8469 81.055 54.8469C80.8678 54.8469 80.7177 54.695 80.7177 54.5094V8.58177C80.942 8.47545 81.168 8.37082 81.3924 8.26619Z" fill="#D9A5B5"/>
<path d="M119.391 82.7596C119.307 82.9216 119.217 83.0836 119.123 83.2422C118.659 84.0387 118.099 84.8083 117.429 85.539C116.6 86.4452 115.571 87.262 114.397 87.9978C114.248 88.0923 114.098 88.1834 113.945 88.2729L52.6635 95.3185L43.0226 96.4273L42.8556 93.3609L42.7308 91.081L42.746 91.0793L47.8177 90.5292L119.391 82.7596Z" fill="white"/>
<path d="M23.0796 25.5606V74.4668C23.0796 74.6541 22.9295 74.8043 22.7422 74.8043C22.5567 74.8043 22.4049 74.6541 22.4049 74.4668V25.7867C22.6292 25.7091 22.8536 25.6348 23.0796 25.5606Z" fill="#D9A5B5"/>
<path d="M48.9933 49.2982C48.0572 47.4705 46.239 46.2892 43.5656 45.7627C43.564 45.761 43.5623 45.761 43.5589 45.761C41.9195 45.437 39.9596 45.3577 37.6809 45.5264C27.173 46.3078 19.4431 48.3785 14.707 51.6794C11.4736 53.934 10.1074 58.1378 11.3876 61.9045L17.2487 79.1533L17.4478 79.7405L32.6935 78.6672L36.2422 78.4175L36.3147 78.4124L36.3603 78.3567C36.3619 78.3533 36.3754 78.3382 36.399 78.3095C36.8393 77.7796 40.8518 72.8923 44.3297 67.1191C49.2767 58.9107 50.8453 52.9147 48.9933 49.2982ZM36.1477 78.085L24.0645 78.9372L18.5121 79.3271H18.5104L17.6839 79.3861L17.6013 79.1414L11.7064 61.7948C10.4751 58.1715 11.789 54.1247 14.9009 51.9561C18.3974 49.5176 23.5585 47.7574 30.295 46.6993C30.3068 46.6976 30.3203 46.6959 30.3355 46.6926C32.6125 46.3365 35.0716 46.0614 37.7062 45.864C38.4804 45.8066 39.2174 45.7779 39.9174 45.7779C44.495 45.7779 47.4416 47.0098 48.6931 49.4535C52.8777 57.6264 37.1209 76.9088 36.1477 78.085Z" fill="#FEECD6"/>
<path d="M18.5897 79.5634L12.5717 61.8488C11.3151 58.1513 12.6273 54.0488 15.8286 51.8178C19.5494 49.224 26.3365 46.615 38.7182 45.6953C66.2664 43.6482 37.2559 78.2488 37.2559 78.2488L18.5897 79.5634Z" fill="#FEECD6"/>
<path d="M68.9617 16.7227C69.0933 16.203 69.1236 15.7304 69.1135 15.2664C69.1017 14.804 69.0427 14.3416 69.0089 13.837C68.9634 13.5214 68.8926 13.2075 68.7964 12.9004C68.4169 11.6667 67.6613 10.5209 66.678 9.68382C64.7113 8.01142 62.0397 7.39546 59.4608 7.31108C55.595 7.18282 51.4053 8.33206 49.0996 11.4389C47.1313 14.0884 46.8952 17.5885 46.0029 20.7662C44.5372 25.9926 41.196 30.5171 37.3639 34.358C35.1189 36.6092 32.5502 38.9027 31.9598 42.0281C31.3813 45.0944 32.987 48.3008 35.4546 50.2078C36.3536 50.9031 37.374 51.46 38.4771 51.7334C39.5987 52.0118 40.7794 51.9899 41.9179 51.7958C45.4126 51.2001 48.4132 49.0619 51.3682 47.1043C51.6634 46.9086 51.9619 46.7128 52.2588 46.4968C54.4042 44.8818 54.5728 42.0129 56.2595 39.9878C56.5547 39.5861 56.8583 39.3026 57.1652 39.1136C61.1508 38.9752 67.7288 36.7814 68.7593 42.4044C68.8673 42.7149 68.9752 43.0237 69.095 43.3191C69.5757 44.4987 70.2436 45.4657 71.7447 45.5416C72.0044 45.5619 72.2676 45.5703 72.5324 45.5669C73.853 45.5484 75.1905 45.2092 76.1064 44.2844C77.0796 43.3022 77.3984 41.8391 77.4085 40.4569C77.4237 38.5314 76.9177 36.6042 75.9597 34.9352C75.5903 34.2905 75.1602 33.6914 74.6913 33.1193C74.4568 32.8341 74.214 32.554 73.9626 32.2856C70.4274 29.8623 68.0661 25.8121 68.5417 21.4497C68.5468 21.0278 68.5653 20.6076 68.594 20.184C68.6817 18.9183 68.8673 17.6408 69.0663 16.3818L68.9617 16.7227Z" fill="#3F4553"/>
<path d="M67.3458 17.4146C66.5497 19.7823 67.5853 22.226 69.0965 24.0654C70.9788 26.3572 73.411 28.0498 75.0268 30.5812C76.6426 33.1143 77.9447 36.3274 77.2869 39.3803C77.0171 40.6358 76.3272 41.1472 75.1365 41.4712C74.1363 41.7429 73.2052 42.0331 72.3433 42.6322C72.1443 42.7706 72.3332 43.0997 72.5356 42.9596C73.5358 42.2643 74.6153 42.0669 75.742 41.6906C76.447 41.4543 77.0255 41.0695 77.3612 40.3861C78.498 38.0673 77.6057 34.8812 76.6089 32.689C75.3557 29.9315 73.4414 27.8625 71.2791 25.7969C69.0678 23.6857 66.607 20.805 67.7135 17.5159C67.791 17.283 67.4234 17.1834 67.3458 17.4146Z" fill="#4E5567"/>
<path d="M54.6251 36.9939L56.5816 35.5612L59.0846 34.3799L66.774 36.9939L70.058 71.7768L61.5707 73.9115L55.7197 56.2763L54.6251 36.9939Z" fill="white"/>
<path d="M70.2503 32.0342C73.4414 32.6721 76.4504 34.4761 78.1388 37.318C79.8946 40.273 79.9249 44.1376 77.9802 47.0065C77.8436 47.209 78.1708 47.3997 78.3074 47.1988C80.2758 44.2928 80.2876 40.3877 78.5925 37.3484C76.8957 34.304 73.7113 32.3414 70.3498 31.6697C70.112 31.6191 70.0108 31.9853 70.2503 32.0342Z" fill="#4E5567"/>
<path d="M44.4023 27.5367C41.9078 29.5028 39.5195 31.6004 37.0283 33.5715C35.0633 35.1258 32.8605 36.5079 31.4809 38.6596C28.7535 42.9123 30.7337 48.1607 34.4915 51.0228C36.6015 52.6311 39.4638 53.9086 42.1338 53.0901C42.3665 53.0193 42.267 52.6514 42.0326 52.7239C39.5835 53.4749 36.9675 52.3543 34.9891 50.9216C33.0208 49.4973 31.4269 47.4755 30.8214 45.0927C30.2327 42.7739 30.7134 40.3101 32.1285 38.3862C33.5015 36.5197 35.5035 35.2591 37.2964 33.8415C39.7876 31.8721 42.1759 29.7728 44.6705 27.8067C44.8628 27.6549 44.5929 27.3865 44.4023 27.5367Z" fill="#4E5567"/>
<path d="M77.3309 81.3825L51.8186 80.7699C51.8186 80.0831 52.3347 79.5076 53.0178 79.4351L79.3667 76.5881L77.3309 81.3825Z" fill="#400F58"/>
<path d="M48.2192 18.2314C47.919 21.1661 47.3067 24.1059 46.0418 26.7874C44.7869 29.4488 42.8135 31.5245 40.7979 33.6205C38.9966 35.4937 37.1834 37.4715 36.303 39.9675C35.5676 42.0466 35.7228 44.3012 36.7061 46.2723C37.6894 48.2417 39.4891 49.6812 41.7543 49.634C41.9988 49.6289 41.9988 49.2492 41.7543 49.2543C39.4587 49.3015 37.735 47.7219 36.8613 45.7019C35.8156 43.2836 36.1461 40.7151 37.4128 38.4436C38.7014 36.1333 40.6849 34.3242 42.4795 32.4172C44.1982 30.5912 45.6724 28.6387 46.6658 26.32C47.7655 23.7532 48.3171 20.999 48.5987 18.2314C48.6223 17.9884 48.2428 17.9901 48.2192 18.2314Z" fill="#4E5567"/>
<path d="M67.1232 25.2569C67.108 28.5392 69.8168 30.6993 71.8307 32.9235C73.0215 34.2399 74.0857 35.7671 74.2004 37.5965C74.3134 39.3988 73.5646 41.1505 72.2372 42.3571C72.0567 42.5225 72.3249 42.7892 72.5053 42.6255C74.8818 40.4654 75.1686 37.021 73.4516 34.3715C71.5102 31.3743 67.4842 29.2311 67.5027 25.2569C67.5044 25.0122 67.1249 25.0122 67.1232 25.2569Z" fill="#4E5567"/>
<path d="M65.6828 36.6581C66.4165 38.2225 65.7688 40.0603 66.0167 41.7715C67.4605 51.7502 67.1012 61.9668 67.2564 72.0248C67.28 73.5521 67.3458 75.2059 68.3055 76.3957C68.4877 76.6218 68.7103 76.8327 68.9886 76.9205C69.2079 76.9897 69.444 76.9762 69.6751 76.9627C72.9354 76.7652 76.1957 76.5678 79.456 76.3703C78.3968 70.106 77.3375 63.84 76.2783 57.5757C78.8218 60.7332 81.3636 63.8907 83.9071 67.0481C84.9832 64.2299 86.0576 61.4116 87.1336 58.5917C87.2618 58.2541 87.3934 57.8997 87.3445 57.542C87.3006 57.2247 87.1201 56.9463 86.943 56.6796C84.4586 52.9382 81.8494 49.2813 79.1052 45.7255C77.4404 43.5671 75.6981 41.4205 73.4852 39.8308C71.1931 38.1803 68.3747 37.3078 65.6828 36.6581Z" fill="#FB7C85"/>
<path d="M78.1506 75.054C78.1556 75.2717 77.9887 75.4557 77.8082 75.5755C77.4759 75.7932 77.0762 75.8759 76.6832 75.9299C74.9038 76.1712 73.0569 75.8877 71.4309 75.1266C72.0921 76.0176 72.7516 76.907 73.4128 77.798C73.5005 77.9162 73.5932 78.0579 73.5544 78.1997C73.5241 78.3145 73.4178 78.3887 73.3183 78.4511C73.1834 78.5338 73.0417 78.6081 72.8983 78.6739C72.136 79.0283 71.2724 79.1633 70.4392 79.0519C68.6615 78.814 67.1586 77.5179 65.3792 77.2816C64.4802 77.1601 63.5694 77.3205 62.662 77.3728C61.7546 77.4234 60.7881 77.3491 60.046 76.826C59.8672 76.7011 59.7003 76.5459 59.6193 76.3434C59.4118 75.8337 59.8048 75.297 60.1236 74.8481C60.2231 74.7081 60.3159 74.5646 60.4036 74.4178C60.864 73.6584 61.1778 72.8129 61.3245 71.9371C62.3044 71.878 63.5475 71.5472 64.4937 71.2924C65.8717 70.9228 67.3543 70.3541 68.6648 70.9161C68.9701 71.0477 69.2484 71.235 69.525 71.4207C71.8155 72.9614 74.3151 74.5039 77.0762 74.5022C77.5265 74.5022 78.1421 74.6034 78.1506 75.054Z" fill="#FFB9A3"/>
<path d="M72.8983 78.674C72.136 79.0284 71.2724 79.1634 70.4392 79.0521C68.6615 78.8141 67.1586 77.5181 65.3792 77.2818C64.4802 77.1603 63.5694 77.3206 62.662 77.3729C61.7546 77.4235 60.7881 77.3493 60.046 76.8261C59.8672 76.7013 59.7003 76.546 59.6193 76.3435C59.4118 75.8338 59.8048 75.2972 60.1236 74.8483C60.2231 74.7082 60.3159 74.5648 60.4036 74.418C61.0513 74.8837 62.4056 75.4541 64.9879 75.1352C69.0781 74.6289 68.2347 76.9915 71.1442 77.8353C72.0803 78.107 72.6099 78.4007 72.8983 78.674Z" fill="#FF9B8D"/>
<path d="M68.2246 12.1392C66.4874 6.52123 59.9448 5.24373 54.8494 6.54317C52.3869 7.17095 50.0661 8.47883 48.4452 10.4634C46.5308 12.8075 45.7718 15.8283 45.3299 18.7613C45.0415 20.6733 44.8914 22.6107 44.4461 24.4957C44.1864 25.596 43.6062 26.5664 43.2132 27.6211C43.1272 27.8506 43.4949 27.9502 43.5792 27.7224C43.8744 26.9292 44.3095 26.1934 44.5895 25.3986C45.0128 24.2004 45.1596 22.8756 45.3283 21.6217C45.728 18.6482 46.0333 15.5886 47.3725 12.8564C49.7321 8.04343 55.2036 5.94914 60.3361 6.57186C63.782 6.98869 66.791 8.79272 67.8569 12.2405C67.9311 12.4733 68.2971 12.3738 68.2246 12.1392Z" fill="#4E5567"/>
<path d="M55.7535 20.8945C53.996 20.3645 53.1172 21.0767 52.9064 22.3171C52.6939 23.5558 53.8189 24.8417 55.0737 24.7978C55.1952 26.3268 55.4128 27.8709 56.0301 29.275C56.6457 30.6791 57.7049 31.9431 59.1217 32.527C60.7004 33.1801 62.6299 32.878 63.9354 31.776C64.4583 31.3339 64.8783 30.7837 65.2746 30.2251C66.4856 28.5173 67.5364 26.6525 67.9969 24.6088C68.4573 22.5652 68.2752 20.3173 67.167 18.5403C67.0473 18.3479 66.9073 18.1538 66.7049 18.0509C66.4165 17.9041 66.0707 17.9749 65.7587 18.0559C62.3888 18.9436 59.2364 20.9046 55.7535 20.8945Z" fill="#FFB9A3"/>
<path d="M68.8217 13.4573C69.073 14.35 69.326 15.2596 69.2906 16.1861C69.2552 17.1126 68.8808 18.0745 68.1116 18.5926C67.4977 19.006 66.7252 19.0854 66.0253 19.3233C64.6068 19.8043 63.5105 20.9147 62.404 21.9256C61.3566 22.8824 60.041 23.8359 58.6512 23.5575C57.3727 23.3009 56.5277 22.0842 56.0065 20.8877C55.7265 20.2464 55.4972 19.5342 55.6608 18.8542C55.7552 18.4626 55.9745 18.1116 56.2174 17.791C57.6156 15.9549 59.8841 14.944 62.1628 14.593C64.4432 14.242 66.7674 14.4782 69.0612 14.7162L68.8217 13.4573Z" fill="#3F4553"/>
<path d="M56.0385 20.9569C56.531 23.8511 59.8368 25.2889 62.2656 23.5861C63.4193 22.7778 64.1631 21.5475 65.17 20.5839C66.2393 19.5612 68.1048 19.1191 68.4016 17.4804C68.4455 17.2408 68.0795 17.1395 68.0356 17.3792C67.7691 18.8423 66.0639 19.2642 65.0739 20.1536C64.2761 20.8708 63.6604 21.7618 62.9099 22.5263C61.908 23.5473 60.616 24.192 59.1588 23.8747C57.6745 23.5507 56.6524 22.3187 56.4028 20.8556C56.364 20.616 55.998 20.7189 56.0385 20.9569Z" fill="#4E5567"/>
<path d="M119.514 82.5233C119.489 82.574 119.462 82.6246 119.435 82.6752C119.421 82.7039 119.406 82.7309 119.391 82.7596C119.307 82.9216 119.217 83.0836 119.123 83.2423L47.8177 90.5293L42.7443 91.0473L42.746 91.0794L42.8556 93.361L43.004 96.4645L52.6635 95.3186L114.397 87.9979C114.248 88.0924 114.098 88.1835 113.945 88.273C113.607 88.4738 113.258 88.6678 112.899 88.8552L42.724 97.1767C42.7122 97.1783 42.6987 97.18 42.6852 97.18C42.606 97.18 42.5284 97.1513 42.4677 97.099C42.3951 97.04 42.353 96.9522 42.3479 96.8577L42.0561 90.7604C42.0527 90.6963 42.0679 90.6356 42.0966 90.5833C42.1472 90.4888 42.2433 90.4196 42.358 90.4077L119.514 82.5233Z" fill="#6737C3"/>
<path d="M42.724 90.8094C42.692 90.9697 42.5503 91.0811 42.3934 91.0811C42.3715 91.0811 42.3496 91.0794 42.3276 91.076L42.1033 91.0321L16.2469 85.9154V85.9137L15.923 85.8513L15.9213 85.8496C15.7746 85.6741 15.6228 85.4969 15.4659 85.318C15.5317 85.1897 15.6768 85.1138 15.8286 85.1442L42.4575 90.4128C42.6414 90.4499 42.7594 90.6271 42.724 90.8094Z" fill="#6737C3"/>
<path d="M43.0159 96.9117C42.9822 97.0703 42.8422 97.18 42.6853 97.18C42.6634 97.18 42.6398 97.1766 42.6162 97.1732L20.2713 92.5121C20.155 92.286 20.0386 92.0632 19.9205 91.8405C19.902 91.8067 19.8851 91.773 19.8665 91.7392L42.3159 96.4206L42.7545 96.5117C42.9366 96.5505 43.053 96.7294 43.0159 96.9117Z" fill="#6737C3"/>
<path d="M32.9836 78.9912C32.9887 79.1768 32.8437 79.3338 32.6564 79.3388L10.1885 80.0544C9.96585 79.8384 9.74658 79.6207 9.52731 79.3996L17.2488 79.1532L17.6013 79.1414L18.4396 79.1161L24.0646 78.9372L30.312 78.7381L32.6362 78.6638C32.6564 78.6638 32.675 78.6638 32.6935 78.6672C32.8521 78.6891 32.9769 78.8241 32.9836 78.9912Z" fill="#6737C3"/>
<path d="M101.626 37.2524C101.857 36.282 101.257 35.3088 100.287 35.0786C99.3172 34.8485 98.3446 35.4485 98.1145 36.4189C97.8845 37.3892 98.4842 38.3624 99.454 38.5926C100.424 38.8227 101.396 38.2227 101.626 37.2524Z" fill="#D9A5B5"/>
<path d="M99.8714 40.6999C97.7428 40.6999 96.0106 38.9668 96.0106 36.837C96.0106 34.7073 97.7428 32.9742 99.8714 32.9742C102 32.9742 103.732 34.7073 103.732 36.837C103.734 38.9668 102.002 40.6999 99.8714 40.6999ZM99.8714 33.1412C97.8356 33.1412 96.1793 34.7984 96.1793 36.8354C96.1793 38.8723 97.8356 40.5295 99.8714 40.5295C101.907 40.5295 103.563 38.8723 103.563 36.8354C103.565 34.7984 101.909 33.1412 99.8714 33.1412Z" fill="#D9A5B5"/>
<path d="M75.7117 17.1514C76.0843 17.1514 76.3863 16.8491 76.3863 16.4763C76.3863 16.1035 76.0843 15.8013 75.7117 15.8013C75.3391 15.8013 75.037 16.1035 75.037 16.4763C75.037 16.8491 75.3391 17.1514 75.7117 17.1514Z" fill="#D9A5B5"/>
<path d="M11.3152 44.9881C9.93885 44.9881 8.81891 43.8676 8.81891 42.4905C8.81891 41.1134 9.93885 39.9929 11.3152 39.9929C12.6915 39.9929 13.8114 41.1134 13.8114 42.4905C13.8114 43.8676 12.6915 44.9881 11.3152 44.9881ZM11.3152 40.3304C10.1244 40.3304 9.15624 41.2991 9.15624 42.4905C9.15624 43.6819 10.1244 44.6506 11.3152 44.6506C12.5059 44.6506 13.4741 43.6819 13.4741 42.4905C13.4741 41.2991 12.5059 40.3304 11.3152 40.3304Z" fill="#D9A5B5"/>
<path d="M32.3663 15.8013C32.3663 16.365 31.9092 16.8223 31.3459 16.8223C30.7826 16.8223 30.3255 16.365 30.3255 15.8013C30.3255 15.2376 30.7826 14.7803 31.3459 14.7803C31.9109 14.782 32.3663 15.2376 32.3663 15.8013Z" fill="#D9A5B5"/>
<path d="M127.642 56.8957L124.345 64.3194L120.843 72.2071L119.902 74.3251L117.242 80.3143L77.3326 81.3825L79.4662 76.3535L88.731 54.5196C89.2353 53.3332 90.362 52.5299 91.6472 52.4388C96.2569 52.1181 107.586 51.4195 116.817 51.5967C119.87 51.654 122.695 51.8093 124.969 52.1046C125.772 52.2093 126.458 52.5788 126.968 53.1071C127.899 54.0656 128.243 55.5456 127.642 56.8957Z" fill="#FEECD6"/>
<path d="M76.0895 81.4434L75.7758 81.3202L77.9094 75.9013L87.1759 53.848C87.7072 52.5857 88.8794 51.7402 90.2355 51.644C94.7271 51.3284 106.173 50.6146 115.421 50.7934C118.718 50.8559 121.466 51.0297 123.591 51.3082C124.402 51.4145 125.127 51.7824 125.689 52.3713C126.72 53.4429 126.998 55.0175 126.396 56.3827L118.656 73.9842L118.347 73.8475L126.087 56.246C126.634 55.0073 126.381 53.578 125.444 52.6042C124.935 52.0709 124.279 51.7385 123.545 51.6423C121.434 51.3655 118.696 51.1934 115.412 51.131C106.178 50.9521 94.7439 51.6659 90.2574 51.9815C89.0295 52.0693 87.9669 52.8354 87.4846 53.9796L78.2197 76.0296L76.0895 81.4434Z" fill="#FEECD6"/>
<path d="M106.68 67.8502C108.341 66.32 108.859 64.1791 107.837 63.0683C106.815 61.9574 104.64 62.2974 102.978 63.8276C101.317 65.3577 100.799 67.4987 101.821 68.6095C102.843 69.7203 105.018 69.3804 106.68 67.8502Z" fill="#B29EEF"/>
<path d="M76.7777 58.1564C75.985 56.5869 74.9342 55.1508 74.305 53.5003C74.1904 53.1983 73.7012 53.3299 73.8176 53.6353C74.4653 55.3297 75.5279 56.8013 76.3425 58.4129C76.4876 58.7032 76.9244 58.4467 76.7777 58.1564Z" fill="white"/>
<path d="M69.8405 73.6788C70.8997 76.0363 74.4855 76.4363 76.6816 76.1815C77.002 76.1443 77.0054 75.6381 76.6816 75.6752C74.6593 75.9098 71.2623 75.6178 70.2773 73.4239C70.1441 73.1269 69.7072 73.3851 69.8405 73.6788Z" fill="white"/>
<path d="M61.5708 71.6789C61.2959 67.0735 60.8624 62.4782 60.2704 57.9032C59.7914 54.1972 59.3394 50.4744 58.437 46.841C57.9867 45.0286 57.4233 43.2431 56.7048 41.5167C56.0251 39.8814 54.9153 38.0977 55.6051 36.2734C53.797 37.5728 52.6062 38.1044 50.5333 38.9145C48.8635 39.5675 47.1297 40.0502 45.4751 40.7421C44.5137 41.1438 43.5708 41.6213 42.7865 42.3065C41.8993 43.0811 41.2483 44.0869 40.6394 45.0944C39.9513 46.2335 39.2985 47.3963 38.7385 48.6046C37.8396 50.5436 37.1851 52.5839 36.4379 54.5854C35.1021 58.1597 33.4644 61.6175 31.6731 64.9876C30.5431 67.114 29.3287 69.2724 29.0116 71.6604C28.6945 74.0483 29.5058 76.7653 31.5972 77.9567C32.5519 78.5001 33.6701 78.6756 34.7665 78.7583C42.773 79.3574 50.363 78.2571 59.4119 77.0809C59.1808 77.1754 59.6598 77.0488 59.4119 77.0809C59.6784 76.9729 59.8319 76.7012 59.9584 76.443C60.6887 74.9511 61.4646 73.3395 61.5708 71.6789Z" fill="#FB7C85"/>
<path d="M48.5043 58.0955C47.2663 61.1956 46.2459 64.3733 45.443 67.6135C45.4093 67.7502 45.4869 67.8835 45.6201 67.9257C49.8806 69.2623 54.3604 69.4496 58.7153 70.3322C59.3073 70.452 61.1458 70.6123 61.279 71.2722C61.3718 71.7346 61.1711 72.3725 61.0766 72.8214C60.746 74.3993 60.1793 76.0396 59.0746 77.2462C58.8553 77.4859 59.2112 77.8453 59.4321 77.604C60.5757 76.3535 61.1913 74.6811 61.5438 73.0475C61.7344 72.1666 62.1831 70.8908 61.1525 70.4233C60.0562 69.9255 58.6563 69.7922 57.4773 69.5897C56.2022 69.3703 54.9203 69.1948 53.6385 69.0159C50.9786 68.6446 48.3221 68.2447 45.7534 67.438C45.8124 67.5409 45.8714 67.6456 45.9305 67.7502C46.7316 64.5083 47.7537 61.3323 48.9917 58.2322C49.1115 57.9284 48.6224 57.7968 48.5043 58.0955Z" fill="white"/>
<path d="M45.6522 67.4364C44.2522 67.6474 42.9147 68.0473 41.6244 68.6245C41.3276 68.7578 41.584 69.1932 41.8791 69.0616C43.1306 68.5013 44.431 68.1283 45.7871 67.9241C46.1076 67.8769 45.9709 67.3875 45.6522 67.4364Z" fill="white"/>
<path d="M63.1325 41.4189C61.9451 41.8492 60.6295 41.7176 59.3898 41.4695C58.1603 41.2231 56.8312 40.781 56.2004 39.6959C55.4043 38.3306 56.0469 36.6261 56.4264 35.0921C56.9138 33.1328 56.9324 31.0588 56.4837 29.0911L61.1457 29.9905L62.7277 30.296C62.6856 32.3295 63.2051 34.3715 64.2154 36.1367C64.3115 36.3038 64.411 36.4692 64.5089 36.6363C64.8765 37.2556 65.2307 37.8884 65.2678 38.5972C65.3353 39.8596 64.3216 40.9885 63.1325 41.4189Z" fill="#FFB9A3"/>
<path d="M64.509 36.6362C60.1456 36.3156 58.4826 33.2796 57.9327 31.8215C58.2936 32.1101 58.6917 32.3497 59.1218 32.5269C60.3193 33.0214 61.7176 32.9674 62.8915 32.4341C63.1124 33.7336 63.5611 34.9925 64.2155 36.1367C64.3116 36.3037 64.4111 36.4691 64.509 36.6362Z" fill="#FF9B8D"/>
<mask id="path-43-inside-1_1_3118" fill="white">
<path d="M99.8714 24.5784C94.5314 24.5784 90.1866 20.2312 90.1866 14.8883C90.1866 9.54542 94.5314 5.1982 99.8714 5.1982C105.211 5.1982 109.556 9.54542 109.556 14.8883C109.556 20.2312 105.213 24.5784 99.8714 24.5784ZM99.8714 5.36696C94.6242 5.36696 90.3553 9.63824 90.3553 14.8883C90.3553 20.1384 94.6242 24.4097 99.8714 24.4097C105.119 24.4097 109.388 20.1384 109.388 14.8883C109.388 9.63824 105.119 5.36696 99.8714 5.36696Z"/>
</mask>
<path d="M99.8714 24.5784C94.5314 24.5784 90.1866 20.2312 90.1866 14.8883C90.1866 9.54542 94.5314 5.1982 99.8714 5.1982C105.211 5.1982 109.556 9.54542 109.556 14.8883C109.556 20.2312 105.213 24.5784 99.8714 24.5784ZM99.8714 5.36696C94.6242 5.36696 90.3553 9.63824 90.3553 14.8883C90.3553 20.1384 94.6242 24.4097 99.8714 24.4097C105.119 24.4097 109.388 20.1384 109.388 14.8883C109.388 9.63824 105.119 5.36696 99.8714 5.36696Z" fill="#F9F7F1"/>
<path d="M99.8714 19.5784C97.2955 19.5784 95.1866 17.4724 95.1866 14.8883H85.1866C85.1866 22.99 91.7674 29.5784 99.8714 29.5784V19.5784ZM95.1866 14.8883C95.1866 12.3042 97.2955 10.1982 99.8714 10.1982V0.198211C91.7674 0.198211 85.1866 6.7866 85.1866 14.8883H95.1866ZM99.8714 10.1982C102.447 10.1982 104.556 12.3042 104.556 14.8883H114.556C114.556 6.7866 107.975 0.198211 99.8714 0.198211V10.1982ZM104.556 14.8883C104.556 17.473 102.448 19.5784 99.8714 19.5784V29.5784C107.978 29.5784 114.556 22.9895 114.556 14.8883H104.556ZM99.8714 0.36697C91.8602 0.36697 85.3553 6.87942 85.3553 14.8883H95.3553C95.3553 12.3971 97.3882 10.367 99.8714 10.367V0.36697ZM85.3553 14.8883C85.3553 22.8972 91.8602 29.4097 99.8714 29.4097V19.4097C97.3882 19.4097 95.3553 17.3796 95.3553 14.8883H85.3553ZM99.8714 29.4097C107.883 29.4097 114.388 22.8972 114.388 14.8883H104.388C104.388 17.3796 102.355 19.4097 99.8714 19.4097V29.4097ZM114.388 14.8883C114.388 6.87942 107.883 0.36697 99.8714 0.36697V10.367C102.355 10.367 104.388 12.3971 104.388 14.8883H114.388Z" fill="#F9F7F1" mask="url(#path-43-inside-1_1_3118)"/>
<mask id="path-45-inside-2_1_3118" fill="white">
<path d="M99.7702 14.9862L101.042 7.51021L101.209 7.5389L99.9759 14.7905C101.592 14.5863 103.951 14.269 104.115 14.1897L104.145 14.2538L104.159 14.2555L104.221 14.193L104.243 14.2842C104.223 14.3449 104.194 14.4293 99.8849 14.971L99.7702 14.9862Z"/>
</mask>
<path d="M99.7702 14.9862L101.042 7.51021L101.209 7.5389L99.9759 14.7905C101.592 14.5863 103.951 14.269 104.115 14.1897L104.145 14.2538L104.159 14.2555L104.221 14.193L104.243 14.2842C104.223 14.3449 104.194 14.4293 99.8849 14.971L99.7702 14.9862Z" fill="#F9F7F1"/>
<path d="M99.7702 14.9862L94.841 14.1477L93.7037 20.8333L100.427 19.9429L99.7702 14.9862ZM101.042 7.51021L101.889 2.58242L96.9526 1.73437L96.1127 6.67171L101.042 7.51021ZM101.209 7.5389L106.138 8.377L106.975 3.4563L102.056 2.61111L101.209 7.5389ZM99.9759 14.7905L95.0467 13.9524L93.9171 20.5959L100.603 19.751L99.9759 14.7905ZM104.115 14.1897L108.634 12.0503L106.475 7.48902L101.934 9.69053L104.115 14.1897ZM104.145 14.2538L99.6262 16.3932L100.801 18.8745L103.525 19.2151L104.145 14.2538ZM104.159 14.2555L103.538 19.2168L105.966 19.5204L107.695 17.79L104.159 14.2555ZM104.221 14.193L109.082 13.0234L106.994 4.34523L100.685 10.6585L104.221 14.193ZM104.243 14.2842L108.987 15.8645L109.439 14.5063L109.104 13.1145L104.243 14.2842ZM99.8849 14.971L99.2612 10.0101L99.2448 10.0121L99.2284 10.0143L99.8849 14.971ZM104.699 15.8247L105.971 8.34871L96.1127 6.67171L94.841 14.1477L104.699 15.8247ZM100.195 12.438L100.362 12.4667L102.056 2.61111L101.889 2.58242L100.195 12.438ZM96.2796 6.70081L95.0467 13.9524L104.905 15.6285L106.138 8.377L96.2796 6.70081ZM100.603 19.751C101.425 19.6471 102.444 19.5134 103.289 19.3941C103.708 19.335 104.111 19.2756 104.434 19.2227C104.59 19.1971 104.769 19.1664 104.937 19.1328C105.017 19.1167 105.142 19.0907 105.283 19.0552C105.29 19.0533 105.77 18.9437 106.296 18.6888L101.934 9.69053C102.252 9.5361 102.513 9.45329 102.591 9.42872C102.704 9.39321 102.792 9.3703 102.836 9.35932C102.884 9.34701 102.921 9.33879 102.94 9.33466C102.96 9.33024 102.972 9.32766 102.976 9.32697C102.977 9.32668 102.932 9.33543 102.819 9.35391C102.603 9.38919 102.285 9.43671 101.891 9.4924C101.111 9.60255 100.143 9.72957 99.349 9.82992L100.603 19.751ZM99.5958 16.3291L99.6262 16.3932L108.665 12.1144L108.634 12.0503L99.5958 16.3291ZM103.525 19.2151L103.538 19.2168L104.779 9.29415L104.766 9.29246L103.525 19.2151ZM107.695 17.79L107.758 17.7276L100.685 10.6585L100.622 10.721L107.695 17.79ZM99.36 15.3627L99.3819 15.4539L109.104 13.1145L109.082 13.0234L99.36 15.3627ZM99.4995 12.7038C99.4898 12.7331 99.6272 12.2796 99.9145 11.7849C100.233 11.2368 100.63 10.794 101.047 10.4505C101.428 10.1362 101.781 9.94219 102.007 9.83169C102.237 9.71908 102.429 9.64864 102.542 9.60993C102.661 9.56928 102.754 9.54329 102.805 9.52962C102.859 9.51526 102.895 9.50706 102.907 9.50452C102.926 9.5002 102.901 9.50618 102.807 9.52277C102.394 9.59532 101.422 9.73844 99.2612 10.0101L100.508 19.932C102.657 19.6619 103.854 19.492 104.538 19.3717C104.804 19.3249 105.295 19.2371 105.777 19.072C105.979 19.0029 106.689 18.7592 107.407 18.1673C107.835 17.8147 108.239 17.3633 108.562 16.807C108.713 16.547 108.817 16.3146 108.887 16.1391C108.92 16.0542 108.946 15.9838 108.962 15.9379C108.97 15.9149 108.976 15.896 108.98 15.8841C108.982 15.8781 108.984 15.8731 108.985 15.87C108.985 15.8687 108.986 15.8669 108.986 15.8661C108.987 15.8654 108.987 15.8647 108.987 15.8645L99.4995 12.7038ZM99.2284 10.0143L99.1137 10.0295L100.427 19.9429L100.541 19.9277L99.2284 10.0143Z" fill="#F9F7F1" mask="url(#path-45-inside-2_1_3118)"/>
<path d="M132.633 28.2422C132.243 27.0845 131.758 25.9099 130.859 25.083C129.152 23.5119 126.32 23.6857 124.422 25.0223C122.525 26.3588 121.44 28.5898 120.874 30.8394C120.354 34.4221 120.486 36.9603 121.565 40.7303C122.091 42.5664 122.901 44.389 124.314 45.6749C125.728 46.9609 127.845 47.6005 129.609 46.8698C131.292 46.1728 132.304 44.4363 132.918 42.7217C134.578 38.0909 134.2 32.9033 132.633 28.2422Z" fill="#D196A8"/>
<path d="M46.9171 56.9598C47.2089 57.1927 47.4214 57.5015 47.6997 57.7479C47.9645 57.9825 48.2714 58.1597 48.5784 58.3335C48.8635 58.4938 49.1181 58.0567 48.8331 57.8964C48.5329 57.7277 48.2293 57.5589 47.9797 57.3193C47.7368 57.0847 47.5394 56.813 47.2746 56.602C47.0216 56.4012 46.6624 56.7573 46.9171 56.9598Z" fill="white"/>
<path d="M74.2881 53.7365C74.6372 53.2404 74.9746 52.7358 75.3001 52.2244C75.4755 51.9494 75.0387 51.6945 74.8632 51.9696C74.5377 52.481 74.2004 52.9855 73.8512 53.4817C73.664 53.7483 74.1026 54.0015 74.2881 53.7365Z" fill="white"/>
<path d="M55.0384 24.9683C55.2408 27.4456 55.8395 30.9322 58.1722 32.3211C59.2348 32.9539 60.6583 33.4062 61.8997 33.2003C63.1596 32.991 64.0771 32.0578 64.8429 31.106C64.9947 30.917 64.7282 30.647 64.5747 30.8377C63.8528 31.7355 63.0112 32.6265 61.8221 32.8189C60.6026 33.0164 59.1336 32.5303 58.1266 31.8452C56.133 30.4883 55.6017 27.1925 55.4195 24.9699C55.3976 24.7252 55.0181 24.7236 55.0384 24.9683Z" fill="#FF9B8D"/>
<path d="M46.3082 84.5923H38.8869L37.3385 74.5326H48.0201L46.3082 84.5923Z" fill="white"/>
<path d="M42.5874 85.8394C44.6423 85.8394 46.3081 85.2811 46.3081 84.5923C46.3081 83.9035 44.6423 83.3452 42.5874 83.3452C40.5324 83.3452 38.8666 83.9035 38.8666 84.5923C38.8666 85.2811 40.5324 85.8394 42.5874 85.8394Z" fill="white"/>
<path d="M42.6802 75.7798C45.6303 75.7798 48.0218 75.2214 48.0218 74.5326C48.0218 73.8439 45.6303 73.2855 42.6802 73.2855C39.73 73.2855 37.3385 73.8439 37.3385 74.5326C37.3385 75.2214 39.73 75.7798 42.6802 75.7798Z" fill="white"/>
<path d="M42.6801 75.5705C45.1338 75.5705 47.1228 75.1059 47.1228 74.5327C47.1228 73.9595 45.1338 73.4948 42.6801 73.4948C40.2265 73.4948 38.2375 73.9595 38.2375 74.5327C38.2375 75.1059 40.2265 75.5705 42.6801 75.5705Z" fill="#400F58"/>
<path d="M38.0385 75.5992C36.2844 75.8455 34.5285 76.0919 32.7744 76.34C32.3764 76.3957 32.3157 76.9408 32.5518 77.1855C33.7561 78.4495 34.957 79.7169 36.1663 80.9758C37.2086 82.0626 38.2814 83.1055 39.5919 83.8633C40.1569 84.1907 40.6663 83.3165 40.1029 82.9891C38.7806 82.2229 37.7281 81.1446 36.6807 80.0476C35.5422 78.8562 34.4054 77.6614 33.2686 76.4683C33.1944 76.7501 33.1202 77.0319 33.046 77.3137C34.8001 77.0674 36.5559 76.821 38.31 76.5729C38.9493 76.4851 38.676 75.5097 38.0385 75.5992Z" fill="white"/>
<path d="M41.3072 74.5073C41.1487 74.3116 41.0002 74.1023 40.8737 73.8829C40.6815 73.5538 40.641 73.5049 40.7692 73.1319C40.8973 72.7573 41.1959 72.6392 41.4101 72.332C41.6412 72.0029 41.7221 71.6064 41.4691 71.2655C41.1773 70.874 40.5803 70.7744 40.1299 70.8318C40.022 70.8453 39.9191 70.879 39.8162 70.9077C39.4873 70.9971 38.8869 70.9313 38.6625 70.6073C38.3269 70.123 39.1803 69.4091 39.5025 69.1205C39.6846 68.9569 39.4165 68.6885 39.2343 68.8522C38.7317 69.3028 38.1532 69.7686 38.2577 70.5145C38.3421 71.117 38.7334 71.5051 39.3456 71.4342C39.8027 71.3802 41.7491 70.7896 41.1099 72.0519C40.9125 72.4417 40.4369 72.5801 40.2851 73.002C40.0625 73.6213 40.6831 74.3352 41.039 74.7756C41.1925 74.9663 41.459 74.6963 41.3072 74.5073Z" fill="white"/>
<path d="M42.9855 73.8475C42.7814 73.6163 42.4576 73.2974 42.4154 72.9683C42.3294 72.2933 42.7983 72.2747 43.107 71.9844C43.2655 71.8359 43.3768 71.6942 43.3988 71.4748C43.4679 70.7508 42.6381 70.6766 42.1776 70.415C40.8131 69.6387 41.4895 68.1823 42.1304 67.2069C42.574 66.5335 42.9636 65.8838 42.913 65.0501C42.8978 64.8071 42.5183 64.8054 42.5335 65.0501C42.6482 66.8947 39.9664 68.3173 41.395 70.2209C41.6345 70.5399 41.9162 70.7086 42.2738 70.8639C42.7528 71.0731 43.0176 71.3887 42.5959 71.8815C42.5031 71.9895 42.3429 72.0368 42.2434 72.1549C41.6868 72.8181 42.2552 73.5961 42.7157 74.1159C42.8793 74.2981 43.1475 74.0298 42.9855 73.8475Z" fill="white"/>
<path d="M44.5473 74.1412C44.4056 73.8374 44.2066 73.4948 44.5254 73.2079C44.6114 73.132 44.7396 73.1084 44.8391 73.0577C45.0381 72.9548 45.1882 72.8316 45.2591 72.6122C45.4041 72.1633 45.109 71.7549 44.6856 71.63C44.4512 71.5609 44.35 71.9271 44.5844 71.9962C44.8813 72.084 45.0449 72.4519 44.748 72.6814C44.6789 72.7354 44.5136 72.7776 44.4292 72.8265C44.2876 72.9059 44.1627 72.9953 44.0784 73.1371C43.8423 73.5252 44.0464 73.9657 44.2184 74.3352C44.323 74.5529 44.6502 74.3605 44.5473 74.1412Z" fill="white"/>
</svg>
