<svg width="176" height="97" viewBox="0 0 176 97" fill="none" xmlns="http://www.w3.org/2000/svg">
<path fill-rule="evenodd" clip-rule="evenodd" d="M0.595169 50.3307C5.09644 59.0194 12.1005 72.5394 36.5 68.3485C56.1432 64.9746 61.9405 75.462 67.3765 85.2958C68.2514 86.8785 69.117 88.4444 70.0294 89.9327C71.4713 92.2846 74.1102 93.5329 76.8689 93.5329H88H99.1311C101.89 93.5329 104.529 92.2846 105.971 89.9327C106.883 88.4444 107.749 86.8785 108.624 85.2958C114.06 75.462 119.857 64.9746 139.5 68.3485C163.899 72.5394 170.904 59.0194 175.405 50.3307C175.794 49.5785 176 48.744 176 47.8968V9.00929C176 2.59332 169.478 -1.76208 163.552 0.696031L91.4481 30.6027C89.2406 31.5183 86.7594 31.5183 84.5519 30.6027L12.4481 0.696031C6.5217 -1.76208 0 2.59332 0 9.00929V47.8968C0 48.744 0.205497 49.5785 0.595169 50.3307Z" fill="#F4A17C"/>
<path d="M104.252 11.8257C104.252 11.8257 105.314 11.9437 106.223 12.7571C107.132 13.5705 107.971 11.4973 106.466 11.0739C104.964 10.6505 104.252 11.8257 104.252 11.8257Z" fill="#F5E2D5"/>
<path d="M103.242 11.7307C103.242 11.7307 103.936 10.925 105.125 10.6351C106.313 10.3451 105.049 8.49512 103.853 9.49068C102.659 10.4888 103.242 11.7307 103.242 11.7307Z" fill="#F5E2D5"/>
<path d="M89.3798 16.5468C89.3798 16.5468 88.6418 17.3114 88.4709 18.5148C88.2999 19.7157 86.3138 18.6585 87.1942 17.3781C88.0721 16.0978 89.3798 16.5468 89.3798 16.5468Z" fill="#F5E2D5"/>
<path d="M90.0951 15.8335C90.0951 15.8335 89.0411 15.6564 87.9405 16.1901C86.84 16.7238 86.6121 14.5018 88.1762 14.5043C89.7377 14.5069 90.0951 15.8335 90.0951 15.8335Z" fill="#F5E2D5"/>
<path d="M105.404 22.8509C107.707 19.0909 106.499 14.1921 102.704 11.9092C98.9097 9.62631 93.9657 10.8237 91.6617 14.5837C89.3578 18.3437 90.5662 23.2425 94.3609 25.5254C98.1556 27.8083 103.1 26.6109 105.404 22.8509Z" fill="#F5E2D5"/>
<path d="M92.3036 17.3601C92.1663 17.396 92.0187 17.337 91.9488 17.2087C91.8685 17.0599 91.9229 16.8726 92.0757 16.7931L94.0774 15.7231L92.736 15.6769C92.5651 15.6718 92.4305 15.5281 92.4356 15.3587C92.4408 15.1894 92.5858 15.0559 92.7568 15.0611L95.2427 15.1458C95.3826 15.1509 95.5017 15.2484 95.5353 15.3844C95.5664 15.5204 95.5043 15.6589 95.38 15.7256L92.3683 17.3345C92.3476 17.3447 92.3269 17.3524 92.3036 17.3601Z" fill="#3F4553"/>
<path d="M103.019 14.4401C102.996 14.4452 102.973 14.4504 102.947 14.4504L99.6762 14.553C99.5363 14.5581 99.4095 14.4683 99.368 14.3349C99.3266 14.2015 99.381 14.0578 99.5001 13.9834L101.709 12.6183C101.854 12.5285 102.046 12.5721 102.136 12.7158C102.227 12.8595 102.183 13.0494 102.038 13.1392L100.808 13.8987L102.926 13.832C103.097 13.8269 103.242 13.9603 103.247 14.1296C103.25 14.2785 103.154 14.4016 103.019 14.4401Z" fill="#3F4553"/>
<path d="M92.1687 18.7459C93.8726 21.8583 96.8972 23.6313 99.6836 22.8718C102.467 22.1123 104.153 19.0538 104.011 15.518L102.936 15.6283C99.4946 15.9798 96.1463 16.901 93.0155 18.3533L92.1687 18.7459Z" fill="#3F4553"/>
<path d="M103.092 19.5131C101.885 19.1205 100.36 19.0872 98.8035 19.5131C97.2161 19.9467 95.9031 20.7704 95.0719 21.7454C96.4832 22.6512 98.0784 23.0001 99.6036 22.5845C101.147 22.1611 102.349 21.0347 103.092 19.5131Z" fill="#4E5567"/>
<path d="M49.6748 49.8217C50.9058 45.5954 48.4461 41.1805 44.1808 39.9608C39.9156 38.741 35.46 41.1783 34.2289 45.4045C32.9979 49.6308 35.4577 54.0457 39.7229 55.2654C43.9882 56.4852 48.4438 54.0479 49.6748 49.8217Z" fill="#F5E2D5"/>
<path d="M37.8447 42.7778C37.7127 42.7239 37.6324 42.5879 37.6557 42.4442C37.6842 42.2775 37.8421 42.162 38.013 42.1902L40.2582 42.5494L39.2224 41.7053C39.0903 41.5975 39.0722 41.4025 39.1809 41.2716C39.2897 41.1408 39.4865 41.1228 39.6186 41.2306L41.54 42.7983C41.6488 42.8856 41.6825 43.037 41.6255 43.1627C41.5685 43.2884 41.4313 43.3628 41.294 43.3397L37.9146 42.8009C37.8887 42.7932 37.8654 42.7881 37.8447 42.7778Z" fill="#3F4553"/>
<path d="M48.141 46.9218C48.1177 46.9116 48.097 46.9013 48.0763 46.8859L45.4194 44.9948C45.3055 44.9127 45.2614 44.7665 45.3106 44.6356C45.3598 44.5047 45.4919 44.4252 45.6317 44.438L48.2213 44.6869C48.3922 44.7023 48.5165 44.8537 48.501 45.0231C48.4854 45.1924 48.3327 45.3156 48.1617 45.3002L46.7194 45.1616L48.4414 46.3856C48.5813 46.4856 48.6123 46.6755 48.5113 46.8141C48.4233 46.9347 48.2705 46.9757 48.141 46.9218Z" fill="#3F4553"/>
<path d="M42.9645 50.9604C41.7914 50.9604 40.7453 50.6987 39.8337 50.1778C37.4332 48.8051 36.879 46.1417 36.8557 46.0288C36.8143 45.8209 36.9516 45.6182 37.1613 45.5772C37.3711 45.5361 37.5756 45.6721 37.6171 45.8799C37.6222 45.903 38.1324 48.3201 40.2299 49.5158C41.7578 50.3882 43.7569 50.4164 46.173 49.6005C46.3776 49.5312 46.5977 49.639 46.665 49.8417C46.7349 50.0418 46.6262 50.2625 46.4216 50.3292C45.1708 50.7474 44.0159 50.9604 42.9645 50.9604Z" fill="#3F4553"/>
<path d="M90.447 72.3408C93.8985 68.9208 93.8985 63.376 90.447 59.9561C86.9955 56.5362 81.3996 56.5362 77.9481 59.9561C74.4966 63.376 74.4966 68.9208 77.9481 72.3408C81.3996 75.7607 86.9955 75.7607 90.447 72.3408Z" fill="#F5E2D5"/>
<path d="M79.2186 69.0138C79.2186 69.0138 84.9027 65.7987 90.3796 65.0212C90.3796 65.0212 91.9515 70.153 86.7154 72.139C82.1759 73.8607 79.2186 69.0138 79.2186 69.0138Z" fill="#3F4553"/>
<path d="M80.3401 66.5403C80.1536 66.5403 79.9723 66.4403 79.8791 66.2632L78.5895 63.7948C78.4574 63.5434 78.5584 63.2329 78.8122 63.102C79.066 62.9712 79.3793 63.0713 79.5114 63.3227L80.801 65.7911C80.9331 66.0425 80.8321 66.353 80.5783 66.4839C80.5006 66.5224 80.4203 66.5403 80.3401 66.5403Z" fill="#3F4553"/>
<path d="M87.2127 64.0693C86.9744 64.0693 86.7595 63.9051 86.7077 63.6639L86.1069 60.8543C86.0474 60.5772 86.226 60.3052 86.5057 60.2462C86.7854 60.1872 87.0599 60.3642 87.1194 60.6413L87.7202 63.451C87.7798 63.7281 87.6011 64.0001 87.3214 64.0591C87.2826 64.0668 87.2463 64.0693 87.2127 64.0693Z" fill="#3F4553"/>
<path d="M88.106 71.1152C87.6295 69.9529 85.9644 69.4782 84.3382 70.0581C83.437 70.3814 82.7378 70.9613 82.3571 71.6156C83.5354 72.2032 85.0011 72.4674 86.6843 71.8285C87.2307 71.6233 87.6968 71.3821 88.106 71.1152Z" fill="#4E5567"/>
<path d="M135.328 43.4501C139.813 41.5411 141.887 36.3911 139.961 31.9472C138.034 27.5034 132.836 25.4485 128.352 27.3575C123.867 29.2665 121.793 34.4165 123.719 38.8603C125.646 43.3042 130.844 45.359 135.328 43.4501Z" fill="#F5E2D5"/>
<path d="M132.967 37.3536C129.914 37.3536 127.596 35.5934 127.563 35.5677C127.451 35.4805 127.431 35.3188 127.519 35.2085C127.607 35.0982 127.77 35.0776 127.881 35.1649C128.068 35.3086 132.498 38.6622 137.113 35.5318C137.232 35.4523 137.393 35.4831 137.473 35.5985C137.553 35.7166 137.525 35.8756 137.406 35.9552C135.873 36.9944 134.345 37.3536 132.967 37.3536Z" fill="#3F4553"/>
<path d="M135.487 32.7042C135.487 33.2431 135.275 33.6819 135.01 33.6819C134.746 33.6819 134.534 33.2456 134.534 32.7042C134.534 32.1628 134.746 31.7266 135.01 31.7266C135.275 31.7266 135.487 32.1654 135.487 32.7042Z" fill="#3F4553"/>
<path d="M130.911 32.5169C130.911 33.0558 130.699 33.4945 130.435 33.4945C130.171 33.4945 129.958 33.0583 129.958 32.5169C129.958 31.9781 130.171 31.5393 130.435 31.5393C130.699 31.5393 130.911 31.9755 130.911 32.5169Z" fill="#3F4553"/>
<path d="M109.489 96.4101C121.4 96.4101 131.056 94.2481 131.056 91.5811C131.056 88.9141 121.4 86.7521 109.489 86.7521C97.5781 86.7521 87.9221 88.9141 87.9221 91.5811C87.9221 94.2481 97.5781 96.4101 109.489 96.4101Z" fill="#F4A17C"/>
<path opacity="0.5" d="M109.489 96.4101C121.4 96.4101 131.056 94.2481 131.056 91.5811C131.056 88.9141 121.4 86.7521 109.489 86.7521C97.5781 86.7521 87.9221 88.9141 87.9221 91.5811C87.9221 94.2481 97.5781 96.4101 109.489 96.4101Z" fill="#F4A17C"/>
<path d="M107.82 27.7443C107.82 27.7443 106.168 27.5955 106.018 26.1073C105.868 24.6191 109.775 22.7562 112.253 22.6818C114.734 22.6074 117.137 25.2887 117.137 27.4467C117.137 29.6046 117.513 32.658 119.39 33.2533C121.268 33.8486 122.547 37.4973 121.418 38.8367C120.291 40.176 120.367 40.176 121.493 41.3692C122.619 42.5598 121.643 44.6458 120.892 45.0923C120.141 45.5388 117.886 46.2085 112.852 45.762C107.817 45.3155 104.811 40.7739 104.586 38.9111C104.36 37.0508 106.088 35.7832 106.688 34.9647C107.289 34.1462 106.238 33.4765 106.313 32.581C106.388 31.6881 107.515 30.944 107.815 30.1973C108.12 29.4558 107.82 27.7443 107.82 27.7443Z" fill="#3F4553"/>
<path d="M115.928 46.0365C115.045 46.0365 114.024 45.9929 112.844 45.8877C107.566 45.4181 104.671 40.6559 104.461 38.9264C104.277 37.4177 105.313 36.3041 106.067 35.4907C106.279 35.2624 106.46 35.0648 106.59 34.8903C106.893 34.4746 106.709 34.1026 106.497 33.6689C106.328 33.3302 106.157 32.9813 106.191 32.5733C106.238 32.0062 106.657 31.5187 107.064 31.0492C107.333 30.7361 107.587 30.441 107.703 30.1537C107.949 29.5455 107.765 28.219 107.711 27.8572C107.333 27.793 106.028 27.4723 105.891 26.1175C105.854 25.766 106.012 25.3914 106.354 25.0039C107.439 23.78 110.249 22.6099 112.251 22.5509C113.382 22.5201 114.592 23.0461 115.586 24.0032C116.624 25.0014 117.269 26.3202 117.269 27.4466C117.269 29.3146 117.551 32.5348 119.434 33.1327C120.421 33.4457 121.335 34.5927 121.765 36.0526C122.117 37.2509 122.026 38.3235 121.524 38.9213C120.503 40.1324 120.503 40.1324 121.495 41.1767L121.596 41.2819C122.158 41.8747 122.187 42.6188 122.114 43.1371C121.982 44.0813 121.425 44.9281 120.967 45.2026C120.579 45.4284 119.242 46.0365 115.928 46.0365ZM112.352 22.8075C112.32 22.8075 112.289 22.8075 112.256 22.8101C110.347 22.8665 107.571 24.0161 106.546 25.1758C106.251 25.5068 106.116 25.8173 106.144 26.0944C106.282 27.462 107.815 27.616 107.83 27.6186C107.89 27.6237 107.936 27.6673 107.947 27.7238C107.96 27.7956 108.25 29.4814 107.939 30.2512C107.807 30.577 107.54 30.8875 107.258 31.2159C106.88 31.6573 106.486 32.1114 106.447 32.5964C106.419 32.9351 106.577 33.2507 106.727 33.5586C106.957 34.023 107.193 34.5028 106.8 35.0443C106.662 35.2316 106.476 35.4343 106.258 35.6678C105.538 36.4452 104.552 37.5101 104.72 38.9008C104.922 40.5763 107.737 45.1821 112.869 45.6388C118.411 46.1315 120.364 45.2642 120.832 44.9871C121.231 44.751 121.736 43.9633 121.858 43.1063C121.923 42.6419 121.897 41.9799 121.407 41.4615L121.309 41.3563C120.242 40.2325 120.19 40.1145 121.33 38.7597C121.778 38.226 121.85 37.2432 121.521 36.1271C121.19 34.9955 120.392 33.7074 119.361 33.3816C117.321 32.735 117.018 29.389 117.018 27.4518C117.018 26.3921 116.404 25.145 115.415 24.1931C114.488 23.3079 113.38 22.8075 112.352 22.8075Z" fill="#3F4553"/>
<path d="M119.804 39.7117C119.758 39.7117 119.729 39.7065 119.721 39.704C119.652 39.6886 119.608 39.6193 119.623 39.55C119.639 39.4807 119.708 39.4371 119.778 39.4525C119.781 39.4525 119.905 39.473 120.061 39.3601C120.26 39.2164 120.524 38.8547 120.656 37.9335C120.827 36.7481 118.932 35.1931 116.927 33.5484C116.036 32.8171 115.115 32.0602 114.307 31.2853C111.629 28.7168 111.251 25.6788 111.246 25.648C111.238 25.5787 111.29 25.5146 111.36 25.5069C111.424 25.4992 111.494 25.5505 111.502 25.6198C111.505 25.648 111.875 28.6014 114.485 31.1005C115.286 31.8677 116.202 32.6221 117.09 33.3483C119.242 35.1136 121.102 36.6403 120.91 37.9669C120.791 38.7905 120.55 39.3319 120.193 39.5757C120.035 39.6911 119.89 39.7117 119.804 39.7117Z" fill="#AC9B8F"/>
<path d="M107.033 26.5255C106.194 26.5255 105.927 26.2022 105.914 26.1843C105.87 26.1278 105.88 26.0483 105.937 26.0047C105.992 25.961 106.075 25.9713 106.119 26.0277C106.121 26.0303 106.554 26.5101 108.151 26.1124C109.829 25.6968 111.538 24.3548 111.554 24.3394C111.611 24.2958 111.691 24.3035 111.735 24.3599C111.779 24.4164 111.772 24.4959 111.715 24.5395C111.642 24.596 109.946 25.9302 108.213 26.3587C107.732 26.4819 107.343 26.5255 107.033 26.5255Z" fill="#AC9B8F"/>
<path d="M99.9296 88.9716C99.9296 88.9716 101.048 90.4265 102.299 91.1116C103.55 91.7967 105.795 91.3245 105.148 89.7003C104.5 88.0761 103.464 87.2191 102.687 86.9215C101.911 86.6213 99.8907 87.3885 99.9296 88.9716Z" fill="#E49621"/>
<path d="M103.57 91.5451C103.11 91.5451 102.633 91.4399 102.237 91.2244C100.976 90.5342 99.8726 89.1101 99.8259 89.0511C99.8104 89.0306 99.8 89.0023 99.8 88.9767C99.7845 88.3019 100.121 87.6886 100.753 87.2473C101.39 86.8034 102.242 86.6109 102.734 86.8008C103.122 86.9496 104.448 87.5962 105.267 89.6541C105.497 90.2314 105.401 90.7446 104.997 91.0961C104.658 91.3938 104.125 91.5451 103.57 91.5451ZM100.059 88.9279C100.233 89.146 101.253 90.3931 102.361 91.0012C103.133 91.422 104.285 91.3758 104.829 90.9037C105.15 90.624 105.217 90.2263 105.028 89.749C104.249 87.7887 103.003 87.1806 102.641 87.042C102.281 86.9034 101.532 87.0215 100.903 87.4602C100.585 87.6783 100.059 88.1607 100.059 88.9279Z" fill="#3F4553"/>
<path d="M101.522 90.5547L101.535 90.5932C101.778 90.7856 102.035 90.9652 102.299 91.1089C103.55 91.794 105.795 91.3219 105.148 89.6977C103.12 88.4609 101.522 90.5547 101.522 90.5547Z" fill="#F1BD54"/>
<path d="M103.57 91.5452C103.11 91.5452 102.633 91.44 102.237 91.2244C101.988 91.0884 101.727 90.9114 101.455 90.6958C101.434 90.6805 101.419 90.6574 101.411 90.6317L101.398 90.5906C101.385 90.5522 101.393 90.5085 101.419 90.4752C101.437 90.4547 103.11 88.3019 105.215 89.5874C105.238 89.6028 105.256 89.6233 105.267 89.649C105.497 90.2263 105.401 90.7395 104.997 91.091C104.658 91.3938 104.125 91.5452 103.57 91.5452ZM101.69 90.5547C101.924 90.7343 102.149 90.8832 102.361 91.0012C103.133 91.422 104.285 91.3758 104.829 90.9037C105.14 90.6317 105.215 90.2494 105.044 89.7901C103.353 88.7868 101.999 90.1904 101.69 90.5547Z" fill="#3F4553"/>
<path d="M102.299 91.1116C103.472 91.7531 105.518 91.381 105.235 89.9929C104.816 90.4368 103.979 90.9808 102.817 90.5548C101.569 90.1007 100.499 88.8562 100.056 88.284C99.9734 88.4919 99.9216 88.7202 99.9294 88.9717C99.9294 88.9717 101.048 90.4265 102.299 91.1116Z" fill="#F1BD54"/>
<path d="M103.57 91.5426C103.107 91.5426 102.628 91.4374 102.237 91.2219C100.975 90.5317 99.8723 89.1076 99.8257 89.0486C99.8102 89.0281 99.7998 88.9998 99.7998 88.9742C99.7946 88.7253 99.8387 88.4764 99.9371 88.2352C99.9552 88.1916 99.994 88.1608 100.041 88.1557C100.085 88.148 100.131 88.1685 100.16 88.2044C100.564 88.7253 101.633 89.9851 102.861 90.4342C104.054 90.8704 104.852 90.2084 105.14 89.903C105.173 89.8671 105.222 89.8543 105.269 89.8671C105.316 89.8799 105.352 89.9184 105.36 89.9646C105.458 90.4521 105.295 90.8806 104.899 91.168C104.562 91.4195 104.075 91.5426 103.57 91.5426ZM100.059 88.928C100.232 89.1461 101.253 90.3931 102.361 91.0012C103.083 91.3964 104.179 91.381 104.748 90.9653C104.997 90.7857 105.127 90.5522 105.132 90.27C104.71 90.6292 103.897 91.0885 102.77 90.6779C101.613 90.2546 100.6 89.1641 100.103 88.5534C100.074 88.6765 100.059 88.7997 100.059 88.928Z" fill="#3F4553"/>
<path d="M118.688 88.9177C118.688 88.9177 117.57 90.3726 116.319 91.0577C115.068 91.7428 112.823 91.2707 113.47 89.6465C114.118 88.0223 115.154 87.1653 115.931 86.8676C116.707 86.5674 118.727 87.3346 118.688 88.9177Z" fill="#E49621"/>
<path d="M115.048 91.4914C114.494 91.4914 113.96 91.3374 113.618 91.0398C113.214 90.6882 113.119 90.1776 113.349 89.5977C114.167 87.5425 115.496 86.8958 115.882 86.7445C116.374 86.5546 117.226 86.747 117.863 87.1909C118.494 87.6297 118.834 88.2455 118.816 88.9203C118.816 88.946 118.805 88.9742 118.79 88.9947C118.743 89.0563 117.64 90.4804 116.379 91.1681C115.985 91.3836 115.509 91.4914 115.048 91.4914ZM116.33 86.9292C116.19 86.9292 116.071 86.9472 115.975 86.9831C115.612 87.1216 114.369 87.7323 113.587 89.6901C113.398 90.1674 113.466 90.5651 113.787 90.8448C114.33 91.3194 115.483 91.3631 116.255 90.9423C117.363 90.3367 118.383 89.0897 118.557 88.8716C118.557 88.1044 118.031 87.622 117.712 87.4013C117.249 87.078 116.721 86.9292 116.33 86.9292Z" fill="#3F4553"/>
<path d="M117.096 90.5008L117.083 90.5393C116.839 90.7317 116.583 90.9113 116.319 91.055C115.068 91.7401 112.823 91.268 113.47 89.6438C115.498 88.4044 117.096 90.5008 117.096 90.5008Z" fill="#F1BD54"/>
<path d="M115.047 91.4914C114.493 91.4914 113.96 91.3374 113.618 91.0398C113.214 90.6882 113.118 90.1776 113.349 89.5977C113.359 89.5721 113.377 89.549 113.4 89.5362C115.506 88.2506 117.181 90.4009 117.197 90.424C117.223 90.4573 117.23 90.5009 117.218 90.5394L117.205 90.5779C117.197 90.6036 117.181 90.6241 117.161 90.6395C116.889 90.855 116.625 91.0321 116.379 91.1681C115.985 91.3836 115.508 91.4914 115.047 91.4914ZM113.574 89.7312C113.403 90.1905 113.478 90.5754 113.789 90.8448C114.333 91.3195 115.485 91.3631 116.257 90.9423C116.469 90.8268 116.694 90.678 116.928 90.4958C116.617 90.134 115.262 88.733 113.574 89.7312Z" fill="#3F4553"/>
<path d="M116.319 91.0576C115.146 91.6991 113.1 91.3271 113.382 89.9389C113.802 90.3828 114.638 90.9268 115.801 90.5008C117.049 90.0467 118.119 88.8022 118.562 88.23C118.644 88.4379 118.696 88.6662 118.689 88.9177C118.689 88.9177 117.57 90.3725 116.319 91.0576Z" fill="#F1BD54"/>
<path d="M115.048 91.4889C114.543 91.4889 114.056 91.3631 113.714 91.1168C113.318 90.8294 113.155 90.4009 113.253 89.9134C113.263 89.8672 113.297 89.8287 113.344 89.8159C113.39 89.8031 113.442 89.8159 113.473 89.8518C113.761 90.1572 114.558 90.8166 115.752 90.383C116.979 89.9339 118.052 88.6741 118.453 88.1532C118.481 88.1173 118.528 88.0993 118.572 88.1044C118.619 88.1096 118.657 88.1404 118.676 88.184C118.771 88.4252 118.818 88.6741 118.813 88.923C118.813 88.9512 118.802 88.9768 118.787 88.9974C118.74 89.059 117.637 90.483 116.376 91.1707C115.99 91.3837 115.511 91.4889 115.048 91.4889ZM113.484 90.2136C113.491 90.4959 113.618 90.7294 113.867 90.909C114.436 91.3246 115.532 91.34 116.254 90.9449C117.363 90.3393 118.383 89.0923 118.556 88.8742C118.556 88.7485 118.541 88.6228 118.51 88.4996C118.013 89.1077 117 90.2008 115.843 90.6242C114.719 91.0321 113.906 90.5728 113.484 90.2136Z" fill="#3F4553"/>
<path d="M109.923 33.1507C109.923 33.1507 109.622 35.6089 109.397 36.1297C109.172 36.6506 106.391 36.7994 105.189 37.2459C103.987 37.6924 101.432 39.8528 99.8545 41.3411C98.2775 42.8293 96.8481 46.7756 96.8481 47.2965C96.8481 47.8174 98.4251 45.8083 99.8545 44.3919C101.281 42.9781 104.438 41.1897 104.438 41.1897C104.438 41.1897 105.567 46.7294 105.717 47.3273C105.868 47.9226 105.715 48.9156 105.715 49.1388C105.715 49.362 102.558 54.7966 102.032 59.3382C101.507 63.8798 102.483 72.5166 102.483 72.5166C102.483 72.5166 100.756 75.8677 100.606 79.5908C100.455 83.3139 99.6292 87.7067 99.7043 88.0044C99.7794 88.302 99.5541 88.8973 99.9296 88.9717C100.305 89.0461 100.606 88.0044 101.507 87.7811C102.408 87.5579 103.609 88.1532 103.762 87.5579C103.912 86.9626 103.762 85.772 103.912 84.2068C104.063 82.6442 106.543 76.2397 106.694 74.0818C106.844 71.9239 108.646 61.3499 109.024 60.829C109.4 60.3081 109.4 60.3081 109.4 60.3081C109.4 60.3081 109.775 59.4152 110 60.3825C110.226 61.3499 110 70.954 110.451 72.3704C110.902 73.7842 114.452 83.2831 114.902 84.3993C115.353 85.5154 114.377 86.8574 114.677 87.4527C114.978 88.048 115.804 87.8247 116.555 87.8247C117.306 87.8247 118.088 88.9178 118.688 88.9178C119.289 88.9178 119.486 88.048 119.486 87.0806C119.486 86.1133 116.837 76.6888 116.687 74.3795C116.537 72.0702 116.011 70.2843 116.011 70.2843C116.011 70.2843 116.987 59.6384 116.762 57.3291C116.537 55.0198 114.584 49.1388 114.584 49.1388L115.936 41.7875C115.936 41.7875 120.069 44.0968 121.496 45.9571C122.922 47.8174 123.901 47.7429 123.748 46.2547C123.598 44.7665 120.066 40.3737 118.189 38.4365C116.311 36.5018 113.755 36.8738 113.004 36.353C112.253 35.8321 112.704 30.6952 112.704 30.6952L109.923 33.1507Z" fill="#FED9CE"/>
<path d="M99.9711 89.105C99.9504 89.105 99.9271 89.1025 99.9063 89.0973C99.5438 89.0255 99.5671 88.6406 99.5852 88.3609C99.593 88.2403 99.6008 88.1146 99.5801 88.035C99.549 87.9145 99.6008 87.5142 99.7717 86.3031C100.015 84.5762 100.383 81.9667 100.479 79.5856C100.621 76.0806 102.17 72.8629 102.353 72.4934C102.284 71.8648 101.403 63.6745 101.905 59.3253C102.328 55.6792 104.459 51.4121 105.262 49.8058C105.43 49.4697 105.575 49.1798 105.588 49.1233C105.585 49.0848 105.596 48.9848 105.606 48.8539C105.642 48.4562 105.702 47.7942 105.593 47.3605C105.458 46.8217 104.544 42.3571 104.347 41.3949C103.697 41.7746 101.165 43.2782 99.9452 44.4867C99.448 44.9794 98.9301 45.549 98.4717 46.0519C97.3349 47.299 97.0475 47.5812 96.8377 47.5017C96.7937 47.4837 96.7186 47.4375 96.7186 47.3015C96.7186 46.7165 98.161 42.765 99.7639 41.2512C101.048 40.0401 103.824 37.6179 105.142 37.1303C105.65 36.943 106.419 36.807 107.165 36.6762C108.058 36.5197 109.172 36.3247 109.275 36.0835C109.49 35.5857 109.788 33.166 109.791 33.1404C109.793 33.1096 109.809 33.0814 109.832 33.0608L112.613 30.6027C112.652 30.5668 112.712 30.5617 112.758 30.5848C112.805 30.6078 112.833 30.6592 112.828 30.7105C112.657 32.6683 112.572 35.9038 113.074 36.2528C113.3 36.4093 113.748 36.4837 114.268 36.571C115.418 36.7634 116.99 37.0277 118.277 38.3543C120.146 40.2813 123.715 44.6895 123.873 46.247C123.961 47.1271 123.655 47.3836 123.464 47.4581C122.974 47.6505 122.236 47.145 121.387 46.0391C120.149 44.4252 116.793 42.4366 116.024 41.9953L114.711 49.1361C114.882 49.6493 116.669 55.089 116.886 57.3239C117.106 59.5844 116.2 69.5837 116.138 70.2791C116.2 70.4998 116.671 72.224 116.811 74.3768C116.896 75.6803 117.811 79.3803 118.546 82.3542C119.139 84.7558 119.61 86.6546 119.61 87.0857C119.61 88.3532 119.281 89.0511 118.683 89.0511C118.357 89.0511 118.015 88.7946 117.655 88.5251C117.285 88.248 116.902 87.9581 116.549 87.9581C116.389 87.9581 116.223 87.9683 116.063 87.9786C115.457 88.0171 114.83 88.0556 114.556 87.5142C114.4 87.2088 114.522 86.7829 114.662 86.2902C114.827 85.7027 115.014 85.0381 114.778 84.4531C114.322 83.3241 110.783 73.8508 110.324 72.4139C110.055 71.5646 110.024 67.9826 109.995 64.8214C109.977 62.7533 109.962 60.8032 109.871 60.4158C109.796 60.0976 109.723 60.0643 109.723 60.0643C109.682 60.072 109.576 60.2208 109.516 60.3619C109.514 60.3722 109.508 60.3799 109.503 60.3876L109.128 60.9084C108.796 61.3677 106.989 71.7186 106.823 74.0946C106.738 75.3057 105.93 77.8408 105.215 80.0782C104.645 81.8589 104.109 83.5422 104.042 84.2247C103.967 84.9996 103.967 85.6924 103.967 86.2518C103.967 86.8265 103.967 87.2832 103.889 87.5963C103.775 88.0504 103.252 87.9863 102.698 87.9196C102.322 87.8734 101.898 87.8221 101.54 87.9119C101.077 88.0274 100.779 88.3866 100.538 88.6765C100.347 88.9023 100.181 89.105 99.9711 89.105ZM104.438 41.0639C104.456 41.0639 104.474 41.0664 104.492 41.0741C104.531 41.0921 104.557 41.1254 104.565 41.1665C104.575 41.2229 105.697 46.7114 105.844 47.2964C105.963 47.7711 105.901 48.4613 105.865 48.8744C105.855 48.995 105.844 49.0874 105.844 49.1387C105.844 49.208 105.795 49.3106 105.492 49.9187C104.694 51.5147 102.579 55.751 102.162 59.3535C101.644 63.8284 102.602 72.4165 102.612 72.5037C102.615 72.5294 102.61 72.555 102.599 72.5756C102.581 72.6089 100.883 75.9446 100.735 79.5958C100.639 81.9898 100.271 84.607 100.028 86.339C99.9115 87.1601 99.8131 87.8683 99.8313 87.976C99.8597 88.0915 99.852 88.2378 99.8416 88.3763C99.8235 88.6868 99.8338 88.8228 99.9556 88.8459C100.046 88.8613 100.194 88.6817 100.339 88.5072C100.587 88.2044 100.929 87.7913 101.478 87.6553C101.885 87.5552 102.333 87.6091 102.729 87.6579C103.257 87.722 103.581 87.7477 103.638 87.527C103.71 87.2448 103.71 86.8034 103.71 86.2466C103.71 85.6847 103.71 84.9842 103.786 84.1965C103.853 83.4857 104.371 81.8692 104.969 79.9961C105.678 77.7741 106.484 75.2543 106.567 74.074C106.696 72.2061 108.486 61.3575 108.921 60.7545L109.288 60.2439C109.343 60.1182 109.508 59.7872 109.752 59.8026C109.98 59.8205 110.076 60.1259 110.127 60.3517C110.223 60.7648 110.239 62.5506 110.259 64.8112C110.285 67.7979 110.316 71.5158 110.575 72.3267C111.034 73.761 114.568 83.2214 115.024 84.3479C115.294 85.015 115.084 85.754 114.918 86.3493C114.799 86.7726 114.685 87.1729 114.796 87.391C114.993 87.781 115.485 87.7502 116.055 87.7143C116.223 87.7041 116.392 87.6938 116.56 87.6938C117 87.6938 117.417 88.0094 117.821 88.3122C118.145 88.5559 118.453 88.7869 118.691 88.7869C119.294 88.7869 119.359 87.5912 119.359 87.078C119.359 86.6777 118.846 84.6019 118.303 82.4081C117.526 79.27 116.648 75.7136 116.56 74.3871C116.412 72.1214 115.894 70.3381 115.889 70.3201C115.884 70.3047 115.884 70.2893 115.884 70.274C115.894 70.1662 116.858 59.6127 116.635 57.3419C116.415 55.0736 114.48 49.2388 114.462 49.1798C114.455 49.1592 114.455 49.1387 114.457 49.1156L115.809 41.7643C115.817 41.7233 115.843 41.6899 115.881 41.672C115.92 41.654 115.964 41.6566 116 41.6771C116.171 41.772 120.172 44.0198 121.602 45.88C122.485 47.0321 123.109 47.3195 123.376 47.2143C123.585 47.1322 123.676 46.7884 123.624 46.2675C123.474 44.7895 119.895 40.3788 118.101 38.5262C116.873 37.2612 115.348 37.0046 114.234 36.8173C113.66 36.7198 113.206 36.6454 112.934 36.4555C112.233 35.968 112.461 32.2064 112.554 31.0004L110.052 33.2122C110.008 33.5689 109.739 35.6806 109.524 36.1784C109.371 36.5299 108.548 36.6916 107.219 36.9225C106.486 37.0508 105.725 37.1842 105.241 37.3638C104.13 37.7769 101.719 39.7629 99.9504 41.4308C98.4458 42.8497 97.1252 46.4548 96.9957 47.1989C97.2391 47.0193 97.7907 46.4163 98.2853 45.8723C98.7462 45.3669 99.2667 44.7947 99.7691 44.2994C101.193 42.8882 104.252 41.1511 104.381 41.0767C104.394 41.069 104.417 41.0639 104.438 41.0639Z" fill="#3F4553"/>
<path d="M114.674 87.4527C114.975 88.048 115.801 87.8248 116.552 87.8248C117.303 87.8248 118.085 88.9178 118.685 88.9178C119.286 88.9178 119.483 88.048 119.483 87.0806C119.483 86.1133 116.834 76.6888 116.684 74.3795C116.533 72.0702 116.008 70.2843 116.008 70.2843C116.008 70.2843 116.984 59.6385 116.759 57.3292C116.722 56.9622 116.642 56.5029 116.533 55.9949L103.226 54.712C102.677 56.2027 102.208 57.8218 102.032 59.3408C101.506 63.8824 102.482 72.5192 102.482 72.5192C102.482 72.5192 100.755 75.8703 100.605 79.5934C100.455 83.3165 99.6288 87.7093 99.7039 88.0069C99.779 88.3046 99.5537 88.8999 99.9292 88.9743C100.305 89.0487 100.605 88.0069 101.506 87.7837C102.407 87.5605 103.609 88.1558 103.762 87.5605C103.912 86.9652 103.762 85.7746 103.912 84.2094C104.062 82.6468 106.543 76.2423 106.693 74.0844C106.843 71.9265 108.646 61.3525 109.024 60.8316C109.399 60.3107 109.399 60.3107 109.399 60.3107C109.399 60.3107 109.775 59.4178 110 60.3851C110.225 61.3525 110 70.9566 110.451 72.373C110.901 73.7868 114.451 83.2857 114.902 84.4019C115.353 85.5155 114.374 86.8574 114.674 87.4527Z" fill="#3F4553"/>
<path d="M99.9709 89.1051C99.9502 89.1051 99.9269 89.1025 99.9061 89.0974C99.5436 89.0255 99.5669 88.6406 99.585 88.361C99.5928 88.2404 99.6006 88.1146 99.5799 88.0351C99.5488 87.9145 99.6006 87.5142 99.7715 86.3031C100.015 84.5763 100.383 81.9668 100.478 79.5856C100.621 76.0806 102.169 72.863 102.353 72.4935C102.283 71.8648 101.403 63.6745 101.905 59.3253C102.061 57.9782 102.465 56.4105 103.107 54.6657C103.128 54.6118 103.179 54.5784 103.242 54.581L116.549 55.8639C116.606 55.8691 116.653 55.9101 116.663 55.964C116.78 56.508 116.855 56.9621 116.891 57.3137C117.111 59.5742 116.205 69.5735 116.143 70.2689C116.205 70.4895 116.676 72.2138 116.816 74.3666C116.901 75.6701 117.816 79.3701 118.551 82.3439C119.144 84.7456 119.615 86.6444 119.615 87.0754C119.615 88.343 119.286 89.0409 118.688 89.0409C118.362 89.0409 118.02 88.7843 117.66 88.5149C117.29 88.2378 116.907 87.9478 116.554 87.9478C116.394 87.9478 116.228 87.9581 116.068 87.9684C115.462 88.0069 114.835 88.0453 114.56 87.5039C114.405 87.1986 114.527 86.7727 114.667 86.28C114.832 85.6924 115.019 85.0279 114.783 84.4428C114.327 83.3138 110.787 73.8406 110.329 72.4037C110.06 71.5544 110.029 67.9724 110 64.8112C109.982 62.7431 109.967 60.793 109.876 60.4056C109.801 60.0874 109.728 60.054 109.728 60.054C109.687 60.0617 109.581 60.2106 109.521 60.3517C109.519 60.362 109.513 60.3697 109.508 60.3773L109.133 60.8982C108.801 61.3575 106.994 71.7083 106.828 74.0843C106.743 75.2954 105.935 77.8305 105.22 80.068C104.65 81.8487 104.114 83.5319 104.047 84.2145C103.972 84.9894 103.972 85.6822 103.972 86.2415C103.972 86.8163 103.972 87.2704 103.894 87.5861C103.78 88.0402 103.257 87.9761 102.703 87.9094C102.327 87.8632 101.903 87.8119 101.545 87.9017C101.082 88.0171 100.784 88.3763 100.543 88.6663C100.346 88.9024 100.181 89.1051 99.9709 89.1051ZM103.317 54.8479C102.703 56.5362 102.314 58.0526 102.162 59.3536C101.644 63.8285 102.602 72.4165 102.612 72.5037C102.615 72.5294 102.61 72.5551 102.599 72.5756C102.581 72.6089 100.882 75.9446 100.735 79.5959C100.639 81.9898 100.271 84.6071 100.028 86.339C99.9113 87.1601 99.8129 87.8683 99.8311 87.9761C99.8595 88.0915 99.8518 88.2378 99.8414 88.3764C99.8233 88.6868 99.8336 88.8228 99.9554 88.8459C100.046 88.8613 100.194 88.6817 100.339 88.5072C100.587 88.2044 100.929 87.7913 101.478 87.6553C101.885 87.5553 102.333 87.6091 102.729 87.6579C103.257 87.722 103.581 87.7477 103.638 87.527C103.71 87.2448 103.71 86.8035 103.71 86.2467C103.71 85.6847 103.71 84.9842 103.785 84.1965C103.853 83.4858 104.371 81.8693 104.969 79.9962C105.678 77.7741 106.484 75.2544 106.566 74.0741C106.696 72.2061 108.485 61.3575 108.92 60.7545L109.288 60.2439C109.343 60.1182 109.508 59.7872 109.752 59.8026C109.98 59.8205 110.075 60.1259 110.127 60.3517C110.223 60.7648 110.238 62.5507 110.259 64.8112C110.285 67.7979 110.316 71.5159 110.575 72.3267C111.033 73.761 114.568 83.2215 115.024 84.3479C115.293 85.015 115.084 85.754 114.918 86.3493C114.799 86.7727 114.685 87.1729 114.796 87.391C114.993 87.7811 115.485 87.7503 116.055 87.7143C116.223 87.7041 116.391 87.6938 116.56 87.6938C117 87.6938 117.417 88.0094 117.821 88.3122C118.144 88.556 118.453 88.7869 118.691 88.7869C119.294 88.7869 119.359 87.5912 119.359 87.078C119.359 86.6777 118.846 84.6019 118.302 82.4081C117.526 79.27 116.648 75.7137 116.56 74.3871C116.412 72.1189 115.894 70.3381 115.889 70.3202C115.884 70.3048 115.884 70.2894 115.884 70.274C115.894 70.1662 116.857 59.6127 116.635 57.3419C116.604 57.0186 116.536 56.6055 116.433 56.1128L103.317 54.8479Z" fill="#3F4553"/>
<path d="M118.189 38.4389C116.311 36.5042 113.755 36.8763 113.004 36.3554C112.455 35.9756 112.548 33.1403 112.637 31.6342L112.152 31.1826L109.923 33.1532C109.923 33.1532 109.622 35.6113 109.397 36.1322C109.172 36.653 106.391 36.8019 105.189 37.2483C104.006 37.6871 101.517 39.7834 99.9347 41.2665L101.491 43.0678C102.902 42.0619 104.438 41.1947 104.438 41.1947C104.438 41.1947 105.567 46.7344 105.717 47.3323C105.867 47.9276 105.715 48.9206 105.715 49.1438C105.715 49.308 103.993 52.3178 102.882 55.7073C105.036 56.6901 109.278 57.8062 116.707 56.9184C116.324 54.3936 114.581 49.1412 114.581 49.1412L115.933 41.79C115.933 41.79 117.233 42.5161 118.626 43.4809L120.776 41.423C119.859 40.2684 118.903 39.1753 118.189 38.4389Z" fill="#9776A5"/>
<path d="M111.588 57.3701C107.289 57.3701 104.521 56.5927 102.83 55.8203C102.77 55.7921 102.742 55.7254 102.76 55.6638C103.57 53.1929 104.712 50.9041 105.261 49.8059C105.43 49.4698 105.575 49.1772 105.588 49.1208C105.585 49.0823 105.595 48.9822 105.606 48.8514C105.642 48.4537 105.702 47.7917 105.593 47.358C105.458 46.8192 104.544 42.3545 104.347 41.3923C103.923 41.6387 102.7 42.3648 101.569 43.1679C101.514 43.2064 101.439 43.1987 101.395 43.1474L99.8389 41.3487C99.7948 41.2974 99.7974 41.2204 99.8492 41.1717C101.211 39.8938 103.858 37.6025 105.147 37.1253C105.655 36.9379 106.424 36.802 107.17 36.6711C108.063 36.5146 109.177 36.3196 109.28 36.0784C109.495 35.5806 109.793 33.1584 109.796 33.1353C109.798 33.1045 109.814 33.0763 109.837 33.0557L112.067 31.0851C112.116 31.0415 112.194 31.0415 112.243 31.0877L112.727 31.5393C112.756 31.565 112.771 31.6035 112.769 31.6394C112.582 34.7492 112.807 36.0604 113.082 36.2477C113.307 36.4042 113.755 36.4786 114.276 36.5659C115.425 36.7583 116.997 37.0226 118.284 38.3492C119.033 39.1189 120.001 40.2377 120.879 41.3436C120.921 41.3949 120.915 41.4693 120.869 41.5155L118.719 43.5733C118.675 43.617 118.605 43.6221 118.556 43.5862C117.463 42.8292 116.42 42.216 116.031 41.9927L114.719 49.1336C114.864 49.5724 116.477 54.4938 116.839 56.9006C116.845 56.9339 116.837 56.9699 116.813 56.9981C116.79 57.0263 116.762 57.0443 116.725 57.0468C114.809 57.2726 113.103 57.3701 111.588 57.3701ZM103.042 55.6356C105.308 56.6414 109.469 57.6344 116.56 56.8056C116.145 54.2731 114.478 49.2311 114.46 49.1798C114.452 49.1593 114.452 49.1388 114.454 49.1157L115.806 41.7644C115.814 41.7233 115.84 41.69 115.879 41.672C115.917 41.654 115.961 41.6566 115.998 41.6771C116.011 41.6848 117.264 42.3853 118.613 43.3142L120.602 41.4103C119.75 40.3429 118.818 39.2703 118.095 38.5262C116.868 37.2612 115.343 37.0047 114.229 36.8173C113.654 36.7198 113.201 36.6454 112.929 36.4556C112.481 36.1451 112.336 34.5388 112.504 31.6804L112.152 31.3494L110.047 33.2097C110.003 33.5664 109.734 35.6781 109.519 36.1759C109.366 36.5274 108.542 36.6891 107.214 36.92C106.481 37.0483 105.72 37.1817 105.236 37.3613C104.166 37.759 101.854 39.6475 100.113 41.2692L101.514 42.8882C102.889 41.9183 104.36 41.0844 104.373 41.0767C104.409 41.0562 104.453 41.0536 104.492 41.0716C104.531 41.0896 104.557 41.1229 104.565 41.164C104.575 41.2204 105.696 46.7089 105.844 47.2939C105.963 47.7686 105.901 48.4588 105.865 48.8719C105.854 48.9925 105.844 49.0849 105.844 49.1362C105.844 49.2055 105.795 49.3081 105.492 49.9162C104.956 50.999 103.845 53.2237 103.042 55.6356Z" fill="#3F4553"/>
<path d="M114.53 36.7401C113.849 36.6221 113.294 36.5528 113.004 36.3527C112.455 35.9729 112.549 33.1376 112.637 31.6314L112.152 31.1798L109.923 33.1505C109.923 33.1505 109.622 35.6086 109.397 36.1295C109.309 36.3296 108.84 36.4758 108.232 36.6041C108.732 38.0924 109.83 40.7557 111.272 40.7557C112.676 40.7583 113.913 38.2489 114.53 36.7401Z" fill="#FED9CE"/>
<path d="M111.272 40.8868C109.757 40.8868 108.641 38.2311 108.108 36.6454C108.097 36.6095 108.1 36.5735 108.118 36.5402C108.136 36.5094 108.167 36.4863 108.203 36.4786C109.024 36.3067 109.239 36.1656 109.278 36.0783C109.493 35.5805 109.791 33.1583 109.793 33.1352C109.796 33.1045 109.812 33.0762 109.835 33.0557L112.064 31.0851C112.114 31.0415 112.191 31.0415 112.241 31.0877L112.725 31.5393C112.753 31.5649 112.769 31.6034 112.766 31.6393C112.58 34.7492 112.805 36.0604 113.08 36.2477C113.305 36.4042 113.755 36.4786 114.276 36.5658L114.55 36.612C114.589 36.6197 114.623 36.6428 114.641 36.6762C114.659 36.7095 114.662 36.7506 114.649 36.7865C113.885 38.657 112.678 40.8868 111.272 40.8868ZM108.4 36.6993C108.843 37.9822 109.92 40.6276 111.272 40.6276C112.554 40.6276 113.727 38.3183 114.348 36.8378L114.234 36.8173C113.66 36.7198 113.204 36.6454 112.932 36.4555C112.484 36.145 112.339 34.5388 112.507 31.6804L112.155 31.3494L110.05 33.2097C110.006 33.5663 109.736 35.678 109.521 36.1758C109.426 36.3888 109.099 36.5427 108.4 36.6993Z" fill="#3F4553"/>
<path d="M112.621 31.9034C112.344 31.9214 112.038 31.9907 111.823 32.0446C111.513 32.1215 110.912 32.4474 110.34 32.7835L109.925 33.1505C109.925 33.1505 109.804 34.1512 109.656 35.0107C110.174 34.826 111.678 34.2435 112.574 33.3968C112.577 32.8682 112.598 32.3473 112.621 31.9034Z" fill="#C6FF00"/>
<path d="M112.621 31.9034C112.344 31.9214 112.038 31.9907 111.823 32.0446C111.513 32.1215 110.912 32.4474 110.34 32.7835L109.925 33.1505C109.925 33.1505 109.804 34.1512 109.656 35.0107C110.174 34.826 111.678 34.2435 112.574 33.3968C112.577 32.8682 112.598 32.3473 112.621 31.9034Z" fill="#BFB2AA"/>
<path d="M109.695 70.1046C117.92 70.1046 124.588 63.4979 124.588 55.3482C124.588 47.1984 117.92 40.5917 109.695 40.5917C101.47 40.5917 94.8023 47.1984 94.8023 55.3482C94.8023 63.4979 101.47 70.1046 109.695 70.1046Z" fill="#FA6E5A"/>
<path d="M114.592 67.6157C106.367 67.6157 99.6989 61.0085 99.6989 52.8593C99.6989 48.1149 101.962 43.8966 105.474 41.1973C99.3053 43.0011 94.802 48.6512 94.802 55.3482C94.802 63.4974 101.47 70.1046 109.695 70.1046C113.131 70.1046 116.293 68.9474 118.812 67.0127C117.474 67.4027 116.057 67.6157 114.592 67.6157Z" fill="#E3604D"/>
<path d="M99.2456 49.8881C98.9841 49.8881 98.7458 49.7084 98.6863 49.4467C98.6138 49.1388 98.808 48.8335 99.1187 48.7642L103.226 47.8276L100.854 47.0938C100.551 46.9989 100.382 46.6807 100.476 46.3805C100.569 46.0803 100.893 45.9135 101.196 46.0059L105.595 47.3684C105.844 47.4453 106.01 47.6763 105.999 47.9354C105.989 48.192 105.808 48.4101 105.554 48.4691L99.3751 49.8778C99.3311 49.8855 99.287 49.8881 99.2456 49.8881Z" fill="#3F4553"/>
<path d="M119.833 49.8882C119.789 49.8882 119.742 49.883 119.698 49.8728L113.807 48.4641C113.553 48.4025 113.374 48.1818 113.367 47.9253C113.359 47.6687 113.527 47.4377 113.778 47.3633L118.401 46.0008C118.706 45.911 119.025 46.0829 119.115 46.3857C119.206 46.6885 119.033 47.0041 118.73 47.0939L116.156 47.8534L119.97 48.7643C120.278 48.8387 120.47 49.1466 120.395 49.452C120.327 49.7137 120.092 49.8882 119.833 49.8882Z" fill="#3F4553"/>
<path d="M98.3186 52.3001C99.8205 58.6892 104.345 63.3309 109.695 63.3309C115.045 63.3309 119.571 58.6892 121.07 52.3001L119.095 51.9742C112.774 50.9273 106.336 50.9402 100.02 52.0127L98.3186 52.3001Z" fill="#3F4553"/>
<path d="M117.45 58.9867C115.488 57.6961 112.781 56.8981 109.788 56.8981C106.737 56.8981 103.985 57.732 102.014 59.0663C104.088 61.373 106.766 62.7714 109.695 62.7714C112.66 62.7714 115.366 61.3422 117.45 58.9867Z" fill="#4E5567"/>
<path d="M107.745 26.9232C107.745 26.9232 107.219 28.4859 106.769 29.3814C106.318 30.2743 106.994 33.0301 107.52 33.8486C108.045 34.6671 109.022 34.5183 109.397 34.4439C109.773 34.3695 111.425 33.3277 112.028 32.7324C112.629 32.1371 112.929 31.8395 112.929 31.8395C112.929 31.8395 113.23 31.8395 113.53 31.2442C113.83 30.6489 112.629 29.3095 111.577 27.6699C110.526 26.0329 110.076 26.1073 110.076 26.1073L107.745 26.9232Z" fill="#FED9CE"/>
<path d="M108.833 34.6311C108.053 34.6311 107.634 34.2617 107.411 33.9153C106.87 33.0711 106.173 30.2743 106.652 29.3223C107.095 28.4473 107.618 26.8975 107.623 26.8822C107.636 26.8437 107.665 26.8154 107.704 26.8026L110.034 25.9841C110.143 25.9661 110.645 25.9738 111.689 27.6006C111.969 28.0368 112.256 28.4448 112.533 28.8399C113.331 29.9766 113.906 30.7977 113.649 31.3006C113.39 31.8138 113.116 31.9318 112.994 31.9601L112.121 32.8248C111.505 33.4354 109.827 34.4926 109.426 34.5721C109.206 34.6132 109.009 34.6311 108.833 34.6311ZM107.849 27.0233C107.748 27.3209 107.289 28.6347 106.885 29.4378C106.455 30.2871 107.139 33.0172 107.631 33.7793C107.965 34.3001 108.553 34.4798 109.376 34.3181C109.7 34.254 111.337 33.2379 111.94 32.64L112.841 31.7471C112.865 31.724 112.898 31.7086 112.932 31.7086C112.929 31.7086 113.165 31.6829 113.416 31.1852C113.603 30.8182 113.007 29.9689 112.318 28.9862C112.041 28.5885 111.754 28.1779 111.469 27.7392C110.599 26.3844 110.166 26.2484 110.096 26.2355L107.849 27.0233Z" fill="#3F4553"/>
<path d="M108.273 30.6361C108.257 30.6361 108.242 30.6336 108.226 30.6284C107.442 30.3282 107.512 30.1255 107.532 30.0614C107.584 29.9049 108.188 29.0222 108.371 28.7553C108.413 28.6963 108.493 28.6809 108.55 28.722C108.61 28.763 108.625 28.8426 108.584 28.899C108.239 29.3994 107.869 29.9587 107.789 30.1127C107.853 30.1794 108.084 30.3 108.317 30.3898C108.384 30.4155 108.418 30.4899 108.392 30.5566C108.374 30.6028 108.325 30.6361 108.273 30.6361Z" fill="#3F4553"/>
<path d="M110.896 29.4634C110.847 29.4634 110.8 29.4352 110.78 29.389C110.661 29.1375 110.505 28.9784 110.316 28.9143C110.062 28.8296 109.827 28.94 109.824 28.94C109.759 28.9708 109.682 28.9451 109.651 28.8835C109.62 28.8194 109.646 28.7424 109.708 28.7116C109.721 28.7039 110.042 28.55 110.402 28.6731C110.658 28.7604 110.865 28.9656 111.015 29.2812C111.046 29.3454 111.018 29.4223 110.953 29.4531C110.933 29.4583 110.914 29.4634 110.896 29.4634Z" fill="#3F4553"/>
<path d="M108.118 28.7501C108.076 28.7501 108.037 28.7322 108.012 28.6963C108.009 28.6911 107.887 28.5295 107.706 28.5089C107.589 28.4961 107.46 28.55 107.328 28.6655C107.274 28.7116 107.193 28.7091 107.144 28.6552C107.097 28.6013 107.1 28.5218 107.154 28.473C107.343 28.3037 107.538 28.2318 107.737 28.2524C108.035 28.2857 108.216 28.5346 108.221 28.5449C108.263 28.6039 108.247 28.6834 108.19 28.7245C108.17 28.7424 108.144 28.7501 108.118 28.7501Z" fill="#3F4553"/>
<path d="M111.308 28.6475C111.254 28.6475 111.205 28.6141 111.187 28.5602C110.824 27.5236 110.184 27.6673 110.159 27.675C110.089 27.6904 110.019 27.6519 110.001 27.5826C109.983 27.5133 110.024 27.4441 110.091 27.4261C110.099 27.4235 110.985 27.2054 111.43 28.4755C111.453 28.5423 111.417 28.6167 111.35 28.6398C111.337 28.6449 111.321 28.6475 111.308 28.6475Z" fill="#3F4553"/>
<path d="M107.501 28.1367C107.48 28.1367 107.462 28.1316 107.444 28.1239C107.379 28.0931 107.354 28.0162 107.387 27.952C107.532 27.6621 107.726 27.4901 107.965 27.4363C108.327 27.3542 108.648 27.5928 108.661 27.603C108.718 27.6467 108.729 27.7262 108.685 27.7827C108.641 27.8391 108.56 27.8494 108.503 27.8057C108.501 27.8032 108.262 27.6287 108.019 27.6852C107.861 27.7211 107.726 27.8494 107.618 28.0649C107.594 28.1111 107.548 28.1367 107.501 28.1367Z" fill="#3F4553"/>
<path d="M107.81 31.2211C107.81 31.2211 108.734 31.5777 109.918 30.9157C109.918 30.9157 109.301 31.8317 108.581 31.9344C107.861 32.0344 107.81 31.2211 107.81 31.2211Z" fill="#3F4553"/>
<path d="M99.4428 41.8156C99.4428 41.8156 96.1877 44.5226 95.6672 46.2648C95.1467 48.0071 95.5378 52.0047 95.473 53.2287C95.4083 54.4526 96.2551 55.8074 96.6435 56.0665C97.0345 56.3257 97.0993 55.8741 97.0345 55.4225C96.9698 54.9709 96.9698 52.6488 96.9698 52.6488C96.9698 52.6488 97.555 54.3243 97.6198 54.0036C97.6845 53.6803 97.6845 53.1004 97.4256 52.1972C97.1666 51.294 96.514 50.0059 96.5788 49.7467C96.6435 49.4876 98.7255 45.6208 99.0518 44.3943" fill="#FED9CE"/>
<path d="M96.8428 56.2694C96.7703 56.2694 96.6797 56.2437 96.5709 56.1719C96.1618 55.9025 95.2736 54.5066 95.3409 53.2211C95.359 52.8568 95.3383 52.2332 95.3124 51.5097C95.2528 49.8034 95.17 47.4658 95.5403 46.2291C96.066 44.4714 99.2201 41.8286 99.3547 41.7182C99.4091 41.672 99.492 41.6797 99.536 41.7336C99.5826 41.7875 99.5748 41.8696 99.5205 41.9132C99.4894 41.9389 96.2913 44.6177 95.7863 46.3009C95.4289 47.4992 95.5092 49.811 95.5688 51.502C95.5947 52.2307 95.6154 52.8619 95.5973 53.2365C95.5351 54.4117 96.3508 55.7229 96.7108 55.9615C96.7859 56.0102 96.8377 56.0205 96.8532 56.0128C96.9024 55.982 96.9516 55.7844 96.9024 55.4432C96.8377 54.989 96.8351 52.749 96.8351 52.6515C96.8351 52.5899 96.8817 52.536 96.9438 52.5258C97.006 52.5155 97.0681 52.5514 97.0889 52.6104C97.2261 53.0056 97.3996 53.4495 97.5213 53.7112C97.5343 53.411 97.498 52.9337 97.2986 52.2358C97.1873 51.8458 96.9956 51.3737 96.8273 50.958C96.5476 50.2652 96.4052 49.8957 96.4492 49.7187C96.4725 49.6263 96.6409 49.2902 97.0189 48.5409C97.6508 47.2862 98.7047 45.1873 98.9249 44.3662C98.943 44.2969 99.0155 44.2559 99.0828 44.2739C99.1527 44.2918 99.1942 44.3611 99.176 44.4304C98.9508 45.2771 97.9279 47.3093 97.252 48.6538C96.9801 49.1952 96.7237 49.7033 96.703 49.7803C96.6797 49.8932 96.8972 50.4294 97.0707 50.8605C97.2416 51.2839 97.4333 51.7611 97.5498 52.164C97.8424 53.1826 97.801 53.7702 97.7466 54.0294C97.7207 54.1551 97.6301 54.1705 97.6016 54.1731C97.5239 54.1782 97.4177 54.1859 97.1018 53.3828C97.107 54.1012 97.1225 55.125 97.1614 55.4021C97.1976 55.6484 97.2235 56.0846 96.993 56.2258C96.9594 56.2514 96.9076 56.2694 96.8428 56.2694Z" fill="#3F4553"/>
<path d="M96.8195 56.1718C96.7677 56.1718 96.7159 56.1384 96.6978 56.0871C96.6926 56.0769 96.2783 54.935 96.0737 53.5084C96.0634 53.4391 96.1126 53.3724 96.1825 53.3622C96.2524 53.3519 96.3197 53.4006 96.3301 53.4699C96.5321 54.8683 96.9386 55.9845 96.9412 55.9973C96.9645 56.064 96.9309 56.1384 96.8635 56.1615C96.848 56.1692 96.8325 56.1718 96.8195 56.1718Z" fill="#3F4553"/>
<path d="M96.356 55.864C96.3094 55.864 96.2628 55.8383 96.2395 55.7922C96.2214 55.7588 95.8174 54.9454 95.5585 53.6137C95.5455 53.5444 95.5921 53.4777 95.662 53.4623C95.732 53.4495 95.7993 53.4931 95.8148 53.565C96.066 54.8607 96.47 55.669 96.4726 55.6767C96.5036 55.7408 96.4777 55.8178 96.4156 55.8486C96.3949 55.8614 96.3742 55.864 96.356 55.864Z" fill="#3F4553"/>
<path d="M120.903 41.8156C120.903 41.8156 124.158 44.5226 124.678 46.2648C125.199 48.0071 124.808 52.0047 124.872 53.2287C124.937 54.4526 124.09 55.8074 123.702 56.0665C123.314 56.3257 123.246 55.8741 123.311 55.4225C123.376 54.9709 123.376 52.6488 123.376 52.6488C123.376 52.6488 122.79 54.3243 122.726 54.0036C122.661 53.6828 122.661 53.1004 122.92 52.1972C123.181 51.294 123.831 50.0059 123.767 49.7467C123.702 49.4876 121.62 45.6208 121.294 44.3943" fill="#FED9CE"/>
<path d="M123.503 56.2694C123.438 56.2694 123.389 56.2489 123.35 56.2258C123.122 56.0846 123.148 55.6484 123.182 55.4021C123.22 55.125 123.236 54.0986 123.241 53.3828C122.925 54.1833 122.824 54.1782 122.741 54.1731C122.713 54.1705 122.622 54.1551 122.596 54.0294C122.545 53.7702 122.501 53.1826 122.793 52.164C122.91 51.7611 123.101 51.2839 123.272 50.8605C123.446 50.4294 123.661 49.8932 123.637 49.7803C123.617 49.7058 123.36 49.1927 123.088 48.6513C122.412 47.3067 121.39 45.2746 121.167 44.4304C121.149 44.3611 121.19 44.2918 121.26 44.2739C121.327 44.2559 121.4 44.2969 121.418 44.3662C121.636 45.1847 122.692 47.2862 123.321 48.5384C123.699 49.2902 123.868 49.6263 123.891 49.7187C123.935 49.8957 123.793 50.2652 123.513 50.958C123.345 51.3737 123.156 51.8458 123.042 52.2358C122.84 52.9337 122.803 53.411 122.819 53.7112C122.941 53.4469 123.112 53.0056 123.251 52.6104C123.272 52.5514 123.332 52.5155 123.397 52.5258C123.459 52.536 123.505 52.5899 123.505 52.6515C123.505 52.7464 123.505 54.9864 123.438 55.4432C123.389 55.7844 123.438 55.982 123.487 56.0128C123.503 56.0231 123.554 56.0128 123.63 55.9615C123.99 55.7229 124.805 54.4117 124.743 53.2365C124.722 52.8619 124.746 52.2307 124.772 51.502C124.831 49.8136 124.911 47.4992 124.554 46.3009C124.049 44.6177 120.854 41.9415 120.82 41.9132C120.766 41.8671 120.758 41.7875 120.804 41.7336C120.851 41.6797 120.931 41.672 120.986 41.7182C121.12 41.8286 124.274 44.4714 124.8 46.2291C125.17 47.4658 125.087 49.8034 125.028 51.5097C125.002 52.2332 124.981 52.8593 124.999 53.2211C125.067 54.5066 124.179 55.9025 123.769 56.1719C123.663 56.2463 123.575 56.2694 123.503 56.2694Z" fill="#3F4553"/>
<path d="M123.508 56.0692C123.497 56.0692 123.487 56.0692 123.474 56.064C123.404 56.0461 123.363 55.9768 123.381 55.9075C123.386 55.8921 123.79 54.327 123.79 53.2852C123.79 53.2134 123.847 53.1569 123.919 53.1569C123.992 53.1569 124.049 53.2134 124.049 53.2852C124.049 54.3603 123.65 55.9075 123.632 55.9717C123.619 56.0307 123.565 56.0692 123.508 56.0692Z" fill="#3F4553"/>
<path d="M123.971 56.0179C123.956 56.0179 123.943 56.0153 123.927 56.0102C123.86 55.9871 123.826 55.9127 123.849 55.846C123.855 55.8306 124.461 54.1756 124.461 53.5418C124.461 53.4699 124.518 53.4135 124.59 53.4135C124.663 53.4135 124.72 53.4699 124.72 53.5418C124.72 54.2192 124.119 55.8639 124.093 55.9332C124.075 55.9871 124.023 56.0179 123.971 56.0179Z" fill="#3F4553"/>
<path d="M64.219 96.5305C75.9465 96.5305 85.4535 94.3145 85.4535 91.5809C85.4535 88.8473 75.9465 86.6313 64.219 86.6313C52.4916 86.6313 42.9846 88.8473 42.9846 91.5809C42.9846 94.3145 52.4916 96.5305 64.219 96.5305Z" fill="#F4A17C"/>
<path d="M65.4436 96.5323C77.8581 96.5323 87.922 94.3231 87.922 91.598C87.922 88.8729 77.8581 86.6637 65.4436 86.6637C53.029 86.6637 42.9651 88.8729 42.9651 91.598C42.9651 94.3231 53.029 96.5323 65.4436 96.5323Z" fill="#F4A17C"/>
<path d="M55.296 88.1401C55.296 88.1401 52.1471 89.7797 51.5541 90.629C50.9611 91.4784 51.7509 92.1532 52.9343 92.2353C54.1178 92.3174 58.9887 90.6932 59.429 90.4828C59.8718 90.2724 59.5507 88.9971 59.2296 88.3403C58.9111 87.6808 55.296 88.1401 55.296 88.1401Z" fill="#E49621"/>
<path d="M53.025 92.3661C52.9888 92.3661 52.9551 92.3661 52.9241 92.3635C52.1394 92.3097 51.5205 91.9992 51.3056 91.5579C51.202 91.3423 51.1398 90.9934 51.4454 90.5572C52.0514 89.6925 55.1045 88.0965 55.2339 88.0272C55.2469 88.0195 55.2624 88.0144 55.278 88.0144C55.8969 87.9348 59.0018 87.5807 59.3436 88.2838C59.5223 88.6507 59.6776 89.1511 59.7398 89.559C59.8252 90.1261 59.7398 90.475 59.4808 90.5982C59.0458 90.806 54.3949 92.3661 53.025 92.3661ZM55.3349 88.2633C55.063 88.407 52.2042 89.9208 51.6578 90.7008C51.4687 90.9703 51.4299 91.2217 51.5386 91.445C51.7121 91.8042 52.2508 92.0582 52.9422 92.1069C54.1075 92.1916 58.9344 90.5751 59.3721 90.3673C59.5067 90.3031 59.5507 90.0158 59.486 89.5975C59.429 89.2126 59.2814 88.7405 59.1131 88.3941C58.9215 87.999 56.798 88.0811 55.3349 88.2633Z" fill="#3F4553"/>
<path d="M59.5917 89.441C58.3436 89.9824 54.8995 91.4423 53.7108 91.5937C52.7423 91.7169 51.8515 91.3551 51.3595 91.096C51.2792 91.7143 51.9784 92.1685 52.934 92.2352C54.1174 92.3173 58.9884 90.6931 59.4286 90.4827C59.672 90.3647 59.6824 89.9233 59.5917 89.441Z" fill="#F1BD54"/>
<path d="M53.0247 92.3662C52.9885 92.3662 52.9548 92.3662 52.9237 92.3636C52.2608 92.3174 51.717 92.0942 51.4322 91.7504C51.269 91.5528 51.1991 91.3219 51.2276 91.0807C51.2328 91.0396 51.2587 91.0011 51.2975 90.9832C51.3337 90.9626 51.3804 90.9626 51.4166 90.9832C51.8594 91.2167 52.7451 91.5887 53.6928 91.4681C54.8789 91.3167 58.4654 89.79 59.5375 89.3256C59.5737 89.3102 59.6152 89.3102 59.6488 89.3307C59.6825 89.3487 59.7084 89.382 59.7162 89.4205C59.8379 90.0594 59.7576 90.4674 59.4831 90.5983C59.0455 90.8061 54.3946 92.3662 53.0247 92.3662ZM51.4917 91.3065C51.5124 91.4065 51.559 91.4989 51.6315 91.5887C51.8672 91.8735 52.3566 92.066 52.9393 92.107C54.1046 92.1917 58.9315 90.5752 59.3692 90.3674C59.5012 90.3032 59.5427 90.0261 59.4883 89.6258C58.0252 90.257 54.8685 91.5759 53.7239 91.7221C52.8357 91.8325 52.0019 91.5451 51.4917 91.3065Z" fill="#3F4553"/>
<path d="M70.5463 88.1401C70.5463 88.1401 73.6952 89.7797 74.2882 90.6291C74.8812 91.4784 74.0914 92.1532 72.9079 92.2353C71.7245 92.3174 66.8535 90.6932 66.4133 90.4828C65.9705 90.2724 66.2916 88.9971 66.6127 88.3403C66.9338 87.6808 70.5463 88.1401 70.5463 88.1401Z" fill="#E49621"/>
<path d="M72.8199 92.3661C71.4474 92.3661 66.7992 90.8061 66.3589 90.5982C66.1026 90.4751 66.0145 90.1261 66.1 89.5591C66.1621 89.1511 66.3175 88.6507 66.4962 88.2838C66.838 87.5782 69.9429 87.9349 70.5618 88.0144C70.5773 88.017 70.5929 88.0221 70.6058 88.0272C70.7353 88.0939 73.791 89.6899 74.3944 90.5572C74.6999 90.9934 74.6404 91.3424 74.5342 91.5579C74.3193 92.0018 73.7004 92.3097 72.9157 92.3636C72.8872 92.3636 72.8536 92.3661 72.8199 92.3661ZM68.239 88.1119C67.4543 88.1119 66.8302 88.1889 66.7292 88.3942C66.5609 88.7405 66.4133 89.2127 66.3563 89.5976C66.2916 90.0158 66.3356 90.3032 66.4703 90.3673C66.8976 90.5726 71.5096 92.1121 72.8095 92.1121C72.8432 92.1121 72.8717 92.1121 72.9002 92.1096C73.5916 92.0608 74.1276 91.8068 74.3037 91.4476C74.4125 91.2243 74.371 90.9729 74.1846 90.7034C73.6408 89.9234 70.7793 88.4095 70.5074 88.2659C69.8082 88.1761 68.9563 88.1119 68.239 88.1119Z" fill="#3F4553"/>
<path d="M66.2523 89.4411C67.5005 89.9825 70.9446 91.4425 72.1332 91.5938C73.1017 91.717 73.9925 91.3552 74.4845 91.0961C74.5648 91.7144 73.8656 92.1686 72.9101 92.2353C71.7267 92.3174 66.8557 90.6932 66.4155 90.4828C66.1695 90.3648 66.1591 89.9235 66.2523 89.4411Z" fill="#F1BD54"/>
<path d="M72.8195 92.3662C71.4471 92.3662 66.7988 90.8061 66.3586 90.5983C66.0841 90.4674 66.0038 90.0594 66.1255 89.4205C66.1333 89.382 66.1566 89.3487 66.1928 89.3307C66.2291 89.3128 66.2679 89.3102 66.3042 89.3256C67.3763 89.79 70.9654 91.3167 72.1488 91.4681C73.0966 91.5887 73.9822 91.2166 74.4251 90.9831C74.4639 90.9626 74.5079 90.9626 74.5442 90.9831C74.583 91.0037 74.6089 91.0396 74.6141 91.0806C74.6452 91.3218 74.5752 91.5528 74.4095 91.7503C74.1247 92.0942 73.5809 92.3174 72.9179 92.3636C72.8868 92.3636 72.8532 92.3662 72.8195 92.3662ZM66.3534 89.6258C66.2964 90.0261 66.3404 90.3032 66.4725 90.3673C66.8998 90.5726 71.5118 92.1096 72.8117 92.1121C72.8454 92.1121 72.8739 92.1121 72.9024 92.1096C73.485 92.0685 73.9745 91.8735 74.2101 91.5913C74.2826 91.504 74.3292 91.4091 74.35 91.309C73.8424 91.5476 73.0111 91.8376 72.1152 91.7247C70.9706 91.5759 67.8165 90.257 66.3534 89.6258Z" fill="#3F4553"/>
<path d="M56.8547 56.0331C56.8547 56.0331 53.9881 68.3237 53.5893 70.0788C53.1905 71.8339 52.8979 73.807 53.364 74.9873C53.8301 76.1676 55.3243 87.7501 55.3243 87.7501L59.6178 88.9099C59.6178 88.9099 59.6722 81.4688 59.5298 78.5437C59.3873 75.6186 59.2216 71.9211 59.2216 71.9211L63.7844 60.6543L64.538 61.6421L67.9536 71.7415L65.9441 88.6687L70.0279 87.609C70.0279 87.609 73.5367 76.8425 74.109 74.6025C74.6787 72.3624 74.9532 70.8563 74.5078 69.8273C74.0624 68.7984 71.1725 57.316 71.1725 57.316L56.8547 56.0331Z" fill="#3F4553"/>
<path d="M59.6152 89.0356C59.6049 89.0356 59.5919 89.033 59.5816 89.0305L55.2881 87.8707C55.2389 87.8579 55.2 87.8142 55.1949 87.7629C55.1793 87.6474 53.6955 76.183 53.2423 75.031C52.8539 74.0431 52.9238 72.4137 53.4624 70.048C53.856 68.3135 56.6994 56.1255 56.7279 56.0023C56.7434 55.9407 56.8004 55.8971 56.8651 55.9022L71.1777 57.1852C71.232 57.1903 71.2786 57.2288 71.2916 57.2827C71.3201 57.3982 74.1841 68.7676 74.6218 69.7735C75.0698 70.8049 74.8289 72.2752 74.2282 74.6307C73.6636 76.8502 70.1807 87.5371 70.147 87.6449C70.1341 87.6859 70.1004 87.7193 70.0564 87.7296L65.9726 88.7893C65.9312 88.7995 65.8872 88.7893 65.8535 88.761C65.8198 88.7328 65.8043 88.6918 65.8095 88.6481L67.8164 71.7518L64.4163 61.6986L63.8129 60.9083L59.3511 71.9416C59.3666 72.2855 59.522 75.7571 59.6593 78.536C59.8017 81.4303 59.7473 88.8355 59.7473 88.9099C59.7473 88.9509 59.7292 88.9868 59.6955 89.0099C59.6722 89.0279 59.6437 89.0356 59.6152 89.0356ZM55.4409 87.6474L59.4884 88.7405C59.4961 87.6218 59.5298 81.1917 59.4003 78.5462C59.2579 75.6211 59.0921 71.9237 59.0921 71.9237C59.0921 71.9057 59.0947 71.8877 59.1025 71.8698L63.6653 60.603C63.6835 60.5593 63.7223 60.5285 63.7689 60.5234C63.8181 60.5183 63.8621 60.5362 63.8906 60.5747L64.6442 61.5626C64.6519 61.5729 64.6597 61.5857 64.6623 61.5985L68.0779 71.6979C68.0831 71.7158 68.0857 71.7338 68.0831 71.7543L66.0943 88.4942L69.9269 87.4986C70.2247 86.5852 73.4435 76.686 73.9822 74.5665C74.5674 72.2675 74.8056 70.8357 74.3887 69.8735C73.9589 68.8857 71.3589 58.581 71.0689 57.4315L56.9583 56.1665C56.6735 57.3905 54.0917 68.4572 53.7188 70.1019C53.1931 72.4163 53.118 73.9969 53.4883 74.936C53.9337 76.0804 55.2933 86.5108 55.4409 87.6474Z" fill="#3F4553"/>
<path d="M67.3188 86.0976C67.3136 86.0976 67.3085 86.0976 67.3033 86.0976C67.2334 86.0899 67.1816 86.0258 67.1893 85.9539C67.2049 85.8307 68.6835 73.612 68.7612 72.9295C68.8026 72.5805 68.813 72.4753 69.0538 72.4625C69.1678 72.4573 69.4086 72.4445 69.9369 72.093C70.0638 72.0083 70.1466 71.9467 70.1984 71.9057C70.1285 71.9057 70.0405 71.9082 69.9654 71.9108C69.6442 71.9211 69.204 71.9365 68.8907 71.8005C68.163 71.4849 66.2416 65.1215 65.8635 63.8462C65.8428 63.7795 65.8816 63.7077 65.9515 63.6871C66.0188 63.6666 66.0914 63.7051 66.1121 63.7744C67.1919 67.4128 68.5696 71.3797 68.9943 71.5644C69.2558 71.6773 69.6624 71.6645 69.9576 71.6542C70.2968 71.644 70.4859 71.6363 70.5376 71.7902C70.5817 71.9236 70.4755 72.0442 70.0845 72.306C69.4966 72.6985 69.2092 72.7139 69.0694 72.7191C69.0642 72.7191 69.059 72.7191 69.0538 72.7191C69.0435 72.7652 69.0331 72.855 69.0228 72.9577C68.9451 73.6428 67.4638 85.8615 67.4483 85.9847C67.4405 86.0488 67.3836 86.0976 67.3188 86.0976Z" fill="#4E5567"/>
<path d="M59.3664 83.4139C59.3016 83.4139 59.2446 83.3651 59.2369 83.301L59.1281 82.385C59.1204 82.3157 59.1721 82.2515 59.2421 82.2438C59.312 82.2361 59.3767 82.2875 59.3845 82.3567L59.4932 83.2728C59.501 83.342 59.4492 83.4062 59.3793 83.4139C59.3767 83.4139 59.3715 83.4139 59.3664 83.4139Z" fill="#4E5567"/>
<path d="M59.0997 81.1302C59.035 81.1302 58.978 81.0814 58.9703 81.0173L58.0044 72.7987C57.8334 72.7628 57.4372 72.6756 56.9167 72.5319C56.8235 72.5062 56.6267 72.4523 56.6189 72.2984C56.6086 72.1265 56.8132 72.0444 57.2637 71.8648C57.6133 71.7262 58.051 71.5517 58.4498 71.3028C58.9262 71.0077 60.0579 68.5548 61.5521 64.5751C61.578 64.5083 61.6505 64.475 61.7178 64.5006C61.7851 64.5263 61.8188 64.5982 61.7929 64.6649C60.7053 67.5592 59.2655 71.0976 58.5844 71.5209C58.1649 71.7801 57.6988 71.9674 57.357 72.1034C57.2094 72.1624 57.0488 72.2265 56.9478 72.2753C56.9582 72.2779 56.9685 72.2804 56.9815 72.2856C57.6729 72.4754 58.139 72.5652 58.1442 72.5678C58.1986 72.5781 58.2426 72.6243 58.2478 72.6781L59.224 80.9891C59.2318 81.0583 59.18 81.1225 59.1101 81.1302C59.1101 81.1302 59.1049 81.1302 59.0997 81.1302Z" fill="#4E5567"/>
<path d="M62.1683 63.4074C62.1528 63.4074 62.1398 63.4048 62.1243 63.3997C62.057 63.3766 62.0233 63.3022 62.0466 63.2355C62.2227 62.7531 62.3263 62.458 62.3263 62.458C62.3496 62.3913 62.4247 62.3554 62.492 62.3785C62.5594 62.4016 62.5956 62.476 62.5723 62.5427C62.5723 62.5427 62.4687 62.8378 62.2926 63.3227C62.2719 63.3741 62.2227 63.4074 62.1683 63.4074Z" fill="#4E5567"/>
<path d="M65.527 36.0344C65.527 36.0344 58.5792 34.9028 55.7799 34.405C52.9806 33.9072 50.5748 33.4377 50.5748 33.4377L49.3552 37.3096C49.3552 37.3096 54.9098 39.1622 56.3729 39.5958C57.836 40.0294 58.4135 40.2655 58.4135 40.2655C58.4135 40.2655 58.6051 49.6131 58.0043 51.6247C57.4035 53.6364 56.0518 57.6802 56.0518 57.6802L63.2093 61.6522L64.6465 59.4558L64.7579 61.5316C64.7579 61.5316 67.0082 61.4008 69.0359 60.7567C71.0635 60.1127 72.2909 59.3378 72.2909 59.3378L70.6828 52.338L72.8762 43.3087C72.8762 43.3087 83.9285 41.1328 83.9932 40.4272C84.0579 39.7215 82.4731 37.1351 82.4731 37.1351L67.4977 36.1678L65.527 36.0344Z" fill="#FFF9F1"/>
<path d="M63.2099 61.7832C63.1892 61.7832 63.1659 61.7781 63.1477 61.7678L55.9902 57.7958C55.9358 57.765 55.9099 57.7009 55.9306 57.6444C55.9436 57.6034 57.2901 53.58 57.8831 51.5915C58.4399 49.7235 58.3052 41.2997 58.2871 40.3554C58.0851 40.2785 57.4818 40.0578 56.3372 39.7191C54.8896 39.2906 49.3712 37.4509 49.3169 37.4329C49.2495 37.4098 49.2133 37.3405 49.234 37.2738L50.4537 33.4019C50.4744 33.3403 50.5365 33.2992 50.6013 33.3146C50.6246 33.3198 53.0381 33.7893 55.8037 34.2794C58.5357 34.7644 65.3048 35.8677 65.5431 35.9088L67.5086 36.0447L82.484 37.0121C82.5254 37.0147 82.5643 37.0377 82.5876 37.0737C82.7507 37.3431 84.1931 39.7191 84.1258 40.4452C84.1077 40.6326 84.0766 40.979 78.4417 42.2645C75.9635 42.829 73.462 43.3319 72.9855 43.4268L70.818 52.3484L72.4184 59.3174C72.4313 59.3713 72.408 59.4251 72.3614 59.4534C72.3485 59.4611 71.0951 60.2462 69.0752 60.8877C67.0554 61.5292 64.7895 61.6677 64.7662 61.6677C64.7325 61.6703 64.6989 61.6575 64.673 61.6344C64.6471 61.6113 64.6315 61.5805 64.629 61.5446L64.5383 59.8613L63.3186 61.7267C63.2927 61.7627 63.2513 61.7832 63.2099 61.7832ZM56.2077 57.6239L63.1659 61.4855L64.5357 59.3918C64.5668 59.3456 64.6238 59.3251 64.6782 59.3379C64.7325 59.3533 64.7714 59.3995 64.774 59.4559L64.8801 61.4009C65.3877 61.3624 67.2833 61.1853 68.995 60.6414C70.6989 60.1 71.8435 59.4585 72.1439 59.2814L70.5565 52.3741C70.5513 52.3535 70.5513 52.3356 70.5565 52.3151L72.7498 43.2857C72.7628 43.2369 72.8016 43.201 72.8508 43.1908C78.0092 42.1747 83.6234 40.8558 83.8694 40.4093C83.9134 39.8936 82.8543 38.0179 82.3986 37.2661L67.4904 36.3039L65.5172 36.1679C65.512 36.1679 65.5094 36.1679 65.5042 36.1653C65.4343 36.1551 58.5254 35.0261 55.7571 34.536C53.3281 34.1049 51.1736 33.6893 50.6634 33.5918L49.5163 37.2353C50.3346 37.5073 55.0838 39.0853 56.4097 39.4805C57.8624 39.9115 58.4399 40.145 58.4632 40.1553C58.5098 40.1758 58.5409 40.2195 58.5435 40.2708C58.5513 40.6531 58.7273 49.6619 58.1292 51.6685C57.5879 53.4774 56.4226 56.985 56.2077 57.6239Z" fill="#3F4553"/>
<path d="M63.0953 35.5521L62.7924 39.9834L66.4618 38.5593L70.3616 41.5409L70.2373 35.7163L63.0953 35.5521Z" fill="white"/>
<path d="M70.362 41.6692C70.3335 41.6692 70.305 41.6589 70.2817 41.6435L66.4414 38.7081L62.8393 40.1065C62.7978 40.1219 62.7512 40.1168 62.715 40.0912C62.6787 40.0655 62.6606 40.0219 62.6632 39.9783L62.9662 35.547C62.9713 35.4777 63.0361 35.4289 63.0982 35.4264L70.2377 35.5906C70.3076 35.5932 70.362 35.647 70.3645 35.7163L70.4888 41.5409C70.4888 41.5896 70.4629 41.6358 70.4189 41.6589C70.4008 41.664 70.3827 41.6692 70.362 41.6692ZM66.4621 38.431C66.4906 38.431 66.519 38.4413 66.5423 38.4567L70.2273 41.274L70.1108 35.842L63.2173 35.683L62.9351 39.7909L66.4155 38.4413C66.431 38.4336 66.4465 38.431 66.4621 38.431Z" fill="#3F4553"/>
<path d="M64.7891 59.1634C64.7865 59.1634 64.7813 59.1634 64.7787 59.1634C64.7062 59.1583 64.6544 59.0967 64.6596 59.0248L66.0994 42.054C66.1046 41.9822 66.1693 41.9334 66.2393 41.936C66.3118 41.9411 66.3636 42.0027 66.3584 42.0746L64.9186 59.0454C64.9108 59.1146 64.8538 59.1634 64.7891 59.1634Z" fill="#3F4553"/>
<path d="M72.8766 43.4395C72.8507 43.4395 72.8248 43.4318 72.8041 43.4164C72.7523 43.3805 72.7316 43.3137 72.76 43.2547L74.4925 39.6317C74.5235 39.5675 74.6012 39.5419 74.666 39.5701C74.7307 39.6009 74.7592 39.6779 74.7281 39.742L73.3505 42.621L76.4942 39.2879C76.5434 39.2365 76.6237 39.234 76.6781 39.2827C76.7299 39.3315 76.7324 39.411 76.6832 39.4649L72.9724 43.401C72.9465 43.4266 72.9102 43.4395 72.8766 43.4395Z" fill="#3F4553"/>
<path d="M58.4139 40.3964C58.375 40.3964 58.3362 40.3784 58.3103 40.3451L55.4669 36.6451C55.4229 36.5886 55.4333 36.5091 55.4902 36.4654C55.5472 36.4218 55.6275 36.4321 55.6715 36.4885L57.9192 39.4111L57.1346 37.5175C57.1087 37.4533 57.1398 37.3763 57.2045 37.3507C57.2693 37.325 57.347 37.3558 57.3729 37.42L58.5304 40.2168C58.5537 40.2758 58.5304 40.3451 58.476 40.3759C58.4579 40.3887 58.4346 40.3964 58.4139 40.3964Z" fill="#3F4553"/>
<path d="M64.7789 35.9114L66.2264 42.0644L68.8212 36.2578L67.4953 36.1731L65.5247 36.0371C65.5273 36.0345 65.245 35.9884 64.7789 35.9114Z" fill="white"/>
<path d="M66.2266 42.1926C66.2215 42.1926 66.2189 42.1926 66.2137 42.1926C66.1593 42.1875 66.1127 42.149 66.0998 42.0951L64.6522 35.9421C64.6418 35.901 64.6548 35.8574 64.6833 35.8241C64.7118 35.7907 64.7558 35.7779 64.7998 35.7856L65.5482 35.9087L68.8317 36.1294C68.8732 36.132 68.912 36.1551 68.9353 36.191C68.956 36.2269 68.9612 36.2705 68.9431 36.309L66.3484 42.1156C66.325 42.1618 66.2784 42.1926 66.2266 42.1926ZM64.95 36.0704L66.2655 41.6615L68.6297 36.3732L65.5171 36.1628L64.95 36.0704Z" fill="#3F4553"/>
<path d="M64.7789 35.9114L66.2264 42.0644L68.8212 36.2578L67.4953 36.1731L65.5247 36.0371C65.5273 36.0345 65.245 35.9884 64.7789 35.9114Z" fill="#C6FF00"/>
<path d="M64.7789 35.9114L66.2264 42.0644L68.8212 36.2578L67.4953 36.1731L65.5247 36.0371C65.5273 36.0345 65.245 35.9884 64.7789 35.9114Z" fill="#FED9CE"/>
<path d="M86.7337 39.0238C86.7337 39.0238 86.8606 40.0476 86.2857 40.4966C85.7134 40.9457 83.2922 41.7231 82.6137 41.3203C81.9352 40.9174 80.9745 38.7852 81.35 37.2841C81.7255 35.7856 83.9939 36.3424 83.9939 36.3424C83.9939 36.3424 86.2106 37.0455 86.7337 39.0238Z" fill="white"/>
<path d="M83.1804 41.559C82.9189 41.559 82.6988 41.5205 82.5486 41.4307C81.7924 40.9816 80.8524 38.7468 81.2253 37.2534C81.3936 36.5811 81.9374 36.1911 82.8024 36.1218C83.4316 36.0731 84.0013 36.2091 84.0246 36.2168C84.1256 36.2476 86.3242 36.966 86.8576 38.9879C86.8602 38.9931 86.8602 38.9982 86.8602 39.0059C86.8654 39.0495 86.9871 40.1067 86.3656 40.5942C85.915 40.9509 84.224 41.559 83.1804 41.559ZM83.0846 36.3707C82.4502 36.3707 81.6681 36.5375 81.4739 37.315C81.1088 38.7724 82.0721 40.8482 82.6806 41.21C83.2944 41.5744 85.6405 40.838 86.205 40.3966C86.6893 40.0169 86.6142 39.1393 86.6064 39.047C86.104 37.1687 83.9754 36.4734 83.9547 36.4657C83.9469 36.4631 83.5559 36.3707 83.0846 36.3707Z" fill="#575C69"/>
<path d="M84.6825 40.1092C83.6207 40.1682 82.6859 39.4138 82.4166 38.3952C81.7407 35.819 80.0937 29.7558 79.4671 29.3401C78.6695 28.8141 78.0583 28.6807 78.0687 28.1932C78.0791 27.7082 78.1205 25.7633 78.1205 25.7633C78.1205 25.7633 78.4753 25.2347 78.7109 25.7274C78.9466 26.2175 78.8896 26.6049 78.8896 26.6049C78.8896 26.6049 79.2806 25.5195 79.2392 25.1783C79.1978 24.837 79.1175 23.9133 79.1227 23.6695C79.1278 23.4258 79.4515 23.2154 79.9306 23.7106C80.4097 24.2058 81.3445 25.2706 81.1632 25.7761C80.982 26.2816 80.6583 28.7782 80.6583 28.7782C80.6583 28.7782 86.6557 37.5022 86.5418 38.2771C86.4589 38.8339 85.9747 40.0373 84.6825 40.1092Z" fill="#FED9CE"/>
<path d="M84.5659 40.24C83.5171 40.24 82.572 39.4933 82.2923 38.4259C80.9095 33.153 79.7985 29.7122 79.3972 29.4453C79.1667 29.2939 78.9517 29.1759 78.7627 29.0707C78.281 28.8038 77.9315 28.6114 77.9418 28.1906L77.9936 25.7607C77.9936 25.7376 78.0014 25.7119 78.0143 25.6914C78.035 25.658 78.2344 25.3707 78.4908 25.3886C78.6306 25.3989 78.7446 25.4938 78.83 25.6709C78.8844 25.7838 78.9233 25.8941 78.9543 25.9942C79.0501 25.6632 79.1278 25.3322 79.1123 25.1936C79.0709 24.8626 78.9906 23.9261 78.9958 23.6669C78.9984 23.5078 79.0968 23.3667 79.2444 23.3103C79.3738 23.2589 79.6509 23.2333 80.0264 23.6233C80.5858 24.2006 81.4921 25.2526 81.2875 25.8223C81.1244 26.2713 80.8421 28.401 80.7955 28.7499C81.8624 30.3023 86.7878 37.5227 86.6738 38.3002C86.5806 38.9365 86.0446 40.163 84.6954 40.2374C84.6462 40.24 84.6048 40.24 84.5659 40.24ZM78.2474 25.8069L78.1982 28.1957C78.193 28.4497 78.4183 28.5857 78.887 28.8474C79.0812 28.9552 79.3013 29.0758 79.5396 29.2323C80.1481 29.6326 81.5076 34.418 82.5435 38.3618C82.8024 39.3548 83.6984 40.0347 84.6747 39.9808C85.8581 39.9141 86.3294 38.8288 86.4123 38.2617C86.49 37.7331 82.8568 32.2113 80.5495 28.8526C80.5314 28.8269 80.5236 28.7961 80.5288 28.7653C80.5417 28.6627 80.8551 26.2508 81.0389 25.735C81.1477 25.4297 80.6764 24.6702 79.8348 23.8003C79.6043 23.5617 79.4256 23.513 79.3324 23.5489C79.2729 23.572 79.2495 23.6284 79.2495 23.672C79.2444 23.903 79.3195 24.8062 79.3635 25.1628C79.4075 25.5246 79.0501 26.533 79.0087 26.6485C78.9854 26.7101 78.9207 26.746 78.8559 26.7306C78.7912 26.7152 78.7498 26.6536 78.7601 26.5869C78.7601 26.5843 78.8067 26.2277 78.5944 25.7812C78.5555 25.6991 78.5089 25.6478 78.4701 25.6452C78.4157 25.6375 78.3095 25.7299 78.2474 25.8069Z" fill="#3F4553"/>
<path d="M80.174 26.6948C80.161 26.6948 80.1481 26.6922 80.1377 26.6896C80.0704 26.6691 80.0289 26.5973 80.0523 26.5306L80.3319 25.6043C80.2724 25.4708 80.1066 25.0808 80.0885 24.7242C80.0782 24.5266 80.1584 24.4368 80.2258 24.3957C80.3993 24.2905 80.6427 24.424 80.6893 24.4496C80.7514 24.4855 80.7696 24.5651 80.7333 24.6241C80.6971 24.6857 80.6168 24.7062 80.5572 24.6703C80.4795 24.6241 80.3811 24.601 80.3578 24.6138C80.3578 24.6138 80.3397 24.6344 80.3449 24.7113C80.3656 25.0911 80.5831 25.535 80.5857 25.5401C80.6013 25.5683 80.6038 25.6017 80.5935 25.6325L80.2983 26.6075C80.2801 26.6589 80.2283 26.6948 80.174 26.6948Z" fill="#263238"/>
<path d="M79.7311 26.5792C79.7208 26.5792 79.7104 26.5792 79.7 26.5766C79.6301 26.5587 79.5887 26.4894 79.6042 26.4227L79.8218 25.5426C79.757 25.404 79.5861 24.9653 79.6871 24.5034C79.7337 24.2956 79.8269 24.157 79.9668 24.0954C80.1584 24.0082 80.3474 24.1082 80.3682 24.1185C80.4303 24.1519 80.4536 24.2314 80.42 24.293C80.3863 24.3546 80.3086 24.3777 80.2439 24.3443C80.2413 24.3417 80.1455 24.2956 80.0729 24.3289C79.9979 24.3623 79.959 24.4726 79.9409 24.5573C79.8399 25.014 80.0704 25.463 80.0729 25.4682C80.0885 25.4964 80.0911 25.5272 80.0833 25.558L79.8554 26.4843C79.8425 26.5407 79.7881 26.5792 79.7311 26.5792Z" fill="#263238"/>
<path d="M79.3609 26.5535C79.3531 26.5535 79.3454 26.5535 79.3376 26.5509C79.2677 26.5381 79.2211 26.4714 79.2314 26.4021L79.4412 25.2295C79.4075 25.096 79.2677 24.5161 79.247 24.1005C79.2366 23.9055 79.3169 23.79 79.3868 23.7258C79.5836 23.5437 79.9073 23.5796 79.9435 23.5847C80.0135 23.595 80.0653 23.6566 80.0549 23.7284C80.0471 23.7977 79.9824 23.849 79.9099 23.8387C79.8426 23.831 79.6535 23.8285 79.5603 23.9132C79.5189 23.9516 79.5007 24.0081 79.5033 24.0876C79.5266 24.5238 79.6949 25.1884 79.6975 25.1935C79.7027 25.2115 79.7027 25.2295 79.7001 25.2474L79.4852 26.4457C79.4774 26.5098 79.423 26.5535 79.3609 26.5535Z" fill="#263238"/>
<path d="M68.5826 37.3559C77.4511 37.3559 84.6405 30.2323 84.6405 21.4449C84.6405 12.6574 77.4511 5.53377 68.5826 5.53377C59.7141 5.53377 52.5247 12.6574 52.5247 21.4449C52.5247 30.2323 59.7141 37.3559 68.5826 37.3559Z" fill="#FA6E5A"/>
<path opacity="0.3" d="M57.4996 20.7983C57.8207 13.0698 63.6576 6.86037 71.0922 5.73138C70.4863 5.63645 69.87 5.5723 69.2433 5.54664C60.3818 5.18485 52.9031 12.0076 52.5354 20.7855C52.1703 29.5659 59.0559 36.9762 67.9148 37.3406C68.9766 37.3842 70.015 37.3226 71.0275 37.1687C63.0827 35.9319 57.1604 28.9578 57.4996 20.7983Z" fill="#AC3E2F"/>
<path d="M58.8515 22.8741C58.8515 22.8741 70.6366 21.3371 80.3889 23.7568C80.3889 23.7568 79.4748 33.4558 69.2926 33.2326C60.4648 33.0402 58.8515 22.8741 58.8515 22.8741Z" fill="#3F4553"/>
<path d="M69.7819 17.8348C69.396 17.8348 69.062 17.5526 69.0128 17.1626C68.7668 15.2664 67.0266 13.8372 64.9627 13.8372C63.1241 13.8372 61.5056 14.9867 61.0266 16.6289C60.9074 17.0369 60.475 17.2729 60.0632 17.1549C59.6515 17.0369 59.4132 16.6109 59.5324 16.2004C60.2031 13.9013 62.4353 12.2977 64.9627 12.2977C67.8034 12.2977 70.2066 14.3042 70.5536 16.9676C70.6079 17.3884 70.3076 17.7758 69.8829 17.8297C69.8492 17.8323 69.8155 17.8348 69.7819 17.8348Z" fill="#3F4553"/>
<path d="M81.0958 19.6617C80.6763 19.6617 80.3319 19.3307 80.319 18.9124C80.2724 17.2215 78.8662 15.8103 77.0484 15.6307C75.4299 15.4716 73.8995 16.3388 73.3297 17.7424C73.1692 18.1375 72.716 18.3274 72.3198 18.1709C71.921 18.0118 71.7294 17.5653 71.8874 17.1702C72.7134 15.1329 74.8964 13.8705 77.2011 14.0988C79.7933 14.3554 81.8002 16.4081 81.8701 18.8688C81.8831 19.2947 81.5438 19.6488 81.114 19.6591C81.1114 19.6617 81.1036 19.6617 81.0958 19.6617Z" fill="#3F4553"/>
<path d="M60.3846 23.1719C60.4804 23.5568 61.1925 25.6634 65.3514 25.8353C69.9297 26.0226 74.5029 26.3792 76.8827 26.3074C78.307 26.2638 78.988 25.0501 79.3065 24.0802C72.0972 22.4457 63.9841 22.8614 60.3846 23.1719Z" fill="white"/>
<path d="M72.338 32.4552C72.3406 30.1741 69.8701 28.2446 66.7342 28.1163C64.9966 28.0444 63.4195 28.5448 62.3215 29.3889C63.896 31.1774 66.1774 32.622 69.4506 32.6938C70.5123 32.7169 71.4705 32.6271 72.338 32.4552Z" fill="#4E5567"/>
<path d="M54.8347 88.1965L59.9647 89.7925L60.0061 87.6962L54.6276 86.598L54.8347 88.1965Z" fill="#4E5567"/>
<path d="M59.965 89.9207C59.952 89.9207 59.9391 89.9182 59.9262 89.9156L54.7962 88.3196C54.747 88.3042 54.7134 88.2632 54.7056 88.2144L54.4984 86.6133C54.4932 86.5723 54.5088 86.5312 54.5399 86.503C54.5709 86.4748 54.6124 86.4619 54.6538 86.4722L60.0323 87.5704C60.0945 87.5832 60.1359 87.6371 60.1359 87.6987L60.0945 89.795C60.0945 89.836 60.0738 89.872 60.0401 89.8976C60.0194 89.913 59.9935 89.9207 59.965 89.9207ZM54.9516 88.099L59.8381 89.6179L59.8744 87.7987L54.7781 86.757L54.9516 88.099Z" fill="#3F4553"/>
<path d="M65.3719 88.507L66.0037 90.3647L71.056 88.3274L70.6753 86.5954L65.3719 88.507Z" fill="#4E5567"/>
<path d="M66.0037 90.4905C65.9856 90.4905 65.9674 90.4854 65.9493 90.4777C65.9156 90.4623 65.8923 90.4366 65.8794 90.4033L65.2475 88.5481C65.2242 88.4814 65.2605 88.4096 65.3252 88.3865L70.6287 86.4749C70.6649 86.4621 70.7038 86.4646 70.7348 86.4826C70.7685 86.5005 70.7918 86.5313 70.7996 86.5673L71.1802 88.2992C71.1932 88.3608 71.1595 88.4224 71.1025 88.4455L66.0503 90.4802C66.0374 90.4879 66.0192 90.4905 66.0037 90.4905ZM65.535 88.584L66.0814 90.1929L70.9057 88.2505L70.5794 86.7674L65.535 88.584Z" fill="#3F4553"/>
<path d="M46.5411 34.8803C46.5411 34.8803 46.1967 35.8528 46.6602 36.4147C47.1238 36.9766 49.3197 38.2467 50.0681 37.9953C50.8165 37.7464 52.2149 35.863 52.1734 34.3209C52.1294 32.7763 49.7936 32.8404 49.7936 32.8404C49.7936 32.8404 47.4785 33.0585 46.5411 34.8803Z" fill="white"/>
<path d="M49.8476 38.154C48.8791 38.154 46.9731 36.9942 46.5588 36.4938C46.0564 35.8857 46.4009 34.8799 46.4164 34.8363C46.419 34.8312 46.4216 34.826 46.4242 34.8209C47.3823 32.9555 49.6844 32.722 49.7802 32.7117C50.6451 32.6938 52.2636 32.994 52.3025 34.3154C52.3465 35.8524 50.9455 37.8358 50.1091 38.1155C50.034 38.1412 49.946 38.154 49.8476 38.154ZM46.6598 34.9287C46.6313 35.0185 46.3698 35.8575 46.7608 36.3322C47.2166 36.8839 49.3504 38.0975 50.0288 37.8743C50.7021 37.6485 52.0875 35.8267 52.0461 34.3257C52.0073 32.9273 49.8217 32.9709 49.7984 32.9709C49.7828 32.9709 47.5558 33.2018 46.6598 34.9287Z" fill="#3F4553"/>
<path d="M47.7759 36.2296C48.8014 36.5118 49.876 35.973 50.3577 35.0339C51.5722 32.6604 54.4881 27.0848 55.1898 26.8128C56.0832 26.4664 56.7073 26.4664 56.8031 25.9891C56.8989 25.5119 57.277 23.6054 57.277 23.6054C57.277 23.6054 57.044 23.0153 56.7099 23.4463C56.3758 23.8748 56.3474 24.2674 56.3474 24.2674C56.3474 24.2674 56.1998 23.1256 56.3137 22.7997C56.4276 22.4764 56.7047 21.5886 56.7513 21.35C56.7979 21.1114 56.5286 20.8368 55.9537 21.2191C55.3789 21.6015 54.2369 22.4431 54.3042 22.9768C54.3741 23.5105 54.1488 26.0174 54.1488 26.0174C54.1488 26.0174 46.4086 33.2711 46.3542 34.0537C46.3154 34.6105 46.5277 35.8858 47.7759 36.2296Z" fill="#FED9CE"/>
<path d="M48.3326 36.4349C48.1358 36.4349 47.939 36.4092 47.7422 36.3554C46.4396 35.9961 46.1806 34.6875 46.2247 34.0435C46.279 33.2583 52.6468 27.2464 54.0244 25.9558C54.0555 25.6043 54.2368 23.4643 54.1746 22.9922C54.0969 22.3943 55.2105 21.5579 55.8786 21.1114C56.3317 20.8112 56.5933 20.8959 56.7098 20.9728C56.8419 21.0601 56.9066 21.2166 56.8756 21.3757C56.8263 21.6297 56.5441 22.5278 56.4327 22.8434C56.3861 22.9768 56.3913 23.3155 56.4146 23.6593C56.4638 23.567 56.526 23.4695 56.6036 23.3694C56.7228 23.2154 56.8548 23.1462 56.9947 23.1667C57.2459 23.2026 57.3805 23.5259 57.3935 23.5618C57.4012 23.5849 57.4038 23.608 57.3986 23.6337L56.9299 26.0123C56.8471 26.4254 56.4664 26.5383 55.9381 26.6973C55.731 26.7589 55.4953 26.8308 55.2364 26.9308C54.7858 27.1053 52.9601 30.2331 50.4741 35.0904C50.0469 35.9269 49.2027 36.4349 48.3326 36.4349ZM47.8121 36.1065C48.7521 36.3656 49.775 35.8909 50.2437 34.9749C52.103 31.3416 54.4621 26.9539 55.1431 26.6922C55.4099 26.5896 55.6507 26.5177 55.863 26.4536C56.3784 26.2996 56.627 26.215 56.6762 25.9635L57.1423 23.6183C57.1008 23.531 57.0232 23.4233 56.961 23.4156C56.9196 23.4079 56.8678 23.4489 56.8108 23.5208C56.5052 23.9108 56.4742 24.27 56.4742 24.2726C56.469 24.3393 56.4146 24.3906 56.3473 24.3906C56.2722 24.3932 56.223 24.3444 56.2152 24.2777C56.1997 24.1571 56.0676 23.0948 56.1893 22.751C56.3084 22.4123 56.5778 21.545 56.6218 21.3192C56.6295 21.2756 56.6218 21.2166 56.5674 21.1807C56.4845 21.1268 56.3007 21.1345 56.0236 21.3192C55.0137 21.9915 54.3896 22.633 54.431 22.9537C54.5009 23.4951 54.286 25.9173 54.2782 26.0225C54.2756 26.0533 54.2601 26.0841 54.2394 26.1046C51.2614 28.8963 46.5225 33.5252 46.4862 34.0563C46.4422 34.6311 46.6701 35.7934 47.8121 36.1065Z" fill="#3F4553"/>
<path d="M55.3478 24.2161C55.3452 24.2161 55.3426 24.2161 55.3426 24.2161C55.2701 24.2135 55.2157 24.152 55.2209 24.0827C55.2209 24.075 55.2546 23.3771 55.2365 23.0358C55.2157 22.6663 55.7699 21.3218 55.8346 21.1704C55.8605 21.1037 55.9382 21.0729 56.003 21.1011C56.0677 21.1268 56.1014 21.2038 56.0729 21.2679C55.8424 21.8221 55.4825 22.7869 55.4954 23.023C55.5135 23.3771 55.4799 24.0673 55.4799 24.0955C55.4747 24.1622 55.4177 24.2161 55.3478 24.2161Z" fill="#263238"/>
<path d="M54.9177 24.0724L54.6588 24.0672C54.6588 24.0672 54.6769 23.318 54.6898 23.0383C54.7028 22.7535 54.9902 21.8708 55.0213 21.7733C55.042 21.7066 55.1171 21.6681 55.1844 21.6912C55.2518 21.7118 55.2906 21.7862 55.2673 21.8529C55.1818 22.1146 54.9566 22.8382 54.9462 23.0511C54.9358 23.3283 54.9177 24.0724 54.9177 24.0724Z" fill="#263238"/>
</svg>
