<svg width="20" height="24" viewBox="0 0 20 24" fill="none" xmlns="http://www.w3.org/2000/svg">
<path d="M4.4428 5.66372C4.4428 8.72739 6.93453 11.2173 10.0001 11.2173C13.0659 11.2173 15.5574 8.7198 15.5574 5.65631C15.5574 2.59265 13.0657 0.102716 10.0001 0.102716C6.93443 0.102716 4.4428 2.59274 4.4428 5.66372ZM6.13055 5.65631C6.13055 3.52824 7.86325 1.78945 10.0001 1.78945C12.137 1.78945 13.8697 3.52824 13.8697 5.65631C13.8697 7.78427 12.1297 9.52318 10.0001 9.52318C7.87053 9.52318 6.13055 7.78427 6.13055 5.65631Z" fill="#98A1BD" stroke="#98A1BD" stroke-width="0.2"/>
<path d="M15.1624 23.8418H4.83754C2.16606 23.8418 0 21.3994 0 18.3872C0 15.375 2.17509 12.9327 4.83754 12.9327H15.1624C17.8339 12.9327 20 15.3852 20 18.3872C20 21.3893 17.8339 23.8418 15.1624 23.8418ZM4.83754 14.968C3.16786 14.968 1.80505 16.5046 1.80505 18.3872C1.80505 20.2699 3.16786 21.8065 4.83754 21.8065H15.1624C16.8321 21.8065 18.1949 20.2699 18.1949 18.3872C18.1949 16.5046 16.8321 14.968 15.1624 14.968H4.83754Z" fill="#98A1BD"/>
</svg>
