<svg width="119" height="86" viewBox="0 0 119 86" fill="none" xmlns="http://www.w3.org/2000/svg">
<path d="M28.8063 78.3771C28.8063 78.7853 26.4147 79.1144 23.4662 79.1144C20.5176 79.1144 18.126 78.7853 18.126 78.3771C18.126 77.9689 20.5176 77.6398 23.4662 77.6398C26.4147 77.6398 28.8063 77.9689 28.8063 78.3771Z" fill="#FDF9E7"/>
<path d="M40.7645 85.7184C51.2165 85.7184 59.6895 84.5467 59.6895 83.1014C59.6895 81.6561 51.2165 80.4845 40.7645 80.4845C30.3125 80.4845 21.8394 81.6561 21.8394 83.1014C21.8394 84.5467 30.3125 85.7184 40.7645 85.7184Z" fill="#F05D48"/>
<path d="M89.7357 84.823C102.176 84.823 112.261 83.4289 112.261 81.7092C112.261 79.9896 102.176 78.5955 89.7357 78.5955C77.2955 78.5955 67.2107 79.9896 67.2107 81.7092C67.2107 83.4289 77.2955 84.823 89.7357 84.823Z" fill="#F05D48"/>
<path d="M60.8413 79.5763C74.7136 79.5763 85.9593 78.0222 85.9593 76.105C85.9593 74.1879 74.7136 72.6337 60.8413 72.6337C46.969 72.6337 35.7233 74.1879 35.7233 76.105C35.7233 78.0222 46.969 79.5763 60.8413 79.5763Z" fill="#F05D48"/>
<path d="M118.057 75.3394C118.057 76.2254 112.855 76.9469 106.436 76.9469C100.019 76.9469 94.8143 76.2286 94.8143 75.3394C94.8143 74.4534 100.016 73.7319 106.436 73.7319C112.852 73.7319 118.057 74.4502 118.057 75.3394Z" fill="#F05D48"/>
<path d="M17.7265 70.479C11.7444 69.1056 6.1336 64.4129 3.17558 58.9322C0.220703 53.4515 -0.924745 46.8412 0.828042 40.8605C2.57768 34.8799 7.46157 29.7346 13.5255 28.4404C20.9048 26.8646 28.3471 30.9529 33.9831 35.9937C36.2866 38.0537 38.4579 40.3194 41.1232 41.8763C43.7918 43.43 47.1306 44.1958 49.9753 42.9996C53.3896 41.563 55.1424 37.8481 56.8039 34.5255C60.8948 26.3424 66.2633 18.6783 73.3374 12.9097C80.4115 7.13792 89.295 3.35967 98.4019 3.39131C104.076 3.4103 109.998 5.05893 113.95 9.15045C118.96 14.3368 119.835 22.4313 118.34 29.5036C116.846 36.576 113.349 43.0281 110.571 49.6954C107.792 56.3627 105.684 63.7009 107.172 70.7732L17.7265 70.479Z" fill="#F05D48"/>
<path d="M55.6709 26.8582C57.4016 24.0007 58.9027 20.9535 59.5667 17.6783C60.4352 13.3938 59.6925 8.87192 56.7408 5.53036C52.5807 0.824947 44.0182 -1.40593 38.1525 0.942029C35.7357 1.91032 33.6368 3.94185 33.0829 6.49549C32.142 10.818 35.421 14.5583 37.4539 18.0074C38.5458 19.8618 39.3608 22.0199 39.4395 24.1938C39.5119 26.2696 38.2185 28.1872 38.5332 30.282C38.7094 31.4592 39.4143 32.5129 40.3269 33.2755C42.322 34.9431 45.1416 35.5507 47.6433 34.9083C51.5108 33.9179 53.7324 30.0605 55.6709 26.8582Z" fill="#F05D48"/>
<path d="M46.8096 13.9254H3.87102C3.7892 13.9254 3.71997 13.9919 3.71997 14.0773V47.9708C3.71997 48.0531 3.78606 48.1227 3.87102 48.1227H46.8096C46.8914 48.1227 46.9606 48.0563 46.9606 47.9708V14.0773C46.9606 13.995 46.8914 13.9254 46.8096 13.9254ZM33.7911 30.8738H29.7915V26.9658H33.7911V30.8738ZM34.0932 26.9658H38.0928V30.8738H34.0932V26.9658ZM25.1908 31.1775V35.0855H21.1912V31.1775H25.1908ZM21.1912 30.8738V26.9658H25.1908V30.8738H21.1912ZM25.4929 31.1775H29.4925V35.0855H25.4929V31.1775ZM25.4929 30.8738V26.9658H29.4925V30.8738H25.4929ZM29.7915 26.6652V22.7572H33.7911V26.6652H29.7915ZM29.4925 26.6652H25.4929V22.7572H29.4925V26.6652ZM25.1908 26.6652H21.1912V22.7572H25.1908V26.6652ZM20.8891 26.6652H16.8895V22.7572H20.8891V26.6652ZM20.8891 26.9658V30.8738H16.8895V26.9658H20.8891ZM16.5905 30.8738H12.5909V26.9658H16.5905V30.8738ZM12.2888 30.8738H8.28918V26.9658H12.2888V30.8738ZM12.2888 31.1775V35.0855H8.28918V31.1775H12.2888ZM12.5909 31.1775H16.5905V35.0855H12.5909V31.1775ZM16.8895 31.1775H20.8891V35.0855H16.8895V31.1775ZM20.8891 35.3861V39.2941H16.8895V35.3861H20.8891ZM21.1912 35.3861H25.1908V39.2941H21.1912V35.3861ZM25.4929 35.3861H29.4925V39.2941H25.4929V35.3861ZM29.7915 35.3861H33.7911V39.2941H29.7915V35.3861ZM29.7915 35.0824V31.1775H33.7911V35.0855H29.7915V35.0824ZM34.0932 31.1775H38.0928V35.0855H34.0932V31.1775ZM38.3918 31.1775H42.3914V35.0855H38.3918V31.1775ZM38.3918 30.8738V26.9658H42.3914V30.8738H38.3918ZM38.3918 26.6652V22.7572H42.3914V26.6652H38.3918ZM38.0928 26.6652H34.0932V22.7572H38.0928V26.6652ZM34.0932 22.4534V18.5486H38.0928V22.4566H34.0932V22.4534ZM33.7911 22.4534H29.7915V18.5486H33.7911V22.4534ZM29.4925 22.4534H25.4929V18.5486H29.4925V22.4534ZM25.1908 22.4534H21.1912V18.5486H25.1908V22.4534ZM20.8891 22.4534H16.8895V18.5486H20.8891V22.4534ZM16.5905 22.4534H12.5909V18.5486H16.5905V22.4534ZM16.5905 22.7572V26.6652H12.5909V22.7572H16.5905ZM12.2888 26.6652H8.28918V22.7572H12.2888V26.6652ZM7.98708 26.6652H4.02207V22.7572H7.98708V26.6652ZM7.98708 26.9658V30.8738H4.02207V26.9658H7.98708ZM7.98708 31.1775V35.0855H4.02207V31.1775H7.98708ZM7.98708 35.3861V39.2941H4.02207V35.3861H7.98708ZM8.28918 35.3861H12.2888V39.2941H8.28918V35.3861ZM12.5909 35.3861H16.5905V39.2941H12.5909V35.3861ZM16.5905 39.5948V43.5027H12.5909V39.5948H16.5905ZM16.8895 39.5948H20.8891V43.5027H16.8895V39.5948ZM21.1912 39.5948H25.1908V43.5027H21.1912V39.5948ZM25.4929 39.5948H29.4925V43.5027H25.4929V39.5948ZM29.7915 39.5948H33.7911V43.5027H29.7915V39.5948ZM34.0932 39.5948H38.0928V43.5027H34.0932V39.5948ZM34.0932 39.2941V35.3861H38.0928V39.2941H34.0932ZM38.3918 35.3861H42.3914V39.2941H38.3918V35.3861ZM42.6935 35.3861H46.6585V39.2941H42.6935V35.3861ZM42.6935 35.0824V31.1775H46.6585V35.0855H42.6935V35.0824ZM42.6935 30.8738V26.9658H46.6585V30.8738H42.6935ZM42.6935 26.6652V22.7572H46.6585V26.6652H42.6935ZM42.6935 22.4534V18.5486H46.6585V22.4566H42.6935V22.4534ZM42.3914 22.4534H38.3918V18.5486H42.3914V22.4534ZM38.3918 18.2448V14.2292H42.3914V18.2448H38.3918ZM38.0928 18.2448H34.0932V14.2292H38.0928V18.2448ZM33.7911 18.2448H29.7915V14.2292H33.7911V18.2448ZM29.4925 18.2448H25.4929V14.2292H29.4925V18.2448ZM25.1908 18.2448H21.1912V14.2292H25.1908V18.2448ZM20.8891 18.2448H16.8895V14.2292H20.8891V18.2448ZM16.5905 18.2448H12.5909V14.2292H16.5905V18.2448ZM12.2888 18.2448H8.28918V14.2292H12.2888V18.2448ZM12.2888 18.5486V22.4566H8.28918V18.5486H12.2888ZM7.98708 22.4534H4.02207V18.5486H7.98708V22.4534ZM4.02207 39.5948H7.98708V43.5027H4.02207V39.5948ZM8.28918 39.5948H12.2888V43.5027H8.28918V39.5948ZM12.2888 43.8065V47.8221H8.28918V43.8065H12.2888ZM12.5909 43.8065H16.5905V47.8221H12.5909V43.8065ZM16.8895 43.8065H20.8891V47.8221H16.8895V43.8065ZM21.1912 43.8065H25.1908V47.8221H21.1912V43.8065ZM25.4929 43.8065H29.4925V47.8221H25.4929V43.8065ZM29.7915 43.8065H33.7911V47.8221H29.7915V43.8065ZM34.0932 43.8065H38.0928V47.8221H34.0932V43.8065ZM38.3918 43.8065H42.3914V47.8221H38.3918V43.8065ZM38.3918 43.5027V39.5948H42.3914V43.5027H38.3918ZM42.6935 39.5948H46.6585V43.5027H42.6935V39.5948ZM46.6585 18.2448H42.6935V14.2292H46.6585V18.2448ZM7.98708 14.2292V18.2448H4.02207V14.2292H7.98708ZM4.02207 43.8065H7.98708V47.8221H4.02207V43.8065ZM42.6935 47.8221V43.8065H46.6585V47.8221H42.6935Z" fill="#E7DFC2"/>
<path d="M21.4302 23.6179C21.4302 23.6179 22.39 32.2345 27.1512 33.7344L35.9119 31.263C35.9119 31.263 30.6819 28.8423 30.1469 23.6179H21.4302Z" fill="#FEDEA6"/>
<path d="M16.8896 31.5827C16.8896 31.5827 16.1596 41.3922 12.5344 43.0978L5.86313 40.2847C5.86313 40.2847 9.84702 37.5317 10.253 31.5827H16.8896Z" fill="#F7F4E3"/>
<path d="M39.4184 16.7599L33.5837 18.4659L35.6027 25.4482L41.4374 23.7421L39.4184 16.7599Z" fill="#F7F4E3"/>
<path d="M39.1151 17.4517L34.211 18.8856L35.5149 23.3946L40.4189 21.9607L39.1151 17.4517Z" fill="#FDFDFD"/>
<path d="M22.8383 37.9405L18.3498 36.7036L16.8868 42.0715L21.3753 43.3085L22.8383 37.9405Z" fill="#D2CDB8"/>
<path d="M22.3663 38.2694L18.5941 37.2298L17.6484 40.6996L21.4207 41.7392L22.3663 38.2694Z" fill="#E7DFC2"/>
<path d="M93.2915 35.2309C92.6527 35.2309 92.0107 35.2278 91.3719 35.2278C91.0572 35.2278 90.7552 35.5062 90.7709 35.8322C90.7866 36.1613 91.0352 36.4366 91.3719 36.4366C92.0107 36.4366 92.6527 36.4397 93.2915 36.4397C93.6062 36.4397 93.9083 36.1613 93.8926 35.8353C93.8768 35.5094 93.6282 35.2341 93.2915 35.2309Z" fill="#CCC6AD"/>
<path d="M112.081 51.2903C106.19 46.0248 100.299 40.7624 94.4084 35.4969C93.5431 34.7248 92.2623 36.0032 93.134 36.7785L110.807 52.5718C111.669 53.3471 112.95 52.0687 112.081 51.2903Z" fill="#CCC6AD"/>
<path d="M114.731 73.6337H113.032C111.474 73.1844 108.988 72.8964 106.184 72.8964C103.38 72.8964 100.897 73.1875 99.3366 73.6337H97.6373C97.5586 74.0925 97.6373 74.7349 97.6373 74.7349C97.6373 75.7507 101.464 76.5734 106.181 76.5734C110.901 76.5734 114.725 75.7507 114.725 74.7349C114.885 74.0546 114.731 73.6337 114.731 73.6337Z" fill="#CCC6AD"/>
<path d="M114.731 73.6339C114.731 74.6497 110.908 75.4756 106.191 75.4756C101.47 75.4756 97.647 74.6497 97.647 73.6339C97.647 72.6214 101.474 71.7955 106.191 71.7955C106.534 71.7955 106.87 71.7986 107.201 71.8081C107.506 71.8176 107.805 71.8271 108.101 71.8429C111.899 72.0265 114.731 72.7638 114.731 73.6339Z" fill="#E7DFC2"/>
<path d="M108.1 71.8397L107.216 73.3712L107.2 73.3965V71.808C107.503 71.8175 107.805 71.8239 108.1 71.8397Z" fill="#E7DFC2"/>
<path d="M110.797 51.6953L105.46 72.9124C105.174 74.0452 106.914 74.5294 107.201 73.3934C108.979 66.321 110.76 59.2487 112.538 52.1763C112.824 51.0435 111.084 50.5625 110.797 51.6953Z" fill="#E7DFC2"/>
<path d="M112.478 50.8914C106.587 45.6259 100.696 40.3636 94.8049 35.0981C93.9395 34.326 92.6588 35.6044 93.5305 36.3828L111.203 52.1762C112.065 52.9483 113.346 51.6699 112.478 50.8914Z" fill="#E7DFC2"/>
<path d="M76.5573 35.2279C76.5573 35.2279 81.7118 26.7886 88.3831 30.8105C95.0544 34.8324 90.0824 43.3793 90.0824 43.3793L76.5573 35.2279Z" fill="#E7DFC2"/>
<path d="M90.0817 43.3826C89.7103 44.006 87.3471 43.294 84.4425 41.7688C83.8163 41.4397 83.1649 41.0726 82.5041 40.6739C81.8433 40.2752 81.2139 39.8702 80.6317 39.4714C77.9255 37.614 76.1884 35.8546 76.5597 35.2312C76.9059 34.6521 78.9796 35.228 81.6135 36.5444C82.4128 36.9431 83.2688 37.4114 84.1405 37.9399C85.0121 38.4652 85.824 39 86.5541 39.5252C88.9394 41.234 90.4247 42.8004 90.0817 43.3826Z" fill="#C1B894"/>
<path d="M86.5476 39.5188C86.3053 40.5979 85.4934 41.4618 84.4423 41.7655C84.1748 41.8446 83.8885 41.8858 83.5927 41.8858C82.1326 41.8858 80.9147 40.8479 80.6284 39.465C80.5875 39.2625 80.5654 39.0505 80.5654 38.8353C80.5654 37.9145 80.9682 37.0949 81.6102 36.538C82.4095 36.9367 83.2654 37.405 84.1371 37.9335C85.0056 38.4619 85.8175 38.9967 86.5476 39.5188Z" fill="#FAC978"/>
<path d="M93.8074 34.2722C91.8721 34.2722 91.869 37.2973 93.8074 37.2973C95.7428 37.2973 95.7459 34.2722 93.8074 34.2722Z" fill="#E7DFC2"/>
<path d="M93.8074 35.1613C93.0113 35.1613 93.0081 36.4081 93.8074 36.4081C94.6067 36.4081 94.6067 35.1613 93.8074 35.1613Z" fill="#E7DFC2"/>
<path d="M111.502 49.8916C109.013 49.8916 109.01 53.7806 111.502 53.7806C113.992 53.7806 113.995 49.8916 111.502 49.8916Z" fill="#E7DFC2"/>
<path d="M111.502 51.0497C110.495 51.0497 110.492 52.6255 111.502 52.6255C112.509 52.6255 112.512 51.0497 111.502 51.0497Z" fill="#E7DFC2"/>
<path d="M28.8003 69.5139H18.1326C18.1326 69.5139 17.8431 75.9249 21.0434 78.1969C21.3077 78.3836 21.6381 78.4817 21.9748 78.4817H23.4664H24.958C25.2948 78.4817 25.6252 78.3836 25.8895 78.1969C29.0898 75.9281 28.8003 69.5139 28.8003 69.5139Z" fill="#536969"/>
<path d="M28.8065 69.5169C28.8065 69.7068 27.0632 69.8714 24.7156 69.9125C24.316 69.922 23.8943 69.9252 23.4632 69.9252C23.095 69.9252 22.7394 69.922 22.3901 69.9157C19.9576 69.8809 18.1262 69.7131 18.1262 69.5169C18.1262 69.3366 19.6776 69.1815 21.8206 69.1277C22.3366 69.1151 22.8905 69.1087 23.4663 69.1087C23.9195 69.1087 24.36 69.1119 24.7786 69.1214C27.0915 69.1657 28.8065 69.3271 28.8065 69.5169Z" fill="#405050"/>
<path d="M30.3297 71.3934C29.7633 70.7068 28.8444 70.5834 28.0105 70.6118C27.2395 70.6372 27.2364 71.8459 28.0105 71.8206C28.6179 71.8016 29.2692 71.8175 29.5808 72.425C29.8703 72.982 29.8199 73.7066 29.5367 74.2572C28.8602 75.5862 27.3151 75.9533 25.943 75.7666C25.6221 75.7223 25.342 76.0767 25.342 76.371C25.342 76.7349 25.6189 76.9311 25.943 76.9754C27.4221 77.1747 29.049 76.7665 30.0622 75.6052C31.0629 74.4565 31.3493 72.6307 30.3297 71.3934Z" fill="#536969"/>
<path opacity="0.5" d="M26.4748 65.9001C25.666 66.7165 24.7943 67.65 24.7692 68.805C24.766 68.9347 24.7755 69.0645 24.7818 69.1974C24.7975 69.4727 24.8132 69.748 24.722 69.9885C24.3223 69.998 23.9006 70.0011 23.4695 70.0011C23.1014 70.0011 22.7458 69.998 22.3965 69.9916C22.1667 69.7796 21.9716 69.5012 21.8237 69.2037C21.6695 68.9189 21.5563 68.6183 21.487 68.3493C21.3549 67.8399 21.3454 67.2956 21.4776 66.7862C21.8206 65.454 23.0164 64.3654 22.9912 62.9921C22.9755 62.1029 22.4405 61.3118 21.8458 60.6568C21.2479 60.0049 20.5587 59.4195 20.1119 58.6537C19.3472 57.35 19.4353 55.5811 20.3636 54.3913C21.2888 53.2015 23.0164 52.6984 24.4136 53.249C25.8139 53.8028 26.7454 55.3913 26.4999 56.8817C26.3394 57.8532 25.7447 58.8468 26.1223 59.7581C26.33 60.2549 26.7831 60.5935 27.1639 60.9764C27.6926 61.5143 28.1017 62.22 28.1174 62.9763C28.1426 64.1281 27.2835 65.0837 26.4748 65.9001Z" fill="#54C1BB"/>
<path d="M34.1278 70.9156C34.1278 70.9156 27.3401 43.8666 30.383 40.5979C33.426 37.3291 58.7266 35.8165 61.4989 38.348C64.2713 40.8795 64.0479 70.8808 64.0479 70.8808L34.1278 70.9156Z" fill="#54C1BB"/>
<path d="M61.5019 38.348C61.4169 38.2721 61.3099 38.1961 61.1841 38.1265C52.7883 37.6044 37.7842 39.0695 35.4839 41.5409C32.7839 44.4457 37.8314 66.0963 38.9958 70.9093L64.0477 70.8808C64.0477 70.8808 64.2743 40.8795 61.5019 38.348Z" fill="#8DD1CD"/>
<path d="M69.1646 48.401C69.1646 48.401 74.3852 64.1722 75.7887 64.5646C77.1922 64.957 91.5732 67.6815 91.5732 67.6815L90.8715 71.2097C90.8715 71.2097 73.3499 71.7603 69.1646 68.7795C64.9762 65.7987 69.1646 48.401 69.1646 48.401Z" fill="#DDBB8F"/>
<path d="M69.1646 48.401C69.1646 48.401 64.9762 65.7987 69.1646 68.7795C70.7695 69.9219 74.3286 70.5452 78.1111 70.8807L79.1244 65.7987L78.9796 65.7101L78.8726 65.2196C77.3149 64.9063 76.1443 64.6595 75.7919 64.5614C74.3852 64.1722 69.1646 48.401 69.1646 48.401Z" fill="#405050"/>
<path d="M80.6129 65.5678C79.9363 66.2861 79.48 67.1785 79.2251 68.112C78.9702 69.0454 78.9073 70.0169 78.9545 70.9789C78.9608 71.0833 78.8538 71.1972 78.7468 71.2225C78.6398 71.2478 78.5265 71.2257 78.4164 71.2099C78.3063 71.194 78.1867 71.1877 78.0923 71.2447C77.9979 71.3016 77.9444 71.4124 77.8437 71.4535C77.7147 71.5042 77.5762 71.4314 77.4472 71.3839C77.1671 71.2795 76.8556 71.3016 76.5566 71.2795C76.2577 71.2605 75.9304 71.1814 75.7573 70.9472C75.6315 70.7795 75.6126 70.5612 75.5968 70.3555C75.5245 69.3998 75.4615 68.3872 75.9115 67.5297C76.1979 66.9854 76.6699 66.5393 76.9154 65.9792C77.0349 65.707 77.0947 65.4127 77.2584 65.1628C77.4189 64.9128 77.7241 64.7103 78.0262 64.7767C78.2779 64.8337 78.4542 65.0583 78.6996 65.128C78.923 65.1881 79.1559 65.1121 79.3856 65.0868C79.8702 65.033 80.3045 65.2007 80.6129 65.5678Z" fill="#536969"/>
<path d="M43.1369 70.9154H69.6836C68.9409 65.7322 68.2518 59.9952 68.3304 57.0207C68.3965 54.5841 69.1612 48.4389 69.1612 48.4389C68.8685 48.0908 62.3137 42.9867 56.9766 43.1449C47.9232 43.4171 43.3225 49.8471 43.3225 49.8471C43.3225 49.8471 43.6278 54.6157 43.8512 57.0934C44.1187 60.0426 43.6246 65.7511 43.1369 70.9154Z" fill="#F7F4E3"/>
<path d="M68.3273 57.5808C68.3273 57.372 68.3273 57.1726 68.3336 56.9827C68.3965 54.6411 69.1046 48.8851 69.1612 48.4326C68.8843 48.1162 64.1672 44.436 59.5004 43.4076L59.5413 47.9105C59.5413 47.9105 61.2784 58.625 62.0462 70.8774H69.6804C68.985 66.0138 68.3367 60.6692 68.3273 57.5808Z" fill="#405050"/>
<path d="M60.111 42.7621L64.3026 47.7776L61.1935 46.8378L59.5383 47.9105L57.6533 43.1766L60.111 42.7621Z" fill="#536969"/>
<path d="M43.1369 70.8808H55.2962C54.0501 59.9194 53.6442 49.5245 53.6442 49.5245L52.2784 43.8539C46.3372 45.607 43.3225 49.8124 43.3225 49.8124C43.3225 49.8124 43.6278 54.5811 43.8512 57.0588C44.1187 60.008 43.6246 65.7134 43.1369 70.8808Z" fill="#405050"/>
<path d="M68.1166 31.4337C70.1841 29.9844 71.704 27.6238 72.2579 24.9942C72.4341 24.162 72.5159 23.2918 72.3523 22.4532C72.1918 21.6147 71.7607 20.8109 71.0935 20.3648C70.4264 19.9186 69.5075 19.8964 68.9002 20.4217C68.4848 19.6908 67.5974 19.3617 66.8296 19.5009C66.0618 19.6401 65.382 20.1116 64.7432 20.5958C62.2289 19.4851 59.1985 20.1274 57.238 22.1431C55.5734 22.4311 54.0755 23.7222 53.4052 25.4151C52.7349 27.108 52.7255 29.0573 53.1031 30.8673C53.3737 32.1583 53.8646 33.4526 54.7772 34.3228C55.8755 35.367 57.4143 35.6423 58.8587 35.6202C62.2258 35.5664 65.2908 33.4146 68.1166 31.4337Z" fill="#405050"/>
<path d="M54.9378 29.3548C54.3242 35.2817 52.7948 45.7715 52.7948 45.7715C54.1291 48.1448 59.1609 47.8442 59.0444 47.0499C58.9783 46.6006 59.0853 45.819 59.3465 45.1165C59.5479 44.5722 59.8437 44.0723 60.2213 43.8065C60.3787 43.6957 60.6587 43.6609 61.0206 43.6577C61.0804 43.6609 61.1119 43.6577 61.1119 43.6577C62.7766 43.6704 66.0021 44.3096 67.4087 42.2844C69.1583 39.7656 69.3503 32.7533 69.1615 29.3738C69.0514 27.4404 67.3993 24.7285 64.0731 24.1399C60.0073 23.4185 55.5546 23.39 54.9378 29.3548Z" fill="#FDBCA0"/>
<path d="M55.5166 42.0058C55.5166 42.0058 56.7753 43.8317 59.3462 45.1132C59.5476 44.569 59.8434 44.069 60.2211 43.8032C60.3784 43.6924 60.6585 43.6576 61.0204 43.6545C60.5232 43.6418 58.0498 43.4899 55.5166 42.0058Z" fill="#F0A38B"/>
<path d="M65.0515 35.9873C65.278 35.9842 65.514 35.9905 65.7029 36.1329C65.8508 36.2437 65.92 36.4272 65.9074 36.6107C65.8728 37.0284 65.4983 37.2626 65.127 37.3512C65.0074 37.3797 64.9508 37.1961 65.0703 37.1676C65.3536 37.1012 65.6714 36.9461 65.7155 36.6234C65.7343 36.4936 65.6903 36.3607 65.5833 36.2816C65.4354 36.174 65.2371 36.1804 65.0609 36.1804C64.935 36.1835 64.9287 35.9905 65.0515 35.9873Z" fill="#3F4553"/>
<path d="M62.6852 33.6837C62.6726 34.0381 62.8961 34.3324 63.1856 34.3419C63.4751 34.3514 63.7174 34.0729 63.73 33.7185C63.7426 33.3641 63.5191 33.0698 63.2296 33.0603C62.9401 33.0508 62.6978 33.3293 62.6852 33.6837Z" fill="#3F4553"/>
<path d="M66.1718 34.0222C66.1592 34.3766 66.3826 34.6709 66.6721 34.6803C66.9617 34.6898 67.204 34.4114 67.2166 34.057C67.2291 33.7026 67.0057 33.4083 66.7162 33.3988C66.4298 33.3893 66.1844 33.6677 66.1718 34.0222Z" fill="#3F4553"/>
<path d="M61.7943 30.6838C62.4174 30.2946 63.2072 30.2186 63.887 30.5193C63.9814 30.5604 64.038 30.668 64.0002 30.7692C63.9656 30.8642 63.8492 30.9243 63.7516 30.8832C63.2072 30.6427 62.5464 30.668 62.0366 30.9876C61.9485 31.0414 61.8384 31.0477 61.766 30.9591C61.7062 30.8832 61.7062 30.7408 61.7943 30.6838Z" fill="#3F4553"/>
<path d="M68.4313 31.3072C67.9341 30.7629 67.1945 30.4781 66.4613 30.5825C66.3575 30.5984 66.2788 30.6838 66.2883 30.7914C66.2977 30.8927 66.3921 30.9813 66.4959 30.9654C67.0844 30.88 67.7138 31.0857 68.1197 31.5287C68.189 31.6046 68.2959 31.6394 68.3872 31.573C68.4627 31.5224 68.5005 31.3863 68.4313 31.3072Z" fill="#3F4553"/>
<path d="M61.0488 35.0824C61.0268 35.3545 61.4233 35.6108 61.9331 35.6551C62.446 35.6994 62.8803 35.5159 62.9023 35.2438C62.9243 34.9716 62.5278 34.7153 62.018 34.671C61.5051 34.6267 61.0708 34.8103 61.0488 35.0824Z" fill="#FBAD8B"/>
<path d="M66.6972 35.5853C66.6752 35.8575 67.0717 36.1138 67.5815 36.1581C68.0944 36.2024 68.5287 36.0189 68.5507 35.7467C68.5728 35.4746 68.1762 35.2183 67.6665 35.174C67.1535 35.1297 66.7193 35.3132 66.6972 35.5853Z" fill="#FBAD8B"/>
<path d="M66.0112 39.2528C65.9514 39.5882 65.7657 39.892 65.5108 40.1166C65.4636 40.1609 65.4196 40.1957 65.3692 40.2305C65.0451 40.4647 64.6423 40.5786 64.2427 40.5913C63.6574 40.6134 63.0595 40.4109 62.6378 40.0027C62.4742 39.8445 62.3388 39.6578 62.2444 39.4521C62.0871 39.1262 62.0242 38.756 62.0871 38.4016C62.1217 38.2022 62.2193 37.9902 62.4081 37.9396C62.5308 37.9079 62.6504 37.9491 62.7637 38.0155C62.8234 38.0503 62.8801 38.0914 62.9336 38.1294C63.371 38.4553 63.843 38.7528 64.3717 38.8794C64.743 38.968 65.149 38.9616 65.5077 38.8256C65.6273 38.7781 65.8066 38.6199 65.9388 38.7022C65.942 38.7053 65.942 38.7053 65.9451 38.7053C66.0836 38.8129 66.0395 39.1104 66.0112 39.2528Z" fill="#4E5567"/>
<path d="M65.9354 38.7084C65.9103 38.8002 65.8631 38.8919 65.8033 38.9679C65.6711 39.1324 65.4729 39.24 65.2715 39.3065C64.5917 39.5311 63.8208 39.3539 63.2323 38.9457C63.0435 38.8128 62.8641 38.6515 62.7792 38.4331C62.7288 38.3034 62.7194 38.1546 62.7603 38.0217C62.8201 38.0566 62.8767 38.0977 62.9302 38.1357C63.3676 38.4616 63.8396 38.759 64.3683 38.8856C64.7396 38.9742 65.1456 38.9679 65.5043 38.8318C65.6239 38.7844 65.8033 38.6261 65.9354 38.7084Z" fill="white"/>
<path d="M65.5111 40.1199C65.4639 40.1642 65.4199 40.199 65.3695 40.2338C65.0454 40.468 64.6426 40.5819 64.243 40.5946C63.6577 40.6167 63.0598 40.4142 62.6381 40.006C62.4744 39.8478 62.3391 39.6611 62.2447 39.4554C62.6979 39.4079 63.1605 39.4016 63.6167 39.4364C64.1611 39.4775 64.715 39.582 65.1807 39.8636C65.294 39.9395 65.4073 40.0218 65.5111 40.1199Z" fill="#3F4553"/>
<path d="M65.8791 28.0636C64.4504 28.3579 62.8738 27.7281 62.0368 26.5257C61.9329 26.8896 61.6308 27.1902 61.2658 27.2946C60.9039 27.3991 60.4885 27.301 60.2085 27.0446C60.1518 28.2155 59.8466 29.3958 59.1763 30.3514C58.506 31.3102 57.4424 32.0222 56.2812 32.114C55.633 32.1646 54.9438 32.0095 54.4592 31.5697C54.0092 31.1583 53.7858 30.5539 53.6505 29.959C53.3264 28.5256 53.4239 26.9814 54.0124 25.6333C54.5977 24.2853 55.6833 23.1461 57.0333 22.5766C58.3235 22.0291 59.7711 22.0165 61.1714 22.0639C62.6126 22.1146 64.0665 22.2285 65.4354 22.6873C66.5462 23.0575 67.6004 23.6714 68.3776 24.5606C68.5287 24.7347 68.793 24.9783 68.7899 25.222C68.7867 25.4593 68.6199 25.7694 68.5161 25.9783C68.2738 26.4687 67.9276 26.9023 67.5123 27.2535C67.0465 27.6554 66.4801 27.9402 65.8791 28.0636Z" fill="#405050"/>
<path d="M55.5419 32.1899C55.0541 31.614 54.3461 31.1773 53.572 31.2406C52.8073 31.3039 52.2063 31.826 52.0112 32.5696C51.8821 33.0696 51.9231 33.5981 52.0175 34.1075C52.115 34.6423 52.2661 35.1707 52.5209 35.6486C53.0024 36.5504 54.0063 37.3731 55.0856 37.0156C56.5237 36.5377 56.6213 34.7562 56.2625 33.5126C56.1241 33.0506 55.8723 32.5823 55.5419 32.1899Z" fill="#FDBCA0"/>
<path d="M53.6412 32.5284C53.509 32.4588 53.3958 32.6582 53.5248 32.7278C54.4437 33.2056 54.9566 34.234 54.7709 35.2624C54.7458 35.408 54.966 35.4681 54.9912 35.3225C55.1958 34.1992 54.6576 33.0569 53.6412 32.5284Z" fill="#F0A38B"/>
<path d="M54.6922 33.7215C54.302 33.5601 53.8708 33.5253 53.4618 33.6107C53.402 33.6234 53.3674 33.6962 53.3831 33.7531C53.402 33.8164 53.4618 33.8449 53.5247 33.8322C53.896 33.7563 54.2831 33.7974 54.6355 33.943C54.6922 33.9651 54.7614 33.9177 54.7771 33.8639C54.7897 33.7974 54.7488 33.7468 54.6922 33.7215Z" fill="#F0A38B"/>
<path d="M53.2825 42.7621L50.721 43.8506L48.4395 50.3565L52.329 48.2522L53.6475 49.5243L53.2825 42.7621Z" fill="#536969"/>
<path d="M43.3259 49.8138C43.3259 49.8138 33.2309 67.6829 35.4148 70.7428C37.5987 73.8028 57.0996 76.7836 57.0996 76.7836L57.9021 72.8155C57.9021 72.8155 43.7035 68.917 43.4109 67.8L43.7696 63.3224C43.7665 63.3224 44.9371 51.4118 43.3259 49.8138Z" fill="#FDBCA0"/>
<path d="M43.4077 67.7985L43.7665 63.3209C43.7665 63.3209 44.9371 51.4103 43.3259 49.8091C43.3259 49.8091 33.2309 67.6783 35.4148 70.7382C36.1197 71.7255 38.6371 72.7064 41.7179 73.583L42.6714 73.2507L44.5469 68.539C43.8766 68.2384 43.4549 67.982 43.4077 67.7985Z" fill="#405050"/>
<path d="M46.8283 69.061C45.2643 70.4565 44.2258 72.4374 43.9615 74.5227C43.5493 74.529 43.1685 74.3581 42.8286 74.124C42.429 74.3961 41.9003 74.336 41.4252 74.2632C41.2363 74.2347 41.0255 74.1936 40.9154 74.0385C40.843 73.9373 40.8304 73.8075 40.8178 73.6841C40.7706 73.1968 40.7234 72.7 40.8398 72.2254C40.9531 71.7634 41.2143 71.352 41.4724 70.9501C41.9192 70.2571 42.3661 69.561 42.8129 68.868C42.9671 68.6307 43.1213 68.387 43.3447 68.2161C43.5681 68.0421 43.8702 67.9472 44.1346 68.0421C44.2982 68.1022 44.4304 68.2256 44.5846 68.3079C44.8426 68.444 45.1447 68.4534 45.4342 68.444C45.7237 68.4345 46.0195 68.406 46.2996 68.4819C46.5797 68.5579 46.7685 68.773 46.8283 69.061Z" fill="#536969"/>
<path d="M43.8011 52.7679C43.7602 56.638 43.6123 60.508 43.3543 64.3717C43.2819 65.4697 43.1969 66.5677 43.1057 67.6658C43.0805 67.96 43.5399 67.9506 43.5651 67.6563C43.8861 63.7989 44.0969 59.9321 44.2008 56.062C44.2291 54.9608 44.248 53.8596 44.2605 52.7616C44.2637 52.461 43.8043 52.4705 43.8011 52.7679Z" fill="#A1B8B8"/>
<path d="M57.0965 76.7792C57.0965 76.7792 64.8566 79.9562 65.209 79.3075C65.5615 78.662 61.8828 77.4342 61.8828 77.4342C61.8828 77.4342 67.0405 78.4848 67.1758 77.9531C67.3111 77.4247 62.3486 76.102 62.3486 76.102C62.3486 76.102 68.2741 77.1905 68.3464 76.5703C68.4188 75.9501 63.1195 74.7856 63.1195 74.7856C63.1195 74.7856 68.0978 75.0704 68.1324 74.6179C68.1922 73.8047 57.8989 72.811 57.8989 72.811L57.0965 76.7792Z" fill="#FDBCA0"/>
<path d="M58.6383 72.8901C58.6383 72.8901 62.597 71.4471 62.9966 71.7604C63.3963 72.0737 61.2501 73.6527 61.2501 73.6527L58.6383 72.8901Z" fill="#FDBCA0"/>
<path d="M46.9605 68.6467H26.4683C26.2512 68.6467 26.1222 68.8239 26.1819 69.0423L29.7473 82.0699C29.8071 82.2883 30.0305 82.4655 30.2477 82.4655H50.7398C50.957 82.4655 51.086 82.2883 51.0262 82.0699L47.4608 69.0423C47.4042 68.8239 47.1776 68.6467 46.9605 68.6467Z" fill="#E7DFC2"/>
<path d="M49.4872 82.3073L46.4599 71.251C46.4096 71.0643 46.2176 70.9156 46.0351 70.9156H28.6457C28.46 70.9156 28.353 71.0643 28.4034 71.251L31.4306 82.3073C31.4275 82.301 31.4495 82.3801 31.4747 82.4624H49.5344L49.4872 82.3073Z" fill="#F7F4E3"/>
<path d="M27.9566 69.6245C27.9566 69.8935 27.7394 70.1087 27.4751 70.1087C27.2076 70.1087 26.9936 69.8903 26.9936 69.6245C26.9936 69.3587 27.2107 69.1404 27.4751 69.1404C27.7394 69.1404 27.9566 69.3587 27.9566 69.6245Z" fill="#405050"/>
<path d="M27.6988 69.6245C27.6988 69.7479 27.5981 69.8492 27.4754 69.8492C27.3526 69.8492 27.2519 69.7479 27.2519 69.6245C27.2519 69.5011 27.3526 69.3998 27.4754 69.3998C27.5981 69.3998 27.6988 69.5011 27.6988 69.6245Z" fill="#576E6E"/>
<path d="M45.6516 71.0675H28.2621C28.0765 71.0675 27.9695 71.2162 28.0198 71.4029L31.0471 82.4592C31.0439 82.4465 31.1415 82.7946 31.1415 82.7946H49.198L49.1068 82.4592L46.0795 71.4029C46.026 71.2162 45.8372 71.0675 45.6516 71.0675Z" fill="#EBB254"/>
<path d="M49.1035 82.4592L47.1556 75.3394H29.0959L31.0438 82.4592C31.0407 82.4466 31.1382 82.7946 31.1382 82.7946H49.1947L49.1035 82.4592Z" fill="#FEDEA6"/>
<path d="M45.6858 84.5066H27.6387L31.1475 82.7947H49.1946L45.6858 84.5066Z" fill="#EBB254"/>
<path d="M68.6988 50.0148L105.488 43.8665C106.089 43.7652 106.637 44.2399 106.634 44.8601L106.477 68.3333C106.473 68.808 106.146 69.213 105.69 69.308L69.8002 76.7759C68.9191 76.9847 67.8712 76.4215 67.8712 75.1209V51.0021C67.8743 50.5148 68.2236 50.0971 68.6988 50.0148Z" fill="#FEDEA6"/>
<path d="M70.3635 49.9483L105.488 44.0911C106.089 43.9898 106.637 44.4613 106.634 45.0752L106.483 68.3712C106.48 68.8395 106.152 69.2414 105.696 69.3363L70.7222 76.5606C70.1117 76.6872 69.539 76.2188 69.539 75.5891V50.9293C69.5422 50.4388 69.8883 50.0274 70.3635 49.9483Z" fill="#FAC978"/>
<path d="M86.2391 62.1628L84.2031 73.7697L95.2674 71.485L86.2391 62.1628Z" fill="#EBB254"/>
<path d="M85.7795 83.4051L80.924 81.747C80.1467 81.4812 80.1939 80.361 80.9901 80.1616L89.2222 78.089C89.3669 78.0542 89.5148 78.0573 89.6564 78.0985L94.4365 79.5351C95.2263 79.7724 95.2169 80.8989 94.4239 81.1236L86.2673 83.4178C86.1068 83.4621 85.9369 83.4589 85.7795 83.4051Z" fill="#EBB254"/>
<path d="M93.0427 61.0553C92.9483 60.6186 92.5298 60.337 92.0924 60.4161L86.9127 61.3591C86.5256 61.4287 86.2424 61.7673 86.2361 62.1628L86.019 83.4875L97.1588 80.3516L93.0427 61.0553ZM91.7179 77.6366C90.1571 77.7979 88.7064 76.0987 88.4766 73.8393C88.2469 71.5831 89.3263 69.6212 90.8871 69.463C92.448 69.3016 93.8986 71.0009 94.1284 73.2602C94.3581 75.5164 93.2787 77.4752 91.7179 77.6366Z" fill="#FEDEA6"/>
<path d="M90.129 22.7666C84.858 22.7666 80.5689 18.4536 80.5689 13.1533C80.5689 7.85297 84.858 3.53994 90.129 3.53994C95.3999 3.53994 99.6891 7.85297 99.6891 13.1533C99.6891 18.4536 95.3999 22.7666 90.129 22.7666ZM90.129 6.26446C86.3496 6.26446 83.2752 9.35604 83.2752 13.1564C83.2752 16.9568 86.3496 20.0484 90.129 20.0484C93.9083 20.0484 96.9828 16.9568 96.9828 13.1564C96.9828 9.35604 93.9083 6.26446 90.129 6.26446Z" fill="#F5E2D5"/>
<path d="M86.5477 15.5802L86.1229 14.7796L89.7449 12.8462L91.2742 7.09022L92.1459 7.32439L90.5158 13.4633L86.5477 15.5802Z" fill="#F5E2D5"/>
</svg>
