<svg width="21" height="8" viewBox="0 0 21 8" fill="none" xmlns="http://www.w3.org/2000/svg">
<path d="M9.73936 6.21377V7.24939H0C0.0135835 6.17315 1.05951 5.27629 3.13778 4.55879C3.78979 4.34219 4.43501 4.12559 5.07343 3.90899C5.80694 3.65177 6.35707 3.4081 6.72382 3.17796C7.18566 2.88013 7.42337 2.56199 7.43696 2.22355C7.45054 1.89865 7.30112 1.62451 6.9887 1.40114C6.5812 1.11009 5.92919 0.964556 5.03268 0.964556C3.47058 0.964556 2.65557 1.55683 2.58765 2.74137H0.264878C0.264878 1.92911 0.685966 1.27592 1.52814 0.781798C2.41107 0.260599 3.62679 0 5.17531 0C6.75099 0 7.95313 0.250446 8.78172 0.751338C9.43373 1.1507 9.75973 1.6279 9.75973 2.18294C9.75973 3.04258 8.70022 3.8413 6.5812 4.5791C5.79335 4.84308 5.00551 5.10707 4.21767 5.37105C3.44341 5.66888 2.96799 5.94978 2.79141 6.21377H9.73936Z" fill="#A1A4B2"/>
<path d="M11.2403 1.17777V0.142145H21V1.1067C17.7807 2.92074 16.0081 4.96831 15.6821 7.24939H13.1352C13.2846 6.17315 13.8755 5.08676 14.9078 3.99021C15.8587 2.98166 17.1015 2.04418 18.6365 1.17777H11.2403Z" fill="#A1A4B2"/>
</svg>
