<svg width="11" height="9" viewBox="0 0 11 9" fill="none" xmlns="http://www.w3.org/2000/svg">
<path d="M5.5 7.40228C6.361 7.40228 7.06613 7.26691 7.61538 6.99619C8.17949 6.72547 8.46154 6.35807 8.46154 5.89397C8.46154 5.45309 8.17949 5.10502 7.61538 4.84977C7.06613 4.59452 6.361 4.46689 5.5 4.46689C4.639 4.46689 3.92645 4.59452 3.36235 4.84977C2.81309 5.10502 2.53846 5.45309 2.53846 5.89397C2.53846 6.35807 2.81309 6.72547 3.36235 6.99619C3.92645 7.26691 4.639 7.40228 5.5 7.40228ZM5.5 8.44648C3.88192 8.44648 2.56073 8.21831 1.53644 7.76195C0.512146 7.29786 0 6.6752 0 5.89397C0 5.39121 0.252362 4.96579 0.757085 4.61772C1.27665 4.26192 1.97436 4.026 2.8502 3.90998V3.89838C1.38057 3.59672 0.645749 3.03594 0.645749 2.21604C0.645749 1.5199 1.06883 0.978462 1.91498 0.591718C2.76113 0.197239 3.95614 0 5.5 0C7.04386 0 8.23887 0.197239 9.08502 0.591718C9.93117 0.978462 10.3542 1.5199 10.3542 2.21604C10.3542 3.03594 9.61943 3.59672 8.1498 3.89838V3.90998C9.02564 4.026 9.71592 4.26192 10.2206 4.61772C10.7402 4.96579 11 5.39121 11 5.89397C11 6.6752 10.4879 7.29786 9.46356 7.76195C8.43927 8.21831 7.11808 8.44648 5.5 8.44648ZM5.5 1.04421C4.78745 1.04421 4.20108 1.15636 3.74089 1.38068C3.2807 1.59725 3.05061 1.89891 3.05061 2.28566C3.05061 2.65693 3.27328 2.95085 3.71862 3.16743C4.17881 3.37627 4.7726 3.48069 5.5 3.48069C6.22739 3.48069 6.81376 3.37627 7.25911 3.16743C7.7193 2.95085 7.94939 2.65693 7.94939 2.28566C7.94939 1.89891 7.7193 1.59725 7.25911 1.38068C6.79892 1.15636 6.21255 1.04421 5.5 1.04421Z" fill="#A1A4B2"/>
</svg>
