<svg width="331" height="243" viewBox="0 0 331 243" fill="none" xmlns="http://www.w3.org/2000/svg">
<path d="M169.338 240.904C208.401 240.904 240.068 239.662 240.068 238.13C240.068 236.599 208.401 235.357 169.338 235.357C130.275 235.357 98.6082 236.599 98.6082 238.13C98.6082 239.662 130.275 240.904 169.338 240.904Z" fill="#F9F0E3"/>
<path opacity="0.5" d="M44.8989 236.23C69.6958 236.23 89.7977 234.695 89.7977 232.802C89.7977 230.908 69.6958 229.373 44.8989 229.373C20.1019 229.373 0 230.908 0 232.802C0 234.695 20.1019 236.23 44.8989 236.23Z" fill="#F9EAD4"/>
<path d="M327.095 240.911C327.095 242.068 311.811 243 292.953 243C274.095 243 258.81 242.068 258.81 240.911C258.81 239.753 274.095 238.822 292.953 238.822C311.804 238.822 327.095 239.753 327.095 240.911Z" fill="#F9F0E3"/>
<path d="M244.351 74.9193L242.774 77.6564H245.92L244.351 74.9193Z" fill="#E7CCA8"/>
<path d="M244.351 79.9421L242.774 82.6791H245.92L244.351 79.9421Z" fill="#E7CCA8"/>
<path d="M247.613 76.9794L246.152 79.9421H249.067L247.613 76.9794Z" fill="#E7CCA8"/>
<path d="M7.39267 91.2469L5.81575 93.9912H8.96236L7.39267 91.2469Z" fill="#E7CCA8"/>
<path d="M7.39267 96.2697L5.81575 99.0068H8.96236L7.39267 96.2697Z" fill="#E7CCA8"/>
<path d="M10.6553 93.307L9.19408 96.2697H12.1092L10.6553 93.307Z" fill="#E7CCA8"/>
<path d="M241.204 196.15L239.634 198.887H242.774L241.204 196.15Z" fill="#E7CCA8"/>
<path d="M241.204 201.166L239.634 203.91H242.774L241.204 201.166Z" fill="#E7CCA8"/>
<path d="M244.466 198.203L243.012 201.166H245.92L244.466 198.203Z" fill="#E7CCA8"/>
<path d="M179.198 55.5782C179.198 57.5072 177.65 59.065 175.733 59.065C173.816 59.065 172.268 57.5072 172.268 55.5782C172.268 53.6491 173.816 52.0913 175.733 52.0913C177.642 52.0913 179.198 53.6564 179.198 55.5782Z" stroke="white" stroke-miterlimit="10"/>
<path d="M328.911 203.895H257.103C256.04 203.895 255.179 203.029 255.179 201.959C255.179 200.889 256.04 200.023 257.103 200.023H328.911C329.975 200.023 330.835 200.889 330.835 201.959C330.835 203.029 329.975 203.895 328.911 203.895Z" fill="#FEE6C6"/>
<path d="M267.021 238.13C265.943 238.13 265.053 237.468 265.01 236.623L263.144 202.701H270.898L269.032 236.623C268.981 237.468 268.099 238.13 267.021 238.13Z" fill="#FEE6C6"/>
<path d="M319.688 238.13C318.611 238.13 317.721 237.468 317.678 236.623L315.811 202.701H323.566L321.699 236.623C321.649 237.468 320.766 238.13 319.688 238.13Z" fill="#FEE6C6"/>
<path d="M293.011 238.13C291.933 238.13 291.043 237.468 291 236.623L289.134 202.701H296.888L295.022 236.623C294.979 237.468 294.089 238.13 293.011 238.13Z" fill="#FEE6C6"/>
<path d="M309.12 193.243C310.153 188.606 307.256 184.005 302.648 182.965C298.04 181.925 293.467 184.841 292.434 189.478C291.401 194.115 294.298 198.717 298.906 199.757C303.514 200.797 308.087 197.88 309.12 193.243Z" fill="#F9D8AC"/>
<path d="M305.084 184.292H296.266C295.774 184.292 295.376 183.891 295.376 183.396C295.376 182.901 295.774 182.501 296.266 182.501H305.084C305.576 182.501 305.974 182.901 305.974 183.396C305.974 183.891 305.576 184.292 305.084 184.292Z" fill="#F9D8AC"/>
<path d="M296.874 168.204C297.185 168.35 297.554 168.903 297.677 169.667C297.8 170.432 297.64 171.087 297.38 171.313C297.076 171.174 296.7 170.614 296.577 169.849C296.454 169.085 296.635 168.437 296.874 168.204Z" fill="#F9D8AC"/>
<path d="M297.452 171.237L297.274 171.267L298.076 176.172L298.254 176.143L297.452 171.237Z" fill="#F9D8AC"/>
<path d="M299.442 171.101C299.109 171.079 298.559 171.393 298.154 172.011C297.749 172.637 297.64 173.3 297.778 173.635C298.103 173.664 298.66 173.343 299.066 172.725C299.478 172.106 299.565 171.436 299.442 171.101Z" fill="#F9D8AC"/>
<path d="M295.362 171.778C295.673 171.647 296.288 171.764 296.874 172.222C297.46 172.681 297.771 173.278 297.749 173.642C297.452 173.78 296.823 173.656 296.237 173.198C295.651 172.739 295.355 172.135 295.362 171.778Z" fill="#F9D8AC"/>
<path d="M295.752 174.181C296.064 174.05 296.678 174.173 297.264 174.625C297.85 175.083 298.161 175.68 298.14 176.044C297.843 176.182 297.214 176.059 296.628 175.6C296.042 175.141 295.745 174.537 295.752 174.181Z" fill="#F9D8AC"/>
<path d="M299.839 173.511C299.507 173.489 298.957 173.802 298.552 174.421C298.147 175.039 298.038 175.709 298.176 176.044C298.501 176.073 299.058 175.753 299.463 175.134C299.868 174.508 299.962 173.838 299.839 173.511Z" fill="#F9D8AC"/>
<path d="M298.233 176.035L298.055 176.064L298.857 180.97L299.035 180.94L298.233 176.035Z" fill="#F9D8AC"/>
<path d="M300.23 175.899C299.897 175.877 299.348 176.19 298.943 176.809C298.537 177.435 298.429 178.097 298.566 178.432C298.892 178.461 299.449 178.148 299.854 177.522C300.259 176.903 300.353 176.234 300.23 175.899Z" fill="#F9D8AC"/>
<path d="M296.143 176.576C296.454 176.445 297.069 176.561 297.655 177.02C298.241 177.478 298.552 178.075 298.53 178.439C298.234 178.578 297.604 178.454 297.018 177.995C296.433 177.537 296.136 176.932 296.143 176.576Z" fill="#F9D8AC"/>
<path d="M296.541 178.985C296.852 178.854 297.467 178.978 298.053 179.429C298.639 179.888 298.95 180.485 298.928 180.849C298.632 180.987 298.002 180.863 297.416 180.405C296.83 179.946 296.527 179.335 296.541 178.985Z" fill="#F9D8AC"/>
<path d="M300.621 178.308C300.288 178.286 299.738 178.599 299.333 179.218C298.928 179.837 298.82 180.507 298.957 180.841C299.283 180.87 299.84 180.55 300.245 179.931C300.657 179.313 300.744 178.636 300.621 178.308Z" fill="#F9D8AC"/>
<path d="M299.021 180.831L298.843 180.861L299.645 185.766L299.823 185.737L299.021 180.831Z" fill="#F9D8AC"/>
<path d="M304.527 171.749C304.773 171.968 304.946 172.536 304.823 173.198C304.7 173.861 304.346 174.341 304.028 174.443C303.782 174.232 303.608 173.657 303.724 172.994C303.854 172.339 304.223 171.866 304.527 171.749Z" fill="#F9D8AC"/>
<path d="M303.952 174.398L303.175 178.651L303.353 178.683L304.13 174.431L303.952 174.398Z" fill="#F9D8AC"/>
<path d="M306.046 174.938C305.735 174.814 305.127 174.894 304.541 175.266C303.963 175.644 303.652 176.154 303.681 176.467C303.977 176.598 304.599 176.51 305.185 176.139C305.764 175.761 306.053 175.244 306.046 174.938Z" fill="#F9D8AC"/>
<path d="M301.973 174.181C302.306 174.174 302.849 174.465 303.261 175.025C303.673 175.586 303.782 176.176 303.644 176.459C303.319 176.474 302.769 176.176 302.357 175.615C301.944 175.054 301.858 174.465 301.973 174.181Z" fill="#F9D8AC"/>
<path d="M301.597 176.27C301.93 176.263 302.472 176.554 302.885 177.114C303.297 177.675 303.406 178.265 303.268 178.548C302.943 178.563 302.393 178.265 301.981 177.704C301.568 177.143 301.474 176.554 301.597 176.27Z" fill="#F9D8AC"/>
<path d="M305.662 177.02C305.351 176.896 304.744 176.976 304.158 177.347C303.579 177.726 303.268 178.235 303.297 178.548C303.594 178.679 304.216 178.592 304.802 178.221C305.38 177.85 305.677 177.325 305.662 177.02Z" fill="#F9D8AC"/>
<path d="M303.196 178.559L302.419 182.811L302.597 182.844L303.374 178.592L303.196 178.559Z" fill="#F9D8AC"/>
<path d="M305.286 179.094C304.975 178.97 304.368 179.051 303.782 179.422C303.203 179.8 302.892 180.31 302.921 180.623C303.218 180.754 303.84 180.667 304.426 180.295C305.004 179.924 305.294 179.407 305.286 179.094Z" fill="#F9D8AC"/>
<path d="M301.214 178.345C301.547 178.337 302.089 178.629 302.501 179.189C302.914 179.75 303.022 180.339 302.885 180.623C302.559 180.638 302.01 180.339 301.597 179.779C301.185 179.218 301.098 178.629 301.214 178.345Z" fill="#F9D8AC"/>
<path d="M302.431 182.717L301.654 186.969L301.832 187.002L302.609 182.75L302.431 182.717Z" fill="#F9D8AC"/>
<path d="M310.589 130.505C310.965 130.745 311.363 131.509 311.406 132.521C311.457 133.525 311.146 134.348 310.784 134.603C310.408 134.384 310.01 133.598 309.959 132.586C309.916 131.582 310.249 130.774 310.589 130.505Z" fill="#FEE6C6"/>
<path d="M310.899 134.507L310.66 134.519L310.971 140.982L311.209 140.971L310.899 134.507Z" fill="#FEE6C6"/>
<path d="M313.482 134.639C313.055 134.559 312.303 134.88 311.681 135.622C311.059 136.365 310.827 137.216 310.958 137.668C311.377 137.762 312.137 137.427 312.759 136.685C313.374 135.942 313.591 135.091 313.482 134.639Z" fill="#FEE6C6"/>
<path d="M308.107 134.901C308.527 134.785 309.308 135.025 309.995 135.702C310.683 136.379 311.001 137.202 310.914 137.668C310.509 137.799 309.713 137.544 309.026 136.867C308.332 136.19 308.035 135.36 308.107 134.901Z" fill="#FEE6C6"/>
<path d="M308.259 138.068C308.679 137.951 309.46 138.192 310.147 138.869C310.834 139.546 311.153 140.368 311.066 140.834C310.661 140.965 309.865 140.71 309.178 140.033C308.484 139.356 308.194 138.526 308.259 138.068Z" fill="#FEE6C6"/>
<path d="M313.634 137.806C313.207 137.726 312.455 138.046 311.833 138.789C311.211 139.531 310.979 140.383 311.109 140.834C311.529 140.929 312.288 140.594 312.91 139.851C313.525 139.109 313.742 138.257 313.634 137.806Z" fill="#FEE6C6"/>
<path d="M311.19 140.861L310.952 140.873L311.262 147.336L311.5 147.325L311.19 140.861Z" fill="#FEE6C6"/>
<path d="M313.786 140.965C313.359 140.885 312.607 141.205 311.985 141.948C311.363 142.69 311.131 143.542 311.261 143.993C311.681 144.088 312.44 143.753 313.063 143.01C313.677 142.268 313.894 141.409 313.786 140.965Z" fill="#FEE6C6"/>
<path d="M308.411 141.227C308.831 141.11 309.612 141.351 310.299 142.028C310.986 142.705 311.305 143.527 311.218 143.993C310.813 144.124 310.017 143.869 309.33 143.192C308.635 142.508 308.339 141.678 308.411 141.227Z" fill="#FEE6C6"/>
<path d="M308.563 144.393C308.983 144.277 309.764 144.517 310.451 145.194C311.138 145.871 311.457 146.694 311.37 147.16C310.965 147.291 310.169 147.036 309.482 146.359C308.787 145.682 308.491 144.852 308.563 144.393Z" fill="#FEE6C6"/>
<path d="M313.938 144.131C313.511 144.051 312.759 144.372 312.137 145.114C311.515 145.857 311.283 146.708 311.413 147.16C311.833 147.254 312.592 146.919 313.214 146.177C313.829 145.434 314.046 144.583 313.938 144.131Z" fill="#FEE6C6"/>
<path d="M311.507 147.158L311.269 147.17L311.579 153.634L311.818 153.622L311.507 147.158Z" fill="#FEE6C6"/>
<path d="M315.985 199.935H309.258C306.574 199.935 304.454 197.628 304.671 194.934L308.165 151.731H317.07L320.564 194.934C320.788 197.628 318.668 199.935 315.985 199.935Z" fill="#FEE6C6"/>
<path d="M317.988 151.862H307.254C306.625 151.862 306.118 151.353 306.118 150.719C306.118 150.086 306.625 149.576 307.254 149.576H317.988C318.618 149.576 319.124 150.086 319.124 150.719C319.124 151.345 318.618 151.862 317.988 151.862Z" fill="#FEE6C6"/>
<path d="M313.967 160.43C314.068 156.805 314.249 153.18 314.437 149.562C314.625 145.944 314.878 142.326 315.102 138.709C315.377 135.091 315.623 131.473 315.934 127.862L316.412 122.446C316.6 120.641 316.759 118.836 316.961 117.031C316.918 118.843 316.831 120.656 316.766 122.468L316.491 127.899C316.303 131.517 316.05 135.134 315.826 138.752C315.543 142.37 315.305 145.988 314.994 149.598C314.683 153.209 314.364 156.82 313.967 160.43Z" fill="#FEE6C6"/>
<path d="M314.307 156.281C313.764 149.038 313.554 141.788 313.424 134.537C313.323 127.287 313.308 120.037 313.627 112.779C314.169 120.022 314.379 127.273 314.509 134.523C314.603 141.773 314.618 149.023 314.307 156.281Z" fill="#FEE6C6"/>
<path d="M313.388 163.08C313.836 159.476 314.357 155.888 314.9 152.306C315.435 148.718 316.035 145.143 316.6 141.562C317.222 137.988 317.815 134.414 318.466 130.847L319.457 125.496C319.811 123.72 320.144 121.937 320.52 120.161C320.303 121.959 320.043 123.757 319.804 125.555L319.016 130.934C318.48 134.523 317.88 138.097 317.316 141.678C316.694 145.253 316.101 148.827 315.45 152.394C314.791 155.968 314.133 159.527 313.388 163.08Z" fill="#FEE6C6"/>
<path d="M312.057 112.889C312.057 113.311 311.717 113.653 311.297 113.653C310.878 113.653 310.538 113.311 310.538 112.889C310.538 112.466 310.878 112.124 311.297 112.124C311.717 112.124 312.057 112.466 312.057 112.889Z" stroke="#FEE6C6" stroke-miterlimit="10"/>
<path d="M316.13 111.018C317.136 111.018 317.952 110.197 317.952 109.183C317.952 108.17 317.136 107.349 316.13 107.349C315.123 107.349 314.307 108.17 314.307 109.183C314.307 110.197 315.123 111.018 316.13 111.018Z" stroke="#FEE6C6" stroke-miterlimit="10"/>
<path d="M319.797 118.632C320.128 118.632 320.397 118.361 320.397 118.028C320.397 117.694 320.128 117.423 319.797 117.423C319.465 117.423 319.196 117.694 319.196 118.028C319.196 118.361 319.465 118.632 319.797 118.632Z" stroke="#FEE6C6" stroke-miterlimit="10"/>
<path d="M321.851 131.072C321.851 131.385 321.598 131.64 321.287 131.64C320.976 131.64 320.723 131.385 320.723 131.072C320.723 130.759 320.976 130.505 321.287 130.505C321.598 130.505 321.851 130.759 321.851 131.072Z" stroke="#FEE6C6" stroke-miterlimit="10"/>
<path d="M307.413 126.275C307.956 126.275 308.397 125.832 308.397 125.285C308.397 124.739 307.956 124.295 307.413 124.295C306.87 124.295 306.429 124.739 306.429 125.285C306.429 125.832 306.87 126.275 307.413 126.275Z" stroke="#FEE6C6" stroke-miterlimit="10"/>
<path d="M283.781 171.313H258.709V198.8H283.781V171.313Z" fill="#F9D8AC"/>
<path d="M280.974 174.392H261.523V195.72H280.974V174.392Z" fill="#FEE6C6"/>
<path d="M31.2201 45.889H27.1838V225.5H31.2201V45.889Z" fill="#FEE6C6"/>
<path d="M49.7958 232.059H8.61497C8.61497 227.626 17.8378 224.037 29.209 224.037C40.5802 224.037 49.7958 227.626 49.7958 232.059Z" fill="#FEE6C6"/>
<path d="M57.5286 48.3569H0.875137L1.92401 44.659L2.13378 43.931L4.03622 37.234L4.24599 36.5061L14.619 0H45.2315L54.5122 36.5061L54.7003 37.234L56.4001 43.931L56.5882 44.659L57.5286 48.3569Z" fill="#FEE6C6"/>
<path d="M4.59345 38.8717L2.66208 42.2348H6.51758L4.59345 38.8717Z" fill="#E5CAA6"/>
<path d="M8.96229 42.2348L7.03092 38.8717H10.8937L8.96229 42.2348Z" fill="#E5CAA6"/>
<path d="M12.8179 38.8717L10.8937 42.2348H14.7493L12.8179 38.8717Z" fill="#E5CAA6"/>
<path d="M17.1942 42.2348L15.2628 38.8717H19.1183L17.1942 42.2348Z" fill="#E5CAA6"/>
<path d="M21.0497 38.8717L19.1183 42.2348H22.9738L21.0497 38.8717Z" fill="#E5CAA6"/>
<path d="M25.4188 42.2348L23.4874 38.8717H27.3502L25.4188 42.2348Z" fill="#E5CAA6"/>
<path d="M29.2744 38.8717L27.3502 42.2348H31.2057L29.2744 38.8717Z" fill="#E5CAA6"/>
<path d="M33.6432 42.2348L31.7191 38.8717H35.5746L33.6432 42.2348Z" fill="#E5CAA6"/>
<path d="M37.5062 38.8717L35.5748 42.2348H39.4303L37.5062 38.8717Z" fill="#E5CAA6"/>
<path d="M41.875 42.2348L39.9437 38.8717H43.7992L41.875 42.2348Z" fill="#E5CAA6"/>
<path d="M45.7308 38.8717L43.7994 42.2348H47.6621L45.7308 38.8717Z" fill="#E5CAA6"/>
<path d="M50.0997 42.2348L48.1756 38.8717H52.0311L50.0997 42.2348Z" fill="#E5CAA6"/>
<path d="M53.9552 38.8717L52.0311 42.2348H55.8866L53.9552 38.8717Z" fill="#E5CAA6"/>
<path d="M54.7004 37.2339H4.03639L4.24616 36.506H54.5124L54.7004 37.2339Z" fill="#E5CAA6"/>
<path d="M56.5883 44.659H1.92408L2.13385 43.9311H56.4002L56.5883 44.659Z" fill="#E5CAA6"/>
<path d="M63.9226 154.904C65.3982 149.153 68.5738 144.014 71.8361 139.064C74.7296 134.667 77.7604 130.293 81.5798 126.682C85.3991 123.064 90.1082 120.218 95.2874 119.417C94.0215 123.523 92.7557 127.628 91.4898 131.734C90.2239 135.839 88.9146 140.032 86.419 143.519C83.8077 147.159 80.0246 149.823 75.9882 151.73C71.9446 153.638 67.619 154.839 63.315 156.032" fill="#66A986"/>
<path d="M64.1909 154.978C66.3682 147.196 71.0989 140.121 75.8731 133.693C78.3398 130.366 81.0524 127.236 84.3364 124.71C85.8916 123.509 93.8269 118.217 94.6153 120.714C94.9626 121.82 93.0384 125.817 92.7129 126.872C92.1053 128.845 91.5121 130.818 90.89 132.783C89.7254 136.474 88.4596 140.208 86.1954 143.382C80.8715 150.814 71.5836 153.457 63.2505 155.771C62.9178 155.866 63.0552 156.39 63.3952 156.295C71.5402 154.032 80.3796 151.484 85.9423 144.598C91.4326 137.806 93.0457 127.629 95.5557 119.491C95.6208 119.28 95.411 119.12 95.223 119.156C87.389 120.597 81.32 125.773 76.5241 131.939C71.2364 138.738 66.0137 146.454 63.6701 154.84C63.5688 155.167 64.0896 155.313 64.1909 154.978Z" fill="#66A986"/>
<path d="M55.2431 174.232C60.9576 161.944 66.6649 149.649 72.3795 137.362C72.676 136.728 71.7357 136.175 71.4391 136.809C65.7246 149.096 60.0173 161.391 54.3027 173.679C54.0134 174.312 54.9465 174.865 55.2431 174.232Z" fill="#80B996"/>
<path d="M56.0677 147.786C56.4004 134.909 61.2325 121.893 64.4514 109.511C64.5382 109.169 64.0174 109.023 63.9306 109.365C60.6972 121.813 55.8651 134.836 55.5324 147.786C55.5179 148.135 56.0605 148.135 56.0677 147.786Z" fill="#80B996"/>
<path d="M47.4449 150.479C41.9908 145.602 36.4933 140.674 32.2182 134.72C27.9504 128.765 24.9485 121.624 25.1872 114.286C28.6665 119.84 36.0159 121.915 39.6399 127.375C40.8334 129.173 41.5496 131.247 42.2512 133.293C44.2188 139.022 46.1935 144.758 48.1611 150.487" fill="#66A986"/>
<path d="M47.633 150.29C41.9113 145.173 36.0955 139.99 31.7481 133.584C29.5852 130.396 27.813 126.909 26.699 123.211C26.1204 121.289 25.7297 119.324 25.5417 117.329C25.3825 115.611 24.8762 114.992 26.1421 116.048C27.936 117.547 29.4767 119.163 31.4009 120.532C34.0411 122.403 36.8333 124.157 38.8225 126.77C41.3905 130.141 42.4321 134.683 43.7992 138.658C45.1664 142.625 46.5263 146.592 47.8935 150.559C48.0092 150.887 48.53 150.749 48.4143 150.414C46.8952 146.003 45.3834 141.599 43.8643 137.187C42.6708 133.708 41.7377 129.871 39.5748 126.836C35.8134 121.551 29.0861 119.542 25.4115 114.141C25.2668 113.922 24.9051 113.995 24.9051 114.279C24.7894 129.901 36.4861 141.038 47.2424 150.669C47.5101 150.909 47.9007 150.523 47.633 150.29Z" fill="#66A986"/>
<path d="M36.8407 123.713C45.7598 141.992 51.619 161.58 54.2014 181.781C54.2882 182.465 55.3732 182.479 55.2864 181.781C52.6823 161.384 46.7869 141.628 37.7739 123.16C37.4701 122.526 36.5297 123.08 36.8407 123.713Z" fill="#80B996"/>
<path d="M52.935 107.333C48.4719 91.5881 48.6021 74.5544 53.3112 58.8746C56.588 63.6135 59.0981 68.891 60.7184 74.4234C62.5268 80.589 63.2284 87.1477 62.1651 93.488C61.1018 99.8284 58.1939 105.936 53.5282 110.325" fill="#66A986"/>
<path d="M53.196 107.262C50.9102 98.9486 49.7818 90.3808 49.9771 81.7547C50.0856 77.1323 50.5485 72.5245 51.3876 67.9748C51.7493 66.0167 52.1833 64.0731 52.6752 62.1441C53.5215 58.8611 54.1147 60.4844 55.3733 62.6682C63.7426 77.1396 66.1948 97.4709 53.3262 110.137C53.073 110.384 53.4564 110.77 53.7096 110.523C67.9742 96.4809 63.7064 73.8347 53.536 58.7373C53.4058 58.5481 53.1092 58.5699 53.0369 58.8028C48.4001 74.6937 48.2772 91.4436 52.6607 107.407C52.7692 107.742 53.29 107.596 53.196 107.262Z" fill="#66A986"/>
<path d="M65.558 150.479C64.3717 142.559 66.9034 134.435 71.0049 127.571C75.1063 120.707 80.7124 114.898 86.2678 109.161C87.6204 120.095 85.3129 131.458 79.8082 140.98C78.2963 143.6 76.5024 146.126 74.1009 147.953C71.6993 149.78 68.6033 150.858 65.6448 150.319" fill="#80B996"/>
<path d="M65.8331 150.479C64.7987 142.203 67.2726 134.195 71.5693 127.171C73.7539 123.604 76.3579 120.321 79.1139 117.183C80.3654 115.764 81.6529 114.366 82.955 112.99C83.512 112.401 84.0617 111.658 84.6983 111.163C85.6748 110.406 85.5518 109.875 86.1739 110.981C86.7671 112.022 86.3692 114.687 86.3548 115.873C86.3331 117.707 86.2173 119.542 86.0076 121.369C85.5301 125.387 84.5825 129.376 83.1648 133.169C80.3654 140.674 75.1065 151.134 65.6305 150.05C65.2833 150.013 65.2906 150.559 65.6305 150.596C74.3108 151.593 79.4612 143.142 82.5065 136.212C86.2535 127.702 87.5483 118.384 86.5211 109.162C86.4994 108.943 86.239 108.783 86.0582 108.965C75.1644 120.233 63.1494 133.489 65.2761 150.479C65.334 150.821 65.8765 150.829 65.8331 150.479Z" fill="#80B996"/>
<path d="M57.1229 136.32C56.4502 126.638 58.3888 116.913 61.5571 107.741C64.7254 98.5692 69.1089 89.8849 73.478 81.2225C76.3787 91.1297 77.3046 101.779 74.8596 111.81C72.4147 121.841 66.3746 131.174 57.5424 136.429" fill="#80B996"/>
<path d="M57.3986 136.321C56.8271 126.341 58.7512 116.535 62.057 107.16C63.8147 102.173 65.927 97.3179 68.1911 92.5427C69.2761 90.2424 70.4045 87.9639 71.5402 85.6928C71.6704 85.4307 72.8206 82.5845 73.0954 82.599C74.0069 82.6354 74.0647 84.4116 74.2528 85.2051C78.6291 103.833 74.6217 125.54 57.4058 136.197C57.1092 136.379 57.3841 136.852 57.6807 136.67C76.5748 124.98 79.367 101.023 73.7465 81.1505C73.6886 80.9321 73.3558 80.8666 73.2473 81.0849C64.5453 98.3443 55.7131 116.434 56.856 136.321C56.8777 136.67 57.4203 136.678 57.3986 136.321Z" fill="#80B996"/>
<path d="M51.2717 101.46C55.6046 126.843 56.3642 152.678 53.5648 178.279C53.4852 178.978 54.5775 178.971 54.6498 178.279C57.4564 152.583 56.6607 126.647 52.3206 101.169C52.1976 100.477 51.156 100.768 51.2717 101.46Z" fill="#80B996"/>
<path d="M53.0792 109.736C48.9198 106.242 45.2958 100.309 44.3193 94.9513C43.3428 89.5937 43.6321 84.0832 43.9648 78.6455C44.3048 73.2078 44.6882 67.7192 43.907 62.3252C47.965 67.8211 51.3793 73.7975 54.0629 80.0941C56.0956 84.8621 57.7231 89.8922 57.904 95.0751C58.0848 100.258 56.696 105.645 53.2889 109.539" fill="#80B996"/>
<path d="M53.2754 109.547C46.5482 103.578 43.9658 95.68 43.9296 86.8356C43.9151 82.7373 44.284 78.6536 44.4866 74.5699C44.5879 72.5243 44.6602 70.4788 44.6313 68.4333C44.624 67.8437 44.067 63.7236 44.4287 63.5052C45.7308 62.719 54.9391 82.9193 55.4527 84.4043C58.3317 92.6955 58.9538 102.181 53.1018 109.351C52.8848 109.62 53.2609 110.006 53.4852 109.737C65.0806 95.5272 53.0656 74.4752 44.1394 62.1949C44.0019 62.0057 43.5969 62.0348 43.633 62.3332C44.841 71.8619 42.7867 81.3761 43.5318 90.9121C44.1104 98.3443 47.3005 104.983 52.8848 109.933C53.1524 110.166 53.5358 109.78 53.2754 109.547Z" fill="#80B996"/>
<path d="M46.9668 147.115C49.0645 139.698 47.8276 129.587 44.3121 122.729C40.7965 115.879 35.3207 110.209 29.2445 105.506C29.5772 113.412 30.1849 121.426 32.8034 128.888C35.4292 136.356 39.943 143.556 46.9668 147.115Z" fill="#80B996"/>
<path d="M47.2279 147.189C51.6115 130.293 42.2367 115.393 29.4405 105.318C29.2741 105.187 28.9631 105.252 28.9776 105.514C29.643 120.619 32.0735 139.407 46.8301 147.356C47.1411 147.524 47.4087 147.051 47.1049 146.883C40.3994 143.273 36.0954 136.859 33.4407 129.835C32.0735 126.217 31.1983 122.424 30.6196 118.603C30.229 116.011 29.983 113.405 29.8022 110.792C29.7443 109.94 29.5779 109.001 29.6431 108.15C29.7371 106.912 29.2669 106.555 30.4821 106.839C31.7046 107.123 33.7011 109.606 34.5908 110.457C35.9073 111.717 37.166 113.041 38.3523 114.424C40.9998 117.511 43.3362 120.947 44.9204 124.71C47.8428 131.626 48.6023 139.757 46.7071 147.043C46.6203 147.385 47.1411 147.531 47.2279 147.189Z" fill="#80B996"/>
<path d="M77.6238 205.097C77.6238 217.413 72.8713 228.143 65.8475 233.726H43.6983C36.6744 228.143 31.922 217.413 31.922 205.097C31.922 193.588 36.0741 183.462 42.3456 177.624H67.193C73.4717 183.462 77.6238 193.581 77.6238 205.097Z" fill="#FEE6C6"/>
<path d="M44.4721 189.511L38.5261 199.885H50.4253L44.4721 189.511Z" stroke="#E6CAA6" stroke-miterlimit="10"/>
<path d="M44.472 192.045L40.6961 198.625H48.248L44.472 192.045Z" stroke="#E6CAA6" stroke-width="0.5" stroke-miterlimit="10"/>
<path d="M53.0657 223.572L45.8755 227.75V219.4L53.0657 223.572Z" stroke="#E6CAA6" stroke-width="0.75" stroke-miterlimit="10"/>
<path d="M50.6785 223.572L47.0689 225.668V221.475L50.6785 223.572Z" stroke="#E6CAA6" stroke-width="0.5" stroke-miterlimit="10"/>
<path d="M63.1491 180.674L57.3912 190.712H68.9143L63.1491 180.674Z" stroke="#E6CAA6" stroke-miterlimit="10"/>
<path d="M63.1492 184.481L60.668 188.805H65.6375L63.1492 184.481Z" stroke="#E6CAA6" stroke-width="0.5" stroke-miterlimit="10"/>
<path d="M63.1493 224.758L56.5378 209.464H69.768L63.1493 224.758Z" stroke="#E6CAA6" stroke-miterlimit="10"/>
<path d="M63.1492 221.031L58.9537 211.328H67.3519L63.1492 221.031Z" stroke="#E6CAA6" stroke-width="0.5" stroke-miterlimit="10"/>
<path d="M41.2244 211.83C41.2244 210.811 42.049 209.981 43.0617 209.981C44.0744 209.981 44.899 210.811 44.899 211.83C44.899 212.849 44.0744 213.679 43.0617 213.679C42.049 213.679 41.2244 212.849 41.2244 211.83Z" stroke="#E6CAA6" stroke-miterlimit="10"/>
<path d="M63.1493 202.512C64.7792 202.512 66.1006 201.183 66.1006 199.542C66.1006 197.902 64.7792 196.572 63.1493 196.572C61.5193 196.572 60.198 197.902 60.198 199.542C60.198 201.183 61.5193 202.512 63.1493 202.512Z" stroke="#E6CAA6" stroke-miterlimit="10"/>
<path d="M51.2571 185.129C51.8923 185.129 52.4073 184.611 52.4073 183.972C52.4073 183.333 51.8923 182.814 51.2571 182.814C50.6219 182.814 50.107 183.333 50.107 183.972C50.107 184.611 50.6219 185.129 51.2571 185.129Z" stroke="#E6CAA6" stroke-miterlimit="10"/>
<g opacity="0.25">
<path opacity="0.25" d="M68.8568 179.342C64.8928 199.047 55.8074 217.697 42.7001 232.867C43.0256 233.158 43.3584 233.457 43.6983 233.726H65.8476C72.8714 228.143 77.6239 217.413 77.6239 205.096C77.6239 194.636 74.1951 185.333 68.8568 179.342Z" fill="#FEE6C6"/>
</g>
<path d="M67.1568 177.624H42.389C41.6367 177.624 41.029 177.013 41.029 176.256V175.972C41.029 175.215 41.6367 174.603 42.389 174.603H67.1568C67.909 174.603 68.5167 175.215 68.5167 175.972V176.256C68.5239 177.013 67.909 177.624 67.1568 177.624Z" fill="#F9D8AC"/>
<path d="M68.7335 145.034C69.4279 142.661 70.3032 140.339 71.2797 138.061C72.249 135.782 73.363 133.562 74.5565 131.393C75.7718 129.231 77.0738 127.127 78.5061 125.111C79.2294 124.106 79.96 123.109 80.7195 122.133C81.5008 121.173 82.2748 120.219 83.1066 119.302C82.7594 119.811 82.405 120.321 82.0433 120.816L81.0017 122.344C80.3072 123.364 79.6273 124.39 78.969 125.424C77.6525 127.506 76.3794 129.602 75.1858 131.749C73.9778 133.89 72.8639 136.081 71.7788 138.294C70.701 140.514 69.71 142.77 68.7335 145.034Z" fill="#66A986"/>
<path d="M51.3586 103.476C50.9608 101.241 50.6425 98.9994 50.3387 96.7574C50.0276 94.5154 49.7672 92.266 49.5068 90.024C49.2681 87.7747 49.0294 85.5253 48.8413 83.2687L48.5664 79.8838C48.5013 78.7555 48.4145 77.6199 48.3711 76.4916C48.5737 77.6054 48.7328 78.7264 48.9209 79.8474L49.3911 83.2105C49.7021 85.4525 49.9625 87.7019 50.2229 89.9512C50.4616 92.2005 50.7004 94.4498 50.8884 96.7137C51.0837 98.9558 51.2573 101.212 51.3586 103.476Z" fill="#66A986"/>
<path d="M34.3814 116.179C35.6111 118.108 36.7034 120.117 37.7306 122.162C38.765 124.208 39.6764 126.304 40.53 128.437C41.3618 130.57 42.1286 132.732 42.7796 134.93C43.0979 136.03 43.4089 137.136 43.691 138.242C43.9514 139.356 44.2191 140.47 44.4289 141.598L43.3511 138.344C42.9966 137.26 42.6277 136.182 42.2516 135.105C41.4848 132.958 40.7036 130.817 39.8645 128.706C39.0398 126.588 38.1429 124.492 37.2387 122.403C36.3128 120.313 35.3507 118.253 34.3814 116.179Z" fill="#66A986"/>
<path d="M60.386 127.047C61.5216 124.274 62.6501 121.507 63.7134 118.712C64.7767 115.917 65.8256 113.122 66.766 110.29C67.7642 107.473 68.6539 104.619 69.522 101.766C69.956 100.339 70.3755 98.9049 70.7879 97.4636L72.0103 93.1396C71.7572 94.6174 71.4389 96.0805 71.1278 97.5509C70.7879 99.0141 70.4262 100.47 70.0573 101.919C69.2905 104.823 68.3935 107.684 67.4459 110.53C66.4477 113.354 65.3988 116.172 64.2198 118.93C63.0479 121.675 61.7893 124.397 60.386 127.047Z" fill="#66A986"/>
<path d="M195.922 97.7765H141.142C127.875 97.7765 117.119 108.601 117.119 121.951V181.052H219.951V121.951C219.951 108.601 209.195 97.7765 195.922 97.7765Z" fill="#5C6193"/>
<path d="M207.777 168.044H129.286V181.052H207.777V168.044Z" fill="#4E5567"/>
<path d="M207.777 181.053H123.202V214.116H207.777V181.053Z" fill="#8E97FD"/>
<path d="M214.476 219.015H122.595C119.904 219.015 117.727 216.824 117.727 214.116H219.344C219.344 216.824 217.16 219.015 214.476 219.015Z" fill="#3F414E"/>
<path d="M120.164 234.323H117.119L122.595 219.014H126.855L120.164 234.323Z" fill="#3F414E"/>
<path d="M216.906 234.323H219.952L214.476 219.014H210.215L216.906 234.323Z" fill="#3F414E"/>
<path d="M108.395 107.262C105.451 105.289 102.977 102.479 101.813 99.1159C100.648 95.7528 100.909 91.822 102.883 88.8666C104.858 85.9111 108.627 84.1495 112.077 84.943C112.222 80.2551 116.504 76.841 120.649 74.6936C125.213 72.3278 129.98 70.9593 134.646 73.1067C137.243 74.3078 139.977 76.2587 141.352 78.7846C142.726 81.3033 143.543 84.084 144.339 86.8502C147.601 84.8993 152.043 85.1977 155.023 87.5635C158.003 89.9293 159.313 94.2096 158.184 97.8566C161.873 96.2842 166.344 95.5854 169.736 97.7328C173.302 99.9894 174.532 104.626 174.778 108.863C174.988 112.503 174.626 116.361 172.572 119.36C170.141 122.912 165.837 124.586 161.765 125.933C154.719 128.255 147.464 130.199 140.049 130.417C132.635 130.636 124.996 129.02 118.92 124.747C112.837 120.474 108.547 113.311 108.764 105.849" fill="#4E5567"/>
<path d="M104.511 112.561C100.822 112.757 97.3207 115.109 95.7221 118.464C94.1235 121.82 94.4852 126.035 96.6336 129.056C93.5665 129.099 90.5935 130.934 89.1613 133.664C87.729 136.393 87.9099 139.895 89.6025 142.464C91.0348 144.634 93.3712 146.046 95.7945 146.963C102.514 149.504 110.153 148.645 116.822 145.973C120.656 144.437 124.338 142.261 126.921 139.029C129.503 135.797 130.848 131.378 129.734 127.382C128.953 124.594 127.065 122.228 124.837 120.408C122.602 118.588 120.02 117.256 117.452 115.967C113.025 113.747 108.388 111.549 103.44 111.462" fill="#3F4553"/>
<path d="M126.248 161.457H104.952C98.232 161.457 92.7851 155.975 92.7851 149.213C92.7851 142.45 98.232 136.969 104.952 136.969H121.828C124.273 136.969 126.255 138.963 126.255 141.424V161.457H126.248Z" fill="#8E97FD"/>
<path d="M129.286 214.115H115.115C110.175 214.115 106.167 210.083 106.167 205.111V136.961H120.338C125.279 136.961 129.286 140.994 129.286 145.966V214.115Z" fill="#8E97FD"/>
<path d="M131.789 75.9747C133.713 75.5161 135.883 75.8655 137.59 77.0448C138.429 77.6344 139.167 78.3987 139.637 79.3087C139.919 79.7381 140.064 80.2331 140.245 80.699C140.382 81.1795 140.476 81.6817 140.556 82.1622C140.317 81.7181 140.165 81.2523 139.919 80.8301C139.666 80.4151 139.464 79.9784 139.16 79.6071C138.632 78.8209 137.945 78.1658 137.178 77.6344C136.418 77.0957 135.55 76.7099 134.646 76.4406C133.735 76.1931 132.78 76.0184 131.789 75.9747Z" fill="white"/>
<path d="M163.993 99.9456C166.018 99.9092 168.116 100.666 169.649 102.129C170.04 102.486 170.351 102.923 170.662 103.345C170.908 103.818 171.197 104.262 171.335 104.772C171.537 105.26 171.602 105.784 171.682 106.293C171.733 106.81 171.711 107.327 171.696 107.829C171.472 106.832 171.248 105.856 170.814 104.983C170.416 104.095 169.852 103.301 169.15 102.646C168.463 101.977 167.653 101.431 166.785 100.987C165.895 100.564 164.969 100.193 163.993 99.9456Z" fill="white"/>
<path d="M151.804 89.2596C152.253 89.3251 152.679 89.4853 153.092 89.6891C153.504 89.8929 153.88 90.1623 154.213 90.4753C154.546 90.7956 154.82 91.1886 155.009 91.6108C155.204 92.0331 155.276 92.5062 155.262 92.9575C155.117 92.528 154.994 92.1058 154.755 91.7419C154.524 91.3779 154.271 91.0358 153.952 90.7373C153.338 90.1404 152.6 89.6673 151.804 89.2596Z" fill="white"/>
<path d="M162.813 120.845C163.725 117.511 163.428 113.74 161.504 110.872C159.58 108.004 155.891 106.272 152.563 107.145C153.583 104.736 152.108 101.86 149.952 100.383C147.804 98.905 145.142 98.4464 142.596 97.864C135.116 96.1534 127.948 93.0597 121.56 88.7867C118.327 86.6247 117.792 87.1124 116.265 83.6256C115.354 84.9723 113.567 87.1634 113.517 88.8303C110.63 86.1806 104.843 85.904 102.876 88.8595C100.901 91.8149 100.641 95.7457 101.805 99.1088C102.97 102.472 105.444 105.282 108.388 107.254L108.75 105.842C108.533 113.304 112.822 120.466 118.906 124.739C124.989 129.012 132.628 130.629 140.035 130.41C146.871 130.206 153.569 128.539 160.094 126.457C161.302 124.732 162.264 122.861 162.813 120.845Z" fill="#3F4553"/>
<path d="M122.711 145.966V205.671H111.137V155.313H107.961C104.612 155.313 101.9 152.583 101.9 149.213C101.9 145.842 104.612 143.112 107.961 143.112H119.875C121.445 143.112 122.711 144.386 122.711 145.966Z" stroke="#8C96FF" stroke-miterlimit="10"/>
<path d="M134.834 96.5609C134.349 92.7465 136.751 89.2961 140.194 88.852C143.645 88.408 146.835 91.1305 147.326 94.9449C147.811 98.7592 145.41 102.21 141.966 102.654C138.516 103.098 135.326 100.368 134.834 96.5609Z" fill="#8E97FD"/>
<path d="M134.834 96.5627C135.319 100.377 138.516 103.107 141.966 102.656C143.399 102.474 144.643 101.76 145.583 100.734C141.301 97.9676 140.549 91.1032 140.411 88.8393C140.339 88.8466 140.274 88.8466 140.201 88.8538C136.751 89.2979 134.349 92.7483 134.834 96.5627Z" fill="#8E97FD"/>
<path d="M125.64 112.321L128.071 123.342L136.592 125.788C136.592 125.788 139.637 122.723 139.637 122.112C139.637 121.5 135.377 109.868 135.377 109.868L125.64 112.321Z" fill="#FDBCA0"/>
<path d="M135.369 109.875L125.633 112.321L126.465 116.084C128.208 116.841 130.176 117.402 132.418 117.678C133.64 117.831 134.899 117.598 135.97 116.972C136.519 116.652 137.033 116.259 137.525 115.844C136.454 112.838 135.369 109.875 135.369 109.875Z" fill="#DF8370"/>
<path d="M112.251 90.2788C112.251 90.2788 111.036 114.162 132.331 115.385C139.022 112.939 143.283 103.753 142.068 96.4007C140.852 89.0558 132.939 76.8047 121.38 80.4807C115.296 82.9339 112.251 90.2788 112.251 90.2788Z" fill="#FDBCA0"/>
<path d="M179.791 117.839L195.264 98.8031C195.878 98.046 196.218 97.0997 196.218 96.117V90.9486C196.218 90.5556 196.472 90.1989 196.84 90.0751C197.434 89.8786 198.041 90.3226 198.041 90.9486V94.5738L203.517 84.7757L210.816 84.1643L201.079 101.307L186.475 127.025L179.791 117.839Z" fill="#FDBCA0"/>
<path d="M247.938 100.688L273.495 109.263L281.358 102.596C284.302 100.099 288.62 99.8585 291.68 102.21C293.452 103.571 294.385 105.485 292.353 108.041C287.484 114.163 273.487 120.896 273.487 120.896L244.886 114.774L247.938 100.688Z" fill="#FDBCA0"/>
<path opacity="0.5" d="M244.9 114.774L259.1 117.817C260.011 112.67 259.302 107.473 258.644 104.284L247.946 100.696L244.9 114.774Z" fill="#DF8370"/>
<path d="M169.447 144.779C169.447 144.779 201.484 108.958 215.814 96.7282C218.201 94.69 221.297 93.7 224.422 93.9548C234.998 94.8137 257.067 98.8538 257.067 98.8538C257.067 98.8538 261.328 114.774 253.414 123.96C248.546 123.349 226.643 119.061 226.643 119.061L182.221 168.044L169.447 144.779Z" fill="#739BE0"/>
<path d="M254.629 131.917L275.318 155.182L292.57 158.159C295.774 158.712 297.785 162.119 296.512 165.133C295.687 167.076 293.713 169.697 289.315 168.656C278.97 166.21 269.234 163.145 269.234 163.145L244.893 143.549L254.629 131.917Z" fill="#FDBCA0"/>
<path opacity="0.5" d="M267.375 146.25L254.629 131.917L244.893 143.549L261.906 157.249C264.713 154.33 267.093 150.61 267.375 146.25Z" fill="#DF8370"/>
<path opacity="0.2" d="M215.677 103.811L170.951 147.509L182.228 168.044L226.65 119.061C226.65 119.061 248.553 123.349 253.421 123.96C253.928 123.378 254.376 122.759 254.789 122.126C246.832 115.582 237.334 108.069 230.259 102.821C225.804 99.5235 219.641 99.9384 215.677 103.811Z" fill="#739BE0"/>
<path d="M151.804 164.368C151.804 164.368 162.756 180.288 178.576 178.454C193.347 176.736 209.702 155.276 221.218 136.991C222.397 135.112 225.037 134.901 226.505 136.554C235.562 146.767 251.591 161.922 251.591 161.922C251.591 161.922 266.804 154.578 266.804 142.938C262.608 137.871 245.103 119.702 234.636 108.907C230.122 104.248 222.816 103.848 217.818 107.975L168.832 148.448L151.804 164.368Z" fill="#97B8FF"/>
<g opacity="0.5">
<path opacity="0.5" d="M178.576 178.454C193.347 176.736 209.702 155.276 221.218 136.99C222.397 135.112 225.037 134.901 226.505 136.554C235.562 146.767 251.591 161.922 251.591 161.922C251.591 161.922 255.136 160.204 258.803 157.125C250.651 148.958 242.014 141.285 232.943 134.173C230.006 131.873 226.52 129.5 222.867 130.228C219.691 130.869 217.456 133.657 215.51 136.263C211.3 141.897 207.098 147.531 202.888 153.165C198.294 159.316 193.441 165.686 186.561 169.042C180.695 171.895 173.657 172.215 167.559 169.908C162.828 168.117 158.719 164.754 155.934 160.517L151.804 164.376C151.804 164.368 162.756 180.288 178.576 178.454Z" fill="#97B8FF"/>
</g>
<path d="M210.823 161.457H232.119C238.839 161.457 244.286 155.975 244.286 149.213C244.286 142.45 238.839 136.969 232.119 136.969H215.243C212.798 136.969 210.816 138.963 210.816 141.424V161.457H210.823Z" fill="#8E97FD"/>
<path d="M207.777 214.115H221.948C226.889 214.115 230.896 210.083 230.896 205.111V136.961H216.725C211.785 136.961 207.777 140.994 207.777 145.966V214.115Z" fill="#8E97FD"/>
<path d="M213.832 145.966V205.671H225.406V155.313H228.581C231.931 155.313 234.643 152.583 234.643 149.213C234.643 145.842 231.931 143.112 228.581 143.112H216.668C215.098 143.112 213.832 144.386 213.832 145.966Z" stroke="#8C96FF" stroke-miterlimit="10"/>
<path d="M117.727 101.3L107.383 104.364C107.383 104.364 110.428 114.774 125.64 121.507L127.463 120.896C127.463 120.896 135.977 125.693 138.111 117.475C141.554 116.266 145.887 115.262 149.28 114.57C152.788 113.857 156.426 114.417 159.558 116.142L171.725 122.861C172.876 123.495 174.315 123.225 175.161 122.213L183.444 112.321L191.893 118.719L180.181 137.478C179.422 138.701 177.852 139.131 176.579 138.468L165.193 132.528L171.885 142.938C171.885 142.938 171.277 161.922 151.804 164.368C145.113 157.635 136.592 149.06 131.724 145.384C126.855 141.708 111.036 131.298 106.775 127.011C102.514 122.723 91.5628 107.414 90.9551 99.4581C90.9551 95.1705 115.296 92.1132 115.296 92.1132L117.727 101.3Z" fill="#FFFFFE"/>
<path d="M113.835 125.191C101.118 116.419 95.7293 104.961 93.4507 97.0777C91.9172 97.8129 90.9551 98.6136 90.9551 99.4653C91.5628 107.429 102.514 122.73 106.775 127.018C111.036 131.305 126.855 141.715 131.724 145.391C132.592 146.046 133.583 146.861 134.646 147.793C132.049 142.246 126.335 133.817 113.835 125.191Z" fill="#F2F2F2"/>
<path d="M153.576 124.623C154.083 124.477 154.604 124.397 155.132 124.354C155.66 124.303 156.188 124.31 156.723 124.361C157.779 124.463 158.85 124.732 159.812 125.256C160.781 125.751 161.635 126.508 162.257 127.404C162.604 127.833 162.828 128.335 163.081 128.816C163.32 129.304 163.45 129.835 163.638 130.345L163.588 130.243C164.181 131.051 164.731 131.895 165.302 132.718C165.873 133.547 166.409 134.392 166.944 135.251C166.271 134.501 165.606 133.744 164.976 132.972C164.347 132.193 163.689 131.429 163.081 130.636L163.06 130.614L163.023 130.534C162.828 130.068 162.676 129.58 162.452 129.122C162.206 128.685 162.003 128.219 161.678 127.833C161.41 127.411 161.049 127.069 160.701 126.705C160.311 126.399 159.942 126.064 159.493 125.831C158.633 125.329 157.678 124.965 156.665 124.79C155.66 124.616 154.618 124.536 153.576 124.623Z" fill="#97B8FF"/>
<path d="M129.655 98.1187C130.19 98.9704 130.653 100.688 132.006 100.419C132.469 100.324 132.686 99.9677 133.04 99.6911C134.284 98.7157 134.935 100.215 134.053 101.038C133.597 101.46 132.961 101.562 132.375 101.627C132.035 101.664 132.027 102.21 132.375 102.173C133.228 102.079 134.125 101.882 134.675 101.154C135.116 100.572 135.203 99.7712 134.718 99.1888C134.27 98.6647 133.604 98.5774 133.04 98.9559C132.512 99.3053 132.216 100.135 131.355 99.7639C130.74 99.5018 130.451 98.359 130.125 97.8421C129.937 97.551 129.467 97.8203 129.655 98.1187Z" fill="#444359"/>
<path d="M126.783 106.148C129.611 108.535 133.546 108.019 135.637 104.947C135.832 104.656 135.362 104.379 135.167 104.67C133.293 107.429 129.72 107.917 127.166 105.762C126.899 105.536 126.515 105.922 126.783 106.148Z" fill="#444359"/>
<path d="M120.222 96.5026C120.88 94.7992 122.544 93.8602 124.338 94.1805C124.678 94.2387 124.823 93.7146 124.483 93.6564C122.385 93.2851 120.468 94.3625 119.701 96.3643C119.571 96.6846 120.099 96.8229 120.222 96.5026Z" fill="#444359"/>
<path d="M121.951 101.343L120.512 100.506L122.168 100.652L121.951 101.343Z" fill="#444359"/>
<path d="M122.298 101.547C123.065 99.4653 125.177 98.5044 127.261 99.2105C127.593 99.3197 127.738 98.7956 127.405 98.6864C125.033 97.8857 122.638 99.0576 121.778 101.409C121.655 101.729 122.175 101.875 122.298 101.547Z" fill="#444359"/>
<path d="M123.239 99.3414L122.595 97.4415L123.868 98.9847L123.239 99.3414Z" fill="#444359"/>
<path d="M126.212 98.7518L126.653 97.4415L126.935 98.8028L126.212 98.7518Z" fill="#444359"/>
<path d="M137.163 94.2825L138.176 92.9503L137.821 94.5882L137.163 94.2825Z" fill="#444359"/>
<path d="M137.937 94.4718C135.644 93.5691 133.192 94.5809 132.216 96.8521C132.078 97.1724 132.548 97.449 132.686 97.1287C133.576 95.0614 135.702 94.1733 137.8 94.9959C138.118 95.1269 138.256 94.5955 137.937 94.4718Z" fill="#444359"/>
<path d="M134.798 94.4353L134.516 92.448L135.485 94.2023L134.798 94.4353Z" fill="#444359"/>
<path d="M132.606 96.5972L131.789 95.4762L133.055 96.0294L132.606 96.5972Z" fill="#444359"/>
<path d="M197.101 100.696L204.298 77.984C204.486 77.3944 205.022 76.9867 205.644 76.9722L218.556 76.63C219.547 76.6009 220.27 77.5618 219.981 78.5154L212.805 102.108C212.61 102.741 212.017 103.163 211.358 103.141L198.425 102.61C197.47 102.552 196.811 101.613 197.101 100.696Z" fill="#3F4553"/>
<path d="M195.886 100.696L203.083 77.9841C203.271 77.3944 203.806 76.9868 204.428 76.9722L217.34 76.6301C218.331 76.601 219.055 77.5619 218.765 78.5155L211.59 102.108C211.394 102.741 210.801 103.163 210.143 103.142L197.209 102.61C196.247 102.552 195.596 101.613 195.886 100.696Z" fill="#4E5567"/>
<path d="M216.422 80.328L211.611 96.1315L210.924 98.4027L210.599 99.4727C210.483 99.8513 210.194 100.135 209.846 100.252C209.709 100.295 209.572 100.317 209.427 100.31L206.729 100.201L198.931 99.8804C198.15 99.844 197.622 99.0797 197.853 98.3372L201.578 86.5737L202.989 82.126L203.698 79.8985C203.727 79.8039 203.77 79.7092 203.828 79.6292C204.031 79.3016 204.385 79.0905 204.783 79.0759L205.159 79.0687L215.264 78.7993C216.067 78.7775 216.653 79.5564 216.422 80.328Z" fill="#F2EDE4"/>
<g opacity="0.35">
<path opacity="0.35" d="M211.611 96.1315L210.924 98.4026L203.828 79.6291C204.031 79.3016 204.385 79.0905 204.783 79.0759L205.159 79.0686L211.611 96.1315Z" fill="white"/>
</g>
<g opacity="0.35">
<path opacity="0.35" d="M209.846 100.252C209.709 100.295 209.572 100.317 209.427 100.31L206.729 100.201L201.578 86.5737L202.989 82.126L209.846 100.252Z" fill="white"/>
</g>
<path d="M115.072 104.823C117.582 99.0869 118.247 92.55 116.952 86.4135C117.857 89.3325 121.018 90.985 124.034 91.3708C127.051 91.7566 130.11 91.2179 133.148 91.3708C136.187 91.5236 139.471 92.601 141.004 95.2434C141.286 95.7238 141.597 96.3207 142.147 96.3644C142.834 96.4227 143.239 95.6074 143.384 94.9304C144.505 89.8567 142.436 84.2879 138.494 80.9249C134.552 77.5618 128.967 76.3898 123.926 77.5327C118.884 78.6755 114.442 82.0095 111.592 86.3407C109.806 89.0559 108.598 92.1933 108.417 95.4472C108.236 98.6938 109.133 102.05 111.151 104.59C111.65 105.216 112.265 105.82 113.046 105.995C113.828 106.17 114.782 105.726 114.905 104.925" fill="#3F4553"/>
<path d="M115.003 112.14C118.745 111.372 121.114 107.467 120.293 103.417C119.473 99.3678 115.774 96.7077 112.032 97.4756C108.29 98.2435 105.921 102.149 106.742 106.198C107.563 110.247 111.261 112.908 115.003 112.14Z" fill="#8E97FD"/>
<path d="M110.783 101.802C106.674 89.1942 111.817 84.4407 112.048 84.135L112.2 84.1204H112.236L112.388 84.1131C112.215 84.3534 110.146 90.0677 113.524 100.434L110.783 101.802Z" fill="#8E97FD"/>
<path d="M119.455 108.848C108.822 111.687 107.071 105.958 107.093 101.824C106.587 103.156 106.442 104.67 106.753 106.206C107.578 110.261 111.274 112.917 115.014 112.153C116.945 111.746 118.508 110.508 119.455 108.848Z" fill="#8E97FD"/>
</svg>
