<svg width="23" height="14" viewBox="0 0 23 14" fill="none" xmlns="http://www.w3.org/2000/svg">
<path d="M4.3456 7.10059V5.54905C5.30149 5.58556 6.0809 5.4517 6.68384 5.14747C7.40443 4.80674 7.76473 4.27131 7.76473 3.54117C7.76473 3.00573 7.53679 2.57374 7.0809 2.24517C6.63972 1.90444 6.06619 1.73408 5.36031 1.73408C4.53678 1.73408 3.89707 1.99571 3.44119 2.51898C2.9853 3.03007 2.77207 3.63852 2.80148 4.34432H0.286766C0.360295 3.06658 0.838238 2.03222 1.72059 1.24123C2.66177 0.413745 3.88972 0 5.40443 0C6.71325 0 7.82355 0.28597 8.73532 0.857912C9.76473 1.4907 10.2794 2.34253 10.2794 3.4134C10.2794 4.81283 9.5515 5.7255 8.09561 6.15141V6.18792C8.96326 6.33395 9.64709 6.69902 10.1471 7.28313C10.6471 7.85507 10.8971 8.55478 10.8971 9.38227C10.8971 10.5505 10.353 11.4997 9.26473 12.2298C8.23532 12.9356 6.9559 13.2885 5.42649 13.2885C3.69119 13.2885 2.34559 12.8809 1.38971 12.0655C0.492648 11.2867 0.0294118 10.2098 0 8.83467H2.51471C2.4853 9.63782 2.7206 10.2828 3.2206 10.7695C3.7353 11.2928 4.4706 11.5544 5.42649 11.5544C6.29413 11.5544 7.00002 11.3536 7.54414 10.9521C8.10296 10.5383 8.38238 9.97855 8.38238 9.27275C8.38238 7.72729 7.03678 7.00324 4.3456 7.10059Z" fill="#A1A4B2"/>
<path d="M22.9779 11.1711V13.033H12.4338C12.4485 11.0981 13.5809 9.48571 15.8309 8.1958C16.5368 7.80639 17.2353 7.41699 17.9265 7.02758C18.7206 6.56516 19.3162 6.12707 19.7132 5.71333C20.2132 5.1779 20.4706 4.60595 20.4853 3.99751C20.5 3.41339 20.3382 2.92055 20 2.51898C19.5588 1.99571 18.8529 1.73408 17.8823 1.73408C16.1912 1.73408 15.3088 2.79886 15.2353 4.92843H12.7206C12.7206 3.46816 13.1764 2.29385 14.0882 1.40552C15.0441 0.468505 16.3603 0 18.0368 0C19.7426 0 21.0441 0.450251 21.9412 1.35075C22.6471 2.06872 23 2.92664 23 3.92449C23 5.46995 21.8529 6.90589 19.5588 8.23231C18.7059 8.7069 17.8529 9.18148 17 9.65607C16.1618 10.1915 15.647 10.6965 15.4559 11.1711H22.9779Z" fill="#A1A4B2"/>
</svg>
