<svg width="184" height="183" viewBox="0 0 184 183" fill="none" xmlns="http://www.w3.org/2000/svg">
<path d="M184 0H0V182.388H184V0Z" fill="#4C53B4"/>
<path d="M157.18 106.613C172.532 75.15 155.794 35.6525 119.794 18.393C83.7949 1.1336 42.1659 12.6481 26.8136 44.1113C11.4613 75.5746 28.1992 115.072 64.1989 132.332C100.198 149.591 141.827 138.076 157.18 106.613Z" fill="#5F65BF"/>
<path d="M173.103 19.7672C171.835 18.5032 170.111 17.947 168.551 18.2789C169.545 17.1536 169.69 15.337 168.856 14.0329C168.008 12.7051 166.234 12.0011 164.639 12.3604C163.331 12.654 162.229 13.5277 161.655 14.6749C161.789 13.7411 161.78 12.5975 161.325 11.4795C160.773 10.1225 159.629 9.10842 158.335 8.83301C156.758 8.49742 154.924 9.30175 153.872 10.7919C153.196 11.7476 152.745 12.9714 152.582 14.2408C152.331 13.3672 151.744 12.5647 150.939 12.0832C149.741 11.3682 148.12 11.3463 146.808 12.0248C145.586 12.6577 144.629 13.8815 144.248 15.3023C143.923 16.5207 144 17.8485 144.471 19.1617C143.336 18.195 142.143 17.2685 140.544 17.5494C139.474 17.7372 138.588 18.3902 138.117 19.3404C137.648 20.2852 137.667 21.3704 138.165 22.3188C139.008 23.9202 140.732 24.9197 143.433 25.3738C145.303 25.6875 147.227 25.7076 149.088 25.7258C149.433 25.7295 149.778 25.7331 150.123 25.7386C150.396 25.7422 150.637 25.7477 150.859 25.755C152.385 25.8024 153.912 25.8334 155.397 25.8462C156.035 25.8517 156.67 25.8553 157.307 25.8553C159.616 25.8553 161.901 25.8152 164.126 25.7368C164.676 25.7167 165.235 25.6875 165.776 25.6602C166.575 25.6182 167.399 25.5763 168.211 25.5635C169.576 25.5398 170.796 25.4796 171.907 24.9872C172.868 24.5604 174.152 23.829 174.238 22.4045C174.294 21.5017 173.88 20.5405 173.103 19.7672Z" fill="#93A1ED"/>
<path d="M166.277 136.545C165.344 135.615 164.075 135.204 162.927 135.451C163.657 134.623 163.764 133.286 163.151 132.325C162.527 131.347 161.223 130.829 160.049 131.093C159.085 131.31 158.275 131.952 157.852 132.797C157.951 132.109 157.944 131.267 157.609 130.446C157.204 129.448 156.36 128.7 155.408 128.498C154.249 128.25 152.897 128.843 152.124 129.939C151.627 130.643 151.296 131.544 151.174 132.478C150.99 131.834 150.558 131.243 149.966 130.889C149.084 130.364 147.892 130.347 146.926 130.847C146.026 131.312 145.323 132.213 145.042 133.258C144.801 134.154 144.86 135.133 145.206 136.098C144.37 135.387 143.492 134.705 142.317 134.911C141.529 135.049 140.878 135.529 140.53 136.229C140.186 136.924 140.197 137.723 140.565 138.422C141.185 139.6 142.453 140.335 144.442 140.671C145.818 140.902 147.233 140.917 148.604 140.93C148.858 140.931 149.112 140.935 149.366 140.939C149.566 140.942 149.745 140.946 149.909 140.951C151.031 140.986 152.155 141.008 153.248 141.019C153.717 141.023 154.187 141.026 154.654 141.026C156.352 141.026 158.036 140.997 159.672 140.939C160.076 140.924 160.489 140.902 160.886 140.882C161.473 140.851 162.08 140.82 162.676 140.811C163.681 140.795 164.579 140.749 165.396 140.386C166.102 140.072 167.048 139.533 167.111 138.486C167.155 137.822 166.849 137.114 166.277 136.545Z" fill="#93A1ED"/>
<path d="M181.912 48.5793C181.032 47.7038 179.84 47.319 178.758 47.5488C179.446 46.7682 179.547 45.5115 178.97 44.6069C178.383 43.6877 177.154 43.1989 176.05 43.4469C175.142 43.6512 174.381 44.2549 173.981 45.0501C174.073 44.4026 174.068 43.611 173.753 42.8359C173.372 41.8966 172.577 41.1944 171.681 41.0029C170.59 40.7694 169.319 41.3275 168.59 42.3599C168.123 43.0219 167.81 43.87 167.696 44.7492C167.523 44.1436 167.116 43.5873 166.559 43.2554C165.729 42.7611 164.607 42.7447 163.698 43.2153C162.851 43.653 162.189 44.5011 161.926 45.486C161.699 46.3305 161.753 47.2497 162.08 48.1598C161.295 47.4904 160.468 46.8484 159.361 47.0436C158.619 47.1731 158.007 47.6254 157.679 48.2838C157.355 48.9386 157.366 49.6901 157.712 50.3467C158.295 51.4556 159.49 52.1486 161.361 52.4624C162.656 52.6794 163.988 52.694 165.278 52.7068C165.517 52.7086 165.757 52.7122 165.996 52.7159C166.185 52.7195 166.351 52.7232 166.505 52.7268C167.562 52.7596 168.62 52.7815 169.648 52.7907C170.09 52.7943 170.531 52.7961 170.971 52.7961C172.57 52.7961 174.154 52.7688 175.694 52.714C176.075 52.7013 176.464 52.6812 176.837 52.6612C177.389 52.632 177.961 52.6028 178.522 52.5937C179.468 52.5773 180.313 52.5353 181.082 52.1942C181.746 51.8988 182.637 51.3917 182.697 50.405C182.736 49.7794 182.449 49.1137 181.912 48.5793Z" fill="#93A1ED"/>
<path d="M20.5951 85.5202C19.94 84.8691 19.0513 84.5809 18.2472 84.7523C18.7606 84.1705 18.8342 83.2349 18.4055 82.5619C17.9676 81.8761 17.0531 81.5131 16.2306 81.6992C15.5553 81.8505 14.9868 82.301 14.6905 82.8938C14.7604 82.4123 14.7549 81.8214 14.5212 81.245C14.236 80.5446 13.6454 80.0212 12.9793 79.8789C12.166 79.7057 11.2184 80.1215 10.6756 80.8894C10.3279 81.3818 10.0942 82.0147 10.0096 82.6695C9.88075 82.219 9.57715 81.8049 9.16131 81.5569C8.54307 81.1885 7.70771 81.1775 7.03059 81.5277C6.39947 81.8542 5.90635 82.4852 5.70947 83.2185C5.54019 83.8459 5.58067 84.5317 5.82539 85.2101C5.24027 84.7122 4.62387 84.2325 3.79955 84.3784C3.24755 84.4751 2.79123 84.8125 2.54651 85.3032C2.30547 85.7901 2.31283 86.3501 2.57043 86.8389C3.00467 87.6651 3.89339 88.1812 5.28811 88.4147C6.25227 88.577 7.24587 88.5861 8.20635 88.5971C8.38483 88.5989 8.56331 88.6007 8.73995 88.6026C8.88163 88.6044 9.00491 88.608 9.11899 88.6117C9.90651 88.6354 10.694 88.6518 11.4595 88.6591C11.7888 88.6627 12.1164 88.6646 12.4439 88.6646C13.6344 88.6646 14.8138 88.6445 15.962 88.6026C16.2453 88.5916 16.5342 88.577 16.8139 88.5624C17.226 88.5405 17.6511 88.5187 18.0688 88.5114C18.7735 88.4986 19.4028 88.4694 19.975 88.2141C20.4699 87.9934 21.1342 87.6158 21.1784 86.8826C21.2078 86.4157 20.9944 85.9196 20.5951 85.5202Z" fill="#93A1ED"/>
<path d="M182.162 94.2911C181.532 93.6655 180.679 93.3882 179.906 93.5542C180.399 92.9961 180.471 92.0969 180.057 91.4494C179.637 90.791 178.758 90.4427 177.968 90.6196C177.319 90.7655 176.774 91.1978 176.489 91.7668C176.555 91.3035 176.551 90.7363 176.325 90.1837C176.053 89.5107 175.484 89.0091 174.844 88.8723C174.064 88.7063 173.153 89.1039 172.632 89.8426C172.297 90.3168 172.075 90.9223 171.992 91.5516C171.869 91.1193 171.578 90.7199 171.179 90.4828C170.586 90.129 169.782 90.118 169.133 90.4536C168.527 90.7673 168.052 91.3747 167.865 92.0769C167.703 92.6806 167.742 93.339 167.975 93.9901C167.412 93.5123 166.822 93.0526 166.03 93.1913C165.5 93.2843 165.061 93.6071 164.827 94.0795C164.595 94.5482 164.602 95.0844 164.851 95.555C165.269 96.3484 166.122 96.8445 167.462 97.0688C168.387 97.2239 169.342 97.2348 170.264 97.2439C170.435 97.2458 170.606 97.2476 170.778 97.2494C170.914 97.2512 171.031 97.2549 171.142 97.2567C171.898 97.2804 172.654 97.295 173.39 97.3023C173.707 97.3059 174.021 97.3059 174.336 97.3059C175.481 97.3059 176.612 97.2859 177.714 97.2476C177.987 97.2385 178.264 97.2239 178.533 97.2093C178.929 97.1892 179.337 97.1673 179.738 97.1619C180.415 97.1509 181.019 97.1199 181.569 96.8755C182.044 96.6639 182.682 96.301 182.725 95.5951C182.752 95.1501 182.546 94.6759 182.162 94.2911Z" fill="#93A1ED"/>
<path d="M23.379 47.4392C22.7111 46.7753 21.804 46.4817 20.9834 46.6568C21.5059 46.064 21.5832 45.1083 21.1453 44.4225C20.7 43.724 19.7653 43.3537 18.9263 43.5416C18.2381 43.6966 17.6585 44.1562 17.3549 44.7599C17.4248 44.2675 17.4211 43.6656 17.1819 43.0783C16.8912 42.3652 16.2895 41.8308 15.6087 41.6849C14.7789 41.508 13.8129 41.9311 13.2591 42.7154C12.9039 43.2188 12.6666 43.8626 12.5801 44.5301C12.4495 44.0705 12.1403 43.6474 11.7153 43.3939C11.086 43.0181 10.2323 43.0054 9.54225 43.3629C8.90009 43.6948 8.39593 44.3405 8.19537 45.0882C8.02425 45.7284 8.06473 46.4288 8.31313 47.1201C7.71513 46.6112 7.08769 46.1242 6.24681 46.2719C5.68377 46.3704 5.21825 46.7151 4.96985 47.2149C4.72329 47.711 4.73249 48.2837 4.99561 48.7816C5.43905 49.6242 6.34617 50.1495 7.76849 50.3903C8.75289 50.5562 9.76489 50.5654 10.7438 50.5763C10.9259 50.5781 11.1063 50.58 11.2884 50.5818C11.4319 50.5836 11.5589 50.5873 11.6767 50.5909C12.4789 50.6164 13.283 50.631 14.065 50.6401C14.3999 50.6438 14.7347 50.6456 15.0696 50.6456C16.284 50.6456 17.4874 50.6237 18.6576 50.5836C18.9465 50.5727 19.2409 50.5581 19.5261 50.5435C19.9456 50.5216 20.3799 50.4997 20.8067 50.4924C21.5243 50.4796 22.1683 50.4486 22.7516 50.1896C23.2558 49.9653 23.9329 49.5805 23.9789 48.8309C24.0065 48.3512 23.7875 47.846 23.379 47.4392Z" fill="#93A1ED"/>
<path d="M43.7349 129.454C42.3439 128.068 40.4524 127.457 38.7412 127.822C39.8304 126.587 39.9905 124.593 39.0779 123.161C38.1487 121.704 36.202 120.933 34.4521 121.325C33.0151 121.648 31.808 122.605 31.1769 123.866C31.3241 122.84 31.3131 121.586 30.8163 120.36C30.2109 118.872 28.9542 117.759 27.5355 117.456C25.8059 117.088 23.793 117.971 22.6375 119.605C21.896 120.654 21.4028 121.996 21.2207 123.389C20.9465 122.43 20.3025 121.549 19.4175 121.022C18.1037 120.238 16.3244 120.214 14.8856 120.958C13.546 121.651 12.4954 122.996 12.0777 124.555C11.7189 125.892 11.8054 127.349 12.3224 128.79C11.0768 127.73 9.76851 126.713 8.01499 127.021C6.83923 127.227 5.86955 127.944 5.35251 128.985C4.83731 130.021 4.85755 131.212 5.40403 132.254C6.32771 134.01 8.21923 135.106 11.1853 135.606C13.2369 135.951 15.3474 135.972 17.3898 135.992C17.7688 135.996 18.1479 136 18.5251 136.005C18.825 136.009 19.0881 136.016 19.3328 136.023C21.0054 136.075 22.6816 136.109 24.3119 136.124C25.0111 136.131 25.7103 136.133 26.4058 136.133C28.9395 136.133 31.4474 136.089 33.8872 136.002C34.4908 135.98 35.1053 135.949 35.6978 135.918C36.5736 135.872 37.4789 135.827 38.3676 135.81C39.8654 135.785 41.2049 135.719 42.423 135.177C43.4755 134.708 44.8868 133.906 44.9806 132.345C45.0413 131.356 44.5868 130.304 43.7349 129.454Z" fill="#93A1ED"/>
<path d="M38.1947 13.65C36.9545 12.4152 35.2709 11.8699 33.7455 12.1945C34.7171 11.0929 34.8587 9.31828 34.0455 8.04338C33.2175 6.74478 31.4823 6.05717 29.9239 6.40736C28.6432 6.69553 27.5668 7.54729 27.0056 8.6708C27.1363 7.75703 27.1271 6.63899 26.6836 5.54649C26.1445 4.22052 25.0239 3.22833 23.7599 2.96022C22.2198 2.63192 20.4239 3.41801 19.3954 4.8753C18.7348 5.80913 18.2951 7.00559 18.1331 8.24583C17.8884 7.39226 17.3143 6.60616 16.5268 6.13742C15.3566 5.43888 13.7705 5.41699 12.488 6.08088C11.2939 6.69918 10.3591 7.89747 9.98562 9.28545C9.6673 10.4764 9.74274 11.775 10.2046 13.0591C9.09506 12.1143 7.9285 11.2078 6.36634 11.4832C5.31938 11.6674 4.45458 12.3058 3.99458 13.2342C3.53642 14.157 3.55298 15.2185 4.04058 16.1451C4.8649 17.71 6.5485 18.6876 9.19074 19.1326C11.0179 19.4408 12.9002 19.4591 14.7181 19.4773C15.0548 19.481 15.3934 19.4846 15.7301 19.4883C15.9969 19.4919 16.2324 19.4974 16.4495 19.5047C17.9399 19.5503 19.4322 19.5813 20.8858 19.594C21.5095 19.5995 22.1315 19.6032 22.7515 19.6032C25.0074 19.6032 27.243 19.5649 29.4179 19.4864C29.9551 19.4664 30.5035 19.439 31.0315 19.4116C31.8117 19.3715 32.6176 19.3296 33.4107 19.3168C34.7447 19.2931 35.9388 19.2347 37.0244 18.7532C37.9628 18.3356 39.2195 17.6206 39.3042 16.229C39.3594 15.3444 38.9546 14.4051 38.1947 13.65Z" fill="#93A1ED"/>
<path d="M140.123 77.4314C136.234 73.5574 130.949 71.8485 126.165 72.868C129.212 69.4154 129.656 63.8453 127.104 59.8455C124.504 55.7728 119.066 53.6133 114.174 54.7149C110.159 55.6177 106.783 58.2934 105.02 61.8135C105.43 58.95 105.403 55.4408 104.01 52.0156C102.319 47.8553 98.8063 44.7456 94.8392 43.9011C90.0055 42.8706 84.377 45.3402 81.1515 49.9053C79.0796 52.8363 77.6978 56.5899 77.1936 60.4802C76.4282 57.8009 74.6268 55.3387 72.1557 53.865C68.4831 51.6745 63.5114 51.6052 59.4891 53.6881C55.7429 55.6269 52.8099 59.3841 51.6415 63.7377C50.6406 67.473 50.8779 71.5475 52.326 75.5728C48.8447 72.6109 45.1887 69.7674 40.2869 70.6283C37.0025 71.2046 34.2903 73.2073 32.8441 76.12C31.4071 79.0163 31.4604 82.3449 32.9913 85.2522C35.5747 90.1621 40.8591 93.2262 49.1465 94.6215C54.8781 95.5863 60.779 95.6447 66.4867 95.7012C67.5447 95.7122 68.6045 95.7231 69.6607 95.7377C70.4979 95.7504 71.2357 95.7669 71.9183 95.7869C76.5956 95.931 81.2766 96.0258 85.8324 96.0696C87.7883 96.0879 89.7406 96.097 91.6873 96.097C98.7658 96.097 105.778 95.9748 112.599 95.7304C114.286 95.6702 116.001 95.5827 117.661 95.4969C120.108 95.3711 122.638 95.2416 125.124 95.1978C129.31 95.1267 133.054 94.9425 136.458 93.4286C139.4 92.1191 143.343 89.8739 143.607 85.5093C143.776 82.748 142.506 79.8024 140.123 77.4314Z" fill="#74C7E5"/>
<path d="M78.8407 70.6266C78.4856 70.6667 78.2317 70.9859 78.2721 71.3361C78.3991 72.4322 77.836 73.6159 76.8995 74.2142C75.9648 74.8124 74.6437 74.8343 73.6887 74.2671C72.7337 73.6998 72.1302 72.5362 72.2222 71.4364C72.2517 71.0844 71.9867 70.7743 71.6316 70.7451C71.2728 70.7141 70.9637 70.9786 70.9342 71.3306C70.8735 72.0547 71.017 72.7842 71.3188 73.4427C71.0078 73.8968 70.603 74.289 70.1357 74.5771C70.0345 74.6391 70.0032 74.7705 70.0657 74.8708C70.1062 74.9364 70.1761 74.9711 70.2497 74.9711C70.2884 74.9711 70.3289 74.9601 70.3638 74.9383C70.8165 74.6592 71.2176 74.2908 71.5414 73.8676C71.8616 74.4057 72.2977 74.8762 72.8184 75.2319C72.6325 75.635 72.3234 75.9852 71.9352 76.204C71.8321 76.2624 71.7953 76.3919 71.8542 76.4959C71.8929 76.5652 71.9665 76.6035 72.0419 76.6035C72.0787 76.6035 72.1136 76.5943 72.1486 76.5761C72.6012 76.3226 72.9637 75.9213 73.19 75.4562C73.8212 75.7937 74.5351 75.9633 75.2508 75.9633C76.077 75.9633 76.905 75.7389 77.6024 75.2921C78.9566 74.4257 79.7423 72.7788 79.5583 71.1902C79.5178 70.8382 79.1958 70.5865 78.8407 70.6266Z" fill="#231F20"/>
<path d="M106.203 74.5771C105.735 74.289 105.331 73.8968 105.02 73.4427C105.321 72.7842 105.465 72.0547 105.404 71.3324C105.375 70.9804 105.067 70.7196 104.707 70.7451C104.352 70.7743 104.087 71.0826 104.116 71.4364C104.206 72.5362 103.603 73.6998 102.65 74.2671C101.695 74.8343 100.375 74.8124 99.4389 74.2142C98.5042 73.6159 97.9393 72.4322 98.0663 71.3361C98.1068 70.9841 97.8529 70.6667 97.4977 70.6266C97.1445 70.5865 96.8225 70.8382 96.782 71.1902C96.598 72.7769 97.3837 74.4257 98.7379 75.2921C99.4371 75.7389 100.263 75.9633 101.089 75.9633C101.805 75.9633 102.517 75.7937 103.15 75.4562C103.377 75.9213 103.739 76.3226 104.192 76.5761C104.225 76.5943 104.262 76.6035 104.298 76.6035C104.374 76.6035 104.447 76.5652 104.486 76.4959C104.545 76.3937 104.508 76.2624 104.405 76.204C104.017 75.987 103.708 75.6368 103.522 75.2319C104.043 74.8781 104.479 74.4075 104.799 73.8676C105.123 74.2926 105.524 74.6592 105.978 74.9383C106.013 74.9601 106.054 74.9711 106.092 74.9711C106.164 74.9711 106.234 74.9346 106.276 74.8708C106.333 74.7723 106.304 74.641 106.203 74.5771Z" fill="#231F20"/>
<path d="M83.01 85.7974C82.3292 85.0404 81.1296 84.7851 80.1599 85.1937C79.1589 85.6131 78.5315 86.6819 78.7008 87.6796C78.8866 88.7758 79.963 89.3703 80.9493 89.4725C81.0633 89.4834 81.1737 89.4907 81.2841 89.4907C82.068 89.4907 82.7506 89.1953 83.1536 88.6682C83.781 87.8474 83.7184 86.5871 83.01 85.7974Z" fill="#91D9F2"/>
<path d="M74.2405 78.874C73.1622 78.2375 71.6295 78.1901 70.4151 78.2065C69.0498 78.2247 67.5208 78.4089 66.2659 78.9707C65.3202 79.3938 64.781 80.3204 65.2466 81.3198C65.7673 82.4397 67.2154 82.7862 68.3341 82.923C70.1594 83.1455 74.0583 83.2659 75.0317 81.2943C75.4806 80.3805 75.1053 79.3847 74.2405 78.874Z" fill="#57B6DC"/>
<path d="M112.299 78.874C111.221 78.2375 109.688 78.1901 108.474 78.2065C107.108 78.2247 105.579 78.4089 104.325 78.9707C103.379 79.3938 102.84 80.3204 103.305 81.3198C103.826 82.4397 105.274 82.7862 106.393 82.923C108.218 83.1455 112.117 83.2659 113.09 81.2943C113.537 80.3805 113.164 79.3847 112.299 78.874Z" fill="#57B6DC"/>
<path d="M37.0761 73.3077C34.7043 74.2907 33.155 76.9372 33.4715 79.4651C33.788 81.993 35.9426 84.1853 38.4837 84.5628C38.5426 84.5719 38.6014 84.5756 38.6622 84.5756C39.2436 84.5756 39.7459 84.1452 39.8324 83.5761C39.8802 83.2661 39.8011 82.956 39.6134 82.7025C39.4258 82.4508 39.1498 82.2848 38.837 82.2392C37.3098 82.0112 36.0144 80.6944 35.823 79.1751C35.6335 77.6558 36.5646 76.0635 37.9887 75.4744C39.4147 74.8835 41.2106 75.3449 42.1674 76.5469C42.3642 76.7931 42.6458 76.9481 42.9586 76.9846C43.2732 77.0211 43.5823 76.9335 43.8307 76.7402C44.0791 76.545 44.2355 76.266 44.2742 75.9559C44.3128 75.6459 44.2226 75.3376 44.0276 75.0914C42.436 73.0906 39.446 72.3246 37.0761 73.3077Z" fill="#57B6DC"/>
<path d="M61.8719 54.1332C58.6905 54.6785 55.7796 56.9784 54.2726 60.1356C52.9773 62.8513 52.6682 66.2055 53.4023 69.5778C53.5201 70.114 54.0058 70.5044 54.5597 70.5044C54.6443 70.5044 54.729 70.4952 54.8099 70.477C55.1191 70.4113 55.384 70.2289 55.5551 69.9645C55.7262 69.7 55.7851 69.3863 55.7171 69.0799C55.0915 66.2091 55.338 63.3894 56.4126 61.1369C57.5939 58.6601 59.8405 56.8617 62.2711 56.444C64.803 56.0118 67.5335 57.2465 68.6246 59.3185C68.7718 59.5975 69.0184 59.8018 69.3202 59.8966C69.6219 59.9915 69.9439 59.9623 70.2236 59.8182C70.8032 59.5191 71.0295 58.8078 70.7259 58.2333C69.1583 55.2494 65.4323 53.524 61.8719 54.1332Z" fill="#57B6DC"/>
<path d="M98.3644 49.9583C97.4057 46.9598 94.1066 44.7876 90.6916 44.9116C87.7145 45.0174 84.7594 46.6899 82.7833 49.3856C81.2064 51.5378 80.2109 54.3228 79.8264 57.6642C79.7528 58.308 80.2201 58.8917 80.8715 58.9646C80.9175 58.9701 80.9617 58.9719 81.0058 58.9719C81.6075 58.9719 82.1135 58.5251 82.1816 57.9305C82.5201 54.9977 83.3684 52.5865 84.7024 50.7644C86.2517 48.6487 88.5222 47.3374 90.7762 47.2589C93.1664 47.1732 95.4572 48.6396 96.1049 50.666C96.2005 50.9651 96.4085 51.2113 96.69 51.3554C96.9715 51.4995 97.2917 51.5268 97.5916 51.432C98.2153 51.2368 98.5613 50.5766 98.3644 49.9583Z" fill="#57B6DC"/>
<path d="M127.105 59.8455C129.657 63.8453 129.212 69.4136 126.167 72.8681C127.607 72.5616 129.092 72.5033 130.57 72.6747C137.185 67.5168 141.579 59.5136 142.39 51.0471C143.288 41.6888 140.51 31.9365 135.137 25.5966C129.661 19.1346 122.183 15.2425 112.911 14.0278C107.513 13.3201 101.111 14.1645 96.6016 16.1745C92.0808 18.1899 88.0088 21.8796 85.1384 26.5633C82.6232 30.667 80.9212 35.597 80.0821 41.2127C80.0674 41.3094 80.1208 41.4024 80.2109 41.4407C80.3011 41.479 80.406 41.4498 80.4667 41.3732C82.4171 38.8307 85.8064 36.9485 90.0126 36.0694C94.1213 35.2122 98.2816 35.5277 101.73 36.9594C105.52 38.5316 108.571 41.5647 109.894 45.0721C111.322 48.8603 110.709 53.2248 108.332 56.1905C108.287 56.247 108.273 56.3218 108.295 56.3893C108.317 56.4568 108.372 56.5096 108.442 56.5297C108.795 56.6282 109.127 56.703 109.45 56.7741C110.858 55.8111 112.457 55.098 114.175 54.7113C119.066 53.6151 124.505 55.7728 127.105 59.8455Z" fill="#F5C371"/>
<path d="M114.437 33.4247C114.286 32.6823 113.973 31.9966 113.694 31.4129C113.539 31.0937 113.154 30.957 112.832 31.1102C112.51 31.2634 112.374 31.6446 112.527 31.9637C112.775 32.4781 113.05 33.0781 113.171 33.6764C113.254 34.0886 113.302 34.6923 113.05 35.2303C112.733 35.907 111.949 36.3775 111.099 36.4012C110.302 36.425 109.436 36.0729 108.731 35.4382C108.466 35.1993 108.058 35.2194 107.818 35.4802C107.577 35.7428 107.598 36.1477 107.861 36.3848C108.779 37.2129 109.927 37.6816 111.027 37.6816C111.062 37.6816 111.099 37.6816 111.134 37.6798C112.463 37.6433 113.703 36.8736 114.222 35.7665C114.536 35.0953 114.61 34.2855 114.437 33.4247Z" fill="#231F20"/>
<path d="M93.0171 26.202C91.1036 25.5564 88.879 27.5317 89.1752 29.485C89.293 30.2547 89.7254 31.0353 90.3179 31.546C91.4329 32.5054 93.2729 31.9199 94.1911 30.9715C95.5619 29.5543 94.8847 26.8331 93.0171 26.202Z" fill="#FFEAA3"/>
<path d="M106 30.2294C105.314 28.6389 103.654 28.0918 102.144 28.8213C101.288 29.2354 100.471 29.9996 100.372 30.9826C100.201 32.6825 101.549 34.707 103.461 34.096C104.972 33.6108 106.727 31.911 106 30.2294Z" fill="#FFEAA3"/>
<path d="M113.211 17.7923C112.928 17.5989 112.619 17.4421 112.299 17.3308C110.935 16.8566 109.449 17.1284 108.51 18.2464C106.668 20.4424 108.21 24.1485 111.309 23.47C112.59 23.1891 114.124 22.4122 114.547 21.0807C114.965 19.7694 114.273 18.52 113.211 17.7923Z" fill="#FFEAA3"/>
<path d="M134.371 28.0498C134.119 27.3275 133.494 26.7767 132.78 26.5214C131.091 25.9158 129.378 27.0193 128.927 28.6808C128.645 29.7186 128.969 30.9662 130.005 31.4841C131.242 32.1024 132.704 31.4276 133.597 30.5193C134.265 29.8426 134.704 29.0055 134.371 28.0498Z" fill="#FFEAA3"/>
<path d="M136.047 38.1961C133.665 38.114 131.451 39.8814 131.642 42.3527C131.644 42.3765 131.65 42.3983 131.655 42.422C131.655 42.7212 131.718 43.0276 131.869 43.3376C132.332 44.2934 133.276 45.0393 134.257 45.4205C136.441 46.2741 138.885 45.4661 139.251 43.0112C139.591 40.7295 138.68 38.2855 136.047 38.1961Z" fill="#FFEAA3"/>
<path d="M122.051 47.1328C120.757 46.9705 119.502 48.1104 118.948 49.1774C118.404 50.2261 118.735 51.5101 119.64 52.2506C121.05 53.4052 123.208 52.7376 124.029 51.3515C125.103 49.9671 124.1 47.3882 122.051 47.1328Z" fill="#FFEAA3"/>
<path d="M136.037 56.1395C135.05 54.5855 133.231 54.5928 131.84 55.6671C130.789 56.4787 130.106 57.905 130.614 59.1981C131.091 60.4147 132.399 61.0731 133.665 61.1023C136.445 61.1661 137.328 58.1749 136.037 56.1395Z" fill="#FFEAA3"/>
<path d="M122.64 32.0767C120.342 32.1679 118.785 34.2051 117.62 35.978C117.32 36.3592 117.101 36.7932 117.055 37.2985C116.976 38.1593 117.44 38.96 118.253 39.2847C120.078 40.0142 122.334 37.8949 123.273 36.5634C124.08 35.4162 125.085 31.98 122.64 32.0767Z" fill="#FFEAA3"/>
<path d="M104.473 17.059C104.275 16.3386 103.358 16.1708 102.83 16.1361C94.8189 15.6054 87.5693 23.1362 84.226 30.3588C83.6795 31.5406 83.2894 32.728 83.0705 33.8916L83.0576 33.9573C82.9233 34.6613 82.7724 35.4602 82.7172 36.1697C82.6951 36.4505 82.754 36.7205 82.8828 36.9302C82.9343 37.0141 82.9969 37.0889 83.0686 37.1491C83.214 37.2731 83.3741 37.3351 83.5489 37.3351C83.5967 37.3351 83.6446 37.3296 83.6942 37.3205C84.318 37.202 84.9178 36.3484 85.1478 35.9143C85.6042 35.0516 85.928 34.116 86.2408 33.2131C86.3623 32.863 86.4837 32.5128 86.6125 32.1662C88.0035 28.4236 90.1287 25.3723 92.9292 23.0979C95.4647 21.0387 98.6001 19.8587 101.61 18.8902C101.71 18.8573 101.853 18.8209 102.022 18.7771C102.777 18.5801 104.039 18.2482 104.402 17.6281C104.503 17.4493 104.529 17.2578 104.473 17.059Z" fill="#FFF4D1"/>
<path d="M106.784 15.3208C106.462 15.1348 106.081 15.1476 105.741 15.2752C105.553 15.3464 105.395 15.4412 105.29 15.6199C104.88 16.3167 105.89 17.2651 106.587 17.0955C106.928 17.0134 107.206 16.7507 107.288 16.4115C107.397 15.9738 107.163 15.5397 106.784 15.3208Z" fill="#FFF4D1"/>
<path d="M142.468 50.1132C142.488 49.8104 142.506 49.5058 142.519 49.2031C142.357 49.3727 142.221 49.5824 142.127 49.8396C140.606 53.9324 138.265 57.7352 135.266 60.9288C133.974 62.304 132.576 63.5589 131.115 64.7426C131.349 64.5529 130.419 62.3478 130.289 62.0341C129.901 61.1021 129.413 60.2102 128.839 59.3749C127.711 57.7352 126.25 56.3181 124.563 55.2493C121.032 53.0114 116.943 52.6137 113 53.916C111.951 54.2625 110.998 54.7276 110.13 55.428C109.668 55.4791 109.21 55.5429 108.757 55.6195C108.623 55.8165 108.479 56.008 108.33 56.194C108.286 56.2506 108.271 56.3253 108.293 56.3928C108.316 56.4603 108.371 56.5132 108.441 56.5333C108.794 56.6318 109.125 56.7065 109.449 56.7777C110.857 55.8147 112.456 55.1015 114.174 54.7149C119.067 53.6151 124.504 55.7727 127.104 59.8454C129.242 63.1959 129.275 67.648 127.439 71.0368C127.439 71.0368 127.439 71.0386 127.437 71.0386C127.369 71.1626 127.299 71.2848 127.227 71.4071C127.222 71.4143 127.218 71.4235 127.212 71.4308C127.144 71.5438 127.074 71.6533 127.003 71.7627C126.992 71.7791 126.982 71.7955 126.971 71.8101C126.905 71.9104 126.835 72.0108 126.763 72.1092C126.747 72.1311 126.732 72.1548 126.716 72.1767C126.647 72.2716 126.576 72.3628 126.504 72.454C126.484 72.4795 126.465 72.505 126.447 72.5287C126.355 72.6436 126.261 72.7567 126.164 72.8662C127.604 72.5597 129.089 72.5014 130.567 72.6728C137.181 67.5149 141.575 59.5117 142.387 51.0452C142.416 50.7388 142.442 50.4324 142.462 50.126C142.468 50.1223 142.468 50.1168 142.468 50.1132Z" fill="#EBCE72"/>
<path d="M44.9272 44.4866C44.8021 44.2677 44.5205 44.1911 44.2997 44.3151L38.6012 47.5215L42.5039 40.3409C42.5941 40.1731 42.572 39.9688 42.445 39.8247C42.3199 39.6824 42.1175 39.6314 41.9372 39.697C39.3501 40.6564 36.8624 41.8966 34.5459 43.3849C34.3324 43.5217 34.2717 43.8044 34.4097 44.016C34.5477 44.2276 34.8329 44.2878 35.0464 44.151C36.96 42.9235 38.9913 41.8675 41.0981 41.0048L37.0317 48.4845C36.9342 48.6632 36.9692 48.8839 37.1145 49.0262C37.2028 49.1119 37.3188 49.1557 37.4365 49.1557C37.5138 49.1557 37.5929 49.1356 37.6628 49.0955L44.7524 45.1049C44.975 44.9827 45.0523 44.7054 44.9272 44.4866Z" fill="#F7E9BC"/>
<path d="M50.1289 56.8196C50.0295 56.5879 49.7591 56.4803 49.5254 56.5788C48.3275 57.084 47.0874 57.5053 45.8251 57.8373C46.9383 56.1356 47.8547 54.3117 48.5575 52.4057C48.6164 52.2452 48.5796 52.0647 48.4637 51.9388C48.3459 51.813 48.1675 51.7637 48.0019 51.8093C45.8656 52.4039 43.8232 53.2867 41.9299 54.4339C41.7127 54.5652 41.6447 54.8461 41.7771 55.0613C41.9096 55.2765 42.193 55.344 42.4101 55.2127C43.9649 54.2698 45.6264 53.5128 47.3597 52.9547C46.5869 54.8406 45.5951 56.6317 44.4028 58.2914C44.2924 58.4446 44.2887 58.6507 44.3936 58.8076C44.4801 58.9371 44.6255 59.0119 44.7782 59.0119C44.8113 59.0119 44.8444 59.0082 44.8757 59.0009C46.5887 58.6307 48.2742 58.0963 49.8879 57.416C50.1197 57.3193 50.2283 57.0512 50.1289 56.8196Z" fill="#F7E9BC"/>
<path d="M40.0033 33.8257C39.8892 33.6014 39.6114 33.5102 39.3851 33.6233L29.9937 38.3216C31.7546 34.6757 33.8761 31.1939 36.3141 27.9565C36.4319 27.7996 36.4355 27.5844 36.3233 27.4239C36.2111 27.2634 36.0068 27.1905 35.8173 27.2452C32.6525 28.1553 29.6864 29.5761 27.0018 31.4711C26.7958 31.617 26.7461 31.9015 26.8933 32.1076C27.0405 32.3119 27.3275 32.3612 27.5354 32.2153C29.7563 30.6467 32.1778 29.4119 34.7483 28.5365C32.3599 31.8596 30.2936 35.418 28.5971 39.1314C28.5162 39.3083 28.5566 39.5144 28.6983 39.6494C28.7866 39.7333 28.9007 39.7771 29.0166 39.7771C29.0866 39.7771 29.1583 39.7607 29.2246 39.7278L39.8009 34.4367C40.0254 34.3255 40.1174 34.0501 40.0033 33.8257Z" fill="#F7E9BC"/>
<path d="M55.3103 43.8136C54.5099 43.8136 54.508 45.0466 55.3103 45.0466C56.1107 45.0466 56.1125 43.8136 55.3103 43.8136Z" fill="#ADB9D1"/>
<path d="M58.0706 28.4291C57.5406 28.4291 57.5406 29.2444 58.0706 29.2444C58.6005 29.2444 58.6005 28.4291 58.0706 28.4291Z" fill="#ADB9D1"/>
<path d="M76.8365 15.5271C75.5393 15.5271 75.5374 17.5261 76.8365 17.5261C78.1337 17.5261 78.1374 15.5271 76.8365 15.5271Z" fill="#ADB9D1"/>
<path d="M57.7949 16.9296C57.6068 16.9296 57.6068 17.2178 57.7949 17.2178C57.983 17.2178 57.983 16.9296 57.7949 16.9296Z" fill="#ADB9D1"/>
<path d="M13.6365 34.6757C13.4023 34.6757 13.4023 35.035 13.6365 35.035C13.8708 35.035 13.8708 34.6757 13.6365 34.6757Z" fill="#ADB9D1"/>
<path d="M26.0564 41.4024H25.7804C25.4805 41.4024 25.1953 41.6632 25.2082 41.9696C25.2229 42.276 25.4603 42.5368 25.7804 42.5368H26.0564C26.3564 42.5368 26.6416 42.276 26.6287 41.9696C26.614 41.6614 26.3766 41.4024 26.0564 41.4024Z" fill="#ADB9D1"/>
<path d="M5.63251 2.76343C5.16699 2.76343 5.16515 3.48205 5.63251 3.48205C6.09987 3.48022 6.09987 2.76343 5.63251 2.76343Z" fill="#ADB9D1"/>
<path d="M13.0844 66.521C11.9307 66.521 11.9288 68.2993 13.0844 68.2993C14.238 68.2993 14.2399 66.521 13.0844 66.521Z" fill="#ADB9D1"/>
<path d="M26.3322 74.276C25.3 74.276 25.2982 75.8664 26.3322 75.8664C27.3645 75.8646 27.3663 74.276 26.3322 74.276Z" fill="#ADB9D1"/>
<path d="M5.35633 76.0908C4.5504 76.0908 4.5504 77.331 5.35633 77.331C6.16225 77.3328 6.16409 76.0908 5.35633 76.0908Z" fill="#ADB9D1"/>
<path d="M27.4365 81.4695C27.2207 81.4695 27.2189 81.8014 27.4365 81.8014C27.6523 81.8014 27.6523 81.4695 27.4365 81.4695Z" fill="#ADB9D1"/>
<path d="M12.5119 103.305C12.1328 103.305 12.1328 103.889 12.5119 103.889C12.8909 103.889 12.8909 103.305 12.5119 103.305Z" fill="#ADB9D1"/>
<path d="M27.4163 107.81C26.2571 107.81 26.2553 109.595 27.4163 109.595C28.5755 109.597 28.5773 107.81 27.4163 107.81Z" fill="#ADB9D1"/>
<path d="M46.368 109.687C45.7498 109.687 45.7498 110.639 46.368 110.639C46.9862 110.639 46.9862 109.687 46.368 109.687Z" fill="#ADB9D1"/>
<path d="M63.4672 114.36C63.458 114.174 63.3973 113.982 63.2556 113.853C63.206 113.816 63.1581 113.778 63.1084 113.741C62.9962 113.676 62.8748 113.645 62.7441 113.643C62.5417 113.617 62.3154 113.734 62.1774 113.874C62.032 114.022 61.9511 114.225 61.9511 114.433C61.9492 114.848 62.297 115.251 62.7386 115.226C62.93 115.215 63.1103 115.153 63.2501 115.016C63.3752 114.892 63.4691 114.688 63.4617 114.509C63.4617 114.496 63.458 114.484 63.458 114.473C63.4636 114.433 63.4691 114.396 63.4672 114.36Z" fill="#ADB9D1"/>
<path d="M2.392 124.697C2.08104 124.697 2.08104 125.175 2.392 125.175C2.70296 125.175 2.70296 124.697 2.392 124.697Z" fill="#ADB9D1"/>
<path d="M14.3522 116.016C13.4267 116.016 13.4248 117.442 14.3522 117.442C15.2777 117.442 15.2796 116.016 14.3522 116.016Z" fill="#ADB9D1"/>
<path d="M2.57618 138.65C2.14746 138.65 2.14746 139.31 2.57618 139.31C3.0049 139.31 3.0049 138.65 2.57618 138.65Z" fill="#ADB9D1"/>
<path d="M46.92 145.07C46.3018 145.07 46.3 146.024 46.92 146.024C47.5383 146.022 47.5401 145.07 46.92 145.07Z" fill="#ADB9D1"/>
<path d="M41.0325 138.968C40.7779 138.968 40.7761 139.36 41.0325 139.36C41.287 139.358 41.2888 138.968 41.0325 138.968Z" fill="#ADB9D1"/>
<path d="M14.352 159.373C13.1229 159.373 13.1192 161.268 14.352 161.268C15.5812 161.266 15.5849 159.373 14.352 159.373Z" fill="#ADB9D1"/>
<path d="M12.328 171.482C11.6656 171.482 11.6638 172.503 12.328 172.503C12.9904 172.503 12.9923 171.482 12.328 171.482Z" fill="#ADB9D1"/>
<path d="M41.9518 180.853C41.3777 180.853 41.3777 181.737 41.9518 181.737C42.5259 181.736 42.5259 180.853 41.9518 180.853Z" fill="#ADB9D1"/>
<path d="M62.3762 175.613C61.631 175.613 61.6291 176.76 62.3762 176.76C63.1213 176.762 63.1232 175.613 62.3762 175.613Z" fill="#ADB9D1"/>
<path d="M82.0647 162.672C81.8027 162.672 81.8027 163.075 82.0647 163.075C82.3266 163.074 82.3266 162.672 82.0647 162.672Z" fill="#ADB9D1"/>
<path d="M88.688 144.813C87.7349 144.813 87.733 146.281 88.688 146.281C89.6411 146.279 89.643 144.813 88.688 144.813Z" fill="#ADB9D1"/>
<path d="M75.0722 135.706C74.6103 135.706 74.6085 136.42 75.0722 136.42C75.534 136.418 75.5359 135.706 75.0722 135.706Z" fill="#ADB9D1"/>
<path d="M95.4966 176.736C95.2623 176.736 95.2623 177.096 95.4966 177.096C95.7308 177.097 95.7308 176.736 95.4966 176.736Z" fill="#ADB9D1"/>
<path d="M119.232 179.199C118.879 179.199 118.879 179.742 119.232 179.742C119.585 179.742 119.585 179.199 119.232 179.199Z" fill="#ADB9D1"/>
<path d="M132.296 175.522H132.112C131.957 175.522 131.957 175.759 132.112 175.759H132.296C132.45 175.759 132.45 175.522 132.296 175.522Z" fill="#ADB9D1"/>
<path d="M150.697 175.247C150.422 175.247 150.422 175.668 150.697 175.668C150.971 175.67 150.971 175.247 150.697 175.247Z" fill="#ADB9D1"/>
<path d="M174.984 179.863C174.783 179.863 174.781 180.173 174.984 180.173C175.185 180.173 175.187 179.863 174.984 179.863Z" fill="#ADB9D1"/>
<path d="M167.44 155.133C166.625 155.133 166.623 156.389 167.44 156.389C168.255 156.387 168.257 155.133 167.44 155.133Z" fill="#ADB9D1"/>
<path d="M161.206 145.159C161.065 145.019 160.835 144.915 160.632 144.924C160.192 144.944 159.819 145.278 159.819 145.73V145.913C159.819 146.119 159.909 146.336 160.056 146.482C160.198 146.622 160.428 146.726 160.63 146.717C161.07 146.697 161.444 146.363 161.444 145.911V145.728C161.445 145.522 161.353 145.305 161.206 145.159Z" fill="#ADB9D1"/>
<path d="M131.376 146.451C131.129 146.451 131.129 146.83 131.376 146.83C131.623 146.83 131.623 146.451 131.376 146.451Z" fill="#ADB9D1"/>
<path d="M133.768 138.232C133.559 138.242 133.382 138.4 133.382 138.615V138.798C133.382 138.998 133.56 139.19 133.768 139.181C133.978 139.172 134.155 139.013 134.155 138.798V138.615C134.155 138.415 133.976 138.223 133.768 138.232Z" fill="#ADB9D1"/>
<path d="M103.776 134.685C103.645 134.685 103.645 134.888 103.776 134.888C103.907 134.886 103.907 134.685 103.776 134.685Z" fill="#ADB9D1"/>
<path d="M120.704 117.473C120.312 117.491 119.983 117.787 119.983 118.188V118.37C119.983 118.744 120.314 119.103 120.704 119.085C121.096 119.067 121.425 118.771 121.425 118.37V118.188C121.425 117.814 121.094 117.455 120.704 117.473Z" fill="#ADB9D1"/>
<path d="M131.745 119.386H131.56C131.459 119.386 131.459 119.543 131.56 119.543H131.745C131.846 119.543 131.846 119.386 131.745 119.386Z" fill="#ADB9D1"/>
<path d="M174.064 136.035C173.554 136.035 173.554 136.819 174.064 136.819C174.574 136.819 174.574 136.035 174.064 136.035Z" fill="#ADB9D1"/>
<path d="M145.544 145.012C144.14 145.012 144.138 147.175 145.544 147.175C146.948 147.175 146.95 145.012 145.544 145.012Z" fill="#ADB9D1"/>
<path d="M177.192 125.029C175.891 125.029 175.889 127.032 177.192 127.032C178.493 127.032 178.495 125.029 177.192 125.029Z" fill="#ADB9D1"/>
<path d="M176.64 110.896C175.698 110.896 175.696 112.348 176.64 112.348C177.582 112.348 177.584 110.896 176.64 110.896Z" fill="#ADB9D1"/>
<path d="M139.656 114.657C139.097 114.657 139.095 115.52 139.656 115.52C140.215 115.518 140.217 114.657 139.656 114.657Z" fill="#ADB9D1"/>
<path d="M136.055 106.619C135.994 106.559 135.932 106.497 135.871 106.437C135.709 106.276 135.468 106.178 135.24 106.178C135.021 106.178 134.76 106.274 134.609 106.437C134.452 106.605 134.337 106.827 134.348 107.062C134.359 107.298 134.438 107.518 134.609 107.688L134.793 107.87C134.955 108.031 135.196 108.129 135.424 108.129C135.643 108.129 135.904 108.033 136.055 107.87C136.211 107.703 136.327 107.48 136.316 107.245C136.305 107.009 136.226 106.789 136.055 106.619Z" fill="#ADB9D1"/>
<path d="M168.36 104.843C167.847 104.843 167.847 105.632 168.36 105.632C168.873 105.634 168.873 104.843 168.36 104.843Z" fill="#ADB9D1"/>
<path d="M156.032 93.2461C155.618 93.2461 155.618 93.8845 156.032 93.8845C156.446 93.8845 156.446 93.2461 156.032 93.2461Z" fill="#ADB9D1"/>
<path d="M146.281 82.5729H146.096C146.033 82.5729 146.033 82.6696 146.096 82.6696H146.281C146.343 82.6714 146.343 82.5729 146.281 82.5729Z" fill="#ADB9D1"/>
<path d="M148.9 71.0879C148.734 70.9383 148.532 70.8435 148.304 70.8435H148.12C147.905 70.8435 147.676 70.9365 147.524 71.0879C147.378 71.2319 147.268 71.4709 147.277 71.6788C147.286 71.894 147.358 72.1184 147.524 72.2697C147.689 72.4193 147.892 72.5141 148.12 72.5141H148.304C148.519 72.5141 148.747 72.4211 148.9 72.2697C149.045 72.1256 149.156 71.8867 149.147 71.6788C149.136 71.4636 149.064 71.2392 148.9 71.0879Z" fill="#ADB9D1"/>
<path d="M151.356 57.6348V57.8172C151.356 57.9139 151.509 57.9139 151.509 57.8172V57.6348C151.507 57.5382 151.356 57.5382 151.356 57.6348Z" fill="#ADB9D1"/>
<path d="M165.048 84.1872H164.934C164.125 84.1872 164.123 85.4347 164.934 85.4347H165.048C165.858 85.4347 165.86 84.1872 165.048 84.1872Z" fill="#ADB9D1"/>
<path d="M158.24 66.6795C156.959 66.6795 156.956 68.6529 158.24 68.6529C159.521 68.6529 159.524 66.6795 158.24 66.6795Z" fill="#ADB9D1"/>
<path d="M174.064 58.3136C173.523 58.3136 173.523 59.1471 174.064 59.1471C174.605 59.1453 174.605 58.3136 174.064 58.3136Z" fill="#ADB9D1"/>
<path d="M147.384 45.977H147.2C146.968 45.977 146.725 46.0773 146.559 46.2396C146.403 46.3946 146.285 46.65 146.294 46.8743C146.316 47.3594 146.692 47.7716 147.2 47.7716H147.384C147.616 47.7716 147.858 47.6713 148.024 47.509C148.18 47.354 148.298 47.0986 148.289 46.8743C148.267 46.3891 147.892 45.977 147.384 45.977Z" fill="#ADB9D1"/>
<path d="M167.624 34.8384H167.256C166.873 34.8384 166.505 35.1721 166.522 35.5661C166.54 35.96 166.844 36.2938 167.256 36.2938H167.624C168.007 36.2938 168.375 35.96 168.358 35.5661C168.34 35.1721 168.034 34.8384 167.624 34.8384Z" fill="#ADB9D1"/>
<path d="M178.664 38.1232C177.486 38.1232 177.485 39.9379 178.664 39.9379C179.842 39.9398 179.844 38.1232 178.664 38.1232Z" fill="#ADB9D1"/>
<path d="M179.032 29.4907C178.721 29.4907 178.721 29.9686 179.032 29.9686C179.343 29.9686 179.343 29.4907 179.032 29.4907Z" fill="#ADB9D1"/>
<path d="M172.73 6.61179C172.561 6.44399 172.283 6.31814 172.04 6.32726C171.788 6.33821 171.525 6.42028 171.35 6.61179C171.175 6.80147 171.063 7.03493 171.063 7.29575V7.47814C171.063 7.72618 171.172 7.987 171.35 8.16209C171.519 8.32989 171.797 8.45574 172.04 8.44662C172.292 8.43568 172.555 8.3536 172.73 8.16209C172.905 7.97241 173.017 7.73895 173.017 7.47814V7.29575C173.017 7.0477 172.908 6.78688 172.73 6.61179Z" fill="#ADB9D1"/>
<path d="M160.562 3.85952H160.448C159.066 3.85952 159.063 5.98981 160.448 5.98981H160.562C161.944 5.98981 161.948 3.85952 160.562 3.85952Z" fill="#ADB9D1"/>
<path d="M133.952 12.2858C132.618 12.2858 132.615 14.3413 133.952 14.3413C135.286 14.3431 135.29 12.2858 133.952 12.2858Z" fill="#ADB9D1"/>
<path d="M102.304 2.92411C101.837 2.92411 101.837 3.64272 102.304 3.64272C102.771 3.64272 102.771 2.92411 102.304 2.92411Z" fill="#ADB9D1"/>
<path d="M112.056 5.26398C111.313 5.26398 111.311 6.40938 112.056 6.40938C112.799 6.40938 112.801 5.26398 112.056 5.26398Z" fill="#ADB9D1"/>
<path d="M81.8802 4.26816C80.7909 4.26816 80.7891 5.94614 81.8802 5.94614C82.9695 5.94614 82.9713 4.26816 81.8802 4.26816Z" fill="#ADB9D1"/>
<path d="M71.208 43.2646C70.7829 43.2646 70.7829 43.9176 71.208 43.9176C71.633 43.9176 71.633 43.2646 71.208 43.2646Z" fill="#ADB9D1"/>
<path d="M43.1665 26.3717C43.161 26.3717 43.161 26.379 43.1665 26.379C43.1719 26.379 43.1719 26.3717 43.1665 26.3717Z" fill="#515763"/>
<path d="M64.4221 5.85289L64.1461 5.57931C63.9989 5.43339 63.7302 5.42245 63.5849 5.57931C63.4395 5.73616 63.4285 5.98056 63.5849 6.13559C63.6769 6.22678 63.7689 6.31798 63.8609 6.40917C64.0081 6.55508 64.2767 6.56603 64.4221 6.40917C64.5674 6.25232 64.5803 6.00792 64.4221 5.85289Z" fill="#515763"/>
<path d="M8.66846 24.7592H8.39246C8.11646 24.7592 7.85334 24.9999 7.86622 25.2808C7.8791 25.5635 8.09806 25.8024 8.39246 25.8024H8.66846C8.94446 25.8024 9.20758 25.5617 9.1947 25.2808C9.18182 24.9981 8.9647 24.7592 8.66846 24.7592Z" fill="#515763"/>
<path d="M20.2602 56.2794C19.3071 56.2794 19.3053 57.7495 20.2602 57.7495C21.2133 57.7495 21.2152 56.2794 20.2602 56.2794Z" fill="#515763"/>
<path d="M6.51549 93.1676H6.44005C5.45197 93.1676 5.45013 94.6905 6.44005 94.6905H6.51549C7.50541 94.6924 7.50725 93.1676 6.51549 93.1676Z" fill="#515763"/>
<path d="M52.6239 124.94H52.4399C52.2485 124.94 52.0663 125.106 52.0755 125.301C52.0847 125.498 52.2356 125.662 52.4399 125.662H52.6239C52.8152 125.662 52.9974 125.496 52.9882 125.301C52.9808 125.104 52.8281 124.94 52.6239 124.94Z" fill="#515763"/>
<path d="M11.2241 140.056C11.0143 140.065 10.8377 140.224 10.8377 140.439V140.621C10.8377 140.822 11.0162 141.014 11.2241 141.005C11.4338 140.995 11.6105 140.837 11.6105 140.621V140.439C11.6105 140.238 11.4338 140.047 11.2241 140.056Z" fill="#515763"/>
<path d="M49.4963 134.351C48.9314 134.351 48.9314 135.221 49.4963 135.221C50.0611 135.219 50.0611 134.351 49.4963 134.351Z" fill="#515763"/>
<path d="M20.792 178.161C20.5123 178.161 20.5123 178.591 20.792 178.591C21.0716 178.591 21.0716 178.161 20.792 178.161Z" fill="#515763"/>
<path d="M62.5601 131.035C61.7174 131.035 61.7155 132.332 62.5601 132.332C63.4028 132.334 63.4046 131.035 62.5601 131.035Z" fill="#515763"/>
<path d="M106.72 176.8C106.332 176.8 106.33 177.4 106.72 177.4C107.108 177.398 107.11 176.8 106.72 176.8Z" fill="#515763"/>
<path d="M169.464 167.058C169.334 167.058 169.273 167.164 169.28 167.265C169.247 167.232 169.214 167.199 169.181 167.166C169.072 167.058 168.903 167.226 169.012 167.334L169.196 167.516C169.28 167.6 169.398 167.518 169.398 167.429C169.418 167.436 169.438 167.441 169.464 167.441C169.713 167.441 169.713 167.058 169.464 167.058Z" fill="#515763"/>
<path d="M117.392 130.824C116.513 130.824 116.511 132.179 117.392 132.179C118.272 132.181 118.274 130.824 117.392 130.824Z" fill="#515763"/>
<path d="M151.432 122.357C151.399 122.357 151.399 122.405 151.432 122.405C151.466 122.407 151.466 122.357 151.432 122.357Z" fill="#515763"/>
<path d="M164.68 114.086C163.854 114.086 163.852 115.357 164.68 115.357C165.506 115.359 165.508 114.086 164.68 114.086Z" fill="#515763"/>
<path d="M179.952 82.3885C179.174 82.3885 179.174 83.5868 179.952 83.5868C180.73 83.585 180.73 82.3885 179.952 82.3885Z" fill="#515763"/>
<path d="M164.496 57.3667C164.15 57.3813 163.857 57.6439 163.857 57.9996V58.182C163.857 58.5121 164.15 58.8295 164.496 58.8149C164.842 58.8003 165.134 58.5376 165.134 58.182V57.9996C165.134 57.6695 164.84 57.3521 164.496 57.3667Z" fill="#515763"/>
<path d="M146.832 28.0696C146.572 28.0696 146.572 28.4691 146.832 28.4691C147.092 28.4709 147.092 28.0696 146.832 28.0696Z" fill="#515763"/>
<path d="M180.689 10.9087C180.643 10.9087 180.643 10.9758 180.689 10.9758C180.734 10.9777 180.734 10.9087 180.689 10.9087Z" fill="#515763"/>
<path d="M118.128 10.752C118.115 10.752 118.115 10.7711 118.128 10.7711C118.14 10.7694 118.14 10.752 118.128 10.752Z" fill="#515763"/>
<path d="M104.88 9.56807C104.527 9.58449 104.229 9.85078 104.229 10.2137V10.3961C104.229 10.7335 104.529 11.0564 104.88 11.0418C105.234 11.0254 105.532 10.7591 105.532 10.3961V10.2137C105.532 9.87631 105.232 9.55348 104.88 9.56807Z" fill="#515763"/>
<path d="M72.6984 28.7008C71.4545 28.7008 71.4527 30.6159 72.6984 30.6159C73.9404 30.6159 73.9441 28.7008 72.6984 28.7008Z" fill="#F2E3B5"/>
<path d="M45.2859 25.6421C45.1037 25.4615 44.8075 25.3266 44.5462 25.3393C44.2757 25.3521 43.9961 25.4396 43.8065 25.6421C43.6189 25.8445 43.5011 26.0944 43.5011 26.3753V26.6489C43.5011 26.9152 43.617 27.1942 43.8065 27.3821C43.9887 27.5626 44.2849 27.6976 44.5462 27.6848C44.8167 27.6721 45.0964 27.5845 45.2859 27.3821C45.4736 27.1796 45.5913 26.9298 45.5913 26.6489V26.3753C45.5913 26.109 45.4754 25.83 45.2859 25.6421Z" fill="#F2E3B5"/>
<path d="M45.0988 11.4323C44.8793 11.4323 44.8774 11.7715 45.0988 11.7715C45.3201 11.7715 45.3201 11.4323 45.0988 11.4323Z" fill="#F2E3B5"/>
<path d="M41.5103 2.65021C40.8994 2.65021 40.8976 3.59315 41.5103 3.59315C42.123 3.59315 42.123 2.65021 41.5103 2.65021Z" fill="#F2E3B5"/>
<path d="M25.2281 23.1962H24.9521C24.7184 23.1962 24.4958 23.4005 24.5068 23.6376C24.5178 23.8765 24.7037 24.0808 24.9521 24.0808H25.2281C25.4618 24.0808 25.6844 23.8765 25.6734 23.6376C25.6623 23.4005 25.4783 23.1962 25.2281 23.1962Z" fill="#F2E3B5"/>
<path d="M4.25228 37.5575C4.08484 37.5648 3.94132 37.6925 3.94132 37.8658V38.1394C3.94132 38.2999 4.08484 38.4549 4.25228 38.4476C4.41972 38.4403 4.56324 38.3126 4.56324 38.1394V37.8658C4.56324 37.7034 4.42156 37.5502 4.25228 37.5575Z" fill="#F2E3B5"/>
<path d="M6.73641 57.5183C5.96913 57.5183 5.96729 58.7002 6.73641 58.7002C7.50369 58.7002 7.50553 57.5183 6.73641 57.5183Z" fill="#F2E3B5"/>
<path d="M32.9563 58.8056H32.6803C32.4705 58.8056 32.2681 58.988 32.2792 59.2032C32.2884 59.4185 32.4558 59.6009 32.6803 59.6009H32.9563C33.1661 59.6009 33.3685 59.4185 33.3574 59.2032C33.3482 58.988 33.1808 58.8056 32.9563 58.8056Z" fill="#F2E3B5"/>
<path d="M30.196 90.627C29.4379 90.627 29.436 91.7943 30.196 91.7943C30.954 91.7943 30.9559 90.627 30.196 90.627Z" fill="#F2E3B5"/>
<path d="M19.9841 95.5808C19.2647 95.5808 19.2628 96.6898 19.9841 96.6898C20.7035 96.6898 20.7054 95.5808 19.9841 95.5808Z" fill="#F2E3B5"/>
<path d="M7.67278 110.861C7.60102 110.644 7.46486 110.427 7.25326 110.319C7.0987 110.241 6.93679 110.179 6.76015 110.186C6.51911 110.197 6.26703 110.281 6.09775 110.46C5.90823 110.661 5.81807 110.898 5.80887 111.168C5.79967 111.417 5.91375 111.706 6.09959 111.875C6.42711 112.173 6.86503 112.224 7.25511 112.016C7.45382 111.91 7.61574 111.686 7.67462 111.474C7.69854 111.388 7.70406 111.292 7.70038 111.195C7.71326 111.082 7.70774 110.969 7.67278 110.861Z" fill="#F2E3B5"/>
<path d="M41.952 97.4886C41.3613 97.4886 41.3613 98.3969 41.952 98.3969C42.5426 98.3969 42.5426 97.4886 41.952 97.4886Z" fill="#F2E3B5"/>
<path d="M31.832 142.092C31.372 142.092 31.3701 142.801 31.832 142.801C32.292 142.799 32.2938 142.092 31.832 142.092Z" fill="#F2E3B5"/>
<path d="M19.1177 147.935C18.987 147.806 18.7717 147.707 18.5841 147.716C18.1756 147.735 17.8278 148.045 17.8278 148.466V148.648C17.8278 148.84 17.9125 149.042 18.0486 149.177C18.1793 149.307 18.3945 149.405 18.5822 149.396C18.9907 149.378 19.3385 149.068 19.3385 148.647V148.464C19.3403 148.273 19.2557 148.07 19.1177 147.935Z" fill="#F2E3B5"/>
<path d="M6.2559 150.956C5.22918 150.956 5.22734 152.537 6.2559 152.537C7.28262 152.539 7.28446 150.956 6.2559 150.956Z" fill="#F2E3B5"/>
<path d="M36.6161 148.466C35.9077 148.466 35.9077 149.557 36.6161 149.557C37.3245 149.557 37.3245 148.466 36.6161 148.466Z" fill="#F2E3B5"/>
<path d="M1.83993 163.172H1.65593C1.42961 163.172 1.21065 163.369 1.22169 163.603C1.23273 163.836 1.41305 164.033 1.65593 164.033H1.83993C2.06625 164.033 2.28521 163.836 2.27417 163.603C2.26313 163.369 2.08281 163.172 1.83993 163.172Z" fill="#F2E3B5"/>
<path d="M6.62418 178.993C6.47663 178.993 6.47663 179.219 6.62418 179.219C6.77173 179.219 6.77173 178.993 6.62418 178.993Z" fill="#F2E3B5"/>
<path d="M32.0155 172.912C31.079 172.912 31.0771 174.354 32.0155 174.354C32.9521 174.356 32.9539 172.912 32.0155 172.912Z" fill="#F2E3B5"/>
<path d="M48.3919 176.623C47.5363 176.623 47.5363 177.94 48.3919 177.94C49.2475 177.94 49.2475 176.623 48.3919 176.623Z" fill="#F2E3B5"/>
<path d="M63.1119 142.263C61.9288 142.263 61.9269 144.085 63.1119 144.085C64.295 144.087 64.2969 142.263 63.1119 142.263Z" fill="#F2E3B5"/>
<path d="M80.0029 178.376V178.741C80.0029 179.022 80.4427 179.022 80.4427 178.741V178.376C80.4445 178.095 80.0029 178.095 80.0029 178.376Z" fill="#F2E3B5"/>
<path d="M73.4166 146.195H73.2321C73.127 146.195 73.127 146.356 73.2321 146.356H73.4166C73.5217 146.356 73.5217 146.195 73.4166 146.195Z" fill="#F2E3B5"/>
<path d="M75.8079 168.569C74.9155 168.569 74.9137 169.942 75.8079 169.942C76.7003 169.944 76.7022 168.569 75.8079 168.569Z" fill="#F2E3B5"/>
<path d="M80.4079 154.19C80.2641 154.19 80.2641 154.41 80.4079 154.41C80.5518 154.412 80.5518 154.19 80.4079 154.19Z" fill="#F2E3B5"/>
<path d="M103.04 145.026C101.656 145.026 101.654 147.158 103.04 147.158C104.424 147.16 104.425 145.026 103.04 145.026Z" fill="#F2E3B5"/>
<path d="M141.312 178.71C140.561 178.71 140.559 179.866 141.312 179.866C142.063 179.866 142.064 178.71 141.312 178.71Z" fill="#F2E3B5"/>
<path d="M161.92 176.964H161.552C161.287 176.964 161.035 177.194 161.048 177.464C161.06 177.736 161.27 177.964 161.552 177.964H161.92C162.185 177.964 162.437 177.734 162.424 177.464C162.413 177.192 162.203 176.964 161.92 176.964Z" fill="#F2E3B5"/>
<path d="M178.296 162.143C177.111 162.143 177.109 163.969 178.296 163.969C179.481 163.967 179.483 162.143 178.296 162.143Z" fill="#F2E3B5"/>
<path d="M179.032 147.2H178.848C178.614 147.2 178.371 147.3 178.206 147.465C178.047 147.621 177.93 147.877 177.939 148.101C177.961 148.588 178.338 149 178.846 149H179.03C179.264 149 179.507 148.9 179.672 148.736C179.83 148.579 179.948 148.324 179.939 148.099C179.917 147.612 179.542 147.2 179.032 147.2Z" fill="#F2E3B5"/>
<path d="M117.392 145.132C116.619 145.132 116.617 146.323 117.392 146.323C118.165 146.325 118.167 145.132 117.392 145.132Z" fill="#F2E3B5"/>
<path d="M124.583 128.037V128.219C124.583 128.434 124.922 128.434 124.922 128.219V128.037C124.922 127.822 124.583 127.822 124.583 128.037Z" fill="#F2E3B5"/>
<path d="M137.816 123.787C136.798 123.787 136.796 125.354 137.816 125.354C138.833 125.356 138.835 123.787 137.816 123.787Z" fill="#F2E3B5"/>
<path d="M151.511 123.946C151.45 123.886 151.388 123.824 151.327 123.763C151.165 123.603 150.926 123.505 150.696 123.505C150.477 123.505 150.216 123.601 150.065 123.763C149.909 123.931 149.793 124.154 149.804 124.389C149.815 124.623 149.894 124.845 150.065 125.015C150.126 125.075 150.188 125.137 150.249 125.197C150.411 125.358 150.65 125.456 150.88 125.456C151.099 125.456 151.36 125.359 151.511 125.197C151.668 125.029 151.784 124.807 151.772 124.571C151.761 124.338 151.68 124.116 151.511 123.946Z" fill="#F2E3B5"/>
<path d="M163.576 122.886C163.044 122.886 163.044 123.705 163.576 123.705C164.108 123.703 164.108 122.886 163.576 122.886Z" fill="#F2E3B5"/>
<path d="M154.56 105.448C154.376 105.455 154.22 105.596 154.22 105.785V105.968C154.22 106.145 154.376 106.313 154.56 106.305C154.744 106.298 154.9 106.157 154.9 105.968V105.785C154.9 105.609 154.744 105.441 154.56 105.448Z" fill="#F2E3B5"/>
<path d="M144.072 97.1986C143.343 97.1986 143.341 98.3203 144.072 98.3203C144.8 98.3221 144.802 97.1986 144.072 97.1986Z" fill="#F2E3B5"/>
<path d="M182.16 99.7756C181.461 99.7756 181.461 100.852 182.16 100.852C182.859 100.852 182.859 99.7756 182.16 99.7756Z" fill="#F2E3B5"/>
<path d="M154.453 81.9984C154.392 81.9382 154.33 81.8762 154.269 81.816C154.133 81.681 153.882 81.6701 153.748 81.816C153.614 81.9619 153.603 82.1881 153.748 82.3321L153.932 82.5145C154.068 82.6495 154.319 82.6604 154.453 82.5145C154.587 82.3704 154.598 82.1443 154.453 81.9984Z" fill="#F2E3B5"/>
<path d="M169.096 73.4169C168.748 73.4169 168.746 73.9531 169.096 73.9531C169.443 73.9531 169.445 73.4169 169.096 73.4169Z" fill="#F2E3B5"/>
<path d="M176.64 68.5908C176.348 68.6036 176.101 68.8261 176.101 69.1252V69.3076C176.101 69.5867 176.349 69.8548 176.64 69.842C176.933 69.8292 177.179 69.6067 177.179 69.3076V69.1252C177.179 68.8462 176.931 68.5781 176.64 68.5908Z" fill="#F2E3B5"/>
<path d="M154.376 39.4508C154.183 39.4599 154.017 39.6058 154.017 39.8065V39.8977C154.017 40.0837 154.181 40.2606 154.376 40.2533C154.569 40.2442 154.735 40.0983 154.735 39.8977V39.8065C154.735 39.6204 154.569 39.4435 154.376 39.4508Z" fill="#F2E3B5"/>
<path d="M143.889 35.5642C143.647 35.5642 143.647 35.9344 143.889 35.9344C144.13 35.9326 144.13 35.5642 143.889 35.5642Z" fill="#F2E3B5"/>
<path d="M178.48 19.4262H178.296C178.057 19.4262 177.825 19.636 177.838 19.8804C177.849 20.1266 178.04 20.3345 178.296 20.3345H178.48C178.719 20.3345 178.951 20.1248 178.938 19.8804C178.927 19.6341 178.737 19.4262 178.48 19.4262Z" fill="#F2E3B5"/>
<path d="M181.424 12.9899C180.292 12.9899 180.291 14.7335 181.424 14.7335C182.556 14.7335 182.557 12.9899 181.424 12.9899Z" fill="#F2E3B5"/>
<path d="M180.32 1.80577C180.058 1.80577 180.058 2.20885 180.32 2.20885C180.582 2.20702 180.582 1.80577 180.32 1.80577Z" fill="#F2E3B5"/>
<path d="M141.785 4.38845C141.737 4.34467 141.678 4.31732 141.612 4.31732H141.566C141.503 4.31732 141.437 4.34467 141.393 4.38845C141.35 4.4304 141.317 4.49971 141.321 4.55989C141.325 4.62373 141.345 4.68757 141.393 4.73134C141.441 4.77511 141.499 4.80247 141.566 4.80247H141.612C141.674 4.80247 141.741 4.77511 141.785 4.73134C141.827 4.68939 141.86 4.62008 141.856 4.55989C141.853 4.49606 141.833 4.43222 141.785 4.38845Z" fill="#F2E3B5"/>
<path d="M127.328 2.47682C126.283 2.47682 126.281 4.08731 127.328 4.08731C128.373 4.08913 128.375 2.47682 127.328 2.47682Z" fill="#F2E3B5"/>
<path d="M117.208 11.0691C116.187 11.0691 116.185 12.6413 117.208 12.6413C118.229 12.6413 118.231 11.0691 117.208 11.0691Z" fill="#F2E3B5"/>
<path d="M94.2082 11.288C93.9445 11.288 93.9426 11.6947 94.2082 11.6947C94.472 11.6929 94.4738 11.288 94.2082 11.288Z" fill="#F2E3B5"/>
<path d="M72.8638 45.8962C72.7792 45.8962 72.7792 46.0251 72.8638 46.0251C72.9484 46.0269 72.9484 45.8962 72.8638 45.8962Z" fill="#F2E3B5"/>
<path d="M179.032 172.957C178.39 172.957 178.39 173.946 179.032 173.946C179.674 173.946 179.674 172.957 179.032 172.957Z" fill="#F2E3B5"/>
</svg>
