<svg width="26" height="9" viewBox="0 0 26 9" fill="none" xmlns="http://www.w3.org/2000/svg">
<path d="M4.87966 4.43142V3.46312C5.95302 3.4859 6.82822 3.40236 7.50526 3.2125C8.31441 2.99985 8.71898 2.66569 8.71898 2.21002C8.71898 1.87586 8.46302 1.60625 7.95112 1.4012C7.45572 1.18855 6.8117 1.08222 6.01907 1.08222C5.09433 1.08222 4.376 1.24551 3.86409 1.57207C3.35218 1.89104 3.11274 2.27077 3.14577 2.71126H0.322008C0.404574 1.91383 0.941254 1.26829 1.93205 0.774645C2.98889 0.258215 4.36775 0 6.06861 0C7.53828 0 8.78503 0.178472 9.80885 0.535416C10.9648 0.930334 11.5427 1.46195 11.5427 2.13027C11.5427 3.00365 10.7253 3.57324 9.09053 3.83905V3.86183C10.0648 3.95297 10.8327 4.1808 11.3941 4.54534C11.9556 4.90229 12.2363 5.33897 12.2363 5.8554C12.2363 6.58448 11.6253 7.17686 10.4033 7.63253C9.2474 8.07301 7.81075 8.29326 6.09338 8.29326C4.14482 8.29326 2.63386 8.03884 1.5605 7.53C0.553193 7.04395 0.0330264 6.37183 0 5.51365H2.82376C2.79073 6.01489 3.05495 6.4174 3.61639 6.72118C4.19436 7.04775 5.02002 7.21103 6.09338 7.21103C7.06766 7.21103 7.86029 7.08572 8.47128 6.8351C9.09878 6.57689 9.41253 6.22754 9.41253 5.78705C9.41253 4.82254 7.90157 4.37067 4.87966 4.43142Z" fill="#A1A4B2"/>
<path d="M18.6434 4.43142V3.46312C19.7167 3.4859 20.5919 3.40236 21.269 3.2125C22.0781 2.99985 22.4827 2.66569 22.4827 2.21002C22.4827 1.87586 22.2267 1.60625 21.7148 1.4012C21.2194 1.18855 20.5754 1.08222 19.7828 1.08222C18.858 1.08222 18.1397 1.24551 17.6278 1.57207C17.1159 1.89104 16.8764 2.27077 16.9095 2.71126H14.0857C14.1683 1.91383 14.705 1.26829 15.6957 0.774645C16.7526 0.258215 18.1314 0 19.8323 0C21.302 0 22.5487 0.178472 23.5726 0.535416C24.7285 0.930334 25.3064 1.46195 25.3064 2.13027C25.3064 3.00365 24.489 3.57324 22.8542 3.83905V3.86183C23.8285 3.95297 24.5964 4.1808 25.1578 4.54534C25.7193 4.90229 26 5.33897 26 5.8554C26 6.58448 25.389 7.17686 24.167 7.63253C23.0111 8.07301 21.5745 8.29326 19.8571 8.29326C17.9085 8.29326 16.3976 8.03884 15.3242 7.53C14.3169 7.04395 13.7967 6.37183 13.7637 5.51365H16.5875C16.5544 6.01489 16.8186 6.4174 17.3801 6.72118C17.9581 7.04775 18.7837 7.21103 19.8571 7.21103C20.8314 7.21103 21.624 7.08572 22.235 6.8351C22.8625 6.57689 23.1762 6.22754 23.1762 5.78705C23.1762 4.82254 21.6653 4.37067 18.6434 4.43142Z" fill="#A1A4B2"/>
</svg>
