<svg width="9" height="8" viewBox="0 0 9 8" fill="none" xmlns="http://www.w3.org/2000/svg">
<path d="M8.98121 6.31119V7.36306H0C0.0125261 6.26994 0.977036 5.35901 2.89353 4.63027C3.49478 4.41027 4.08977 4.19028 4.6785 3.97028C5.35491 3.70903 5.86221 3.46153 6.20042 3.22778C6.62631 2.92529 6.84551 2.60216 6.85804 2.25842C6.87057 1.92842 6.73278 1.64999 6.44468 1.42311C6.0689 1.12749 5.46764 0.979679 4.64092 0.979679C3.20042 0.979679 2.44885 1.58124 2.38622 2.78435H0.244259C0.244259 1.95936 0.632568 1.29593 1.40919 0.794056C2.22338 0.264686 3.34447 0 4.77244 0C6.22547 0 7.33403 0.254373 8.09812 0.763119C8.69938 1.16874 9 1.65342 9 2.21717C9 3.09029 8.02297 3.90153 6.0689 4.6509C5.34238 4.91902 4.61587 5.18714 3.88935 5.45526C3.17537 5.75776 2.73695 6.04307 2.57411 6.31119H8.98121Z" fill="#A1A4B2"/>
</svg>
