<svg width="110" height="110" viewBox="0 0 110 110" fill="none" xmlns="http://www.w3.org/2000/svg">
<g opacity="0.3">
<path d="M55 55V109.988C24.6349 109.988 0 85.3651 0 55C0 47.5182 1.48885 40.3867 4.20382 33.8933V55H55Z" fill="#BABCC6"/>
<path d="M110 55.0001C110 85.3653 85.3776 109.988 55 109.988V55.0001H110Z" fill="#BABCC6"/>
<path d="M110 55H55V0C85.3776 0 110 24.6224 110 55Z" fill="#BABCC6"/>
<path d="M55.0003 0V55H4.20413V33.8933C12.4742 13.9877 32.117 0 55.0003 0Z" fill="#BABCC6"/>
</g>
<path d="M55.0004 54.9988V99.3327C30.5184 99.3327 10.6564 79.4808 10.6564 54.9988C10.6564 48.9665 11.8568 43.2167 14.0457 37.9814V54.9988H55.0004Z" fill="#3F414E"/>
<path d="M99.3445 54.9988C99.3445 79.4808 79.4926 99.3327 55.0005 99.3327V54.9988H99.3445Z" fill="#3F414E"/>
<path d="M99.3445 54.9988H55.0005V10.6547C79.4926 10.6547 99.3445 30.5067 99.3445 54.9988Z" fill="#3F414E"/>
<path d="M55.0004 10.6547V54.9988H14.0457V37.9814C20.7135 21.9324 36.5506 10.6547 55.0004 10.6547Z" fill="#3F414E"/>
<rect x="44.9234" y="42.427" width="6.87915" height="25.1335" rx="3.40979" fill="#FBFBFB"/>
<rect x="58.1986" y="42.427" width="6.87915" height="25.1335" rx="3.40979" fill="#FBFBFB"/>
</svg>
