<svg width="12" height="14" viewBox="0 0 12 14" fill="none" xmlns="http://www.w3.org/2000/svg">
<path d="M5.80328 1.80955C4.83607 1.80955 4.08197 2.08257 3.54099 2.62861C3.04918 3.12386 2.80328 3.75879 2.80328 4.5334C2.80328 5.32072 3.04918 5.96835 3.54099 6.47629C4.08197 7.04773 4.83607 7.33345 5.80328 7.33345C6.80328 7.33345 7.58197 7.04773 8.13935 6.47629C8.66394 5.96835 8.92623 5.32072 8.92623 4.5334C8.92623 3.77149 8.65574 3.13021 8.11476 2.60956C7.57377 2.07622 6.80328 1.80955 5.80328 1.80955ZM0.319672 10.2287H3.12295C3.18853 10.7748 3.44262 11.2192 3.88525 11.5621C4.32787 11.8922 4.90984 12.0573 5.63115 12.0573C6.95902 12.0573 7.90984 11.5113 8.48361 10.4192C8.82787 9.78428 9.06558 8.80648 9.19673 7.48583L9.14755 7.44773C8.37705 8.51442 7.13935 9.04776 5.43443 9.04776C3.81148 9.04776 2.5 8.6414 1.5 7.82869C0.5 7.00328 0 5.9112 0 4.55245C0 3.2191 0.52459 2.12702 1.57377 1.27621C2.63935 0.425403 4.09017 0 5.92623 0C8.18853 0 9.81148 0.673026 10.7951 2.01908C11.5984 3.13656 12 4.78737 12 6.97153C12 8.82553 11.5246 10.3748 10.5738 11.6192C9.42623 13.1177 7.73771 13.8669 5.5082 13.8669C4.11476 13.8669 2.91803 13.5304 1.91803 12.8573C0.918033 12.1716 0.385246 11.2954 0.319672 10.2287Z" fill="#A4A7B5"/>
</svg>
