<svg width="121" height="99" viewBox="0 0 121 99" fill="none" xmlns="http://www.w3.org/2000/svg">
<path d="M94.5928 7.16981C94.5928 7.16981 77.3041 -4.28099 56.2453 1.75952C35.1838 7.79815 20.8078 26.6753 8.75554 41.658C-3.29862 56.6433 -2.77227 75.0925 9.50724 86.5253C21.7867 97.9582 34.1559 88.7501 54.1336 93.1624C74.1114 97.5747 78.7741 101.752 97.8967 94.6701C117.019 87.588 126.266 61.8511 117.917 38.9993C109.565 16.1456 94.5928 7.16981 94.5928 7.16981Z" fill="#F1B869"/>
<path d="M39.6149 75.6914C38.7804 75.9672 37.8771 75.5114 37.6016 74.6779L32.0292 57.8177C31.7901 57.0942 31.0098 56.7005 30.2879 56.9391C29.566 57.1776 29.174 57.9588 29.4131 58.6823L33.5728 71.2682C33.8177 72.009 33.416 72.8095 32.6768 73.0538C31.9376 73.2981 31.138 72.8946 30.8932 72.1538L28.5967 65.2054C28.4198 64.67 27.8432 64.3791 27.309 64.5556C26.7748 64.7322 26.4851 65.3094 26.6621 65.8448L27.5162 68.4291L25.3852 69.1334L25.2895 68.844L27.1318 68.2351L26.3733 65.9402C26.1438 65.2457 26.5203 64.4953 27.2133 64.2662C27.9063 64.0372 28.6559 64.4154 28.8855 65.11L31.1819 72.0584C31.3742 72.64 32.0007 72.9562 32.5811 72.7644C33.1615 72.5726 33.4763 71.9453 33.284 71.3636L29.1244 58.7778C28.8327 57.8951 29.3116 56.9407 30.1923 56.6497C31.0729 56.3586 32.0263 56.8396 32.318 57.7223L37.8903 74.5825C38.1132 75.2568 38.8436 75.6253 39.5192 75.402C40.192 75.1796 40.5589 74.4485 40.3361 73.7742L33.5375 53.2039C33.1836 52.1331 33.7649 50.9748 34.8333 50.6217C35.9016 50.2686 37.0587 50.8524 37.4126 51.9232L44.1796 72.3979C44.4187 73.1214 45.199 73.5152 45.9209 73.2766C46.6428 73.038 47.0348 72.2568 46.7957 71.5333L41.4031 55.2172C41.0645 54.1927 41.6207 53.0844 42.6429 52.7466C43.665 52.4087 44.7721 52.9673 45.1107 53.9918L49.0886 66.0278C49.2962 66.6558 49.9766 66.9991 50.6032 66.792C51.2298 66.5849 51.5716 65.9037 51.364 65.2758L49.2014 58.7325C48.9518 57.9772 49.3612 57.1613 50.1148 56.9123C50.8685 56.6632 51.6863 57.0734 51.9359 57.8288L52.593 59.8169L54.724 59.1126L54.8196 59.402L52.3999 60.2017L51.6472 57.9242C51.4501 57.328 50.8053 57.0051 50.2105 57.2017C49.6156 57.3983 49.2941 58.0438 49.4902 58.6371L51.6528 65.1803C51.9129 65.9675 51.4842 66.8218 50.6988 67.0814C49.9134 67.341 49.06 66.9104 48.7999 66.1232L44.8219 54.0872C44.536 53.2219 43.6019 52.7506 42.7385 53.0359C41.8751 53.3213 41.4059 54.2564 41.6919 55.1217L47.0844 71.4379C47.3761 72.3205 46.8972 73.2749 46.0165 73.566C45.1358 73.8571 44.1825 73.376 43.8908 72.4934L37.1238 52.0186C36.8225 51.107 35.8385 50.6105 34.9289 50.9111C34.0193 51.2117 33.525 52.1969 33.8263 53.1085L40.6248 73.6787C40.9032 74.5112 40.4494 75.4156 39.6149 75.6914Z" fill="#FEDEA5"/>
<path d="M67.4791 66.4811C66.6446 66.7569 65.7413 66.3011 65.4658 65.4676L59.8935 48.6074C59.6544 47.8839 58.874 47.4902 58.1521 47.7287C57.4303 47.9673 57.0383 48.7485 57.2774 49.472L61.437 62.0579C61.6819 62.7987 61.2802 63.5992 60.541 63.8435C59.8018 64.0878 59.0023 63.6843 58.7574 62.9435L56.461 55.9951C56.284 55.4597 55.7074 55.1688 55.1732 55.3453C54.639 55.5219 54.3494 56.0991 54.5263 56.6345L55.3804 59.2188L53.2494 59.9231L53.1538 59.6337L54.996 59.0248L54.2376 56.7299C54.008 56.0354 54.3846 55.285 55.0776 55.0559C55.7706 54.8269 56.5202 55.2051 56.7497 55.8997L59.0462 62.8481C59.2384 63.4297 59.865 63.7459 60.4454 63.5541C61.0258 63.3623 61.3405 62.735 61.1483 62.1533L56.9886 49.5675C56.6969 48.6848 57.1758 47.7304 58.0565 47.4394C58.9372 47.1483 59.8905 47.6293 60.1822 48.512L65.7546 65.3722C65.9774 66.0465 66.7078 66.415 67.3835 66.1917C68.0563 65.9693 68.4232 65.2382 68.2003 64.5639L61.4018 43.9936C61.0479 42.9228 61.6291 41.7645 62.6975 41.4114C63.7659 41.0583 64.9229 41.6421 65.2768 42.7129L72.0438 63.1876C72.2829 63.9111 73.0633 64.3049 73.7851 64.0663C74.507 63.8277 74.899 63.0465 74.6599 62.323L69.2674 46.0069C68.9288 44.9824 69.4849 43.8741 70.5071 43.5363C71.5293 43.1984 72.6363 43.757 72.9749 44.7815L76.9529 56.8175C77.1604 57.4455 77.8408 57.7888 78.4674 57.5817C79.094 57.3746 79.4358 56.6934 79.2282 56.0655L77.0657 49.5222C76.816 48.7669 77.2254 47.951 77.9819 47.701C78.7356 47.4519 79.5505 47.8631 79.8002 48.6185L80.4572 50.6066L82.5882 49.9023L82.6839 50.1917L80.2641 50.9914L79.5114 48.7139C79.3144 48.1177 78.6724 47.7938 78.0776 47.9904C77.4828 48.187 77.1583 48.8335 77.3544 49.4268L79.517 55.97C79.7771 56.7572 79.3485 57.6115 78.563 57.8711C77.7776 58.1307 76.9243 57.7001 76.6641 56.9129L72.6862 44.8769C72.4002 44.0116 71.4661 43.5403 70.6027 43.8256C69.7394 44.111 69.2701 45.0461 69.5561 45.9114L74.9487 62.2276C75.2404 63.1102 74.7615 64.0646 73.8808 64.3557C73.0001 64.6468 72.0468 64.1657 71.7551 63.2831L64.9881 42.8083C64.6868 41.8967 63.7027 41.4002 62.7932 41.7008C61.8836 42.0014 61.3892 42.9866 61.6905 43.8982L68.4891 64.4684C68.7674 65.3009 68.3136 66.2053 67.4791 66.4811Z" fill="#FEDEA5"/>
<path d="M95.3437 57.272C94.5092 57.5478 93.6059 57.092 93.3304 56.2586L87.758 39.3984C87.5189 38.6749 86.7386 38.2811 86.0167 38.5197C85.2948 38.7583 84.9028 39.5395 85.1419 40.263L89.3016 52.8488C89.5465 53.5897 89.1448 54.3901 88.4056 54.6344C87.6664 54.8787 86.8668 54.4753 86.622 53.7345L84.3255 46.786C84.1486 46.2507 83.572 45.9597 83.0378 46.1363C82.5036 46.3128 82.2139 46.8901 82.3909 47.4255L83.245 50.0098L81.114 50.7141L81.0184 50.4247L82.8606 49.8158L82.1021 47.5209C81.8726 46.8263 82.2491 46.0759 82.9421 45.8469C83.6351 45.6178 84.3847 45.9961 84.6143 46.6906L86.9107 53.639C87.103 54.2207 87.7296 54.5369 88.31 54.345C88.8903 54.1532 89.2051 53.5259 89.0129 52.9443L84.8532 40.3584C84.5615 39.4758 85.0404 38.5214 85.9211 38.2303C86.8018 37.9392 87.7551 38.4203 88.0468 39.3029L93.6192 56.1631C93.842 56.8374 94.5724 57.206 95.2481 56.9826C95.9237 56.7593 96.2878 56.0291 96.0649 55.3548L89.2663 34.7845C88.9124 33.7138 89.4937 32.5554 90.5621 32.2023C91.6305 31.8492 92.7875 32.4331 93.1414 33.5038L99.9084 53.9786C100.148 54.7021 100.928 55.0958 101.65 54.8572C102.372 54.6187 102.764 53.8375 102.524 53.114L97.1319 36.7978C96.7933 35.7734 97.3495 34.665 98.3717 34.3272C99.3939 33.9894 100.501 34.548 100.84 35.5724L104.817 47.6084C105.025 48.2364 105.705 48.5797 106.332 48.3726C106.959 48.1656 107.3 47.4844 107.093 46.8564L104.93 40.3132C104.681 39.5578 105.09 38.742 105.847 38.492C106.6 38.2429 107.415 38.6541 107.665 39.4094L108.322 41.3976L110.453 40.6933L110.548 40.9827L108.129 41.7824L107.376 39.5048C107.179 38.9087 106.537 38.5848 105.942 38.7814C105.347 38.978 105.023 39.6245 105.219 40.2177L107.382 46.761C107.642 47.5481 107.213 48.4025 106.428 48.662C105.642 48.9216 104.789 48.491 104.529 47.7039L100.551 35.6679C100.265 34.8026 99.3307 34.3313 98.4673 34.6166C97.604 34.902 97.1347 35.8371 97.4207 36.7024L102.813 53.0185C103.105 53.9012 102.626 54.8556 101.745 55.1466C100.865 55.4377 99.9114 54.9567 99.6196 54.074L92.8526 33.5993C92.5514 32.6877 91.5673 32.1911 90.6577 32.4917C89.7482 32.7923 89.2538 33.7775 89.5551 34.6891L96.3536 55.2594C96.632 56.0919 96.1782 56.9962 95.3437 57.272Z" fill="#FEDEA5"/>
<path d="M52.3169 10.5949L51.4303 7.91218L49.5573 10.0175L52.3169 10.5949Z" fill="#263238"/>
<path d="M48.744 8.72904L48.3224 8.86838L49.2282 11.609L49.6498 11.4696L48.744 8.72904Z" fill="#263238"/>
<path d="M64.5775 6.54234L66.4495 4.43417L63.6908 3.85964L64.5775 6.54234Z" fill="#263238"/>
<path d="M66.7594 2.7754L66.3378 2.91473L67.2436 5.65531L67.6651 5.51598L66.7594 2.7754Z" fill="#263238"/>
<path d="M56.8518 3.28576C54.8825 3.93662 53.8175 6.06377 54.4689 8.03456C55.1212 10.0082 57.2459 11.078 59.2123 10.4281C61.1816 9.7772 62.2466 7.65004 61.5953 5.67926C60.943 3.70557 58.8211 2.6349 56.8518 3.28576ZM58.1484 8.90499L57.0887 9.25523L55.8444 5.49019L56.9041 5.13995L58.1484 8.90499ZM60.2188 8.22073L59.1591 8.57097L57.9147 4.80593L58.9744 4.45569L60.2188 8.22073Z" fill="#263238"/>
<path d="M96.8474 23.5957C96.6078 23.6749 96.3502 23.5449 96.2708 23.3047L94.9748 19.3834C94.8954 19.1432 95.0248 18.8854 95.2645 18.8062C95.5041 18.727 95.7617 18.8569 95.8411 19.0971L97.1371 23.0184C97.2155 23.2557 97.0871 23.5165 96.8474 23.5957Z" fill="#FFDB9D"/>
<path d="M95.258 23.5461C95.0183 23.6253 94.7608 23.4954 94.6814 23.2552L93.7278 20.3699C93.6484 20.1297 93.7778 19.8718 94.0174 19.7926C94.2571 19.7134 94.5146 19.8434 94.594 20.0836L95.5476 22.9689C95.627 23.2091 95.4976 23.4669 95.258 23.5461Z" fill="#FFDB9D"/>
<path d="M93.8406 24.0145C93.6009 24.0937 93.3433 23.9637 93.264 23.7235L92.3104 20.8382C92.231 20.598 92.3604 20.3402 92.6 20.261C92.8397 20.1818 93.0972 20.3117 93.1766 20.5519L94.1302 23.4372C94.2096 23.6774 94.0802 23.9352 93.8406 24.0145Z" fill="#FFDB9D"/>
<path d="M110.848 18.3937C110.608 18.4729 110.351 18.343 110.271 18.1028L109.318 15.2175C109.238 14.9773 109.368 14.7195 109.607 14.6403C109.847 14.561 110.105 14.691 110.184 14.9312L111.138 17.8165C111.217 18.0567 111.088 18.3145 110.848 18.3937Z" fill="#FFDB9D"/>
<path d="M109.43 18.8621C109.19 18.9413 108.933 18.8113 108.853 18.5711L107.9 15.6858C107.821 15.4456 107.95 15.1878 108.19 15.1086C108.429 15.0294 108.687 15.1593 108.766 15.3995L109.72 18.2848C109.799 18.525 109.67 18.7829 109.43 18.8621Z" fill="#FFDB9D"/>
<path d="M98.2653 23.1268C98.0257 23.206 97.7681 23.0761 97.6887 22.8359L96.3927 18.9145C96.3133 18.6743 96.4427 18.4165 96.6824 18.3373C96.922 18.2581 97.1796 18.388 97.259 18.6282L98.555 22.5496C98.6334 22.7869 98.5021 23.0485 98.2653 23.1268Z" fill="#FFDB9D"/>
<path d="M99.9075 23.3479C99.6678 23.4271 99.4103 23.2972 99.3309 23.057L97.5787 17.7552C97.4993 17.515 97.6287 17.2572 97.8683 17.178C98.108 17.0988 98.3655 17.2287 98.4449 17.4689L100.197 22.7707C100.277 23.0109 100.147 23.2687 99.9075 23.3479Z" fill="#FFDB9D"/>
<path d="M101.685 23.9679C101.445 24.0472 101.188 23.9172 101.109 23.677L98.638 16.2019C98.5586 15.9617 98.688 15.7039 98.9276 15.6247C99.1673 15.5454 99.4249 15.6754 99.5042 15.9156L101.975 23.3907C102.053 23.628 101.925 23.8887 101.685 23.9679Z" fill="#FFDB9D"/>
<path d="M108.187 19.8478C107.947 19.927 107.69 19.7971 107.61 19.5569L106.314 15.6356C106.235 15.3954 106.364 15.1375 106.604 15.0583C106.844 14.9791 107.101 15.1091 107.181 15.3493L108.477 19.2706C108.555 19.5079 108.424 19.7696 108.187 19.8478Z" fill="#FFDB9D"/>
<path d="M106.768 20.3167C106.529 20.3959 106.271 20.266 106.192 20.0258L104.896 16.1044C104.816 15.8642 104.946 15.6064 105.186 15.5272C105.425 15.448 105.683 15.5779 105.762 15.8181L107.058 19.7395C107.137 19.9768 107.008 20.2375 106.768 20.3167Z" fill="#FFDB9D"/>
<path d="M105.579 21.474C105.339 21.5532 105.081 21.4232 105.002 21.183L103.25 15.8813C103.17 15.6411 103.3 15.3833 103.539 15.3041C103.779 15.2248 104.037 15.3548 104.116 15.595L105.868 20.8967C105.948 21.1369 105.818 21.3948 105.579 21.474Z" fill="#FFDB9D"/>
<path d="M104.52 23.0307C104.281 23.1099 104.023 22.98 103.944 22.7398L101.473 15.2647C101.394 15.0245 101.523 14.7667 101.763 14.6874C102.003 14.6082 102.26 14.7382 102.339 14.9784L104.81 22.4535C104.888 22.6908 104.76 22.9515 104.52 23.0307Z" fill="#FFDB9D"/>
<path d="M103.559 24.8793C103.319 24.9585 103.062 24.8286 102.982 24.5884L99.5983 14.3495C99.5189 14.1093 99.6483 13.8515 99.888 13.7723C100.128 13.6931 100.385 13.823 100.465 14.0632L103.849 24.3021C103.928 24.5423 103.799 24.8001 103.559 24.8793Z" fill="#FFDB9D"/>
<path d="M17.0294 39.0269C16.1481 37.5912 14.3689 36.9177 12.7461 37.454C11.1117 37.9942 10.0766 39.6203 10.2494 41.3159C8.65013 42.127 7.85011 44.0189 8.42303 45.7524C9.02465 47.5727 10.8821 48.6184 12.747 48.185L12.5782 47.4607C11.0913 47.8077 9.60774 46.9723 9.12759 45.5195C8.64553 44.0609 9.37959 42.4637 10.7956 41.8833L11.0719 41.7695L11.0186 41.4726C10.7568 40.0407 11.5992 38.6163 12.9795 38.1601C14.3626 37.703 15.8889 38.3478 16.5309 39.6604L16.69 39.9866L17.0183 39.8364C17.1184 39.7904 17.2195 39.7474 17.3234 39.713C18.8596 39.2053 20.5211 40.0461 21.029 41.5828C21.5379 43.1224 20.7007 44.7858 19.1675 45.2926L19.4008 45.9987C21.3239 45.3631 22.3706 43.2773 21.7336 41.35C21.0918 39.3985 18.9613 38.3307 17.0294 39.0269Z" fill="#4A5161"/>
<path d="M16.8118 42.2352C16.7755 42.1253 16.6881 42.0354 16.5766 41.9984C16.4651 41.9614 16.3429 41.9793 16.2466 42.0465L12.9111 44.3687C12.7753 44.4617 12.7201 44.634 12.7718 44.7903L14.1749 49.0357C14.0384 49.0295 13.896 49.0445 13.7602 49.0893C13.1596 49.2878 12.8333 49.9382 13.0322 50.5401C13.2312 51.1421 13.8808 51.4699 14.4814 51.2714C15.0503 51.0834 15.3669 50.4908 15.2323 49.9189L15.2439 49.9151L14.1736 46.6768L16.8772 44.7977L17.497 46.673C17.3633 46.6658 17.2247 46.6827 17.089 46.7276C16.4884 46.9261 16.1621 47.5765 16.361 48.1784C16.56 48.7803 17.2096 49.1081 17.8102 48.9096C18.4108 48.7111 18.7372 48.0608 18.5382 47.4588C18.5363 47.453 18.5315 47.4482 18.5296 47.4424L16.8089 42.2362L16.8118 42.2352ZM16.6323 44.0569L13.9297 45.9388L13.5595 44.8188L16.2632 42.9398L16.6323 44.0569Z" fill="#4A5161"/>
<path d="M46.7155 25.918C46.5826 25.5158 46.9877 24.9003 46.8105 24.5288C46.6275 24.1495 45.8946 24.0835 45.6654 23.7388C45.4342 23.3882 45.6664 22.6855 45.3967 22.3734C45.1222 22.0565 44.3957 22.1842 44.0865 21.9076C43.7734 21.6291 43.8181 20.8921 43.4713 20.6568C43.1245 20.4215 42.4592 20.7345 42.0863 20.5463C41.7135 20.3582 41.5677 19.6359 41.1726 19.4969C40.7813 19.3597 40.2139 19.833 39.8043 19.7469C39.3985 19.6627 39.0679 19.0015 38.6505 18.9694C38.2369 18.9391 37.8154 19.5439 37.397 19.5666C36.9852 19.5904 36.4947 19.0366 36.0819 19.1153C35.6778 19.1911 35.4273 19.887 35.026 20.0196C34.6246 20.1523 34.0097 19.7456 33.6391 19.9227C33.2607 20.1055 33.1958 20.8396 32.852 21.0688C32.5024 21.2999 31.8006 21.0663 31.4894 21.3361C31.1734 21.6107 31.3019 22.3387 31.0262 22.6481C30.7486 22.9613 30.0128 22.9156 29.7784 23.2627C29.544 23.6098 29.8573 24.2767 29.67 24.65C29.4827 25.0233 28.7619 25.1684 28.6236 25.564C28.4873 25.9557 28.9604 26.5248 28.875 26.9351C28.7915 27.3414 28.132 27.6718 28.1004 28.0899C28.0708 28.5042 28.675 28.9272 28.6983 29.3465C28.7225 29.759 28.1704 30.2496 28.2495 30.6633C28.3286 31.0673 29.0207 31.32 29.1536 31.7223C29.2866 32.1246 28.8814 32.74 29.0587 33.1115C29.2417 33.4908 29.9745 33.5568 30.2038 33.9015C30.4349 34.2521 30.2027 34.9548 30.4725 35.2669C30.747 35.5839 31.4734 35.4561 31.7827 35.7327C32.0957 36.0112 32.051 36.7483 32.3979 36.9835C32.7447 37.2188 33.4099 36.9059 33.7828 37.094C34.1557 37.2821 34.3015 38.0044 34.6966 38.1434C35.0878 38.2806 35.6553 37.8073 36.0649 37.8934C36.4706 37.9776 36.8012 38.6388 37.2187 38.6709C37.6322 38.7012 38.0537 38.0964 38.4722 38.0737C38.8839 38.0499 39.3744 38.6037 39.7872 38.525C40.1904 38.4463 40.4418 37.7533 40.8432 37.6207C41.2445 37.488 41.8594 37.8947 42.2301 37.7177C42.6084 37.5348 42.6733 36.8007 43.0171 36.5715C43.3667 36.3404 44.0685 36.574 44.3797 36.3042C44.6957 36.0296 44.5672 35.3017 44.8429 34.9923C45.1205 34.679 45.8563 34.7247 46.0907 34.3776C46.3251 34.0305 46.0118 33.3636 46.1991 32.9903C46.3865 32.6171 47.1072 32.4719 47.2455 32.0763C47.3819 31.6846 46.9087 31.1155 46.9941 30.7053C47.0776 30.2989 47.7371 29.9685 47.7687 29.5504C47.7983 29.1362 47.1941 28.7131 47.1708 28.2939C47.1466 27.8813 47.6987 27.3907 47.6196 26.9771C47.5425 26.5692 46.8485 26.3203 46.7155 25.918Z" fill="#4A5161"/>
<path d="M39.8872 38.655C39.8641 38.6627 39.84 38.6674 39.8159 38.6722C39.5446 38.7233 39.2784 38.577 39.0228 38.4335C38.8306 38.3269 38.6346 38.2183 38.4836 38.2265C38.3268 38.2366 38.1399 38.369 37.9588 38.4995C37.7238 38.6702 37.4772 38.8448 37.2079 38.8247C36.9348 38.8026 36.7149 38.5928 36.5065 38.3888C36.35 38.2351 36.1859 38.0775 36.0339 38.0442C35.882 38.011 35.6683 38.0912 35.4604 38.1696C35.187 38.2728 34.905 38.3788 34.6474 38.2874C34.3897 38.196 34.2334 37.9363 34.0839 37.6872C33.9697 37.497 33.8537 37.301 33.7153 37.2312C33.577 37.1613 33.3509 37.1847 33.1305 37.2062C32.839 37.2351 32.5379 37.264 32.3112 37.111C32.0845 36.958 32.0013 36.6677 31.921 36.3861C31.8599 36.172 31.7968 35.952 31.6797 35.8495C31.5654 35.746 31.3394 35.7116 31.1221 35.6743C30.8336 35.6252 30.5326 35.577 30.355 35.3692C30.1784 35.1644 30.1713 34.8618 30.168 34.5707C30.1646 34.3472 30.1592 34.1178 30.0739 33.9855C29.9904 33.859 29.7828 33.7639 29.5868 33.6746C29.3186 33.5514 29.0409 33.4281 28.9221 33.1753C28.8061 32.9311 28.8769 32.6413 28.9477 32.3611C29.001 32.1444 29.0581 31.9201 29.0084 31.7696C28.9587 31.6191 28.7791 31.473 28.6072 31.3308C28.3834 31.148 28.15 30.9555 28.1014 30.6922C28.05 30.4203 28.1958 30.1539 28.3386 29.898C28.4448 29.7056 28.5529 29.5094 28.5445 29.3581C28.5342 29.201 28.4018 29.0136 28.2723 28.8349C28.1015 28.5992 27.9269 28.352 27.9467 28.0822C27.9683 27.8086 28.1775 27.5886 28.3808 27.3802C28.5341 27.2236 28.6912 27.0593 28.7242 26.9072C28.7572 26.755 28.6768 26.5409 28.5983 26.3325C28.4949 26.0585 28.3887 25.7758 28.4796 25.5178C28.5705 25.2598 28.8295 25.1036 29.078 24.9541C29.2677 24.84 29.4632 24.7241 29.5327 24.5855C29.6022 24.447 29.5786 24.2204 29.5569 23.9997C29.5276 23.7076 29.4984 23.4059 29.6517 23.1819C29.8041 22.955 30.0938 22.8721 30.3749 22.792C30.5885 22.731 30.8079 22.6681 30.9101 22.5509C31.0133 22.4366 31.0474 22.2102 31.0843 21.9926C31.133 21.7036 31.1807 21.4022 31.3878 21.2246C31.5921 21.0479 31.8941 21.0412 32.1846 21.0383C32.4078 21.0351 32.6367 21.0301 32.7687 20.9447C32.8948 20.8613 32.9895 20.6535 33.0784 20.4572C33.201 20.1887 33.3237 19.9106 33.5731 19.7929C33.8167 19.6771 34.1061 19.7484 34.3858 19.8196C34.6022 19.8733 34.8262 19.9309 34.9763 19.8813C35.1265 19.8316 35.2721 19.6519 35.4138 19.4799C35.596 19.2559 35.7879 19.0224 36.0506 18.9741C36.3219 18.9229 36.5881 19.0693 36.8466 19.2118C37.0388 19.3184 37.2348 19.4269 37.3858 19.4188C37.5426 19.4087 37.7295 19.2763 37.9077 19.1468C38.1427 18.976 38.3893 18.8014 38.6586 18.8215C38.9317 18.8436 39.1516 19.0534 39.36 19.2574C39.5165 19.4112 39.6807 19.5688 39.8326 19.602C39.9845 19.6353 40.2011 19.554 40.4061 19.4767C40.6795 19.3735 40.9615 19.2674 41.2191 19.3588C41.4768 19.4502 41.6331 19.7099 41.7836 19.9619C41.8977 20.1521 42.0137 20.3481 42.1521 20.418C42.2905 20.4878 42.5166 20.4644 42.7369 20.443C43.0284 20.414 43.3296 20.3851 43.5563 20.5381C43.783 20.6911 43.8661 20.9814 43.9464 21.263C44.0076 21.4772 44.0707 21.6971 44.1878 21.7996C44.3021 21.9031 44.5281 21.9375 44.7454 21.9748C45.0339 22.024 45.3349 22.0721 45.5124 22.2799C45.689 22.4848 45.6962 22.7874 45.6995 23.0784C45.7029 23.302 45.7082 23.5313 45.7936 23.6636C45.877 23.7901 46.0846 23.8852 46.2807 23.9745C46.5488 24.0977 46.8266 24.221 46.9444 24.471C47.0604 24.7151 46.9896 25.005 46.9188 25.2852C46.8655 25.5018 46.8084 25.7261 46.8581 25.8766C46.9078 26.0271 47.0874 26.1732 47.2594 26.3154C47.4831 26.4983 47.7165 26.6908 47.7651 26.954C47.8165 27.2259 47.6708 27.4924 47.5289 27.7511C47.4227 27.9435 47.3117 28.1407 47.323 28.2911C47.3333 28.4482 47.4656 28.6355 47.5961 28.8171C47.7669 29.0528 47.9415 29.3 47.9218 29.5698C47.9001 29.8434 47.6909 30.0634 47.4876 30.2718C47.3343 30.4284 47.1772 30.5927 47.1442 30.7448C47.1113 30.897 47.1917 31.1112 47.2701 31.3196C47.3735 31.5936 47.4797 31.8763 47.3888 32.1342C47.2979 32.3922 47.0389 32.5484 46.7876 32.6989C46.5978 32.813 46.4024 32.9289 46.3328 33.0675C46.2633 33.206 46.2869 33.4325 46.3087 33.6533C46.3379 33.9453 46.3672 34.2471 46.2148 34.474C46.0614 34.698 45.7727 34.7838 45.4916 34.8638C45.278 34.9248 45.0585 34.9877 44.9564 35.105C44.8532 35.2193 44.8191 35.4456 44.7822 35.6633C44.7335 35.9522 44.6858 36.2537 44.4787 36.4313C44.2744 36.608 43.9724 36.6147 43.6819 36.6176C43.4587 36.6207 43.2326 36.6248 43.0978 36.7111C42.9716 36.7946 42.877 37.0024 42.7881 37.1987C42.6655 37.4671 42.5428 37.7452 42.2905 37.8639C42.0508 37.9817 41.7575 37.9085 41.4778 37.8372C41.2614 37.7835 41.0374 37.7259 40.8873 37.7756C40.7371 37.8252 40.5915 38.0049 40.4498 38.177C40.2859 38.3692 40.1153 38.5796 39.8872 38.655ZM38.2821 37.9561C38.3398 37.937 38.3995 37.9237 38.462 37.9191C38.7006 37.9044 38.9399 38.0372 39.1676 38.1642C39.3761 38.2814 39.5952 38.4016 39.7578 38.3703C39.9137 38.3381 40.067 38.1526 40.2174 37.9681C40.3861 37.7614 40.5626 37.549 40.7965 37.4717C41.0303 37.3944 41.2996 37.4628 41.5572 37.5253C41.7841 37.5819 42.0216 37.6414 42.166 37.5744C42.3153 37.5026 42.4167 37.2765 42.5171 37.0571C42.6244 36.8195 42.7374 36.5702 42.9377 36.4398C43.1428 36.3046 43.417 36.3007 43.6815 36.2967C43.9172 36.2927 44.1625 36.2886 44.2848 36.184C44.4091 36.0755 44.45 35.8309 44.4879 35.5968C44.5298 35.3358 44.5726 35.0681 44.7336 34.8865C44.8946 34.7049 45.1573 34.6276 45.4124 34.5562C45.6405 34.4904 45.8772 34.4218 45.9679 34.2891C46.0605 34.1526 46.034 33.9077 46.0104 33.6716C45.984 33.4075 45.9585 33.1366 46.0657 32.9182C46.1729 32.6998 46.4088 32.5608 46.6361 32.4247C46.8393 32.303 47.0502 32.1755 47.1053 32.0225C47.1575 31.8704 47.0714 31.6388 46.9881 31.416C46.8934 31.168 46.7986 30.9104 46.8481 30.6726C46.8976 30.4347 47.0865 30.2407 47.2706 30.0514C47.4383 29.8804 47.6099 29.7018 47.6198 29.538C47.6307 29.3771 47.4877 29.1772 47.3505 28.985C47.1961 28.7696 47.0358 28.5465 47.0219 28.3007C47.0069 28.0617 47.1392 27.8221 47.2656 27.5942C47.3824 27.3854 47.5021 27.1661 47.4706 27.0032C47.4411 26.846 47.2529 26.6931 47.0685 26.5422C46.862 26.3729 46.6497 26.1959 46.5723 25.9615C46.4948 25.7271 46.5626 25.4575 46.6247 25.1994C46.6809 24.9722 46.74 24.7344 46.6729 24.5896C46.6011 24.44 46.3752 24.3381 46.1561 24.2372C45.9187 24.1294 45.6698 24.0159 45.5394 23.815C45.4041 23.6094 45.3998 23.3347 45.3955 23.0697C45.3911 22.8336 45.3868 22.5879 45.2822 22.4651C45.1737 22.3405 44.9295 22.2992 44.6958 22.2609C44.4352 22.2186 44.1679 22.1754 43.9864 22.0138C43.8049 21.8523 43.7275 21.589 43.6558 21.3334C43.5899 21.1048 43.521 20.8676 43.3885 20.7765C43.253 20.6865 43.0077 20.7098 42.772 20.7331C42.5084 20.7593 42.238 20.7844 42.0199 20.6767C41.8046 20.5681 41.6627 20.3325 41.5265 20.1047C41.4047 19.901 41.2772 19.6895 41.1244 19.6341C40.9725 19.5816 40.7415 19.6676 40.5191 19.7507C40.2708 19.8424 40.0147 19.9399 39.7772 19.89C39.5397 19.84 39.3458 19.6505 39.1566 19.4659C38.9857 19.2977 38.8071 19.1256 38.6436 19.1154C38.483 19.1043 38.2836 19.2472 38.0919 19.3844C37.8771 19.5389 37.6546 19.6991 37.4093 19.7127C37.1707 19.7274 36.9315 19.5946 36.7037 19.4676C36.4952 19.3504 36.2761 19.2302 36.1135 19.2614C35.9567 19.2908 35.8043 19.4792 35.6539 19.6637C35.4852 19.8704 35.3097 20.0857 35.0758 20.163C34.842 20.2403 34.5727 20.1719 34.3141 20.1065C34.0872 20.0499 33.8497 19.9904 33.7053 20.0574C33.5561 20.1292 33.4547 20.3553 33.3542 20.5747C33.247 20.8123 33.134 21.0616 32.9337 21.192C32.7285 21.3272 32.4544 21.3311 32.1898 21.3351C31.9542 21.3391 31.7089 21.3432 31.5865 21.4478C31.4622 21.5563 31.4214 21.8009 31.3834 22.035C31.3415 22.296 31.2987 22.5637 31.1377 22.7453C30.9768 22.9269 30.7131 23.0013 30.459 23.0756C30.2309 23.1414 29.9941 23.21 29.9034 23.3427C29.8137 23.4782 29.8373 23.724 29.8609 23.9602C29.8874 24.2243 29.9128 24.4952 29.8056 24.7136C29.6985 24.932 29.4625 25.071 29.2353 25.2071C29.0321 25.3288 28.8212 25.4563 28.7661 25.6093C28.7138 25.7614 28.8 25.9929 28.8832 26.2158C28.9751 26.4647 29.0727 26.7214 29.0232 26.9592C28.9737 27.1971 28.7848 27.3911 28.6007 27.5804C28.4331 27.7513 28.2615 27.93 28.2516 28.0938C28.2407 28.2547 28.3836 28.4546 28.5208 28.6468C28.6753 28.8622 28.8355 29.0853 28.8495 29.3311C28.8644 29.5701 28.7322 29.8097 28.6057 30.0376C28.489 30.2464 28.3693 30.4657 28.4007 30.6286C28.4302 30.7858 28.6185 30.9387 28.8029 31.0896C29.0094 31.2589 29.2216 31.4359 29.2991 31.6703C29.3766 31.9047 29.3087 32.1743 29.2467 32.4324C29.1905 32.6596 29.1313 32.8974 29.1984 33.0422C29.2703 33.1918 29.4971 33.2966 29.7152 33.3946C29.9526 33.5024 30.2016 33.6159 30.332 33.8168C30.4672 34.0224 30.4715 34.2971 30.4758 34.5621C30.4802 34.7982 30.4846 35.0439 30.5892 35.1667C30.6976 35.2913 30.9419 35.3326 31.1756 35.3709C31.4361 35.4132 31.7035 35.4564 31.885 35.6179C32.0665 35.7795 32.1439 36.0428 32.2156 36.2984C32.2815 36.527 32.3503 36.7642 32.4829 36.8552C32.6193 36.9482 32.8637 36.922 33.0994 36.8987C33.363 36.8725 33.6333 36.8474 33.8515 36.955C34.0696 37.0627 34.2087 37.2992 34.3448 37.5271C34.4666 37.7308 34.5941 37.9423 34.747 37.9977C34.8989 38.0502 35.1299 37.9642 35.3522 37.8811C35.5996 37.7865 35.8566 37.6919 36.0941 37.7418C36.3316 37.7917 36.5256 37.9812 36.7147 38.1659C36.8856 38.3341 37.0642 38.5062 37.2277 38.5164C37.3884 38.5275 37.5849 38.3855 37.7794 38.2474C37.9403 38.1332 38.1059 38.0143 38.2821 37.9561Z" fill="#4A5161"/>
<path d="M34.0362 33.2404C33.9265 33.2766 33.7986 33.2483 33.7161 33.1536C33.3417 32.738 33.0155 32.2744 32.7481 31.7754C31.1052 28.6942 32.0664 24.9642 34.8867 23.4575C37.707 21.9508 41.3367 23.2325 42.9796 26.3137C43.0736 26.4913 43.1627 26.6737 43.2393 26.857C43.3063 27.0114 43.2339 27.1895 43.0798 27.2564C42.922 27.3215 42.748 27.2505 42.6809 27.0962C42.6101 26.9302 42.5296 26.7642 42.4433 26.6001C40.9595 23.8162 37.6999 22.6465 35.1733 23.9951C32.6496 25.3428 31.8006 28.7051 33.2844 31.489C33.5279 31.9446 33.8253 32.3695 34.1641 32.7455C34.2765 32.8721 34.2694 33.0638 34.1431 33.1762C34.1152 33.2079 34.0767 33.227 34.0362 33.2404Z" fill="white"/>
<path d="M34.0844 33.3853C33.914 33.4416 33.7246 33.3919 33.6037 33.2585C33.2197 32.8333 32.8868 32.3591 32.6156 31.8484C31.8047 30.3252 31.5828 28.5977 31.9995 26.9898C32.4142 25.3761 33.4151 24.0726 34.818 23.3265C36.22 22.5774 37.8564 22.4699 39.4271 23.0262C40.994 23.5805 42.3039 24.7237 43.1148 26.2469C43.2097 26.4274 43.3007 26.6156 43.3811 26.8009C43.4798 27.0315 43.3735 27.301 43.1405 27.4005C42.9017 27.5018 42.6413 27.3921 42.5417 27.1586C42.4727 26.9984 42.3961 26.8343 42.3117 26.676C40.8691 23.9684 37.6989 22.8269 35.2484 24.1344C32.7979 25.4419 31.9789 28.7107 33.4225 31.4213C33.6602 31.8691 33.9499 32.2806 34.283 32.6488C34.451 32.8372 34.437 33.1244 34.2529 33.2943C34.2019 33.3337 34.145 33.3653 34.0844 33.3853ZM35.7791 23.2399C35.499 23.3325 35.2237 23.4492 34.9599 23.5909C33.634 24.2988 32.6871 25.533 32.2927 27.063C31.8974 28.5997 32.1088 30.2472 32.8842 31.7019C33.1449 32.1903 33.4625 32.6471 33.8301 33.0521C33.8848 33.111 33.9839 33.12 34.0446 33.0614C34.1063 33.0057 34.1122 32.9075 34.0537 32.8466C33.7052 32.461 33.4011 32.0254 33.1509 31.5591C31.6269 28.7019 32.5029 25.2472 35.0998 23.8593C37.6977 22.4742 41.0525 23.6703 42.5736 26.5285C42.6637 26.6945 42.7433 26.8673 42.8151 27.0361C42.8476 27.1153 42.9351 27.1473 43.0179 27.1168C43.0545 27.1015 43.0834 27.0727 43.096 27.0332C43.1124 26.9957 43.1115 26.9542 43.0962 26.9175C43.0215 26.74 42.9333 26.5605 42.8413 26.3887C42.0649 24.9311 40.8136 23.8391 39.3198 23.312C38.1326 22.889 36.9024 22.8687 35.7791 23.2399Z" fill="#263238"/>
<path d="M67.1668 68.494C67.1668 68.494 77.9462 61.7341 80.454 57.0532C80.454 57.0532 81.2116 62.9019 84.0941 65.1593C86.9765 67.4168 97.1881 72.5356 99.0464 73.6324C100.905 74.7292 104.625 77.5251 105.361 77.1758C106.101 76.8255 107.07 72.6532 107.423 71.4642C107.777 70.2782 108.747 69.2772 108.399 67.5753C108.05 65.8705 107.054 66.0937 106.83 66.7039C106.605 67.3142 105.114 69.4795 103.991 70.2776C102.868 71.0757 101.663 71.9747 101.663 71.9747C101.663 71.9747 97.2595 68.8269 93.3551 64.7661C89.4507 60.7053 84.0535 52.4384 82.6791 50.8574C81.3026 49.2804 79.9563 49.0833 78.5126 49.5605C77.0688 50.0377 72.4488 51.5646 65.543 57.805C58.6373 64.0454 60.0738 67.4227 61.2599 68.4239C62.444 69.4289 64.721 69.8544 67.1668 68.494Z" fill="#4592D0"/>
<path d="M105.385 77.3347C104.784 77.5332 103.205 76.5336 100.885 74.9988C100.171 74.5253 99.4945 74.0779 98.9699 73.7698C98.4453 73.4617 97.2527 72.8286 95.7421 72.0278C91.8945 69.9899 86.0788 66.9107 84.0041 65.2851C81.5328 63.3509 80.6109 58.9239 80.3712 57.5104C77.5364 62.1421 67.6757 68.3576 67.2491 68.627C67.2462 68.628 67.2433 68.6289 67.2414 68.6328C64.7484 70.0153 62.3935 69.5866 61.1632 68.5486C60.8568 68.2904 60.1436 67.5374 60.1174 66.1208C60.0887 64.5028 60.9904 61.7266 65.4439 57.6994C72.3737 51.435 76.9591 49.9195 78.4664 49.4214C80.1383 48.8688 81.5159 49.2963 82.7954 50.7642C83.259 51.2947 84.1618 52.5628 85.3073 54.1681C87.6539 57.4596 90.8688 61.9634 93.4666 64.668C97.011 68.3566 101.018 71.3211 101.663 71.7915C101.964 71.567 102.967 70.8243 103.904 70.1586C105.005 69.3739 106.478 67.2211 106.688 66.6542C106.817 66.3067 107.143 66.0832 107.485 66.1084C107.721 66.1265 108.295 66.3028 108.551 67.5505C108.805 68.7954 108.394 69.6633 107.994 70.4984C107.83 70.8448 107.674 71.169 107.571 71.5146C107.504 71.739 107.413 72.074 107.306 72.4687C106.665 74.8603 106.037 77.0294 105.427 77.3175C105.414 77.3251 105.399 77.3299 105.385 77.3347ZM80.4069 56.9112C80.43 56.9035 80.4579 56.9007 80.482 56.9056C80.5464 56.9164 80.5963 56.9705 80.6049 57.0351C80.6115 57.0939 81.3894 62.8493 84.1864 65.0419C86.2399 66.652 92.0402 69.7234 95.8802 71.7574C97.3946 72.5602 98.5939 73.1943 99.1233 73.5072C99.6528 73.8202 100.333 74.2695 101.051 74.7449C102.563 75.7443 104.852 77.2539 105.298 77.0424C105.832 76.7888 106.63 73.8157 107.014 72.3888C107.123 71.9902 107.213 71.6523 107.279 71.4279C107.389 71.0612 107.558 70.71 107.718 70.3713C108.097 69.5785 108.486 68.7597 108.251 67.6141C108.102 66.89 107.806 66.4419 107.461 66.4148C107.257 66.3987 107.055 66.5426 106.974 66.762C106.748 67.3694 105.246 69.577 104.082 70.4078C102.972 71.1982 101.769 72.0934 101.757 72.104C101.703 72.1443 101.633 72.145 101.578 72.1053C101.533 72.0753 97.1178 68.9023 93.2479 64.8783C90.6327 62.1602 87.4131 57.642 85.0587 54.3465C83.919 52.749 83.0181 51.4866 82.5641 50.9658C81.3576 49.5829 80.1242 49.1945 78.5592 49.7117C77.0663 50.2051 72.5271 51.7053 65.6436 57.9256C61.2729 61.874 60.3887 64.5577 60.4165 66.115C60.4391 67.4044 61.0794 68.082 61.3551 68.3151C62.5056 69.2863 64.7201 69.6779 67.086 68.3663C67.3297 68.2119 77.8722 61.5496 80.3193 56.9851C80.3395 56.9495 80.3723 56.9226 80.4069 56.9112ZM67.1675 68.4967L67.1704 68.4957L67.1675 68.4967Z" fill="#263238"/>
<path d="M108.401 67.5777C108.052 65.8729 107.056 66.0962 106.832 66.7064C106.607 67.3166 105.116 69.4819 103.993 70.28C102.87 71.0781 101.665 71.9772 101.665 71.9772C101.665 71.9772 98.2345 69.5253 94.7453 66.1587C94.2481 68.1046 93.2088 69.3597 92.4082 70.077C95.388 71.6795 98.1643 73.1117 99.0482 73.6349C100.907 74.7317 104.627 77.5276 105.363 77.1782C106.103 76.8279 107.071 72.6556 107.425 71.4667C107.782 70.2797 108.752 69.2816 108.401 67.5777Z" fill="#FEDEA5"/>
<path d="M105.385 77.3344C104.784 77.5329 103.205 76.5333 100.885 74.9985C100.171 74.525 99.4947 74.0776 98.97 73.7695C98.4454 73.4614 97.249 72.8263 95.7346 72.0236C94.7093 71.4797 93.5378 70.8621 92.3367 70.2126C92.2934 70.1884 92.2637 70.1468 92.2571 70.0977C92.2504 70.0485 92.2697 70.0004 92.3064 69.9658C93.0791 69.2706 94.1078 68.0415 94.5981 66.1235C94.6126 66.0705 94.6541 66.0312 94.7032 66.0149C94.7561 66.0007 94.8119 66.0143 94.8503 66.053C97.9814 69.0725 101.098 71.3808 101.66 71.7921C101.961 71.5676 102.965 70.825 103.901 70.1592C105.003 69.3745 106.476 67.2217 106.685 66.6548C106.814 66.3073 107.141 66.0839 107.482 66.109C107.719 66.1272 108.292 66.3034 108.548 67.5512C108.802 68.796 108.391 69.6639 107.991 70.4991C107.827 70.8454 107.672 71.1697 107.568 71.5153C107.501 71.7396 107.41 72.0746 107.304 72.4694C106.662 74.861 106.034 77.03 105.425 77.3181C105.414 77.3248 105.399 77.3296 105.385 77.3344ZM92.6689 70.045C93.8056 70.6548 94.905 71.2385 95.8784 71.7513C97.3967 72.556 98.596 73.1901 99.1254 73.5031C99.6548 73.816 100.335 74.2653 101.053 74.7408C102.565 75.7401 104.854 77.2498 105.3 77.0383C105.834 76.7846 106.633 73.8115 107.016 72.3846C107.125 71.986 107.215 71.6481 107.282 71.4238C107.391 71.057 107.56 70.7058 107.72 70.3671C108.099 69.5743 108.488 68.7555 108.253 67.61C108.104 66.8858 107.808 66.4377 107.463 66.4106C107.259 66.3945 107.057 66.5384 106.976 66.7579C106.75 67.3652 105.248 69.5729 104.084 70.4036C102.975 71.1941 101.771 72.0893 101.759 72.0998C101.705 72.1401 101.635 72.1409 101.58 72.1012C101.546 72.077 98.2245 69.6919 94.8293 66.4451C94.3278 68.1742 93.4147 69.3363 92.6689 70.045Z" fill="#263238"/>
<path d="M40.2481 36.4881C40.2481 36.4881 42.3794 38.6824 42.8011 39.4836C43.2228 40.2847 42.3989 41.106 41.4811 41.6436C40.5634 42.1813 38.8263 42.1294 37.8592 44.4072C36.892 46.685 35.6314 55.6437 35.4624 57.0317C35.2962 58.4188 36.1864 59.2224 37.6433 58.4264C39.1002 57.6303 41.4371 50.7459 41.4371 50.7459C41.4371 50.7459 48.6611 55.3339 49.7391 56.4638C50.8182 57.5967 51.3515 59.9275 51.9838 62.3058C52.6133 64.6851 53.381 68.1904 56.4052 70.2468C59.4294 72.3033 64.1277 71.614 67.1636 68.492C70.1976 65.3738 71.9795 57.4788 69.3286 55.3792C66.6796 53.2757 62.2827 53.2587 60.2436 51.1109C58.2046 48.9632 58.1556 47.4193 57.2919 44.8061C56.4282 42.1928 54.7374 39.0151 54.7374 39.0151C54.7374 39.0151 60.3229 35.564 67.0298 32.2784C69.3617 31.1354 66.9179 28.8678 65.3222 28.7692C63.3207 28.6442 55.7643 32.0533 53.5635 32.556C50.3868 33.2849 49.0274 34.4436 48.4864 35.1713C47.9454 35.899 47.2634 36.9077 46.4637 37.095C45.664 37.2822 43.5593 33.7438 43.5593 33.7438C43.5593 33.7438 42.0793 36.1172 40.2481 36.4881Z" fill="#F37630"/>
<path d="M63.297 71.0885C60.8744 71.8892 58.268 71.6977 56.3216 70.3732C53.4175 68.399 52.5666 65.1363 51.9449 62.7513L51.6755 61.7232C51.1178 59.5899 50.5887 57.5722 49.6325 56.5689C48.6696 55.555 42.5987 51.6646 41.5226 50.9769C41.1319 52.1012 39.0915 57.8089 37.7184 58.5581C36.9934 58.9518 36.3392 58.9979 35.88 58.6842C35.4294 58.3772 35.2218 57.7685 35.3137 57.0095C35.4593 55.7929 36.7327 46.6695 37.7192 44.3436C38.468 42.5777 39.6548 42.1662 40.6058 41.8359C40.9051 41.7337 41.1833 41.6354 41.4038 41.5079C41.8141 41.2664 43.1181 40.4149 42.6657 39.55C42.2603 38.7788 40.1597 36.6097 40.1366 36.5884C40.0982 36.5497 40.0849 36.4899 40.0994 36.437C40.1168 36.3831 40.1583 36.3437 40.215 36.3313C41.9616 35.9756 43.4164 33.6811 43.4319 33.6599C43.4589 33.6157 43.5109 33.5889 43.5619 33.5881C43.6138 33.5902 43.6638 33.6154 43.6916 33.6608C44.6984 35.3503 45.9996 37.039 46.4317 36.9411C47.1072 36.7852 47.7283 35.9412 48.2288 35.2653L48.3677 35.075C48.8672 34.4059 50.1998 33.1662 53.5314 32.4021C54.3561 32.213 55.9954 31.591 57.731 30.9307C60.6967 29.806 64.0581 28.5314 65.3325 28.6077C66.4049 28.6738 67.9007 29.6914 68.117 30.782C68.2104 31.2487 68.1091 31.9113 67.0972 32.4063C61.0104 35.3874 55.789 38.5448 54.9386 39.0634C55.2616 39.6821 56.6753 42.4475 57.4366 44.751C57.626 45.324 57.7732 45.8372 57.9175 46.332C58.4221 48.0816 58.7862 49.348 60.3568 50.999C61.3936 52.0912 63.0605 52.6189 64.8246 53.1786C66.4531 53.6965 68.1344 54.229 69.4244 55.2536C70.1966 55.8651 70.6562 56.9844 70.7534 58.4899C70.9712 61.8624 69.4111 66.397 67.2734 68.593C66.141 69.7698 64.7523 70.6075 63.297 71.0885ZM41.3925 50.6026C41.4358 50.5883 41.4829 50.5952 41.5223 50.6175C41.8182 50.8054 48.7732 55.2286 49.8522 56.3615C50.8631 57.4238 51.4008 59.4771 51.9691 61.6519L52.2384 62.68C52.8477 65.0178 53.6833 68.2149 56.4924 70.1242C59.4878 72.1613 64.1295 71.3976 67.0564 68.3918C69.1083 66.2852 70.6607 61.766 70.4503 58.5227C70.3568 57.1059 69.9384 56.0628 69.2354 55.5055C67.9896 54.5176 66.3332 53.9929 64.7336 53.4848C62.9301 52.9123 61.2266 52.3711 60.1361 51.2228C58.5156 49.5177 58.1228 48.1549 57.6258 46.4284C57.4825 45.9365 57.3363 45.4262 57.1488 44.859C56.2985 42.2863 54.6221 39.1231 54.6058 39.0932C54.5694 39.0217 54.5916 38.9341 54.661 38.8919C54.7168 38.8574 60.3293 35.4006 66.9669 32.1476C67.6399 31.8192 67.9283 31.3836 67.8244 30.8562C67.6348 29.9045 66.2648 28.9866 65.3194 28.9267C64.1095 28.8515 60.6345 30.1701 57.843 31.2307C56.0217 31.9225 54.4479 32.5197 53.602 32.7126C50.3628 33.4558 49.087 34.635 48.6116 35.2704L48.4718 35.4579C47.9433 36.175 47.2866 37.0662 46.5013 37.2487C45.7132 37.4322 44.1009 34.9283 43.5553 34.0332C43.1675 34.5948 41.9968 36.1405 40.5358 36.5752C41.0658 37.132 42.5758 38.7355 42.9324 39.417C43.3225 40.1612 42.8101 41.0432 41.5543 41.7792C41.3098 41.921 41.0142 42.0251 40.7043 42.134C39.8072 42.4433 38.6926 42.8309 37.996 44.4736C37.0221 46.7697 35.7583 55.8449 35.6108 57.0557C35.5336 57.6944 35.6914 58.2008 36.0459 58.4399C36.409 58.6859 36.9497 58.6356 37.5689 58.2993C38.682 57.6939 40.4894 53.0647 41.2913 50.7035C41.3126 50.6515 41.3463 50.6179 41.3925 50.6026Z" fill="#263238"/>
<path d="M56.8761 31.4251C56.6798 31.4996 56.4863 31.5732 56.2976 31.6419C56.6627 32.8823 57.4891 34.8498 59.262 36.3761C59.4459 36.2736 59.6375 36.1653 59.8291 36.0571C58.0523 34.6059 57.2307 32.624 56.8761 31.4251Z" fill="#263238"/>
<path d="M59.4445 50.1576C59.3188 49.9905 59.2027 49.8234 59.0972 49.6592C55.0497 52.0755 52.291 56.1331 50.9052 58.559C50.997 58.8079 51.0822 59.0654 51.1682 59.3355C52.4124 57.0528 55.2121 52.6638 59.4445 50.1576Z" fill="#263238"/>
<path d="M48.9174 55.7717C49.1056 55.9149 49.2747 56.0484 49.412 56.1635C50.2887 54.4453 52.6862 50.6033 57.9537 46.9941C57.8935 46.7925 57.8333 46.5813 57.7731 46.3701C52.3487 50.0183 49.8712 53.9091 48.9174 55.7717Z" fill="#263238"/>
<path d="M41.4361 47.5449C42.4354 47.0895 47.1302 44.7032 52.7792 37.684C53.7067 38.6005 54.4895 39.2053 54.5587 39.2595C54.6403 39.3224 54.748 39.3382 54.8404 39.3076C54.8549 39.3028 54.8712 39.2942 54.8847 39.2866C54.7965 39.1167 54.7448 39.0182 54.7448 39.0182C54.7448 39.0182 54.8353 38.9626 55.0029 38.8591C54.9827 38.8272 54.9607 38.7992 54.9299 38.7741C54.8954 38.747 51.6373 36.2349 50.5255 33.6074C50.3329 33.7031 50.1509 33.8018 49.9882 33.9005C50.2113 34.411 50.5028 34.9149 50.8338 35.393C46.7156 41.1519 41.6193 43.7382 40.2195 44.3678C39.8265 43.6631 39.4302 43.1135 39.1174 42.729C38.9613 42.848 38.8072 42.9824 38.6587 43.1438C38.9274 43.4819 39.267 43.9571 39.6093 44.5566C39.1299 44.2593 38.6021 44.0677 38.0868 43.9427C38.0096 44.087 37.9314 44.2381 37.8618 44.4055C37.8473 44.4392 37.8338 44.4758 37.8193 44.5094C38.7798 44.7216 39.7947 45.1855 40.3672 46.1616C40.5682 46.6826 40.7451 47.2565 40.8776 47.8804C40.2113 47.2211 39.0354 46.4059 37.2781 46.3704C37.2325 46.562 37.1869 46.7633 37.1423 46.9674C39.8097 46.9461 40.9603 48.8963 41.0274 49.0122C41.0409 49.0334 41.0562 49.0508 41.0745 49.0673C41.1114 49.4018 41.1348 49.7439 41.1408 50.1015C40.3685 49.5381 38.7821 48.6436 36.7559 48.8607C36.718 49.0658 36.6772 49.2719 36.6403 49.4799C39.0188 49.1271 40.7284 50.501 41.1355 50.8704C41.1293 51.1325 41.1269 51.3869 41.1235 51.6384C41.3236 51.0907 41.4417 50.7403 41.4417 50.7403C41.4417 50.7403 41.5512 50.8101 41.7414 50.9302C41.7435 50.8685 41.7436 50.8107 41.7456 50.749C41.7824 49.5716 41.6556 48.4996 41.4361 47.5449ZM51.2041 35.9126C51.5706 36.3918 51.9622 36.8401 52.3491 37.2451C46.9806 43.9309 42.3954 46.4061 41.2785 46.9422C41.1992 46.6634 41.1112 46.3972 41.0203 46.1415C41.0175 46.1039 41.007 46.0625 40.9888 46.0268C40.9811 46.0132 40.9735 45.9997 40.9648 45.9833C40.8184 45.5984 40.6613 45.2394 40.4984 44.9112C41.9955 44.227 47.0677 41.6165 51.2041 35.9126Z" fill="#263238"/>
<path d="M61.7759 52.2018C61.5712 52.0961 61.3752 51.9876 61.1879 51.8665C56.638 54.9625 53.6165 59.1359 51.9123 62.0232C51.9372 62.1177 51.962 62.2122 51.9868 62.3067C52.0326 62.4842 52.0814 62.6703 52.1301 62.8565C53.7582 59.9814 56.8824 55.4403 61.7759 52.2018Z" fill="#263238"/>
<path d="M57.0849 44.1995C57.016 44.0105 56.9432 43.8194 56.8705 43.6284C49.5912 46.4708 47.1962 51.4836 46.4268 54.0106C46.6045 54.1317 46.7784 54.2507 46.9513 54.3669C47.6098 52.0467 49.8296 47.0372 57.0849 44.1995Z" fill="#263238"/>
<path d="M60.6783 30.0011C60.481 30.0728 60.2837 30.1444 60.0835 30.217C60.3196 31.5032 60.883 33.1981 62.1815 34.7721C62.3635 34.6734 62.5493 34.5767 62.7371 34.4761C61.4404 32.9369 60.9001 31.244 60.6783 30.0011Z" fill="#263238"/>
<path d="M52.7956 32.7543C53.4952 34.1538 54.7312 36.2267 56.5643 37.9257C56.7386 37.8231 56.9235 37.7139 57.117 37.6018C55.3415 35.9993 54.114 33.9814 53.4029 32.5953C53.196 32.6477 52.992 32.699 52.7956 32.7543Z" fill="#263238"/>
<path d="M55.789 41.1319C55.6989 40.937 55.6098 40.7546 55.5264 40.5799C47.4701 44.3661 44.4365 49.3267 43.3446 51.9732C43.5165 52.0865 43.6952 52.2008 43.8797 52.3228C44.9136 49.8207 47.8673 44.8704 55.789 41.1319Z" fill="#263238"/>
<path d="M67.1673 68.4938C69.678 65.9146 71.329 60.0658 70.323 56.9347C70.1077 56.351 69.794 55.8672 69.3714 55.5286C69.0141 55.2422 68.627 54.9528 68.2226 54.6595C66.9215 53.9596 65.3996 53.5413 63.9768 53.0742C58.4018 57.5843 54.8987 64.1094 53.4356 66.6795C54.0805 68.0104 54.9958 69.2872 56.4089 70.2487C59.4331 72.3051 64.1315 71.6158 67.1673 68.4938Z" fill="#4592D0"/>
<path d="M63.2969 71.0887C60.8742 71.8893 58.2678 71.6979 56.3215 70.3734C55.0495 69.5097 54.0581 68.3222 53.2964 66.7442C53.2753 66.6999 53.2764 66.6449 53.3005 66.6016L53.5736 66.1198C55.2066 63.2303 58.6019 57.2224 63.8793 52.9551C63.9197 52.9224 63.9707 52.912 64.0217 52.9305C64.2841 53.0171 64.5485 53.0998 64.8167 53.1845C65.9982 53.5613 67.222 53.9497 68.2934 54.5265C68.7564 54.8614 69.1349 55.144 69.4634 55.411C69.8908 55.7545 70.2275 56.2499 70.4619 56.8818C71.4737 60.0304 69.862 65.9399 67.2733 68.6028C66.1408 69.7699 64.7522 70.6077 63.2969 71.0887ZM53.6062 66.6836C54.3393 68.1747 55.2846 69.3004 56.4941 70.1205C59.4896 72.1576 64.1312 71.3939 67.0582 68.3882C69.5852 65.7906 71.1582 60.0351 70.177 56.9792C69.9646 56.4042 69.6595 55.9561 69.2753 55.6465C68.9488 55.3853 68.5771 55.1036 68.1342 54.7813C67.1022 54.2268 65.8957 53.8423 64.7258 53.4714C64.4854 53.3935 64.246 53.3186 64.0086 53.2397C58.814 57.4669 55.4573 63.4074 53.8427 66.2652L53.6062 66.6836Z" fill="#4592D0"/>
<path d="M34.0542 32.0531C33.932 32.1 33.8184 32.1632 33.7143 32.2457C32.8705 32.9002 32.9599 34.4308 33.9157 35.6653C34.8685 36.9009 36.3249 37.3729 37.1697 36.7214C37.3479 36.5822 37.482 36.4063 37.5776 36.2013L34.0542 32.0531Z" fill="white"/>
<path d="M36.8056 37.0832C36.4331 37.2063 35.9974 37.1963 35.535 37.0473C34.8928 36.839 34.2742 36.3822 33.7925 35.7582C33.3117 35.137 33.0274 34.422 32.9863 33.7455C32.9444 33.0467 33.1705 32.4712 33.6194 32.1238C33.7341 32.0345 33.8612 31.9636 33.9979 31.912C34.0585 31.892 34.1268 31.9047 34.169 31.955L37.6885 36.1012C37.726 36.1466 37.7345 36.2112 37.7103 36.2642C37.5993 36.4999 37.4489 36.6941 37.26 36.8399C37.1223 36.9464 36.9702 37.0288 36.8056 37.0832ZM34.0126 32.2378C33.9385 32.2751 33.8721 32.3163 33.8085 32.3663C33.4415 32.6513 33.2587 33.1354 33.2942 33.7272C33.3305 34.3411 33.5958 34.9982 34.0381 35.5711C34.4805 36.1439 35.0491 36.5659 35.6336 36.7547C36.1998 36.9367 36.7136 36.8825 37.0777 36.5984C37.2049 36.4986 37.3138 36.3727 37.3978 36.2198L34.0126 32.2378Z" fill="#263238"/>
<path d="M34.0543 32.0536C33.932 32.1004 33.8184 32.1637 33.7144 32.2462C33.6171 32.3201 33.5342 32.4085 33.4638 32.5056L37.1178 36.7583C37.1361 36.7458 37.1553 36.7362 37.1727 36.7208C37.3509 36.5817 37.4849 36.4058 37.5805 36.2008L34.0543 32.0536Z" fill="white"/>
<path d="M37.1766 36.8891C37.116 36.9092 37.0371 36.9031 36.9987 36.8548L33.3447 32.6022C33.2977 32.5471 33.294 32.468 33.3393 32.4113C33.4242 32.2998 33.5167 32.2018 33.6188 32.1231C33.7334 32.0339 33.8605 31.963 33.9972 31.9114C34.0579 31.8914 34.1261 31.9041 34.1684 31.9544L37.6879 36.1006C37.7253 36.146 37.7339 36.2106 37.7097 36.2635C37.5986 36.4993 37.4482 36.6934 37.2594 36.8393C37.244 36.8508 37.2305 36.8585 37.2151 36.87C37.2016 36.8777 37.191 36.8844 37.1766 36.8891ZM33.6604 32.501L37.1339 36.5469C37.2399 36.4509 37.3238 36.3461 37.3914 36.2211L34.0091 32.2381C33.935 32.2755 33.8685 32.3167 33.8049 32.3666C33.7539 32.4059 33.7048 32.4511 33.6604 32.501Z" fill="#263238"/>
<path d="M41.794 26.2699C41.8712 26.1642 41.9608 26.0671 42.0658 25.9875C42.9097 25.333 44.3661 25.805 45.319 27.0406C46.2747 28.2752 46.3642 29.8057 45.5232 30.4592C45.345 30.5984 45.139 30.6825 44.9186 30.7232L41.794 26.2699Z" fill="white"/>
<path d="M45.1668 30.8172C45.0946 30.8411 45.0205 30.8592 44.9425 30.8753C44.8848 30.8848 44.8261 30.8624 44.7907 30.8131L41.6661 26.3598C41.6296 26.3076 41.6288 26.2373 41.6655 26.1835C41.7503 26.0623 41.8535 25.9576 41.9681 25.8684C42.8765 25.1669 44.432 25.6479 45.4357 26.9501C45.9164 27.5713 46.2036 28.2853 46.2418 28.9628C46.2838 29.6616 46.0605 30.2362 45.6116 30.5836C45.4815 30.6843 45.3342 30.7619 45.1668 30.8172ZM44.9806 30.5545C45.149 30.5117 45.2983 30.4399 45.4254 30.3401C45.7925 30.0551 45.9752 29.571 45.9397 28.9792C45.9024 28.3624 45.6382 27.7082 45.1958 27.1353C44.2948 25.9693 42.9288 25.5091 42.1533 26.1089C42.0897 26.1588 42.0309 26.2135 41.9779 26.276L44.9806 30.5545Z" fill="#263238"/>
<path d="M45.1669 30.8176C45.0947 30.8415 45.0206 30.8596 44.9427 30.8757C44.8849 30.8851 44.8263 30.8628 44.7908 30.8135L41.6662 26.3602C41.6298 26.308 41.629 26.2377 41.6656 26.1838C41.7505 26.0627 41.8536 25.958 41.9682 25.8687C42.0704 25.7901 42.1859 25.723 42.3159 25.6704C42.3833 25.6417 42.4582 25.6651 42.5005 25.7249L45.6921 30.3327C45.7362 30.3983 45.7264 30.485 45.6657 30.534C45.6387 30.559 45.6272 30.5724 45.6108 30.581C45.4817 30.6847 45.3344 30.7623 45.1669 30.8176ZM44.9808 30.5549C45.1232 30.5207 45.2484 30.4633 45.3611 30.3875L42.3229 26.0019C42.2632 26.0345 42.2045 26.0699 42.1534 26.1093C42.0899 26.1592 42.0311 26.2139 41.9781 26.2764L44.9808 30.5549Z" fill="#263238"/>
<path d="M47.7975 36.0827C47.4013 36.5604 46.9571 36.9801 46.4692 37.0932C45.6695 37.2804 43.5647 33.7419 43.5647 33.7419C43.5647 33.7419 42.0809 36.1135 40.2496 36.4844C40.2496 36.4844 42.381 38.6787 42.8027 39.4798C43.1449 40.1275 42.6684 40.789 41.9893 41.3023C42.7138 42.2635 44.7279 44.3456 47.5891 42.5557C50.0902 40.994 48.8234 37.8687 47.7975 36.0827Z" fill="#FEDEA5"/>
<path d="M46.556 43.2204C44.1854 44.0039 42.5245 42.2737 41.8634 41.3975C41.8394 41.3637 41.8299 41.3251 41.8329 41.2856C41.8387 41.2452 41.859 41.2096 41.8927 41.1856C42.3281 40.8555 43.0074 40.2073 42.6634 39.5538C42.2579 38.7825 40.1573 36.6134 40.1343 36.5921C40.0959 36.5535 40.0825 36.4937 40.0971 36.4407C40.1145 36.3868 40.1559 36.3474 40.2127 36.3351C41.9592 35.9793 43.4141 33.6848 43.4295 33.6637C43.4566 33.6194 43.5085 33.5926 43.5595 33.5918C43.6115 33.5939 43.6614 33.6191 43.6892 33.6645C44.6961 35.3541 45.9972 37.0427 46.4293 36.9448C46.8066 36.8555 47.2054 36.5503 47.6749 35.9842C47.7067 35.9448 47.7548 35.9257 47.8039 35.9288C47.8529 35.9318 47.8981 35.9618 47.9221 36.0053C48.9499 37.7971 50.2856 41.044 47.6604 42.6853C47.2799 42.9298 46.9112 43.103 46.556 43.2204ZM42.2002 41.3312C42.9737 42.305 44.8692 44.0764 47.505 42.4285C49.8279 40.977 48.7271 38.0729 47.7723 36.3469C47.4532 36.7091 47.0109 37.125 46.5019 37.2419C45.7137 37.4253 44.1015 34.9214 43.5558 34.0264C43.1681 34.5879 41.9974 36.1337 40.5364 36.5684C41.0663 37.1251 42.5764 38.7286 42.933 39.4101C43.2512 40.0144 42.9883 40.6919 42.2002 41.3312Z" fill="#FEDEA5"/>
<path d="M44.8998 35.7369C44.5687 35.2974 44.2512 34.8309 44.0095 34.4582C43.8425 34.2534 43.6775 34.0351 43.5153 33.8158C43.2607 34.1985 41.8978 36.1512 40.2437 36.4861C40.2437 36.4861 40.9637 37.2304 41.65 38.0083C42.3984 37.9857 43.4087 37.8251 44.0332 37.1853C44.4284 36.7819 44.7045 36.2508 44.8998 35.7369Z" fill="#263238"/>
<path d="M43.0655 37.9314C42.5862 38.0898 42.0791 38.1451 41.6578 38.1591C41.6135 38.1609 41.5684 38.1405 41.5386 38.1086C40.8619 37.3404 40.1428 36.599 40.1371 36.5912C40.0987 36.5526 40.0853 36.4928 40.0998 36.4398C40.1173 36.3859 40.1587 36.3465 40.2155 36.3342C41.8071 36.0136 43.1371 34.107 43.3899 33.7282C43.4178 33.6868 43.4641 33.6619 43.515 33.6611C43.566 33.6603 43.6121 33.6836 43.6409 33.7222C43.8108 33.955 43.9748 34.1704 44.1294 34.3569C44.442 34.8378 44.7471 35.2763 45.0206 35.6385C45.0532 35.6791 45.0588 35.735 45.0434 35.785C44.8036 36.4164 44.5026 36.9204 44.1489 37.2845C43.8453 37.5967 43.464 37.7997 43.0655 37.9314ZM41.7199 37.8529C42.4279 37.8243 43.3575 37.6616 43.927 37.0785C44.2374 36.7576 44.5075 36.3152 44.725 35.7619C44.393 35.3194 44.0832 34.8569 43.8799 34.5421C43.7685 34.4087 43.6457 34.2503 43.5191 34.0803C43.1024 34.6706 41.9549 36.1509 40.5344 36.5723C40.7869 36.8323 41.2601 37.3339 41.7199 37.8529Z" fill="#263238"/>
<path d="M33.9164 31.0555C33.9164 31.0555 36.3051 34.9688 37.3827 35.8645C38.4612 36.7632 41.4422 37.2643 42.6874 37.01C43.9326 36.7558 44.288 34.9916 44.5956 33.5577C44.9032 32.1238 44.7869 31.0644 43.9932 29.603C43.1966 28.1424 41.4644 25.9735 40.3161 24.8636C39.5719 24.1433 37.1252 23.96 35.3137 25.1077C33.5021 26.2553 32.8171 28.9117 33.9164 31.0555Z" fill="#FEDEA5"/>
<path d="M42.898 37.1138C42.8403 37.1329 42.7816 37.1491 42.7181 37.1604C41.3709 37.4355 38.3823 36.8921 37.2874 35.9827C36.2012 35.0802 33.8872 31.2963 33.7894 31.136C33.7884 31.1331 33.7846 31.1312 33.7827 31.1254C32.6671 28.9517 33.3187 26.194 35.2333 24.9802C37.1324 23.7779 39.6502 24.0115 40.4222 24.7579C41.5466 25.8437 43.3047 28.0233 44.1281 29.5359C44.9084 30.9665 45.0737 32.0675 44.7457 33.5948L44.7273 33.6747C44.4352 35.0392 44.0732 36.7254 42.898 37.1138ZM34.0484 30.9798C34.1453 31.1371 36.4488 34.8892 37.4783 35.7463C38.4906 36.5898 41.382 37.1205 42.6542 36.8605C43.7771 36.6338 44.1381 34.9544 44.4292 33.6063L44.4477 33.5264C44.764 32.0607 44.6101 31.0523 43.8604 29.6757C43.0514 28.1872 41.3182 26.0443 40.2112 24.9721C39.5246 24.3098 37.1472 24.1229 35.3973 25.2341C33.6098 26.3674 33.0067 28.9422 34.0484 30.9798Z" fill="#263238"/>
<path d="M39.1985 32.1346C39.1899 32.1375 39.1812 32.1403 39.1716 32.1403C39.0888 32.1516 39.013 32.0964 38.9987 32.0145C38.9968 31.999 38.9417 31.6288 39.201 31.3184C39.4151 31.0647 39.7683 30.9319 40.2493 30.9238C40.332 30.9221 40.4021 30.9889 40.4048 31.0746C40.4066 31.1575 40.3372 31.2286 40.2545 31.2303C39.8659 31.2367 39.5896 31.3312 39.4354 31.5138C39.2647 31.7147 39.297 31.9672 39.2979 31.9701C39.3122 32.0425 39.2678 32.1117 39.1985 32.1346Z" fill="#263238"/>
<path d="M40.1846 33.6731C39.4974 33.9002 38.8964 33.7875 38.8819 33.7826C38.7993 33.765 38.7475 33.6858 38.762 33.604C38.7795 33.5212 38.8585 33.4694 38.9402 33.4841C39.0296 33.5027 41.1509 33.893 41.7483 31.2816C41.7658 31.1988 41.8486 31.1489 41.9313 31.1665C42.014 31.1842 42.0639 31.2672 42.0464 31.35C41.7098 32.832 40.9007 33.4364 40.1846 33.6731Z" fill="#263238"/>
<path d="M37.0326 32.7122C36.7063 32.82 36.462 32.7788 36.4419 32.7758C36.2784 32.7464 36.1681 32.587 36.1963 32.4204C36.2254 32.2567 36.3815 32.1473 36.544 32.1739C36.5815 32.1807 37.2547 32.2503 37.7714 31.1294C37.8429 30.9774 38.0219 30.9086 38.1738 30.9803C38.3256 31.0521 38.3945 31.2316 38.3231 31.3836C37.929 32.2458 37.4224 32.5833 37.0326 32.7122Z" fill="#263238"/>
<path d="M40.7778 29.8567C40.4804 29.955 40.1821 29.9926 39.9513 29.9919C39.7849 29.9923 39.6466 29.855 39.6479 29.6845C39.6473 29.5178 39.7841 29.3794 39.9515 29.3819C40.0063 29.383 41.302 29.3689 41.3404 28.4092C41.3455 28.2406 41.4881 28.11 41.6564 28.1154C41.8248 28.1208 41.9553 28.2638 41.9502 28.4324C41.9188 29.2485 41.3524 29.6668 40.7778 29.8567Z" fill="#263238"/>
<path d="M35.6062 31.4402C35.5311 31.465 35.4484 31.4282 35.4178 31.3548C35.4034 31.3211 35.0654 30.5018 35.4313 29.8063C35.6543 29.3859 36.078 29.1078 36.6968 28.9836C36.7776 28.9665 36.8593 29.0198 36.8774 29.1037C36.8945 29.1847 36.8444 29.2655 36.7578 29.2844C36.2324 29.3907 35.877 29.6141 35.7003 29.9517C35.4011 30.5193 35.6941 31.2314 35.6969 31.2401C35.7295 31.3192 35.6947 31.4078 35.6158 31.4403C35.6148 31.4374 35.609 31.4393 35.6062 31.4402Z" fill="#263238"/>
<path d="M38.5264 27.968C38.4917 27.9795 38.4532 27.9793 38.4158 27.9628C38.3398 27.9269 38.3044 27.8391 38.3392 27.7602C38.345 27.7487 38.9515 26.4536 40.5793 26.8337C40.662 26.8513 40.7118 26.9343 40.6944 27.0171C40.6769 27.1 40.5941 27.1498 40.5114 27.1322C39.123 26.8078 38.6208 27.8758 38.615 27.8873C38.5967 27.9287 38.5639 27.9556 38.5264 27.968Z" fill="#263238"/>
<path d="M32.1062 33.8513C32.1062 33.8513 32.6195 36.1117 33.0168 36.6064C33.4141 37.101 36.0181 38.5934 36.5339 38.9718C37.0497 39.3503 37.142 39.3968 36.8812 40.9725C36.6205 42.5482 33.6416 53.1693 34.152 55.4307C34.6653 57.6911 35.46 59.6209 37.6448 58.4301C39.8325 57.2384 39.2307 50.9305 39.1212 47.2847C39.0116 43.639 38.6443 38.9806 38.3401 38.0603C38.0369 37.1429 34.3178 35.8329 33.9112 35.6688C33.5075 35.5037 32.9691 34.3494 32.7596 33.7156C32.5511 33.0751 32.1989 33.1916 32.1062 33.8513Z" fill="#FEDEA5"/>
<path d="M37.1292 58.8207C36.6268 58.9868 36.1766 58.9815 35.7845 58.8029C34.7821 58.3478 34.3222 56.8594 34.0065 55.4582C33.6182 53.7408 35.1759 47.4061 36.1065 43.622C36.4186 42.3472 36.6687 41.34 36.7329 40.9432C36.9761 39.4793 36.9175 39.4377 36.4641 39.1028C36.2826 38.9702 35.8877 38.7251 35.4284 38.4403C34.4292 37.8204 33.1821 37.0513 32.899 36.6986C32.4911 36.1914 32.0102 34.1161 31.9587 33.8828C31.9559 33.8645 31.953 33.8461 31.956 33.8259C32.0164 33.4079 32.1804 33.1579 32.4036 33.1355C32.5248 33.1243 32.7508 33.178 32.9095 33.6584C33.162 34.4224 33.6806 35.4002 33.9728 35.5187C34.0141 35.5372 34.0939 35.5654 34.2035 35.6062C36.9266 36.6355 38.2892 37.3953 38.4901 38.0031C38.8105 38.9725 39.17 43.6945 39.2787 47.2699C39.2942 47.7335 39.3134 48.2375 39.3384 48.7685C39.4979 52.4395 39.7145 57.4655 37.7223 58.5509C37.5152 58.6707 37.3169 58.7587 37.1292 58.8207ZM32.257 33.8452C32.4049 34.4865 32.827 36.1318 33.1312 36.5095C33.3817 36.8216 34.7066 37.642 35.5838 38.1835C36.0671 38.4829 36.4456 38.7173 36.6195 38.846C37.2189 39.2835 37.2859 39.4475 37.0281 40.9933C36.961 41.4007 36.7099 42.4146 36.3968 43.6962C35.474 47.4552 33.927 53.7447 34.299 55.3937C34.5833 56.6415 35.0191 58.125 35.9072 58.5248C36.3628 58.7306 36.9073 58.6533 37.5727 58.2922C39.3993 57.2968 39.1835 52.3797 39.0286 48.7907C39.0056 48.2558 38.9825 47.7498 38.9699 47.2853C38.8531 43.414 38.4767 38.9512 38.1965 38.1033C38.0836 37.7618 37.2788 37.1001 34.0914 35.8969C33.9808 35.8531 33.8972 35.823 33.853 35.8055C33.3609 35.6054 32.8053 34.3413 32.6121 33.7567C32.527 33.4991 32.4405 33.441 32.4213 33.441C32.403 33.4438 32.3086 33.5264 32.257 33.8452Z" fill="#263238"/>
<path d="M39.1222 47.2806C39.1114 46.9182 39.0976 46.5472 39.082 46.1703L35.6849 45.9802C34.8114 49.617 33.8411 54.0562 34.1531 55.4265C34.6663 57.6869 35.4611 59.6167 37.6459 58.426C39.8336 57.2342 39.2327 50.9292 39.1222 47.2806Z" fill="#F26F1F"/>
<path d="M37.1295 58.8211C36.627 58.9872 36.1769 58.9819 35.7848 58.8033C34.7823 58.3481 34.3225 56.8598 34.0067 55.4586C33.6824 54.0217 34.7262 49.3399 35.5415 45.9438C35.5599 45.8736 35.6235 45.8237 35.6985 45.8277L39.0947 46.015C39.1726 46.0182 39.235 46.081 39.2387 46.16C39.2544 46.5369 39.269 46.9108 39.2799 47.2732C39.2954 47.7367 39.3146 48.2407 39.3396 48.7718C39.4991 52.4428 39.7157 57.4688 37.7235 58.5542C37.5155 58.6711 37.3172 58.7591 37.1295 58.8211ZM35.8047 46.1393C35.002 49.496 33.994 54.0343 34.3021 55.393C34.5864 56.6409 35.0223 58.1244 35.9103 58.5242C36.3659 58.73 36.9105 58.6527 37.5758 58.2916C39.4024 57.2962 39.1866 52.3791 39.0318 48.7901C39.0087 48.2552 38.9856 47.7492 38.973 47.2847C38.964 46.9667 38.9531 46.6429 38.9373 46.3142L35.8047 46.1393Z" fill="#263238"/>
<path d="M35.0698 48.6456C35.065 48.6696 35.0601 48.6937 35.0553 48.7178C35.0427 48.7765 35.0291 48.8324 35.0165 48.8911C34.9883 49.0192 34.9631 49.1463 34.934 49.2715C35.7643 49.1961 37.2082 49.1266 39.2011 49.2351C39.1928 49.026 39.1836 48.8236 39.1753 48.6241C37.319 48.5218 35.9367 48.5742 35.0698 48.6456Z" fill="#263238"/>
<path d="M38.8312 56.6346C38.896 56.4141 38.9523 56.1772 39.0018 55.9298C37.0854 56.6049 35.5422 56.7232 34.49 56.6794C34.5627 56.8993 34.6412 57.1077 34.7254 57.3046C35.7527 57.3214 37.143 57.1861 38.8312 56.6346Z" fill="#263238"/>
<path d="M34.3199 52.4921C34.3101 52.5499 34.3004 52.6077 34.2936 52.6645C34.2848 52.7252 34.2741 52.7898 34.2653 52.8504C34.2507 52.9516 34.24 53.045 34.2273 53.1423C35.4023 52.8791 37.2294 52.622 39.2759 52.8733C39.2791 52.67 39.2815 52.4638 39.2809 52.2585C37.2959 52.0189 35.5295 52.2368 34.3199 52.4921Z" fill="#263238"/>
<path d="M43.5576 24.5418C43.5576 24.5418 45.7726 25.2157 46.2354 25.647C46.6992 26.0812 47.9975 28.7883 48.337 29.331C48.6765 29.8736 48.7177 29.9692 50.3061 29.823C51.8935 29.6739 62.6845 27.4557 64.8966 28.1306C67.1116 28.8045 68.9759 29.7356 67.633 31.8359C66.2901 33.9361 60.0531 32.8869 56.4293 32.5148C52.8056 32.1428 48.1936 31.4457 47.2997 31.0766C46.4058 30.7076 45.3674 26.8969 45.2335 26.4821C45.0996 26.0673 43.9878 25.4461 43.3688 25.1916C42.7556 24.9353 42.8977 24.5898 43.5576 24.5418Z" fill="#FEDEA5"/>
<path d="M66.3547 32.8832C64.2815 33.5684 60.6982 33.1541 57.9073 32.8309C57.3784 32.7714 56.8783 32.712 56.4177 32.6652C52.8641 32.3021 48.1876 31.6038 47.2457 31.2153C46.6555 30.9706 45.9926 29.5558 45.1648 26.7605C45.1314 26.6496 45.1075 26.5676 45.0931 26.5242C44.9965 26.2223 44.0588 25.6334 43.3168 25.3265C42.8497 25.1342 42.8116 24.9028 42.8301 24.7843C42.8652 24.5609 43.128 24.4162 43.5475 24.3867C43.5667 24.3868 43.586 24.3868 43.6042 24.3936C43.835 24.4618 45.8653 25.0909 46.3416 25.5338C46.6748 25.8442 47.3505 27.1424 47.8968 28.1849C48.147 28.6608 48.3607 29.0748 48.4691 29.2477C48.7808 29.7449 48.8172 29.8067 50.293 29.6689C50.6933 29.6297 51.7152 29.4557 53.0065 29.2343C56.8399 28.5741 63.2589 27.4702 64.9432 27.9824C66.3112 28.4002 67.7626 28.9638 68.1464 29.999C68.3522 30.5538 68.223 31.1999 67.7648 31.9164C67.4773 32.3645 66.9871 32.6742 66.3547 32.8832ZM43.2813 24.7443C43.1687 24.7816 43.1321 24.8258 43.1292 24.8364C43.1282 24.8527 43.1809 24.9444 43.4299 25.0484C43.9969 25.2814 45.2164 25.9281 45.3799 26.4326C45.3943 26.476 45.4191 26.5609 45.4535 26.6747C46.4257 29.9455 47.0272 30.7964 47.3578 30.9343C48.1815 31.2752 52.5973 31.9697 56.4452 32.3608C56.9058 32.4076 57.4088 32.4661 57.9387 32.5285C61.5018 32.9398 66.3834 33.5029 67.5054 31.7517C67.9154 31.1122 68.029 30.5739 67.8577 30.1041C67.5198 29.1885 66.0751 28.6452 64.8542 28.2751C63.241 27.7842 56.8673 28.8796 53.0578 29.5352C51.7579 29.7593 50.7331 29.9343 50.3204 29.9744C48.7608 30.1207 48.6032 30.0412 48.2225 29.4319C48.0949 29.2301 47.8898 28.8324 47.6243 28.3295C47.1461 27.4154 46.4263 26.0322 46.1315 25.7605C45.7752 25.4288 44.1679 24.8879 43.5411 24.697C43.4286 24.7053 43.3449 24.7233 43.2813 24.7443Z" fill="#263238"/>
<path d="M56.4314 32.5136C56.0736 32.4778 55.7014 32.437 55.3283 32.3934L55.3838 28.9853C59.0671 28.3746 63.5595 27.7213 64.8987 28.1294C67.1136 28.8033 68.978 29.7344 67.6351 31.8346C66.2921 33.9349 60.0552 32.8857 56.4314 32.5136Z" fill="#F26F1F"/>
<path d="M66.3547 32.8836C64.2815 33.5688 60.6982 33.1545 57.9073 32.8313C57.3784 32.7718 56.8783 32.7124 56.4176 32.6656C56.056 32.6278 55.6877 32.5891 55.3117 32.5464C55.2347 32.5365 55.1742 32.4699 55.1773 32.3918L55.2328 28.9836C55.2339 28.9094 55.284 28.8479 55.36 28.8357C58.7999 28.2637 63.5367 27.5553 64.9461 27.9819C66.3141 28.3997 67.7655 28.9633 68.1493 29.9985C68.3551 30.5532 68.2259 31.1994 67.7676 31.9158C67.4773 32.3649 66.9842 32.6755 66.3547 32.8836ZM56.4461 32.3641C56.9068 32.4109 57.4097 32.4693 57.9396 32.5318C61.5027 32.9431 66.3843 33.5062 67.5063 31.755C67.9163 31.1155 68.0299 30.5772 67.8586 30.1074C67.5208 29.1918 66.076 28.6485 64.8551 28.2784C63.5236 27.8742 58.9321 28.5571 55.5336 29.1186L55.4834 32.2617C55.8085 32.2956 56.1307 32.3303 56.4461 32.3641Z" fill="#263238"/>
<path d="M61.9685 33.0649C62.1743 33.0771 62.3754 33.0845 62.5764 33.0919L62.8524 28.025C62.7196 28.0304 62.5849 28.0396 62.4445 28.0507C62.4166 28.0535 62.3848 28.0544 62.3569 28.0572C62.3194 28.0599 62.279 28.0637 62.2415 28.0664L61.9685 33.0649Z" fill="#263238"/>
<path d="M59.216 28.3989C59.164 28.4064 59.1091 28.4149 59.0562 28.4196C58.9158 28.4403 58.7743 28.4582 58.6338 28.4789L58.3536 32.7286C58.5094 32.7445 58.6662 32.7633 58.8229 32.7821C58.8662 32.7871 58.9124 32.7911 58.9595 32.798L59.2496 28.3942C59.2381 28.398 59.2285 28.398 59.216 28.3989Z" fill="#263238"/>
<path d="M66.0295 28.5193C65.9314 29.5308 65.7442 31.3678 65.5238 32.9398C65.7471 32.8981 65.9617 32.8496 66.1599 32.7905C66.356 31.3582 66.5196 29.7697 66.6148 28.7785C66.4303 28.6854 66.2323 28.5999 66.0295 28.5193Z" fill="#263238"/>
<path d="M102.178 72.8804C102.851 72.9789 103.524 73.3983 103.524 73.3983C103.524 73.3983 103.497 74.1875 102.34 75.9115C103.715 76.6001 104.991 77.3597 105.367 77.1807C106.107 76.8304 107.075 72.6581 107.429 71.4692C107.783 70.2831 108.752 69.2822 108.405 67.5802C108.056 65.8754 107.06 66.0987 106.835 66.7089C106.611 67.3191 104.774 69.6789 103.652 70.4799C102.529 71.278 101.667 71.9835 101.667 71.9835C101.667 71.9835 101.505 72.7819 102.178 72.8804Z" fill="#F37630"/>
<path d="M105.385 77.3346C105.021 77.4549 104.3 77.096 103.091 76.4716C102.825 76.3348 102.547 76.1894 102.266 76.0478C102.228 76.0284 102.197 75.9936 102.186 75.9521C102.176 75.9107 102.183 75.8635 102.206 75.8269C103.105 74.4865 103.307 73.723 103.352 73.4803C103.155 73.3689 102.649 73.1061 102.15 73.0332C101.928 73.0007 101.761 72.9019 101.646 72.7377C101.422 72.417 101.507 71.9682 101.514 71.95C101.522 71.9153 101.54 71.8836 101.568 71.8615C101.576 71.8557 102.445 71.1445 103.561 70.3521C104.673 69.5607 106.476 67.2316 106.691 66.6532C106.82 66.3057 107.146 66.0822 107.488 66.1074C107.724 66.1255 108.298 66.3018 108.554 67.5496C108.808 68.7944 108.397 69.6623 107.997 70.4974C107.833 70.8438 107.677 71.168 107.574 71.5137C107.507 71.738 107.416 72.073 107.309 72.4678C106.668 74.8593 106.04 77.0284 105.43 77.3165C105.416 77.3212 105.399 77.3299 105.385 77.3346ZM102.557 75.8521C102.787 75.9685 103.012 76.0868 103.232 76.2003C104.092 76.6482 105.065 77.1515 105.298 77.0424C105.832 76.7887 106.631 73.8156 107.014 72.3888C107.123 71.9902 107.213 71.6522 107.279 71.4279C107.389 71.0611 107.558 70.7099 107.718 70.3713C108.097 69.5785 108.486 68.7597 108.251 67.6141C108.102 66.8899 107.806 66.4419 107.461 66.4147C107.257 66.3987 107.055 66.5426 106.974 66.762C106.744 67.3838 104.911 69.7677 103.736 70.6023C102.774 71.2862 101.999 71.9053 101.807 72.0617C101.796 72.1648 101.785 72.4028 101.899 72.5641C101.966 72.6578 102.064 72.712 102.198 72.7317C102.895 72.8352 103.575 73.2527 103.603 73.272C103.651 73.3011 103.678 73.3532 103.673 73.4062C103.67 73.4361 103.632 74.2126 102.557 75.8521Z" fill="#263238"/>
<path d="M107.706 66.3313C108.113 68.3958 107.699 69.2453 106.217 72.4957C105.06 75.0321 104.764 76.4622 104.694 77.1403C104.999 77.2222 105.233 77.2413 105.364 77.182C106.103 76.8317 107.072 72.6594 107.425 71.4704C107.78 70.2844 108.749 69.2834 108.401 67.5815C108.252 66.8477 107.984 66.4739 107.706 66.3313Z" fill="white"/>
<path d="M105.376 77.3377C105.218 77.3902 104.985 77.374 104.655 77.2872C104.582 77.2696 104.533 77.1991 104.544 77.1249C104.625 76.3437 104.957 74.8955 106.08 72.4312L106.166 72.2455C107.572 69.1645 107.949 68.337 107.559 66.3603C107.546 66.3034 107.571 66.2437 107.617 66.2092C107.664 66.1747 107.726 66.1701 107.78 66.1972C108.032 66.3291 108.373 66.6722 108.554 67.5497C108.808 68.7946 108.397 69.6625 107.997 70.4976C107.833 70.844 107.677 71.1682 107.574 71.5138C107.507 71.7381 107.416 72.0732 107.309 72.4679C106.668 74.8595 106.04 77.0286 105.43 77.3167C105.414 77.3253 105.397 77.331 105.376 77.3377ZM104.862 77.0228C105.156 77.0864 105.265 77.0598 105.298 77.0426C105.832 76.7889 106.631 73.8158 107.014 72.3889C107.123 71.9903 107.213 71.6524 107.28 71.4281C107.389 71.0613 107.558 70.7101 107.718 70.3714C108.097 69.5786 108.486 68.7598 108.252 67.6143C108.168 67.2054 108.05 66.9362 107.935 66.7624C108.194 68.5353 107.735 69.5408 106.44 72.3765L106.354 72.5622C105.267 74.9437 104.951 76.3419 104.862 77.0228Z" fill="#263238"/>
<path d="M58.5892 63.4924C58.5459 63.5067 58.493 63.5018 58.4536 63.4698C58.3864 63.4214 58.3702 63.3241 58.4184 63.2568C58.4184 63.2568 58.6576 62.9241 59.054 62.379C59.1022 62.3117 59.1994 62.2956 59.2676 62.3469C59.3348 62.3953 59.351 62.4927 59.2999 62.561C58.9026 63.1032 58.6672 63.4378 58.6672 63.4378C58.6441 63.4647 58.6181 63.4829 58.5892 63.4924Z" fill="white"/>
<path d="M57.6775 64.3688C57.6775 64.3688 64.7836 53.8891 71.3025 48.7363C77.8224 43.5865 80.9284 44.5919 81.3099 47.3549C81.6885 50.1188 81.0954 59.6241 80.027 65.1133C78.9586 70.6025 77.0504 79.6854 77.0504 79.6854C77.0504 79.6854 83.2309 84.1688 83.8387 84.719C84.4456 85.2664 81.6888 86.2867 80.31 85.9912C79.2138 85.7564 79.2675 85.8607 76.8486 85.2092C72.7491 84.1052 72.2686 83.3009 72.4926 82.3698C73.2139 79.3868 74.3867 76.704 74.1455 73.4741C73.7054 67.6071 73.8914 59.758 74.4259 60.4352C74.4259 60.4352 72.204 65.0216 67.6785 68.4434C63.1501 71.8661 59.6783 72.516 56.4159 70.2429" fill="#73B4EA"/>
<path d="M82.7132 85.8678C81.9018 86.136 80.9107 86.2773 80.2742 86.1442C79.954 86.0767 79.7328 86.0374 79.5184 85.9992C79.0049 85.9089 78.5184 85.8225 76.8061 85.3612C72.7277 84.263 72.081 83.4207 72.3418 82.3394C72.525 81.5758 72.7409 80.8239 72.9529 80.099C73.5794 77.9241 74.17 75.8735 73.9917 73.4928C73.7196 69.8397 73.6475 64.2331 73.9207 61.6486C72.9577 63.2413 70.9052 66.1988 67.7659 68.5717C63.1123 72.0904 59.583 72.6437 56.3215 70.3735C56.2514 70.3261 56.2362 70.2316 56.2835 70.1614C56.3307 70.0912 56.4279 70.0751 56.4952 70.1235C59.6288 72.3076 63.0494 71.7548 67.5797 68.3283C71.1882 65.6013 73.3379 62.0948 74.0328 60.8443C74.1008 60.5073 74.183 60.3004 74.2831 60.2641C74.3177 60.2526 74.4342 60.2173 74.5388 60.3497C74.5762 60.3951 74.5809 60.4577 74.5567 60.5107C74.5529 60.5184 74.4611 60.706 74.2816 61.0253C74.0139 62.7349 73.9108 68.4219 74.29 73.4745C74.4729 75.9082 73.8726 77.9877 73.2413 80.1866C73.0322 80.9106 72.8182 81.6586 72.636 82.4155C72.4634 83.1338 72.6466 83.9303 76.8826 85.0695C78.5814 85.5288 79.0603 85.6113 79.568 85.7035C79.7853 85.7408 80.0104 85.782 80.3373 85.8505C81.4844 86.0942 83.5211 85.405 83.7557 84.9422C83.7769 84.8999 83.776 84.8777 83.7347 84.84C83.1413 84.3042 77.0223 79.8615 76.9598 79.8179C76.9099 79.7831 76.8869 79.7233 76.8995 79.6645C76.918 79.575 78.8194 70.5201 79.8761 65.0925C80.9562 59.5416 81.5319 50.1095 81.159 47.3822C81.0261 46.4086 80.5522 45.7306 79.7948 45.4255C78.7962 45.0205 76.3771 44.9308 71.3957 48.8628C64.9702 53.9397 57.8748 64.3549 57.8034 64.4587C57.7562 64.5289 57.6628 64.5469 57.5927 64.4995C57.5226 64.452 57.5045 64.3585 57.5517 64.2883C57.6231 64.1845 64.7465 53.7279 71.2076 48.6232C74.9868 45.6375 78.0759 44.4015 79.906 45.1416C80.771 45.4913 81.3073 46.2514 81.4592 47.3408C81.8359 50.0893 81.2582 59.5734 80.1733 65.1484C79.1767 70.2736 77.4238 78.6342 77.217 79.627C77.9749 80.1758 83.36 84.0939 83.9381 84.6123C84.0802 84.7419 84.1136 84.9106 84.0286 85.0799C83.8771 85.3676 83.3513 85.6569 82.7132 85.8678Z" fill="#73B4EA"/>
<path d="M60.1853 61.3146C60.1391 61.3298 60.0881 61.321 60.0468 61.2929C59.9786 61.2416 59.9663 61.1462 60.0145 61.0789C61.5054 59.0871 63.6238 56.3582 65.2622 54.6771C65.3191 54.6166 65.4182 54.6159 65.4758 54.6739C65.5372 54.7339 65.537 54.8302 65.4792 54.8879C63.8533 56.5584 61.7436 59.2748 60.2575 61.2618C60.2402 61.2868 60.2141 61.305 60.1853 61.3146Z" fill="white"/>
<path d="M71.863 64.2416C71.8225 64.255 71.7764 64.251 71.736 64.2258C71.664 64.1822 71.642 64.0867 71.6854 64.0146L73.4704 61.1102C73.4427 60.503 73.2474 54.3882 75.936 50.2831C75.9832 50.2129 76.0756 50.192 76.1457 50.2394C76.2159 50.2869 76.2369 50.3795 76.1896 50.4496C73.4287 54.6653 73.7725 61.0745 73.7772 61.1372C73.7781 61.169 73.7723 61.1998 73.7549 61.2248L71.9478 64.1687C71.9256 64.2081 71.8976 64.2302 71.863 64.2416Z" fill="white"/>
<path d="M80.9727 59.0287C80.9553 59.0344 80.9342 59.0382 80.914 59.0353C80.8293 59.0311 80.7669 58.9587 80.7709 58.8739L80.8623 57.3767C80.8663 57.2919 80.9385 57.2295 81.0232 57.2336C81.1078 57.2378 81.1702 57.3102 81.1662 57.395L81.0749 58.8922C81.0738 58.9568 81.0304 59.0096 80.9727 59.0287Z" fill="white"/>
<path d="M81.1444 56.2142C81.127 56.2199 81.1059 56.2237 81.0857 56.2208C81.001 56.2166 80.9386 56.1442 80.9427 56.0594L81.2712 50.6381C81.2753 50.5533 81.3475 50.4909 81.4322 50.4951C81.5168 50.4992 81.5792 50.5717 81.5752 50.6564L81.2466 56.0777C81.2426 56.1432 81.2021 56.1951 81.1444 56.2142Z" fill="white"/>
<path d="M80.305 85.996C81.6829 86.2886 84.4436 85.2702 83.8338 84.7238C83.2269 84.1765 77.0454 79.6902 77.0454 79.6902C77.0454 79.6902 77.5511 77.2856 78.1879 74.2021C76.249 74.5765 74.9426 74.132 74.148 73.637C74.3402 76.7964 73.1992 79.4398 72.4877 82.3746C72.2637 83.3057 72.7441 84.11 76.8436 85.214C79.2626 85.8655 79.2089 85.7612 80.305 85.996Z" fill="#FEDEA5"/>
<path d="M82.7132 85.8679C81.9018 86.1361 80.9108 86.2774 80.2742 86.1443C79.954 86.0768 79.7329 86.0375 79.5184 85.9993C79.0049 85.909 78.5184 85.8226 76.8061 85.3613C72.7277 84.2631 72.081 83.4208 72.3418 82.3395C72.526 81.5788 72.74 80.8307 72.9491 80.1068C73.562 77.9781 74.14 75.967 73.9982 73.648C73.9954 73.5912 74.0224 73.5373 74.0735 73.5076C74.1216 73.4788 74.1822 73.4781 74.2312 73.51C74.9614 73.9653 76.2351 74.4271 78.1615 74.0536C78.2125 74.0432 78.2625 74.0588 78.2971 74.0955C78.3316 74.1322 78.3489 74.1843 78.3363 74.2334C77.7752 76.9548 77.3141 79.1456 77.2161 79.6242C77.974 80.173 83.3591 84.0911 83.9372 84.6095C84.0793 84.7391 84.1126 84.9078 84.0277 85.0771C83.8771 85.3677 83.3513 85.657 82.7132 85.8679ZM74.3151 73.9092C74.3994 76.1605 73.8368 78.1216 73.2423 80.1896C73.0351 80.9097 72.8211 81.6578 72.6379 82.4117C72.4653 83.13 72.6485 83.9266 76.8846 85.0657C78.5834 85.5251 79.0623 85.6075 79.57 85.6998C79.7873 85.7371 80.0123 85.7783 80.3392 85.8468C81.4863 86.0904 83.523 85.4012 83.7576 84.9385C83.7789 84.8961 83.778 84.874 83.7367 84.8363C83.1432 84.3005 77.0242 79.8578 76.9618 79.8142C76.9118 79.7793 76.8888 79.7195 76.9015 79.6608C76.9015 79.6608 77.3838 77.3699 77.9954 74.3942C76.2875 74.673 75.082 74.3203 74.3151 73.9092Z" fill="#263238"/>
<path d="M77.0459 79.6902C77.0459 79.6902 76.5662 79.5278 76.3394 80.4598C76.1125 81.3919 76.0782 82.2571 76.0782 82.2571L73.0064 80.4539C72.8244 81.0855 72.6442 81.7228 72.4881 82.3747C72.2642 83.3058 72.7446 84.11 76.8441 85.2141C79.263 85.8655 79.2094 85.7613 80.3055 85.9961C81.6834 86.2887 84.444 85.2703 83.8343 84.7239C83.2264 84.1736 77.0459 79.6902 77.0459 79.6902Z" fill="#F37630"/>
<path d="M82.7133 85.8678C81.9019 86.1359 80.9109 86.2773 80.2743 86.1442C79.9541 86.0767 79.733 86.0374 79.5185 85.9991C79.005 85.9088 78.5185 85.8225 76.8062 85.3612C72.7278 84.263 72.0811 83.4206 72.3419 82.3393C72.5057 81.6624 72.6965 80.9894 72.8611 80.4118C72.8746 80.3656 72.9074 80.3291 72.9498 80.3119C72.995 80.2937 73.0412 80.2977 73.0844 80.3219L75.9449 81.9992C75.9715 81.6726 76.0361 81.0638 76.1922 80.4215C76.294 80.0027 76.4618 79.7257 76.692 79.5983C76.898 79.4852 77.0759 79.5388 77.0942 79.5456C77.1086 79.5505 77.124 79.5582 77.1364 79.567C77.3891 79.7499 83.3304 84.062 83.9373 84.6094C84.0794 84.7389 84.1127 84.9077 84.0278 85.077C83.8772 85.3675 83.3514 85.6569 82.7133 85.8678ZM73.0982 80.6833C72.9471 81.2148 72.7786 81.8098 72.6342 82.4096C72.4616 83.1279 72.6448 83.9245 76.8808 85.0636C78.5796 85.523 79.0585 85.6055 79.5662 85.6977C79.7836 85.735 80.0086 85.7762 80.3355 85.8447C81.4826 86.0883 83.5193 85.3991 83.7539 84.9364C83.7751 84.8941 83.7742 84.8719 83.7329 84.8342C83.1577 84.3149 77.4258 80.1518 76.983 79.8295C76.9561 79.8256 76.8964 79.8293 76.829 79.8676C76.727 79.927 76.5833 80.0836 76.4845 80.4919C76.2644 81.396 76.2301 82.2516 76.2291 82.2583C76.2271 82.3104 76.1953 82.3594 76.15 82.3872C76.1038 82.4121 76.0461 82.4119 75.999 82.3858L73.0982 80.6833Z" fill="#F37630"/>
<path d="M76.8455 85.214C79.2644 85.8655 79.2108 85.7612 80.3069 85.996C81.5473 86.2602 83.9035 85.4622 83.9228 84.9004C79.4631 86.1176 74.6742 83.8194 72.4623 82.5248C72.326 83.3917 72.9671 84.1685 76.8455 85.214Z" fill="white"/>
<path d="M82.6896 85.8818C81.9013 86.1423 80.9372 86.2876 80.2747 86.1438C79.9546 86.0763 79.7334 86.037 79.519 85.9988C79.0055 85.9085 78.5189 85.8221 76.8066 85.3608C72.8609 84.2958 72.1612 83.4774 72.3093 82.5007C72.3181 82.4497 72.3489 82.4074 72.3932 82.3863C72.4404 82.3643 72.4923 82.3664 72.5365 82.3936C74.9108 83.7821 79.5402 85.9372 83.8797 84.7533C83.9269 84.741 83.9749 84.7508 84.0134 84.7798C84.0518 84.8088 84.0738 84.8561 84.0708 84.9052C84.0658 85.0546 83.9683 85.2056 83.7824 85.3505C83.5358 85.5443 83.1401 85.7329 82.6896 85.8818ZM72.5964 82.7782C72.6251 83.369 73.2432 84.086 76.8851 85.0652C78.5839 85.5246 79.0628 85.607 79.5705 85.6993C79.7878 85.7366 80.0128 85.7778 80.3398 85.8463C81.2561 86.041 82.8806 85.6261 83.5433 85.1502C79.3456 86.0946 74.9861 84.1456 72.5964 82.7782Z" fill="#263238"/>
</svg>
